<?xml version="1.0" encoding="UTF-8"?>
<svg version="1.1" xmlns="http://www.w3.org/2000/svg" width="512" height="512">
<path d="M0 0 C1.53110413 0.00323273 1.53110413 0.00323273 3.09313965 0.00653076 C17.73579998 0.05619901 32.04738899 0.36670312 46.4375 3.3125 C47.43410645 3.50585938 48.43071289 3.69921875 49.45751953 3.8984375 C88.07618568 11.52914208 124.20265454 27.25047736 155.4375 51.3125 C156.24960937 51.93253906 157.06171875 52.55257812 157.8984375 53.19140625 C174.96358372 66.51514029 191.32394896 82.13175144 204.16357422 99.59423828 C205.46000666 101.34285682 206.79038718 103.06078803 208.12890625 104.77734375 C215.99317241 114.9920598 222.3786092 125.94975258 228.4375 137.3125 C229.10096436 138.55314209 229.10096436 138.55314209 229.77783203 139.81884766 C241.29454842 161.72199262 248.9655584 186.01309889 253.4375 210.3125 C253.59831055 211.11316895 253.75912109 211.91383789 253.92480469 212.73876953 C259.4169441 240.81662453 259.17146692 274.30227935 253.4375 302.3125 C253.24414062 303.30910645 253.05078125 304.30571289 252.8515625 305.33251953 C244.73278127 346.42132055 227.36334885 383.51549494 201.4375 416.3125 C200.62539063 417.35019531 199.81328125 418.38789063 198.9765625 419.45703125 C186.31157313 435.01858759 171.76124403 449.61464417 155.4375 461.3125 C154.09224408 462.30180622 152.74720229 463.29140366 151.40234375 464.28125 C116.22863227 489.89565441 75.59810925 505.77286752 32.4375 511.3125 C31.77029434 511.39982895 31.10308868 511.4871579 30.41566467 511.57713318 C24.6992952 512.27337492 19.06007373 512.48706148 13.3046875 512.515625 C12.3583847 512.52268463 11.41208191 512.52974426 10.43710327 512.53701782 C-28.70800628 512.76278019 -28.70800628 512.76278019 -45.5625 509.3125 C-47.05740967 509.02246094 -47.05740967 509.02246094 -48.58251953 508.7265625 C-89.67132055 500.60778127 -126.76549494 483.23834885 -159.5625 457.3125 C-160.60019531 456.50039063 -161.63789063 455.68828125 -162.70703125 454.8515625 C-177.6973447 442.65148711 -192.01334979 428.65122724 -203.35302734 412.96630859 C-204.61636046 411.23885229 -205.92205472 409.55071483 -207.23828125 407.86328125 C-229.98150814 378.35354111 -244.37291698 342.37805424 -251.8125 306.0625 C-252.03909302 304.96723999 -252.03909302 304.96723999 -252.27026367 303.84985352 C-255.27921152 288.27562091 -255.96969292 272.82493579 -255.9375 257 C-255.93695618 255.99048279 -255.93641235 254.98096558 -255.93585205 253.94085693 C-255.89508601 237.43126461 -254.98779309 221.51467999 -251.5625 205.3125 C-251.34287598 204.27061523 -251.12325195 203.22873047 -250.89697266 202.15527344 C-244.26814582 171.76494062 -232.70140581 139.21260705 -213.5625 114.3125 C-211.5625 113.3125 -211.5625 113.3125 -208.25 113.5546875 C-204.48917727 113.6496289 -204.48917727 113.6496289 -201.875 111.2578125 C-197.27794525 106.06316853 -197.27794525 106.06316853 -195.42578125 99.63671875 C-195.71588912 98.01463734 -196.03554842 96.39743893 -196.390625 94.78833008 C-196.65533543 90.97522152 -194.89280491 89.46893611 -192.57495117 86.59887695 C-188.57927389 82.0593261 -184.3534667 77.75871742 -180.0625 73.5 C-179.57450928 73.01349976 -179.08651855 72.52699951 -178.58374023 72.02575684 C-171.00608505 64.48964173 -163.25476385 57.54389207 -154.5625 51.3125 C-153.41694913 50.46230962 -152.27243929 49.61071499 -151.12890625 48.7578125 C-142.93522987 42.70729138 -134.41241422 37.34606952 -125.5625 32.3125 C-124.93069824 31.94801758 -124.29889648 31.58353516 -123.64794922 31.20800781 C-97.56089649 16.27664598 -68.22749753 6.80329732 -38.5625 2.3125 C-37.44367432 2.13517334 -36.32484863 1.95784668 -35.17211914 1.77514648 C-23.45014016 0.09373654 -11.82750982 -0.04483932 0 0 Z " fill="#000202" transform="translate(255.5625,-0.31250000000000006)"/>
<path d="M0 0 C12.87887946 -0.6593283 25.22379483 0.31592686 37.9375 2.25 C38.62979706 2.35251068 39.32209412 2.45502136 40.03536987 2.56063843 C49.6085559 3.99628338 58.7664007 6.12279205 68 9 C68 9.66 68 10.32 68 11 C66.31824617 12.47263908 64.57788753 13.87873465 62.8125 15.25 C57.52315563 19.48555468 52.5794564 23.55694224 50 30 C49.17036355 37.8333116 48.91266286 45.60364043 54 52 C58.28695477 56.53076262 62.51154897 59.63404533 68.8671875 60.30078125 C75.50402675 60.42601613 75.50402675 60.42601613 81.75 58.5 C85.989796 56.54317108 88.36412691 56.46801456 93 57 C95.5 58.625 95.5 58.625 97 61 C97.5625 63.9375 97.5625 63.9375 97 67 C92.88076996 71.98510901 87.62029305 74.81898109 82.0625 78 C80.08845512 79.14828873 78.11449941 80.29673077 76.140625 81.4453125 C75.12806641 82.03086914 74.11550781 82.61642578 73.07226562 83.21972656 C64.67815359 88.08382899 56.33456763 93.03472567 48 98 C47.36900391 98.37382813 46.73800781 98.74765625 46.08789062 99.1328125 C35.6806961 105.33076657 28.94809431 111.74225524 24 123 C21.68690505 132.80829499 20.70669029 146.89226138 25.25 156.0625 C26.59484219 158.20511461 26.59484219 158.20511461 28 160 C28.5775 160.9075 29.155 161.815 29.75 162.75 C33.09691862 166.09691862 36.99289605 168.50840331 41 171 C40.0843974 172.22995949 39.16745797 173.45892386 38.25 174.6875 C37.73953125 175.37199219 37.2290625 176.05648437 36.703125 176.76171875 C35.50376561 178.33794106 34.26234937 179.88259754 32.9921875 181.40234375 C30.90658314 184.12180826 29.39686747 186.80736139 27.875 189.875 C27.37742187 190.86242187 26.87984375 191.84984375 26.3671875 192.8671875 C23.51824288 199.39534061 22.63798323 205.15824018 22.6875 212.1875 C22.69595947 213.44542358 22.69595947 213.44542358 22.70458984 214.72875977 C22.99648242 229.74388722 28.12220318 242.84547961 38.58984375 253.75 C49.39699115 263.83900632 61.49651953 268.79854849 76.2043457 269.23925781 C84.84082798 269.53066988 92.10809675 270.10809675 98.5 276.5 C100.60626727 280.01044545 101.12573693 282.98929698 101.11784363 287.0447998 C101.11896149 287.84071533 101.12007935 288.63663086 101.12123108 289.45666504 C101.11572487 290.75332092 101.11572487 290.75332092 101.11010742 292.07617188 C101.11065013 293.97814943 101.11123713 295.88012697 101.11186218 297.78210449 C101.11043402 298.78954208 101.10900585 299.79697968 101.10753441 300.83494568 C101.10400666 306.18688951 101.12983438 311.53872931 101.15039062 316.890625 C101.17467684 323.69344839 101.19047426 330.49596753 101.17504883 337.29882812 C101.16333767 342.80209415 101.18092016 348.30460604 101.21749306 353.80775452 C101.22606812 355.89671713 101.22409034 357.98575265 101.210989 360.07469177 C100.96975561 376.49484398 100.96975561 376.49484398 108 391 C115.06784111 397.80953739 121.69730011 399.53785937 131.41796875 399.375 C139.21086589 398.5591678 144.4868275 395.15568989 149.38867188 389.22436523 C152.72568327 384.61777269 155.31068162 379.56404332 158 374.5625 C159.32479084 372.13026649 160.65620377 369.70168639 161.98828125 367.2734375 C162.32322098 366.66140976 162.65816071 366.04938202 163.00325012 365.41880798 C166.28435292 359.441348 169.72253329 353.56003786 173.1875 347.6875 C178.11672149 339.31345607 182.84724499 330.85678148 187.45288086 322.30102539 C191.23223754 315.31577931 195.21273427 308.46383132 199.25 301.625 C203.27031917 294.7978984 207.20521203 287.96289276 210.75 280.875 C211.06098633 280.25447754 211.37197266 279.63395508 211.69238281 278.99462891 C215.15000706 271.90353553 216.41460865 266.06453533 216.4375 258.25 C216.44136719 257.33637695 216.44523437 256.42275391 216.44921875 255.48144531 C216.29398516 246.12538738 213.92541842 237.81804694 211 229 C211 228.67 211 228.34 211 228 C211.589021 227.96559814 212.17804199 227.93119629 212.78491211 227.89575195 C215.50440162 227.72393584 218.22038861 227.51842461 220.9375 227.3125 C222.32678711 227.23225586 222.32678711 227.23225586 223.74414062 227.15039062 C229.81847827 226.66018092 234.06713819 225.32215285 239.22485352 222.04760742 C241 221 241 221 243 221 C243.33978316 251.82878726 242.57135613 281.35646709 233 311 C232.61400635 312.21864746 232.61400635 312.21864746 232.22021484 313.46191406 C217.59810648 359.15290655 189.63070235 401.89171168 151 431 C150.17000488 431.63663574 150.17000488 431.63663574 149.32324219 432.28613281 C140.26524786 439.22092934 130.94518051 445.41506873 121 451 C120.28360352 451.40605469 119.56720703 451.81210937 118.82910156 452.23046875 C107.33121783 458.69274668 95.61742235 463.76340987 83.20556641 468.20410156 C81.39215846 468.8584861 79.59069242 469.54587066 77.79296875 470.2421875 C36.15143948 486.34940572 -18.58353821 487.77252991 -61 474 C-63.96966981 462.22128377 -66.92391975 450.43911949 -69.75 438.625 C-69.94811279 437.80169189 -70.14622559 436.97838379 -70.3503418 436.13012695 C-70.91476605 433.75645897 -71.46297311 431.3800111 -72 429 C-72.18763916 428.17121338 -72.37527832 427.34242676 -72.56860352 426.48852539 C-73.74157679 421.02008297 -74.39220684 415.77868858 -74.4375 410.1875 C-74.47037109 409.48302734 -74.50324219 408.77855469 -74.53710938 408.05273438 C-74.67384226 394.06868893 -65.27297646 380.34098898 -59 368.3125 C-58.10092486 366.57780429 -57.20248351 364.84277994 -56.3046875 363.10742188 C-55.01048874 360.60632626 -53.71587433 358.10545889 -52.41874695 355.60588074 C-42.70101753 338.44714434 -42.70101753 338.44714434 -42.72265625 319.3125 C-46.4858718 309.31788705 -51.25224489 303.5571033 -61 299 C-65.49708073 297.22861426 -70.02909715 295.55097433 -74.59960938 293.97875977 C-79.75984851 292.13992912 -83.66874983 290.5838544 -87 286 C-87.71484375 282.984375 -87.71484375 282.984375 -87.9375 279.75 C-88.73019467 273.37961735 -90.24741266 268.48126099 -95 264 C-101.8617334 258.72098707 -108.13473928 258.3719496 -116.59376144 258.62237167 C-118.70059282 258.68114239 -120.80491055 258.70199825 -122.9125061 258.71292114 C-128.89714089 258.74873612 -134.87984558 258.83540187 -140.86279297 258.98242188 C-175.08958596 259.77573195 -175.08958596 259.77573195 -189 247 C-197.51621317 238.26423544 -197.51621317 238.26423544 -198.37866211 232.44506836 C-198 230 -198 230 -196.30688477 228.33422852 C-195.52627686 227.85397217 -194.74566895 227.37371582 -193.94140625 226.87890625 C-193.07966797 226.33556641 -192.21792969 225.79222656 -191.33007812 225.23242188 C-190.41677734 224.68134766 -189.50347656 224.13027344 -188.5625 223.5625 C-186.79268145 222.46009652 -185.02314848 221.35723443 -183.25390625 220.25390625 C-182.37984131 219.71830078 -181.50577637 219.18269531 -180.60522461 218.63085938 C-177.30486958 216.56485135 -174.10179297 214.37023565 -170.90869141 212.14282227 C-168.055783 210.4346534 -166.22644462 210.28301231 -163 211 C-160.125 212.6875 -160.125 212.6875 -157 215 C-152.47334057 218.32898079 -148.79923618 220.82477469 -143.01953125 220.42578125 C-138.38641839 219.44897409 -134.41892226 217.46621966 -131.125 214.0625 C-128.26953884 208.82748788 -127.23565593 203.54502057 -126.125 197.75 C-124.00900957 187.36937315 -121.8768586 178.6087068 -113 172 C-103.2719245 167.15351491 -92.61276088 164.0611286 -82.31445312 160.65136719 C-80.19703068 159.94841338 -78.08279787 159.23646422 -75.96875 158.5234375 C-74.72544922 158.11013184 -73.48214844 157.69682617 -72.20117188 157.27099609 C-69.31487238 156.12501721 -67.40142446 154.90795256 -65 153 C-64.34 153 -63.68 153 -63 153 C-62.31225595 151.67741528 -61.65288627 150.34013497 -61 149 C-60.46375 148.05125 -59.9275 147.1025 -59.375 146.125 C-56.68104177 139.57250785 -56.56145054 131.70994335 -59.11328125 125.12890625 C-60.54593044 122.62265891 -62.08222579 120.24071951 -63.73242188 117.87304688 C-65.25171897 115.62804547 -66.6621602 113.32715728 -68.078125 111.015625 C-69.19664708 109.21795943 -70.31644637 107.42108795 -71.4375 105.625 C-71.96239014 104.76825684 -72.48728027 103.91151367 -73.02807617 103.02880859 C-76.98415488 96.8458062 -81.37937385 92.31031308 -88 89 C-98.16194287 87.66253941 -105.24897556 89.30011143 -114.18774414 94.15405273 C-118.30299767 96.37041423 -121.18194159 97.632459 -126 97 C-129.20907572 94.8317056 -129.91479011 93.27567907 -131.0625 89.5625 C-131 86 -131 86 -128.8984375 83.50634766 C-125.90903853 80.92134346 -123.06033969 79.16522678 -119.5625 77.3359375 C-118.95994385 77.01718658 -118.3573877 76.69843567 -117.73657227 76.37002563 C-115.82880487 75.3629871 -113.91477688 74.36863485 -112 73.375 C-110.08674302 72.37153004 -108.17486416 71.3654839 -106.26342773 70.35855103 C-104.53073654 69.44746335 -102.79475415 68.54264288 -101.05859375 67.63818359 C-98.31694346 66.169755 -95.66504103 64.60102223 -93 63 C-88.81075456 61.46394334 -84.25368687 61.11478431 -80.05078125 62.765625 C-74.7657147 65.71446371 -71.56478225 69.80169205 -67.9375 74.5625 C-63.68576017 79.91146301 -58.73739982 84.25546389 -52 86 C-47.62418264 86.44628578 -43.27989116 86.5574667 -38.88647461 86.5559082 C-36.83318858 86.56243424 -34.78484692 86.61689163 -32.73242188 86.67382812 C-22.58323547 86.80916696 -14.86415647 84.7732781 -6.91064453 78.29931641 C-1.44011117 72.7396138 1.0591674 65.60237819 3.8125 58.4375 C4.28880859 57.24447266 4.76511719 56.05144531 5.25585938 54.82226562 C10.2466959 42.19425591 14.1904035 29.9733284 8.875 16.625 C6.70975981 12.03394631 4.11989556 7.84499491 1.13671875 3.7421875 C0 2 0 2 0 0 Z " fill="#008BDE" transform="translate(254,15)"/>
<path d="M0 0 C3.06030706 1.3606741 6.07951028 2.78651627 9.09399414 4.24584961 C10.18357422 4.77227051 11.2731543 5.29869141 12.39575195 5.84106445 C27.42062498 13.24350922 41.19062544 22.22739458 54.15649414 32.80834961 C55.15165039 33.59983398 56.14680664 34.39131836 57.17211914 35.20678711 C71.55564854 46.83931849 85.07556653 60.17744969 95.95776367 75.16088867 C97.17001664 76.82693409 98.40909777 78.47021676 99.65258789 80.11303711 C119.78182439 107.06700598 133.67887245 138.88894553 140.70776367 171.72583008 C141.10603037 173.57415161 141.54807469 175.41291919 141.99633789 177.24975586 C142.52266324 180.07347213 142.82459411 182.01717641 142.15649414 184.80834961 C138.15307579 189.71634347 133.15777926 192.1106295 127.15649414 193.80834961 C123.95263672 193.97192383 123.95263672 193.97192383 120.55102539 193.86303711 C119.32061523 193.83854492 118.09020508 193.81405273 116.82250977 193.78881836 C114.24156485 193.71817922 111.66081626 193.6399846 109.08032227 193.55444336 C107.8537793 193.5325293 106.62723633 193.51061523 105.36352539 193.48803711 C104.24437744 193.45436035 103.12522949 193.42068359 101.97216797 193.38598633 C99.06324655 193.54378982 99.06324655 193.54378982 97.26074219 195.64013672 C95.61561771 198.87037119 96.34993589 201.43165071 97.15649414 204.80834961 C97.36790039 205.69474121 97.57930664 206.58113281 97.79711914 207.49438477 C98.55432823 210.54487007 99.34996525 213.58305093 100.15649414 216.62084961 C100.56641602 218.19382813 100.56641602 218.19382813 100.98461914 219.79858398 C102.22776109 224.92793267 102.22776109 224.92793267 104.15649414 229.80834961 C104.3358557 232.32529216 104.43426207 234.7891165 104.46899414 237.30834961 C104.49799805 237.97866211 104.52700195 238.64897461 104.55688477 239.33959961 C104.6903816 250.18364986 98.32950642 259.48181752 93.15649414 268.62084961 C92.48433751 269.8181914 91.81263201 271.01578654 91.14135742 272.21362305 C86.1770443 281.05804795 81.1508388 289.86753648 76.10180664 298.66381836 C73.01139492 304.0519378 69.95796001 309.46060761 66.90649414 314.87084961 C64.65818697 318.85097487 62.40780504 322.82992268 60.15649414 326.80834961 C59.82699768 327.39086487 59.49750122 327.97338013 59.15802002 328.57354736 C57.03304159 332.32939583 54.90389041 336.08283662 52.7701416 339.83370972 C52.08007248 341.04798215 51.39115099 342.26290764 50.70349121 343.47854614 C39.12949727 363.93256259 39.12949727 363.93256259 34.15649414 365.80834961 C29.94212496 366.14282335 27.25336456 366.24709778 23.34399414 364.68334961 C20.16009189 361.95429054 18.43640449 358.96937177 17.88947105 354.74682236 C17.79055658 352.2972394 17.78861157 349.86474156 17.81933594 347.41333008 C17.8185051 346.02178459 17.8185051 346.02178459 17.81765747 344.60212708 C17.81791676 342.59365647 17.82477003 340.58517817 17.83749962 338.57674789 C17.85592582 335.38869645 17.85319236 332.20130008 17.84443665 329.01321411 C17.82266664 319.95100788 17.83342766 310.88905275 17.87158203 301.8269043 C17.89347019 296.27601418 17.88605118 290.72576758 17.86112404 285.17490005 C17.85754859 283.06916322 17.86509489 280.96337484 17.88437462 278.85772324 C18.06157335 261.05340825 18.06157335 261.05340825 9.44340515 245.83908081 C3.81521554 240.23352175 -5.52758904 236.74241226 -13.37866211 236.63256836 C-28.92669337 236.26829374 -39.17513602 234.32598763 -50.59741211 223.08178711 C-59.33390937 213.49134651 -61.43477988 202.818604 -61.15600586 190.23413086 C-60.88197916 184.80497696 -59.56634849 180.51376204 -56.84350586 175.80834961 C-56.43100586 175.04393555 -56.01850586 174.27952148 -55.59350586 173.49194336 C-49.63304136 163.48445893 -40.88218602 157.92950997 -29.84350586 154.80834961 C-28.92341736 154.54384758 -28.92341736 154.54384758 -27.98474121 154.27400208 C-25.64394219 153.76495068 -23.5333643 153.67674108 -21.13842773 153.66650391 C-20.21066528 153.65946945 -19.28290283 153.652435 -18.32702637 153.64518738 C-17.3321521 153.6410231 -16.33727783 153.63685883 -15.31225586 153.63256836 C-13.20156869 153.60938024 -11.09089156 153.58526333 -8.98022461 153.56030273 C-5.65544814 153.52512122 -2.33104394 153.49579947 0.99389648 153.48242188 C4.20480106 153.46697798 7.41462424 153.42680386 10.62524414 153.38256836 C11.62011841 153.38447678 12.61499268 153.38638519 13.64001465 153.38835144 C19.06043478 153.34114054 19.06043478 153.34114054 23.81860352 150.99902344 C25.47881228 148.72041306 25.47881228 148.72041306 25.09399414 145.18334961 C24.48140964 141.55318037 24.48140964 141.55318037 21.15649414 139.80834961 C18.18764949 139.56690798 15.30462614 139.43527864 12.33227539 139.39428711 C11.04017403 139.36523788 11.04017403 139.36523788 9.7219696 139.33560181 C6.97107846 139.27582931 4.22014541 139.22943013 1.46899414 139.18334961 C-0.39625847 139.14516767 -2.26149349 139.10611581 -4.12670898 139.06616211 C-8.69883172 138.97012971 -13.271037 138.88609011 -17.84350586 138.80834961 C-17.22708052 136.18106103 -16.60082799 133.55681379 -15.96850586 130.93334961 C-15.79448242 130.18698242 -15.62045898 129.44061523 -15.44116211 128.67163086 C-14.07006836 123.03491211 -14.07006836 123.03491211 -11.84350586 120.80834961 C-9.13102722 120.53419495 -9.13102722 120.53419495 -5.63720703 120.50195312 C-3.67958687 120.47797203 -3.67958687 120.47797203 -1.68241882 120.45350647 C-0.25044137 120.44712934 1.18154075 120.44173673 2.61352539 120.43725586 C4.07842605 120.42829117 5.54332575 120.41916936 7.00822449 120.40989685 C10.08249131 120.3933911 13.15664905 120.38570419 16.23095703 120.3828125 C20.16556705 120.37743416 24.09914766 120.33978564 28.03346729 120.29406834 C31.0610068 120.26428201 34.08829924 120.25708859 37.11597252 120.25608635 C38.56604401 120.25188523 40.01611632 120.23945498 41.46604347 120.2185688 C43.49785691 120.19163685 45.53004151 120.19958961 47.56201172 120.20898438 C48.71735916 120.20391373 49.8727066 120.19884308 51.06306458 120.19361877 C55.09394198 120.99464061 56.5884407 122.67711314 59.15649414 125.80834961 C60.06387555 128.83483296 59.62082547 130.55803031 59.15649414 133.80834961 C56.57440881 137.96213905 52.67186397 138.82892623 48.17993164 140.09741211 C45.9644979 140.71185847 45.9644979 140.71185847 44.15649414 142.80834961 C43.59966154 147.43273394 43.59966154 147.43273394 45.42211914 151.49975586 C48.13190519 153.54430164 50.3123949 153.34526326 53.61743164 153.21069336 C59.3634323 152.30017325 64.2550932 150.00612276 68.08618164 145.57788086 C73.18389317 138.10205031 73.91110455 131.78927632 73.15649414 122.80834961 C71.50947992 116.88850994 68.21624724 113.28072919 63.15649414 109.80834961 C58.23632137 107.3703577 54.44907265 106.42617991 48.97119141 106.38842773 C48.29051605 106.37995819 47.6098407 106.37148865 46.90853882 106.36276245 C44.67979761 106.33954591 42.45175287 106.33836646 40.22290039 106.33959961 C38.6602298 106.33248924 37.09756179 106.32478898 35.53489685 106.31652832 C32.26765678 106.30311917 29.00065823 106.30149881 25.73339844 106.30737305 C21.56267305 106.31326907 17.39311178 106.28266637 13.22261143 106.24225616 C9.99763329 106.21630991 6.77293303 106.21350789 3.54786491 106.21714783 C2.01097626 106.21546336 0.47407383 106.20588604 -1.06271172 106.18800354 C-12.93169695 105.93878191 -12.93169695 105.93878191 -22.84350586 111.80834961 C-26.27417997 115.94337647 -27.94857774 119.55300787 -28.78100586 124.87084961 C-29.62914416 130.11315206 -31.79392799 133.39817877 -35.84350586 136.80834961 C-40.29012521 139.54614417 -44.76853395 139.45878114 -49.84350586 138.80834961 C-54.83019593 136.31500458 -58.3402606 132.81484012 -60.84350586 127.80834961 C-61.02228683 124.91854569 -61.12130492 122.07509423 -61.15600586 119.18334961 C-61.19951172 118.0096582 -61.19951172 118.0096582 -61.24389648 116.81225586 C-61.31717612 110.01416025 -59.80698534 105.03173836 -55.15380859 99.97045898 C-50.18417499 95.3829112 -44.57149114 92.01784136 -38.71850586 88.68334961 C-36.77178879 87.55331781 -34.82517736 86.42310401 -32.87866211 85.29272461 C-31.88495605 84.71973633 -30.89125 84.14674805 -29.86743164 83.55639648 C-21.48508787 78.71079812 -13.15987008 73.76614829 -4.84350586 68.80834961 C-4.19655762 68.42388672 -3.54960937 68.03942383 -2.88305664 67.64331055 C-1.32141027 66.70959736 0.23063515 65.75987266 1.78149414 64.80834961 C2.55750977 64.33397461 3.33352539 63.85959961 4.13305664 63.37084961 C9.67974826 59.08769006 12.49094721 53.39501038 13.48071289 46.57397461 C13.73598661 41.46850019 12.6641412 37.95070255 10.12915039 33.53491211 C9.15649414 31.80834961 9.15649414 31.80834961 8.15649414 28.80834961 C6.4588018 27.70665977 6.4588018 27.70665977 4.15649414 26.80834961 C3.18711914 26.27209961 2.21774414 25.73584961 1.21899414 25.18334961 C-4.51909375 22.75426705 -12.0754238 22.61626547 -17.99194336 24.48803711 C-19.61110934 25.25732411 -21.22741395 26.03262549 -22.84350586 26.80834961 C-26.75667974 27.27262448 -28.87233615 27.38109072 -32.28100586 25.37084961 C-34.21827155 22.19373388 -34.84034225 20.02171492 -34.67553711 16.30444336 C-32.80103892 10.6809488 -27.31477685 7.37627614 -22.84350586 3.80834961 C-21.98370117 2.97819336 -21.12389648 2.14803711 -20.23803711 1.29272461 C-19.02180664 0.15577148 -19.02180664 0.15577148 -17.78100586 -1.00415039 C-17.0681543 -1.6912207 -16.35530273 -2.37829102 -15.62084961 -3.08618164 C-10.24355867 -5.22650982 -5.07268059 -2.1258482 0 0 Z " fill="#97DA7B" transform="translate(351.843505859375,34.191650390625)"/>
<path d="M0 0 C2.4570687 -0.26962624 4.19351518 -0.266563 6.57397461 0.44042969 C9.42571504 3.30218163 11.15436066 6.62830359 13.01147461 10.19042969 C13.78394531 11.57101563 13.78394531 11.57101563 14.57202148 12.97949219 C15.94441233 15.44872213 17.27505478 17.93191249 18.57397461 20.44042969 C19.1349585 21.50656494 19.1349585 21.50656494 19.70727539 22.59423828 C22.59295657 28.74114563 20.62204276 36.05310359 18.51147461 42.12792969 C17.80902413 43.92572668 17.10544696 45.72331209 16.36987305 47.5078125 C15.81757131 48.84892309 15.27737583 50.19505823 14.74682617 51.54492188 C13.89718222 53.70650173 13.02142858 55.85558949 12.13647461 58.00292969 C11.87278076 58.6696167 11.60908691 59.33630371 11.33740234 60.02319336 C9.2191343 64.97378772 6.87024109 67.4007787 2.57397461 70.44042969 C-2.39493383 72.0967325 -7.53539626 71.70881045 -12.73852539 71.75292969 C-14.43138672 71.79643555 -14.43138672 71.79643555 -16.15844727 71.84082031 C-22.40211115 71.88859408 -26.64143722 71.90203938 -31.42602539 67.44042969 C-33.76977539 64.81933594 -33.76977539 64.81933594 -35.92602539 62.00292969 C-42.66763595 53.52227721 -49.04104646 48.70338459 -59.94165039 47.06152344 C-70.13135658 46.37735745 -77.71819298 50.74887045 -86.42602539 55.44042969 C-87.19881836 55.85212402 -87.97161133 56.26381836 -88.76782227 56.68798828 C-93.36625861 59.14980625 -97.9177364 61.68263217 -102.43432617 64.29150391 C-104.22481276 65.32435876 -106.02596412 66.33867313 -107.82836914 67.35058594 C-114.85201617 71.48935244 -118.83492639 75.66713269 -121.42602539 83.44042969 C-122.40169052 91.03667965 -121.05011635 97.26434498 -116.42602539 103.44042969 C-110.79153884 108.30523156 -105.19031478 110.99582101 -97.71118164 111.00683594 C-92.4214748 110.09481752 -87.78885879 107.70101372 -83.0234375 105.28637695 C-77.86590299 102.75193005 -74.18919226 101.5777519 -68.42602539 102.44042969 C-62.89515272 106.35106205 -59.70153842 112.96297151 -56.17602539 118.62792969 C-55.53922852 119.63791016 -54.90243164 120.64789063 -54.24633789 121.68847656 C-48.35904601 131.05177589 -48.35904601 131.05177589 -47.90258789 137.37011719 C-48.72818514 140.63553913 -50.68391774 141.55562209 -53.42602539 143.44042969 C-56.16916769 144.63919 -58.98553528 145.53350979 -61.84008789 146.42871094 C-63.50552128 146.97602767 -65.17088357 147.52356076 -66.83618164 148.07128906 C-69.43436853 148.91187894 -72.0340289 149.74750449 -74.63549805 150.57788086 C-89.22334381 155.25917983 -102.84971626 159.91731889 -110.40795898 174.31030273 C-113.37665169 180.50544053 -114.82983723 186.79315538 -116.17602539 193.50292969 C-116.39645508 194.55931641 -116.61688477 195.61570313 -116.84399414 196.70410156 C-117.38039428 199.28115441 -117.90751668 201.8597286 -118.42602539 204.44042969 C-120.32128906 205.00976563 -120.32128906 205.00976563 -122.42602539 205.44042969 C-124.10180664 204.33105469 -124.10180664 204.33105469 -125.73852539 202.69042969 C-131.46725325 197.48249527 -136.94099166 195.76514767 -144.62524414 196.04589844 C-153.53862219 197.30147889 -161.28683146 203.81710738 -168.62573242 208.69360352 C-169.33197754 209.1617749 -170.03822266 209.62994629 -170.76586914 210.11230469 C-171.39871826 210.53608398 -172.03156738 210.95986328 -172.68359375 211.39648438 C-174.42602539 212.44042969 -174.42602539 212.44042969 -177.42602539 213.44042969 C-179.30628062 211.56017445 -179.09239939 208.4016094 -179.44165039 205.8762207 C-179.53772583 205.18988052 -179.63380127 204.50354034 -179.73278809 203.79640198 C-180.05132598 201.51293199 -180.36375403 199.22867068 -180.67602539 196.94433594 C-180.89608899 195.35542014 -181.11647102 193.76654842 -181.3371582 192.17771912 C-181.80037199 188.8363619 -182.26075842 185.49463138 -182.71899414 182.15258789 C-183.30323587 177.89208794 -183.8927353 173.63233791 -184.48419189 169.37283421 C-184.94046379 166.08456308 -185.39470079 162.79601347 -185.8482666 159.50736809 C-186.06471259 157.9386095 -186.28158256 156.36990935 -186.49890137 154.80127144 C-187.16071061 150.0167189 -187.80050745 145.22986315 -188.42602539 140.44042969 C-188.56828552 139.42047409 -188.71054565 138.40051849 -188.8571167 137.34965515 C-189.82482223 129.64329279 -189.82482223 129.64329279 -187.44165039 125.70214844 C-186.78036133 124.56616211 -186.78036133 124.56616211 -186.10571289 123.40722656 C-185.63391602 122.65505859 -185.16211914 121.90289062 -184.67602539 121.12792969 C-184.21969727 120.35642578 -183.76336914 119.58492188 -183.29321289 118.79003906 C-181.45148454 115.68944148 -179.55568646 112.63876717 -177.58227539 109.62011719 C-175.8507186 106.35589864 -176.65734879 103.96353079 -177.42602539 100.44042969 C-177.68254883 99.81652344 -177.93907227 99.19261719 -178.20336914 98.54980469 C-178.42602539 96.44042969 -178.42602539 96.44042969 -176.91430664 93.89746094 C-176.19629883 93.02476563 -175.47829102 92.15207031 -174.73852539 91.25292969 C-173.68084961 89.93228516 -173.68084961 89.93228516 -172.60180664 88.58496094 C-170.39345974 86.40833176 -169.45165592 85.73064323 -166.42602539 85.44042969 C-165.45665039 85.52292969 -164.48727539 85.60542969 -163.48852539 85.69042969 C-159.27034687 85.34608858 -158.27635321 83.48998974 -155.42602539 80.44042969 C-154.64557861 79.64427246 -153.86513184 78.84811523 -153.06103516 78.02783203 C-151.85145142 76.78960693 -151.85145142 76.78960693 -150.61743164 75.52636719 C-140.71705695 65.45322955 -130.92799689 55.70439208 -119.42602539 47.44042969 C-118.35014071 46.6262201 -117.27594172 45.80977868 -116.20336914 44.99121094 C-81.38236998 18.8022002 -42.10542121 7.64397503 0 0 Z " fill="#97D97B" transform="translate(230.426025390625,15.5595703125)"/>
<path d="M0 0 C0.33978316 30.82878726 -0.42864387 60.35646709 -10 90 C-10.2573291 90.81243164 -10.5146582 91.62486328 -10.77978516 92.46191406 C-25.40189352 138.15290655 -53.36929765 180.89171168 -92 210 C-92.55333008 210.42442383 -93.10666016 210.84884766 -93.67675781 211.28613281 C-102.73475214 218.22092934 -112.05481949 224.41506873 -122 230 C-122.71639648 230.40605469 -123.43279297 230.81210937 -124.17089844 231.23046875 C-135.66878217 237.69274668 -147.38257765 242.76340987 -159.79443359 247.20410156 C-161.60784154 247.8584861 -163.40930758 248.54587066 -165.20703125 249.2421875 C-207.20191639 265.4860861 -261.19810597 266.3664894 -304 253 C-305.00574701 249.0639449 -306.00361005 245.12593326 -307 241.1875 C-307.28617188 240.06794922 -307.57234375 238.94839844 -307.8671875 237.79492188 C-308.13789063 236.72177734 -308.40859375 235.64863281 -308.6875 234.54296875 C-308.93886719 233.55321045 -309.19023437 232.56345215 -309.44921875 231.54370117 C-310 229 -310 229 -310 226 C-309.13387085 226.01571045 -309.13387085 226.01571045 -308.25024414 226.03173828 C-296.40936647 226.21702685 -284.85310596 226.0649945 -273.13037109 224.31640625 C-270.88745283 223.98328431 -268.6415625 223.67904599 -266.39453125 223.375 C-222.31038973 217.16666858 -180.05381255 198.10886221 -145.98046875 169.5234375 C-144 168 -144 168 -141.80078125 166.9765625 C-139.64466243 166.07265165 -139.64466243 166.07265165 -139 163 C-138.6596875 163.59167969 -138.319375 164.18335938 -137.96875 164.79296875 C-133.83467098 171.53283694 -129.54513479 175.48495507 -122 178 C-113.13518527 178.80694022 -105.24047545 178.64112386 -98 173 C-92.22520047 167.47372309 -88.74698694 160.53107523 -85 153.5625 C-83.67520916 151.13026649 -82.34379623 148.70168639 -81.01171875 146.2734375 C-80.67677902 145.66140976 -80.34183929 145.04938202 -79.99674988 144.41880798 C-76.71564708 138.441348 -73.27746671 132.56003786 -69.8125 126.6875 C-64.88327851 118.31345607 -60.15275501 109.85678148 -55.54711914 101.30102539 C-51.76776246 94.31577931 -47.78726573 87.46383132 -43.75 80.625 C-39.72968083 73.7978984 -35.79478797 66.96289276 -32.25 59.875 C-31.78352051 58.94421631 -31.78352051 58.94421631 -31.30761719 57.99462891 C-27.84999294 50.90353553 -26.58539135 45.06453533 -26.5625 37.25 C-26.55863281 36.33637695 -26.55476563 35.42275391 -26.55078125 34.48144531 C-26.70601484 25.12538738 -29.07458158 16.81804694 -32 8 C-32 7.67 -32 7.34 -32 7 C-31.410979 6.96559814 -30.82195801 6.93119629 -30.21508789 6.89575195 C-27.49559838 6.72393584 -24.77961139 6.51842461 -22.0625 6.3125 C-20.67321289 6.23225586 -20.67321289 6.23225586 -19.25585938 6.15039062 C-13.18152173 5.66018092 -8.93286181 4.32215285 -3.77514648 1.04760742 C-2 0 -2 0 0 0 Z " fill="#0068CE" transform="translate(497,236)"/>
<path d="M0 0 C7.73648105 -0.11598804 15.47287165 -0.20476267 23.21002483 -0.25906086 C26.8030086 -0.28512544 30.39539636 -0.32046329 33.98803711 -0.37719727 C37.45698186 -0.43163335 40.92535439 -0.46144416 44.39469337 -0.47438622 C46.35851051 -0.48808449 48.32209825 -0.52710018 50.28556824 -0.56648254 C60.22101505 -0.56960709 60.22101505 -0.56960709 63.30395508 2.33984375 C65.30270465 5.47477615 65.71693037 7.61932588 66 11.3125 C66.95048518 19.02974208 68.96276828 23.45748426 74.92578125 28.44921875 C80.68431326 32.44105696 87.58637274 34.21287802 94.1953125 36.34179688 C101.90978388 39.02446079 107.26396921 42.52793843 111 50 C111.78738273 57.39637179 109.43833771 62.29132389 106.125 68.8125 C105.62758301 69.82151367 105.13016602 70.83052734 104.61767578 71.87011719 C101.08260891 78.99406736 97.38819443 86.03288118 93.64892578 93.05126953 C90.64599882 98.70716281 87.77316806 104.41542777 85 110.1875 C84.62601074 110.95352539 84.25202148 111.71955078 83.86669922 112.50878906 C75.6381289 129.85014847 78.67386209 147.9525762 83 166 C83.2568457 167.0734668 83.51369141 168.14693359 83.77832031 169.25292969 C85.40291545 176.01945529 85.40291545 176.01945529 87.06884766 182.77587891 C87.44468994 184.2944751 87.44468994 184.2944751 87.828125 185.84375 C88.0540332 186.74287109 88.27994141 187.64199219 88.51269531 188.56835938 C89 191 89 191 89 195 C74.39943505 192.29278754 74.39943505 192.29278754 69.92919922 186.15820312 C68.05527799 182.41569796 66.47078836 178.64026306 64.9375 174.75 C64.32526095 173.2913577 63.70809965 171.83477317 63.08642578 170.38012695 C62.09525466 168.05807635 61.10794971 165.73494508 60.13549805 163.40498352 C56.52731959 154.76480576 52.57209736 146.29295474 48.60336304 137.81384277 C46.57536399 133.47781141 44.5620675 129.13496253 42.546875 124.79296875 C42.15880173 123.95790802 41.77072845 123.12284729 41.37089539 122.26248169 C38.92977472 117.0090777 36.50013354 111.75051969 34.078125 106.48828125 C33.48269595 105.19697015 32.8871592 103.90570871 32.29150391 102.61450195 C31.22339408 100.29786469 30.15773853 97.98009333 29.09521484 95.66088867 C22.29835627 80.94595655 15.1841592 71.33485839 2.3046875 61.515625 C1.74265625 61.08636719 1.180625 60.65710938 0.6015625 60.21484375 C-0.84436718 59.11805319 -2.3005053 58.03475244 -3.7578125 56.953125 C-6.0786581 54.93148249 -7.32186936 53.20788408 -8.75 50.5 C-9.15734375 49.7471875 -9.5646875 48.994375 -9.984375 48.21875 C-13.73671875 40.02132212 -12.41199265 32.24922002 -9.375 24.0234375 C-8.27843487 21.12904071 -7.14221696 18.25162357 -6 15.375 C-5.42034342 13.87949899 -4.84220521 12.38340853 -4.265625 10.88671875 C-2.86116969 7.2507777 -1.43638681 3.62343854 0 0 Z " fill="#97D97B" transform="translate(87,288)"/>
<path d="M0 0 C1.94852366 3.35139604 2.4911612 6.35564356 2.98974609 10.18286133 C3.2404335 12.0618084 3.2404335 12.0618084 3.4961853 13.97871399 C3.62477495 14.98032783 3.62477495 14.98032783 3.75596237 16.00217628 C4.02730901 18.11213569 4.30812465 20.22064448 4.59146118 22.32902527 C5.3950827 28.32334151 6.18028569 34.32004734 6.96289062 40.31713867 C7.44322478 43.99281364 7.93335946 47.66708808 8.42873001 51.340765 C8.70207314 53.39055769 8.96417362 55.4415743 9.22592163 57.49287415 C11.42397887 73.80828934 14.26189799 87.90840618 27.27734375 99.00390625 C32.5363887 102.85953318 38.25818143 105.92898467 44 109 C42.48845191 114.4101858 40.78606461 119.68531415 38.73828125 124.91796875 C33.04789222 139.51480289 28.20864718 152.25545631 34.76171875 167.5234375 C35.17035156 168.34070313 35.57898438 169.15796875 36 170 C36.37769531 170.75539063 36.75539062 171.51078125 37.14453125 172.2890625 C41.97771678 180.55366374 50.17811444 186.48710276 57.8203125 192.0546875 C68.33842193 199.80656632 72.91291204 211.5277699 78.08203125 223.18121338 C79.6862172 226.79649814 81.31328349 230.40149375 82.9375 234.0078125 C83.27056152 234.74873138 83.60362305 235.48965027 83.94677734 236.25302124 C87.54804718 244.24935309 91.26534435 252.19028582 95 260.125 C95.30292969 260.768927 95.60585937 261.412854 95.91796875 262.07629395 C96.51012132 263.33486057 97.10240458 264.59336571 97.69482422 265.85180664 C98.54973198 267.66818494 99.4037788 269.48496838 100.2578125 271.30175781 C101.49606216 273.93445673 102.74268385 276.56305495 103.9921875 279.19042969 C104.64071483 280.56180648 105.28915482 281.93322458 105.9375 283.3046875 C106.24437744 283.94600616 106.55125488 284.58732483 106.86743164 285.24807739 C109 289.7736412 109 289.7736412 109 292 C104.54466787 290.45289226 100.81364454 288.06791883 96.9375 285.4375 C96.2770166 284.99204834 95.6165332 284.54659668 94.93603516 284.08764648 C73.34274225 269.41367942 52.73929462 251.97580852 37 231 C36.57702637 230.44812012 36.15405273 229.89624023 35.71826172 229.32763672 C28.78172014 220.26811535 22.5860581 210.94718708 17 201 C16.59394531 200.28360352 16.18789063 199.56720703 15.76953125 198.82910156 C9.30725332 187.33121783 4.23659013 175.61742235 -0.20410156 163.20556641 C-0.8584861 161.39215846 -1.54587066 159.59069242 -2.2421875 157.79296875 C-7.1644023 145.06770801 -9.83047076 131.43803148 -12 118 C-12.20753906 116.75347656 -12.41507813 115.50695312 -12.62890625 114.22265625 C-15.7737174 92.79233271 -15.8788766 68.32965045 -12 47 C-11.80631836 45.92588867 -11.61263672 44.85177734 -11.41308594 43.74511719 C-8.64665448 28.7854478 -5.37852678 14.24737412 0 0 Z " fill="#008ADD" transform="translate(29,174)"/>
<path d="M0 0 C9.12812221 4.56406111 16.9984935 10.72693067 25 17 C25.55703613 17.43554199 26.11407227 17.87108398 26.68798828 18.31982422 C41.61613779 30.12921471 55.60704211 43.939473 66.80126953 59.35253906 C68.0135225 61.01858448 69.25260363 62.66186715 70.49609375 64.3046875 C90.62533025 91.25865637 104.52237831 123.08059592 111.55126953 155.91748047 C111.94953623 157.765802 112.39158055 159.60456958 112.83984375 161.44140625 C113.3661691 164.26512252 113.66809997 166.2088268 113 169 C108.99658165 173.90799386 104.00128512 176.30227989 98 178 C94.79614258 178.16357422 94.79614258 178.16357422 91.39453125 178.0546875 C90.16412109 178.03019531 88.93371094 178.00570312 87.66601562 177.98046875 C85.08507071 177.90982961 82.50432212 177.83163499 79.92382812 177.74609375 C78.69728516 177.72417969 77.47074219 177.70226562 76.20703125 177.6796875 C75.0878833 177.64601074 73.96873535 177.61233398 72.81567383 177.57763672 C69.90675241 177.73544021 69.90675241 177.73544021 68.10424805 179.83178711 C66.45912357 183.06202158 67.19344175 185.62330111 68 189 C68.21140625 189.8863916 68.4228125 190.7727832 68.640625 191.68603516 C69.39783409 194.73652046 70.19347111 197.77470132 71 200.8125 C71.40992188 202.38547852 71.40992188 202.38547852 71.828125 203.99023438 C73.07126695 209.11958306 73.07126695 209.11958306 75 214 C75.17936156 216.51694255 75.27776793 218.98076689 75.3125 221.5 C75.35600586 222.50546875 75.35600586 222.50546875 75.40039062 223.53125 C75.53388746 234.37530025 69.17301228 243.67346791 64 252.8125 C63.32784337 254.00984179 62.65613787 255.20743693 61.98486328 256.40527344 C57.02055015 265.24969834 51.99434466 274.05918687 46.9453125 282.85546875 C43.85490077 288.24358819 40.80146587 293.652258 37.75 299.0625 C35.50169283 303.04262526 33.2513109 307.02157307 31 311 C30.67050354 311.58251526 30.34100708 312.16503052 30.00152588 312.76519775 C27.87654745 316.52104622 25.74739627 320.27448701 23.61364746 324.02536011 C22.92357834 325.23963254 22.23465685 326.45455803 21.54699707 327.67019653 C9.97300313 348.12421298 9.97300313 348.12421298 5 350 C0.78563082 350.33447374 -1.90312958 350.43874817 -5.8125 348.875 C-8.97486823 346.16439866 -10.71038721 343.17703013 -11.26817894 338.9840889 C-11.36822754 336.60857505 -11.37115068 334.25098169 -11.34057617 331.87353516 C-11.34101425 330.97533051 -11.34145233 330.07712585 -11.34190369 329.15170288 C-11.33982181 326.19726455 -11.31651903 323.24340111 -11.29296875 320.2890625 C-11.28737066 318.23497833 -11.28310157 316.18089015 -11.28010559 314.12680054 C-11.26867361 308.7311896 -11.23922046 303.33582249 -11.20599365 297.94030762 C-11.17525734 292.43029071 -11.16159264 286.92023425 -11.14648438 281.41015625 C-11.1143493 270.60666395 -11.06317275 259.80335228 -11 249 C-10.67 249 -10.34 249 -10 249 C-9.67 277.71 -9.34 306.42 -9 336 C-1.94526616 328.94631091 -1.94526616 328.94631091 4.375 321.375 C4.83704834 320.77727783 5.29909668 320.17955566 5.77514648 319.5637207 C7.19364478 317.7166497 8.59925328 315.86056029 10 314 C10.64654541 313.14462646 10.64654541 313.14462646 11.30615234 312.27197266 C21.87572003 298.18599894 30.569877 282.951147 38 267 C38.32709961 266.30277832 38.65419922 265.60555664 38.99121094 264.88720703 C53.44378167 233.63440407 60.4796489 199.22633419 60.3125 164.875 C60.31034485 164.06951721 60.3081897 163.26403442 60.30596924 162.43414307 C60.24901079 149.09565979 59.52536975 136.12652083 57 123 C56.79600586 121.93136719 56.59201172 120.86273438 56.38183594 119.76171875 C48.06807878 77.40633293 30.45341395 37.53683973 2.13671875 4.6484375 C0 2 0 2 0 0 Z " fill="#76CA7B" transform="translate(381,50)"/>
<path d="M0 0 C1.95762016 -0.02398109 1.95762016 -0.02398109 3.95478821 -0.04844666 C5.38676566 -0.05482379 6.81874778 -0.06021639 8.25073242 -0.06469727 C9.71563308 -0.07366195 11.18053278 -0.08278376 12.64543152 -0.09205627 C15.71969834 -0.10856202 18.79385608 -0.11624894 21.86816406 -0.11914062 C25.80277409 -0.12451896 29.7363547 -0.16216749 33.67067432 -0.20788479 C36.69821383 -0.23767111 39.72550627 -0.24486454 42.75317955 -0.24586678 C44.20325104 -0.25006789 45.65332335 -0.26249814 47.1032505 -0.28338432 C49.13506395 -0.31031628 51.16724854 -0.30236352 53.19921875 -0.29296875 C54.35456619 -0.2980394 55.50991364 -0.30311005 56.70027161 -0.30833435 C60.73114901 0.49268749 62.22564773 2.17516001 64.79370117 5.30639648 C65.70108259 8.33287983 65.2580325 10.05607718 64.79370117 13.30639648 C62.21161584 17.46018593 58.309071 18.32697311 53.81713867 19.59545898 C51.60170493 20.20990534 51.60170493 20.20990534 49.79370117 22.30639648 C49.46370117 23.62639648 49.13370117 24.94639648 48.79370117 26.30639648 C43.18370117 26.30639648 37.57370117 26.30639648 31.79370117 26.30639648 C30.80370117 24.32639648 29.81370117 22.34639648 28.79370117 20.30639648 C25.4667148 18.6429033 21.72940732 19.06261591 18.06713867 18.98999023 C17.20432281 18.96920914 16.34150696 18.94842804 15.45254517 18.92701721 C12.69134624 18.86153615 9.93005079 18.8026435 7.16870117 18.74389648 C5.29889945 18.70070989 3.42910755 18.65709555 1.55932617 18.61303711 C-3.02911611 18.50585624 -7.61765566 18.40458473 -12.20629883 18.30639648 C-11.58987349 15.6791079 -10.96362096 13.05486066 -10.33129883 10.43139648 C-10.15727539 9.6850293 -9.98325195 8.93866211 -9.80395508 8.16967773 C-8.1263689 1.27293456 -7.03526466 0.06492313 0 0 Z " fill="#008BDD" transform="translate(346.206298828125,154.693603515625)"/>
<path d="M0 0 C6.6 0.33 13.2 0.66 20 1 C20.66 3.8875 21.32 6.775 22 9.75 C22.20882812 10.65331055 22.41765625 11.55662109 22.6328125 12.48730469 C22.79523438 13.20821289 22.95765625 13.92912109 23.125 14.671875 C23.29257813 15.4050293 23.46015625 16.13818359 23.6328125 16.89355469 C24 19 24 19 24 23 C11.97724442 20.70995132 11.97724442 20.70995132 7 17 C3.60460062 11.76710618 1.97864324 5.89096054 0 0 Z " fill="#74C77A" transform="translate(152,460)"/>
<path d="M0 0 C1.051875 0.30744141 1.051875 0.30744141 2.125 0.62109375 C3.548125 1.02521484 3.548125 1.02521484 5 1.4375 C6.50433594 1.86675781 6.50433594 1.86675781 8.0390625 2.3046875 C10.63904709 2.91523797 12.73186977 3.07262694 15.375 3.0625 C19 4 19 4 20.6015625 6.2109375 C24 12.83694134 24 12.83694134 24 16 C19.31986122 14.3948657 15.50654325 11.86970371 11.4375 9.125 C10.77814453 8.69058594 10.11878906 8.25617188 9.43945312 7.80859375 C5.94088591 5.46683921 2.85890455 3.1280635 0 0 Z " fill="#0063C3" transform="translate(114,450)"/>
</svg>
