<?xml version="1.0" encoding="UTF-8"?>
<svg version="1.1" xmlns="http://www.w3.org/2000/svg" width="512" height="512">
<path d="M0 0 C1.45108658 0.00273422 1.45108658 0.00273422 2.93148804 0.00552368 C17.26440977 0.05095174 31.21023917 0.55983928 45.3125 3.3125 C46.65803955 3.55395752 46.65803955 3.55395752 48.03076172 3.80029297 C96.71843124 12.61028149 141.74255908 36.05356547 177.3125 70.3125 C178.3015332 71.26068604 178.3015332 71.26068604 179.31054688 72.22802734 C188.79880305 81.37247479 197.5387044 90.66984009 205.3125 101.3125 C206.17056152 102.46355017 207.02863451 103.61459177 207.88671875 104.765625 C213.92427396 112.95525981 219.30707302 121.45788276 224.3125 130.3125 C224.7146875 131.01971191 225.116875 131.72692383 225.53125 132.45556641 C238.54775099 155.57510937 247.281052 180.72419753 252.625 206.6875 C252.77235596 207.39801514 252.91971191 208.10853027 253.0715332 208.84057617 C256.05794017 224.48291051 256.68730954 240.11926093 256.625 256 C256.62226578 257.45108658 256.62226578 257.45108658 256.61947632 258.93148804 C256.57404826 273.26440977 256.06516072 287.21023917 253.3125 301.3125 C253.15152832 302.20952637 252.99055664 303.10655273 252.82470703 304.03076172 C244.01471851 352.71843124 220.57143453 397.74255908 186.3125 433.3125 C185.68037598 433.97185547 185.04825195 434.63121094 184.39697266 435.31054688 C175.25252521 444.79880305 165.95515991 453.5387044 155.3125 461.3125 C154.16144983 462.17056152 153.01040823 463.02863451 151.859375 463.88671875 C143.66974019 469.92427396 135.16711724 475.30707302 126.3125 480.3125 C125.60528809 480.7146875 124.89807617 481.116875 124.16943359 481.53125 C101.04989063 494.54775099 75.90080247 503.281052 49.9375 508.625 C49.22698486 508.77235596 48.51646973 508.91971191 47.78442383 509.0715332 C32.14208949 512.05794017 16.50573907 512.68730954 0.625 512.625 C-0.34239105 512.62317719 -1.3097821 512.62135437 -2.30648804 512.61947632 C-16.63940977 512.57404826 -30.58523917 512.06516072 -44.6875 509.3125 C-45.58452637 509.15152832 -46.48155273 508.99055664 -47.40576172 508.82470703 C-96.09343124 500.01471851 -141.11755908 476.57143453 -176.6875 442.3125 C-177.34685547 441.68037598 -178.00621094 441.04825195 -178.68554688 440.39697266 C-188.17380305 431.25252521 -196.9137044 421.95515991 -204.6875 411.3125 C-205.54556152 410.16144983 -206.40363451 409.01040823 -207.26171875 407.859375 C-213.29927396 399.66974019 -218.68207302 391.16711724 -223.6875 382.3125 C-224.0896875 381.60528809 -224.491875 380.89807617 -224.90625 380.16943359 C-237.92275099 357.04989063 -246.656052 331.90080247 -252 305.9375 C-252.22103394 304.87172729 -252.22103394 304.87172729 -252.4465332 303.78442383 C-255.43294017 288.14208949 -256.06230954 272.50573907 -256 256.625 C-255.99817719 255.65760895 -255.99635437 254.6902179 -255.99447632 253.69351196 C-255.94904826 239.36059023 -255.44016072 225.41476083 -252.6875 211.3125 C-252.44604248 209.96696045 -252.44604248 209.96696045 -252.19970703 208.59423828 C-243.38971851 159.90656876 -219.94643453 114.88244092 -185.6875 79.3125 C-185.05537598 78.65314453 -184.42325195 77.99378906 -183.77197266 77.31445312 C-174.62752521 67.82619695 -165.33015991 59.0862956 -154.6875 51.3125 C-153.53644983 50.45443848 -152.38540823 49.59636549 -151.234375 48.73828125 C-143.04474019 42.70072604 -134.54211724 37.31792698 -125.6875 32.3125 C-124.98028809 31.9103125 -124.27307617 31.508125 -123.54443359 31.09375 C-100.42489063 18.07724901 -75.27580247 9.343948 -49.3125 4 C-48.24672729 3.77896606 -48.24672729 3.77896606 -47.15942383 3.5534668 C-31.51708949 0.56705983 -15.88073907 -0.06230954 0 0 Z " fill="#020100" transform="translate(255.6875,-0.3125)"/>
<path d="M0 0 C153.78 0 307.56 0 466 0 C468.25311894 6.75935681 468.25311894 6.75935681 468.81640625 9.953125 C468.94080078 10.65566406 469.06519531 11.35820312 469.19335938 12.08203125 C469.37608398 13.15517578 469.37608398 13.15517578 469.5625 14.25 C469.68818359 14.94996094 469.81386719 15.64992187 469.94335938 16.37109375 C471.96714172 28.00519331 472.2016728 39.47183134 472.1875 51.25 C472.18709213 52.51639816 472.18709213 52.51639816 472.18667603 53.80838013 C472.17201032 63.70679381 472.08591082 73.57224065 471.1875 83.4375 C471.08248169 84.60104004 471.08248169 84.60104004 470.9753418 85.78808594 C470.42906603 90.85325506 469.46821089 95.81946421 468.4543457 100.80883789 C468.31455544 101.50197334 468.17476517 102.1951088 468.03073883 102.90924835 C467.68829321 104.60639478 467.34430308 106.30322943 467 108 C466.34980023 108.00059709 465.69960045 108.00119418 465.02969766 108.00180936 C426.51712133 108.03768183 388.0046256 108.09428766 349.49212207 108.17792095 C344.87072493 108.18793874 340.24932743 108.19778281 335.62792969 108.20751953 C334.70786958 108.2094609 333.78780947 108.21140228 332.83986875 108.21340248 C317.93076462 108.24444691 303.02167589 108.26140994 288.11254552 108.27319422 C272.82115436 108.28559314 257.52984421 108.313066 242.23850417 108.35461307 C232.79839272 108.37978461 223.35841557 108.39311462 213.91827008 108.39142957 C207.45001983 108.39139988 200.98190667 108.40597551 194.51370981 108.43216428 C190.77853712 108.44685213 187.04364556 108.45497766 183.30844879 108.44580269 C179.26332613 108.43603423 175.21895174 108.45695829 171.17388916 108.48101807 C169.98712845 108.47325765 168.80036774 108.46549723 167.57764459 108.45750165 C166.49679456 108.46894924 165.41594452 108.48039683 164.30234146 108.49219131 C162.90117344 108.49446964 162.90117344 108.49446964 161.471699 108.49679399 C158.22633832 109.15750753 157.02654415 110.42992771 155 113 C154.33333333 116 154.33333333 116 155 119 C157.01587463 121.54922212 158.21819439 122.83874282 161.43963885 123.50320601 C162.81802365 123.50548434 162.81802365 123.50548434 164.22425461 123.50780869 C165.81940419 123.52498007 165.81940419 123.52498007 167.44677901 123.54249835 C168.61408498 123.53473793 169.78139095 123.52697752 170.98406982 123.51898193 C172.22480389 123.52648319 173.46553795 123.53398444 174.74387002 123.541713 C178.18979787 123.55852389 181.63488529 123.55741033 185.08078837 123.54880548 C188.79586502 123.54386899 192.51083736 123.56193508 196.22587585 123.57722473 C202.6630363 123.6005612 209.10008402 123.60928421 215.53728485 123.60811615 C224.84439862 123.60644841 234.1513619 123.62676632 243.45843557 123.65247145 C258.55805778 123.69357696 273.65765298 123.71687158 288.75732422 123.72900391 C303.42629597 123.74082823 318.09521681 123.76101691 332.76416016 123.79248047 C334.12017331 123.79538462 334.12017331 123.79538462 335.50358066 123.79834744 C340.03867202 123.80811187 344.573763 123.818041 349.10885382 123.82805204 C386.73921218 123.91090647 424.36956833 123.96487181 462 124 C461.53529738 125.57247284 461.06869471 127.14438424 460.60131836 128.71606445 C460.34168808 129.59148392 460.0820578 130.46690338 459.81455994 131.36885071 C455.37712576 145.70242062 448.67119415 167.32880585 438 178 C434.86440114 178.09534958 431.75086387 178.12550879 428.61499023 178.11352539 C427.13710526 178.11374443 427.13710526 178.11374443 425.62936401 178.1139679 C422.35575193 178.11326832 419.08219596 178.10547385 415.80859375 178.09765625 C413.54557832 178.09579223 411.28256249 178.09436825 409.01954651 178.09336853 C403.05021052 178.0895421 397.08089868 178.07971075 391.11157227 178.06866455 C385.02555671 178.05845312 378.93953727 178.05387149 372.85351562 178.04882812 C360.90233311 178.03808859 348.95116856 178.02101068 337 178 C336.61473145 177.18958252 336.22946289 176.37916504 335.83251953 175.54418945 C335.31286621 174.47386475 334.79321289 173.40354004 334.2578125 172.30078125 C333.49428467 170.71390503 333.49428467 170.71390503 332.71533203 169.0949707 C326.31727921 157.55097474 313.72736223 150.45438719 301.36485291 146.84519005 C286.29998465 143.06116825 270.62455912 143.69346358 255.21484375 143.68115234 C252.53270793 143.67183995 249.85058524 143.66175453 247.16845703 143.65071106 C241.42398599 143.62858037 235.67953233 143.61348242 229.93502808 143.60334396 C221.62973941 143.58867554 213.3245114 143.56311665 205.01925862 143.53501268 C191.54019899 143.48969184 178.06113055 143.45301671 164.58203125 143.421875 C151.49868222 143.39162889 138.41535465 143.35725107 125.33203125 143.31738281 C124.11964242 143.31369049 124.11964242 143.31369049 122.88276088 143.30992357 C118.82742344 143.2975478 114.77208626 143.28509149 110.71674919 143.27259517 C77.1445287 143.16924794 43.57228428 143.07997246 10 143 C8.99619084 140.20964954 7.9968055 137.41785145 7 134.625 C6.71382812 133.8309375 6.42765625 133.036875 6.1328125 132.21875 C5.86210937 131.45820313 5.59140625 130.69765625 5.3125 129.9140625 C5.06113281 129.2123291 4.80976563 128.5105957 4.55078125 127.78759766 C4 126 4 126 4 124 C4.96990734 123.99503478 4.96990734 123.99503478 5.95940876 123.98996925 C21.68290206 123.90879679 37.40628784 123.81672339 53.12964344 123.71247292 C60.73329971 123.66232213 68.33694507 123.61587955 75.94067383 123.578125 C82.56703556 123.54521398 89.19331319 123.50538778 95.81958216 123.45720994 C99.32909235 123.431936 102.83854669 123.41015745 106.34812355 123.39665604 C110.26318961 123.38146527 114.1780509 123.35083779 118.09301758 123.31884766 C119.2604248 123.31668747 120.42783203 123.31452728 121.63061523 123.31230164 C122.69492264 123.30113815 123.75923004 123.28997467 124.85578918 123.2784729 C125.78219113 123.27294214 126.70859308 123.26741138 127.66306782 123.26171303 C130.27109188 123.15052053 130.27109188 123.15052053 133 121 C133.73013683 118.91809478 133.73013683 118.91809478 133.9375 116.5625 C134.04964844 115.78003906 134.16179687 114.99757813 134.27734375 114.19140625 C134.21669722 111.87061476 134.21669722 111.87061476 132.32355881 110.38795757 C129.50752944 108.70582701 127.81257447 108.61691846 124.54571533 108.60127258 C123.43796249 108.58873444 122.33020966 108.57619629 121.18888855 108.5632782 C119.97832291 108.56471329 118.76775726 108.56614838 117.52050781 108.56762695 C116.24220596 108.5574353 114.96390411 108.54724365 113.64686584 108.53674316 C110.14512567 108.5091605 106.64354788 108.49988701 103.14171314 108.49388909 C99.48078282 108.48450865 95.81997396 108.45830556 92.15911865 108.43388367 C85.22837114 108.3902058 78.29764718 108.3616668 71.36680388 108.33856028 C63.47561854 108.31151547 55.58455531 108.26760355 47.69345713 108.22227156 C31.46236663 108.12940688 15.23125427 108.05773456 -1 108 C-1.65689061 104.49399837 -2.30625333 100.98664167 -2.9543457 97.47900391 C-3.13900642 96.49392349 -3.32366714 95.50884308 -3.51392365 94.49391174 C-4.96057939 86.63275029 -5.77944987 78.99986042 -6 71 C-6.02161194 70.27961548 -6.04322388 69.55923096 -6.06549072 68.8170166 C-6.22844304 63.08635055 -6.29468138 57.35783348 -6.3125 51.625 C-6.31578308 50.75369446 -6.31906616 49.88238892 -6.32244873 48.98468018 C-6.34271093 32.28671223 -5.31900516 15.95701547 0 0 Z " fill="#FD9A41" transform="translate(23,202)"/>
<path d="M0 0 C1.38280655 0.00273422 1.38280655 0.00273422 2.79354858 0.00552368 C16.83966617 0.05221379 30.56264912 0.54783347 44.375 3.3125 C45.21015137 3.47347168 46.04530273 3.63444336 46.90576172 3.80029297 C77.26668072 9.83076744 106.38277291 21.51547969 132.375 38.3125 C133.33277344 38.92351563 134.29054688 39.53453125 135.27734375 40.1640625 C139.68447139 43.02971406 139.68447139 43.02971406 141.375 44.3125 C141.375 44.6425 141.375 44.9725 141.375 45.3125 C140.68201152 45.31488835 139.98902304 45.31727671 139.2750349 45.31973743 C122.42491401 45.37883432 105.57495525 45.45435005 88.72499371 45.54821491 C80.57652261 45.59320969 72.42809559 45.63261576 64.27954102 45.65893555 C57.17851575 45.68188592 50.0776295 45.71525052 42.97671443 45.76120156 C39.21566843 45.78517399 35.45476046 45.8038763 31.69363976 45.81011391 C27.49827763 45.81726658 23.30339691 45.84766611 19.1081543 45.88012695 C17.85659042 45.87869186 16.60502655 45.87725677 15.3155365 45.8757782 C14.17550171 45.88831635 13.03546692 45.90085449 11.86088562 45.91377258 C10.86811458 45.91838155 9.87534353 45.92299051 8.85248852 45.92773914 C5.98190379 46.37354893 5.08366361 47.00518729 3.375 49.3125 C2.9035704 51.25707312 2.9035704 51.25707312 3 53.3125 C2.99226562 53.993125 2.98453125 54.67375 2.9765625 55.375 C3.51074735 57.97260478 4.25374331 58.71995669 6.375 60.3125 C9.23995726 60.73163686 9.23995726 60.73163686 12.55718994 60.61029053 C13.85224457 60.60115128 15.14729919 60.59201202 16.4815979 60.58259583 C17.92035183 60.55749714 19.35910297 60.53223844 20.79785156 60.50683594 C22.31086795 60.49129711 23.82390074 60.47729145 25.33694458 60.46470642 C28.59951075 60.43573476 31.86185555 60.39872207 35.12427521 60.35640717 C40.29534707 60.29228074 45.4662262 60.26373868 50.63763428 60.24346924 C51.51122849 60.23986916 52.3848227 60.23626909 53.28488946 60.23255992 C55.07175423 60.22520979 56.85861923 60.21791579 58.64548445 60.21067667 C70.68363407 60.15985216 82.72064398 60.08340135 94.7578125 59.91845703 C102.87763847 59.80746718 110.99593489 59.7505729 119.11654258 59.75415063 C123.40942778 59.75386181 127.69823522 59.7267386 131.99018097 59.63304901 C161.56792716 59.01233024 161.56792716 59.01233024 169.95681381 66.59080887 C172.28995392 69.12619011 174.34058002 71.72800171 176.23703766 74.60352325 C177.6593768 76.7395733 179.33589466 78.54142732 181.125 80.375 C182.22164927 81.67639453 183.30329525 82.99048779 184.375 84.3125 C185.20128906 85.323125 186.02757812 86.33375 186.87890625 87.375 C195.70946826 98.31260709 203.49474502 109.77683982 210.4375 122 C210.81986816 122.67144043 211.20223633 123.34288086 211.59619141 124.03466797 C213.30259778 127.10525971 214.62320076 129.88711762 215.375 133.3125 C214.53154762 133.31469984 214.53154762 133.31469984 213.67105579 133.31694412 C199.98302169 133.35401108 186.29523831 133.41327652 172.60740376 133.49640274 C165.98801486 133.53593144 159.36876007 133.56809362 152.74926758 133.58349609 C146.3624699 133.59862689 139.97604079 133.63300944 133.58940697 133.68080902 C131.15137114 133.69565965 128.71328271 133.70354311 126.2752018 133.70438385 C122.86316132 133.70674408 119.45214724 133.73374948 116.0402832 133.76660156 C115.02967834 133.7615712 114.01907349 133.75654083 112.97784424 133.75135803 C108.64235737 133.81604792 106.04451518 133.92664365 102.2318573 136.1239624 C100.03882131 138.29202395 100.03882131 138.29202395 100 141.875 C100.24990984 145.2896968 100.24990984 145.2896968 101.375 148.3125 C104.30973945 149.29074648 106.23235041 149.44834269 109.29142761 149.47071838 C110.30525009 149.4805072 111.31907257 149.49029602 112.36361694 149.50038147 C113.47491974 149.50613693 114.58622253 149.5118924 115.73120117 149.51782227 C116.90206772 149.52772186 118.07293427 149.53762146 119.27928162 149.54782104 C122.48973255 149.57401161 125.70017822 149.59587254 128.9106729 149.61582303 C132.26594069 149.63769211 135.62116331 149.66507629 138.97639465 149.69187927 C145.32989457 149.7417937 151.68341956 149.78673716 158.03696853 149.82990164 C165.27030388 149.8792847 172.50359391 149.93419886 179.73688543 149.98958123 C194.61621472 150.10338208 209.49558669 150.21022525 224.375 150.3125 C225.37880916 153.10285046 226.3781945 155.89464855 227.375 158.6875 C227.66117187 159.4815625 227.94734375 160.275625 228.2421875 161.09375 C228.51289063 161.85429687 228.78359375 162.61484375 229.0625 163.3984375 C229.31386719 164.1001709 229.56523437 164.8019043 229.82421875 165.52490234 C230.375 167.3125 230.375 167.3125 230.375 169.3125 C79.235 169.3125 -71.905 169.3125 -227.625 169.3125 C-225.81047246 162.65923235 -224.12949907 156.6333786 -221.625 150.3125 C-220.99769617 150.31076375 -220.37039235 150.3090275 -219.72407931 150.30723864 C-182.57272246 150.20428575 -145.4213839 150.09618956 -108.27006171 149.98138306 C-103.81260962 149.96761293 -99.35515739 149.95388591 -94.89770508 149.94018555 C-93.56656659 149.93609309 -93.56656659 149.93609309 -92.20853642 149.93191796 C-77.82578223 149.88780248 -63.44302018 149.8471828 -49.06025221 149.80784739 C-34.31017379 149.7674299 -19.56011001 149.72327341 -4.81005317 149.67562145 C4.29682409 149.6463191 13.40370023 149.61995854 22.51059654 149.59732103 C28.74938491 149.58153399 34.98815537 149.56212621 41.22692386 149.53983159 C44.83024374 149.52706306 48.43354981 149.51592885 52.03688622 149.50908089 C55.93760532 149.5016262 59.83827336 149.48656657 63.7389679 149.47071838 C64.88584101 149.46974028 66.03271413 149.46876217 67.21434098 149.46775442 C68.25488262 149.46227998 69.29542425 149.45680554 70.36749744 149.4511652 C71.26857379 149.44850716 72.16965013 149.44584911 73.09803182 149.44311053 C75.54056924 149.40252143 75.54056924 149.40252143 78.375 148.3125 C79.52206465 142.72183298 79.52206465 142.72183298 78.125 137.375 C76.46169291 135.05318239 76.46169291 135.05318239 73.375 134.3125 C71.76525148 134.21721053 70.15184735 134.17877481 68.53928852 134.1738348 C67.53706424 134.16836036 66.53483996 134.16288591 65.50224525 134.15724558 C64.39817256 134.15626747 63.29409987 134.15528936 62.15657043 134.15428162 C60.98611118 134.14934364 59.81565194 134.14440566 58.60972422 134.13931805 C55.35565027 134.12658937 52.10159949 134.11831459 48.84750807 134.11189139 C45.34035808 134.10389353 41.8332299 134.09019364 38.32609558 134.07717896 C32.24799596 134.05540749 26.16989414 134.03726545 20.09177589 134.02157402 C11.30378932 133.9988815 2.51582688 133.97073782 -6.27213923 133.94125474 C-20.52931589 133.89357125 -34.78650241 133.85030912 -49.04370117 133.80981445 C-62.89494596 133.77046338 -76.74618198 133.72903809 -90.59741211 133.68481445 C-91.45090467 133.68209018 -92.30439724 133.67936591 -93.18375321 133.67655908 C-97.4653858 133.66287967 -101.74701825 133.64915938 -106.02865064 133.63541877 C-141.56074893 133.5214421 -177.09286578 133.41463538 -212.625 133.3125 C-211.02881859 128.44408479 -209.14521037 124.25028535 -206.625 119.8125 C-206.22909668 119.11398926 -205.83319336 118.41547852 -205.42529297 117.69580078 C-201.29434006 110.54314731 -196.60307414 103.8942868 -191.625 97.3125 C-191.19993164 96.74321777 -190.77486328 96.17393555 -190.33691406 95.58740234 C-183.59449315 86.58989783 -176.27331973 78.19247829 -168.39622498 70.16711235 C-167.25491759 68.97207344 -166.14782195 67.74291038 -165.08662415 66.4761982 C-162.1188371 63.102209 -159.90864834 60.91966058 -155.33764648 60.396698 C-153.72457469 60.34348681 -152.10996908 60.32781935 -150.49609375 60.34326172 C-149.60898712 60.32457031 -148.72188049 60.30587891 -147.80789185 60.28662109 C-144.89192799 60.23565406 -141.97886523 60.23633616 -139.0625 60.2421875 C-137.02660011 60.22730239 -134.99071059 60.21093229 -132.95483398 60.19314575 C-128.69450424 60.16482216 -124.4351871 60.16376144 -120.17480469 60.18017578 C-114.72251433 60.19767912 -109.27466516 60.1331619 -103.82316589 60.04636955 C-99.6209622 59.99098116 -95.41982692 59.98639995 -91.21731567 59.99628067 C-89.20783634 59.99356594 -87.19830074 59.97348943 -85.18917847 59.93551254 C-69.41918901 59.67217049 -69.41918901 59.67217049 -64.96948242 63.74029541 C-63.140625 66.69970703 -63.140625 66.69970703 -61.90332031 69.64749146 C-59.79414787 74.04463866 -55.95496866 75.49585327 -51.625 77.3125 C-50.965 77.6425 -50.305 77.9725 -49.625 78.3125 C-40.88477817 79.20176676 -33.85906555 78.51893416 -26.625 73.3125 C-21.35249704 68.59903581 -19.03814558 63.88779827 -18.21875 56.796875 C-18.00189652 48.15887792 -18.63871349 41.85330569 -24.625 35.3125 C-32.21698088 29.1502707 -40.21783935 28.42406712 -49.69433594 29.03417969 C-55.46841137 29.86655778 -59.20853732 33.78421132 -63 37.875 C-64.69041884 40.26463582 -64.69041884 40.26463582 -65.79792786 42.92936707 C-67.625 45.3125 -67.625 45.3125 -70.68119812 45.91377258 C-71.93584366 45.90266953 -73.1904892 45.89156647 -74.4831543 45.88012695 C-75.17609589 45.88085709 -75.86903748 45.88158722 -76.58297729 45.88233948 C-78.87252199 45.87885697 -81.16002978 45.83997027 -83.44921875 45.80078125 C-85.03675729 45.79145534 -86.62431022 45.78433818 -88.21186829 45.77934265 C-92.38961543 45.76025495 -96.56649289 45.71114006 -100.74389648 45.65582275 C-105.00687901 45.60466777 -109.27000212 45.58183671 -113.53320312 45.55664062 C-121.89753446 45.50302198 -130.26115904 45.41768905 -138.625 45.3125 C-132.6163186 40.44557608 -126.18237922 36.38638777 -119.625 32.3125 C-117.99691406 31.29929687 -117.99691406 31.29929687 -116.3359375 30.265625 C-106.22007559 24.22990787 -95.53566152 19.70343018 -84.625 15.3125 C-82.81902344 14.58546875 -82.81902344 14.58546875 -80.9765625 13.84375 C-54.86777542 3.98183527 -27.77144867 -0.11430126 0 0 Z " fill="#FDD095" transform="translate(254.625,16.6875)"/>
<path d="M0 0 C0.99386719 -0.00773437 1.98773438 -0.01546875 3.01171875 -0.0234375 C16.31535546 0.01171081 29.53078424 4.14767257 39.5 13.25 C42.68483359 16.77007923 45.39696838 19.97643563 45.6171875 24.8359375 C44.83508016 33.84278656 41.78501876 38.79095362 34.89453125 44.58203125 C30.45095811 47.67730977 25.58827027 49.4781916 20.5 51.25 C19.613125 51.57097656 18.72625 51.89195312 17.8125 52.22265625 C9.16461147 54.98946583 -1.73176938 56.49123106 -10.1875 52.5 C-13.01569207 50.74009882 -15.57763583 49.00817468 -17.5 46.25 C-17.75 43.8125 -17.75 43.8125 -16.5 41.25 C-11.48768599 36.52293963 -5.91011563 35.53359902 0.765625 34.90234375 C4.13263961 34.09907026 5.40330005 32.9703086 7.5 30.25 C8.11394164 25.66538217 8.11394164 25.66538217 6.3515625 21.55859375 C1.71659678 18.28282684 -5.97611264 19.82700212 -11.296875 20.71875 C-19.99582417 22.98804109 -26.2465076 28.08614673 -31.5 35.25 C-33.5309276 41.34278281 -33.61355753 48.71251391 -30.9375 54.625 C-26.09873952 62.75142004 -18.47338244 66.25878318 -9.64208984 68.78051758 C7.92491648 72.6306832 26.38995102 67.94619084 41.625 59.12890625 C51.3713566 52.75934439 56.22703204 45.93241991 60.5 35.25 C89.87 35.25 119.24 35.25 149.5 35.25 C137.5015633 55.24739449 118.55181961 72.51402367 99.984375 86.38671875 C97.67742119 88.02543835 97.67742119 88.02543835 96.5 89.25 C94.28207997 89.35302236 92.06087921 89.38573759 89.84057617 89.3918457 C89.14459824 89.39532013 88.4486203 89.39879456 87.73155212 89.40237427 C86.21518445 89.40974368 84.6988059 89.41508272 83.18242455 89.41866493 C80.7826035 89.42581212 78.38298912 89.44146574 75.98323059 89.46000671 C69.15836443 89.51255547 62.33360897 89.56045323 55.50854492 89.57592773 C51.33801522 89.58600525 47.16800105 89.61532604 42.99767494 89.65724754 C41.40731009 89.66956895 39.81687243 89.67467671 38.22646141 89.67244911 C35.99961693 89.67009799 33.77425204 89.69224577 31.54760742 89.7199707 C29.646847 89.72877007 29.646847 89.72877007 27.70768738 89.73774719 C23.93025202 90.34098611 22.72961644 91.18664863 20.5 94.25 C19.96260084 98.01179409 19.81758991 100.21126672 21.93261719 103.43066406 C25.81333675 106.18067568 29.42704062 105.8530118 34.078125 105.859375 C35.0046991 105.87591125 35.93127319 105.89244751 36.88592529 105.90948486 C39.840684 105.95800726 42.79492789 105.97934524 45.75 106 C47.75523429 106.02815613 49.76044456 106.05808305 51.765625 106.08984375 C56.67704096 106.16376745 61.58817041 106.21331624 66.5 106.25 C63.19609397 108.95152514 59.63196277 110.79453266 55.78125 112.578125 C55.1253186 112.88236389 54.46938721 113.18660278 53.7935791 113.50006104 C47.04518585 116.56001676 40.13055079 119.00996516 33.09326172 121.31298828 C30.99624147 122.00123356 28.90636999 122.7086211 26.81640625 123.41796875 C17.79600167 126.43350196 8.86345199 128.57792993 -0.5 130.25 C-1.4696167 130.44319824 -2.4392334 130.63639648 -3.43823242 130.83544922 C-54.2723742 140.81177932 -107.82505916 130.13594291 -153.5 107.25 C-153.5 106.92 -153.5 106.59 -153.5 106.25 C-152.74093479 106.24853344 -151.98186958 106.24706688 -151.1998024 106.24555588 C-132.73870085 106.20852058 -114.27778903 106.14954955 -95.81683731 106.06609726 C-86.88928166 106.02627066 -77.96181462 105.99389662 -69.03417969 105.97900391 C-61.25376214 105.9660061 -53.47353927 105.93908954 -45.69323134 105.89538693 C-41.57273561 105.87272977 -37.45248036 105.85709185 -33.33191681 105.85811615 C-29.45433593 105.85886027 -25.57728751 105.84101027 -21.69984436 105.80883217 C-20.27604856 105.80030594 -18.85219321 105.79860169 -17.42838287 105.80419731 C-15.48545453 105.81081661 -13.54248984 105.79059228 -11.59967041 105.76898193 C-10.51195469 105.76529476 -9.42423897 105.76160759 -8.30356216 105.75780869 C-4.83583053 105.12969911 -3.65468508 103.98221661 -1.5 101.25 C-0.72755033 98.29083618 -1.10219858 96.38268622 -1.5 93.25 C-3.84229233 90.69846281 -5.27820258 90.27443783 -8.73856354 89.89317226 C-10.67860386 89.9057411 -10.67860386 89.9057411 -12.65783691 89.91856384 C-13.37966014 89.91897267 -14.10148337 89.91938151 -14.84518003 89.91980273 C-17.26490123 89.92456779 -19.68393321 89.95060849 -22.10351562 89.97631836 C-23.83830224 89.9836732 -25.57309558 89.98956776 -27.30789185 89.99411011 C-31.04568271 90.0061104 -34.78329641 90.02666678 -38.52101135 90.05326653 C-44.43912024 90.09350045 -50.3570379 90.10354569 -56.27526855 90.10731506 C-73.10529623 90.12155236 -89.93495142 90.15627273 -106.76464844 90.2668457 C-116.05849179 90.32765765 -125.35171433 90.35261967 -134.64575338 90.3379069 C-139.56067474 90.33169869 -144.47399651 90.34397689 -149.3886261 90.4008007 C-154.01857179 90.45427019 -158.64627855 90.46081764 -163.27642441 90.43259811 C-164.96786723 90.43053379 -166.65943575 90.44535028 -168.35054398 90.4790554 C-177.12069995 90.64420179 -183.52756619 90.35384993 -190.34460449 84.39894104 C-192.09119429 82.71125645 -193.81307756 80.99732592 -195.5 79.25 C-196.86281291 78.04853331 -198.23505478 76.8574716 -199.625 75.6875 C-200.2540625 75.12933594 -200.883125 74.57117188 -201.53125 73.99609375 C-202.91630263 72.76768397 -204.31330274 71.55267881 -205.71875 70.34765625 C-217.23631439 60.3071821 -227.95553794 48.95367111 -236.5 36.25 C-236.5 35.92 -236.5 35.59 -236.5 35.25 C-235.59516373 35.24853344 -234.69032745 35.24706688 -233.7580719 35.24555588 C-211.73218657 35.20848961 -189.70645513 35.14947718 -167.68069458 35.06609726 C-157.02915192 35.02630331 -146.37768318 34.99391259 -135.72607422 34.97900391 C-126.44114508 34.96598927 -117.15637857 34.93902932 -107.87154102 34.89538693 C-102.9561523 34.87276799 -98.04096418 34.85708959 -93.1255188 34.85811615 C-88.49613208 34.8588625 -83.8671889 34.84092168 -79.23791695 34.80883217 C-77.54166245 34.80033421 -75.84535821 34.79858255 -74.14909172 34.80419731 C-64.22298596 34.83266948 -56.85767587 34.71472989 -48.875 28.0625 C-45.73414423 24.34306553 -43.14728139 20.32905049 -40.5 16.25 C-34.91720952 7.67642891 -23.52727791 3.02117905 -13.88134766 0.66894531 C-9.27865166 -0.14079698 -4.6599379 -0.03626411 0 0 Z " fill="#FEBD7C" transform="translate(299.5,361.75)"/>
<path d="M0 0 C6.27 0 12.54 0 19 0 C19.99 1.98 20.98 3.96 22 6 C24.49774056 7.24887028 26.18214663 7.13058424 28.97815895 7.1386652 C30.03760991 7.14413964 31.09706086 7.14961409 32.18861639 7.15525442 C33.36174805 7.15623253 34.5348797 7.15721064 35.74356079 7.15821838 C37.60209861 7.16562535 37.60209861 7.16562535 39.49818265 7.17318195 C42.94834964 7.18592643 46.39847595 7.19419143 49.84865713 7.20060861 C53.56509661 7.20859732 57.28151542 7.22230033 60.99794006 7.23532104 C67.44056172 7.25710555 73.88318545 7.2752428 80.32582474 7.29092598 C89.64088105 7.31360666 98.95591449 7.34175196 108.27095143 7.37124526 C123.38277264 7.4189433 138.49460319 7.46220147 153.60644531 7.50268555 C168.2890699 7.54202923 182.97168617 7.58345274 197.65429688 7.62768555 C198.55883109 7.63040982 199.4633653 7.63313409 200.39530964 7.63594092 C204.93294207 7.64962021 209.47057437 7.66334052 214.00820661 7.67708123 C251.6721205 7.79108074 289.33605211 7.8978824 327 8 C326.53529738 9.57247284 326.06869471 11.14438424 325.60131836 12.71606445 C325.34168808 13.59148392 325.0820578 14.46690338 324.81455994 15.36885071 C320.37712576 29.70242062 313.67119415 51.32880585 303 62 C299.86440114 62.09534958 296.75086387 62.12550879 293.61499023 62.11352539 C292.13710526 62.11374443 292.13710526 62.11374443 290.62936401 62.1139679 C287.35575193 62.11326832 284.08219596 62.10547385 280.80859375 62.09765625 C278.54557832 62.09579223 276.28256249 62.09436825 274.01954651 62.09336853 C268.05021052 62.0895421 262.08089868 62.07971075 256.11157227 62.06866455 C250.02555671 62.05845312 243.93953727 62.05387149 237.85351562 62.04882812 C225.90233311 62.03808859 213.95116856 62.02101068 202 62 C201.61473145 61.18958252 201.22946289 60.37916504 200.83251953 59.54418945 C200.31286621 58.47386475 199.79321289 57.40354004 199.2578125 56.30078125 C198.74879395 55.24286377 198.23977539 54.18494629 197.71533203 53.0949707 C191.31727921 41.55097474 178.72736223 34.45438719 166.36485291 30.84519005 C151.29998465 27.06116825 135.62455912 27.69346358 120.21484375 27.68115234 C117.53270793 27.67183995 114.85058524 27.66175453 112.16845703 27.65071106 C106.42398599 27.62858037 100.67953233 27.61348242 94.93502808 27.60334396 C86.62973941 27.58867554 78.3245114 27.56311665 70.01925862 27.53501268 C56.54019899 27.48969184 43.06113055 27.45301671 29.58203125 27.421875 C16.49868222 27.39162889 3.41535465 27.35725107 -9.66796875 27.31738281 C-10.88035758 27.31369049 -10.88035758 27.31369049 -12.11723912 27.30992357 C-16.17257656 27.2975478 -20.22791374 27.28509149 -24.28325081 27.27259517 C-57.8554713 27.16924794 -91.42771572 27.07997246 -125 27 C-126.00380916 24.20964954 -127.0031945 21.41785145 -128 18.625 C-128.28617188 17.8309375 -128.57234375 17.036875 -128.8671875 16.21875 C-129.13789063 15.45820313 -129.40859375 14.69765625 -129.6875 13.9140625 C-129.93886719 13.2123291 -130.19023437 12.5105957 -130.44921875 11.78759766 C-131 10 -131 10 -131 8 C-130.03009266 7.99503478 -130.03009266 7.99503478 -129.04059124 7.98996925 C-113.31709794 7.90879679 -97.59371216 7.81672339 -81.87035656 7.71247292 C-74.26670029 7.66232213 -66.66305493 7.61587955 -59.05932617 7.578125 C-52.43296444 7.54521398 -45.80668681 7.50538778 -39.18041784 7.45720994 C-35.67090765 7.431936 -32.16145331 7.41015745 -28.65187645 7.39665604 C-24.73681039 7.38146527 -20.8219491 7.35083779 -16.90698242 7.31884766 C-15.7395752 7.31668747 -14.57216797 7.31452728 -13.36938477 7.31230164 C-12.30507736 7.30113815 -11.24076996 7.28997467 -10.14421082 7.2784729 C-9.21780887 7.27294214 -8.29140692 7.26741138 -7.33693218 7.26171303 C-4.72890812 7.15052053 -4.72890812 7.15052053 -2 5 C-1.34 3.35 -0.68 1.7 0 0 Z " fill="#D07B54" transform="translate(158,318)"/>
<path d="M0 0 C1.11749694 0.00394052 1.11749694 0.00394052 2.25756958 0.00796065 C3.04550556 0.0068068 3.83344154 0.00565296 4.64525437 0.00446415 C7.31960469 0.00179016 9.99389634 0.00632603 12.66824368 0.01075396 C14.59126385 0.01031842 16.51428396 0.00944382 18.43730375 0.00816479 C23.7481853 0.0059165 29.05904689 0.00994566 34.36992589 0.01494285 C40.08707147 0.0192424 45.80421583 0.01780129 51.52136257 0.01704058 C61.43553017 0.01651503 71.34969121 0.01966507 81.26385716 0.02527842 C95.59825741 0.03338921 109.93265448 0.03600821 124.26705679 0.03726641 C147.52102175 0.03945759 170.77498314 0.04611091 194.02894619 0.05556902 C216.62432361 0.06474868 239.21970009 0.07183463 261.815079 0.07607684 C262.8592268 0.07627412 262.8592268 0.07627412 263.92446848 0.0764754 C270.91477322 0.07779388 277.90507797 0.0790697 284.89538272 0.08031426 C343.5491998 0.090761 402.20301341 0.10841245 460.85682705 0.13100848 C464.00369784 9.47163131 464.85682705 16.99440839 464.85682705 27.13100848 C308.43682705 27.13100848 152.01682705 27.13100848 -9.14317295 27.13100848 C-9.14317295 14.70517116 -9.14317295 14.70517116 -7.70567295 8.00600848 C-7.43883701 6.72468035 -7.17200107 5.44335223 -6.8970792 4.12319598 C-5.71055828 -0.58600105 -4.60378932 0.01543683 0 0 Z " fill="#FED195" transform="translate(28.143172949552536,201.8689915239811)"/>
<path d="M0 0 C37.95 0 75.9 0 115 0 C116.65 9.9 118.3 19.8 120 30 C123.33330391 43.77765615 127.41518097 56.52317865 133.02026367 69.49145508 C134.49694624 73.27239536 135.71640735 77.14922206 137 81 C71.165 80.505 71.165 80.505 4 80 C0.53903568 60.96469626 -1.17563746 43.95523489 -1.13037109 24.94335938 C-1.12492459 22.21218529 -1.1303966 19.48116968 -1.13671875 16.75 C-1.13605931 15.00520797 -1.13478095 13.26041604 -1.1328125 11.515625 C-1.13483673 10.7032135 -1.13686096 9.890802 -1.13894653 9.05377197 C-1.12522186 5.77870619 -1.043007 3.129021 0 0 Z " fill="#FD8631" transform="translate(18,230)"/>
<path d="M0 0 C6.27 0 12.54 0 19 0 C19.66 1.98 20.32 3.96 21 6 C23.93473945 6.97824648 25.85735041 7.13584269 28.91642761 7.15821838 C29.93025009 7.1680072 30.94407257 7.17779602 31.98861694 7.18788147 C33.09991974 7.19363693 34.21122253 7.1993924 35.35620117 7.20532227 C36.52706772 7.21522186 37.69793427 7.22512146 38.90428162 7.23532104 C42.11473255 7.26151161 45.32517822 7.28337254 48.5356729 7.30332303 C51.89094069 7.32519211 55.24616331 7.35257629 58.60139465 7.37937927 C64.95489457 7.4292937 71.30841956 7.47423716 77.66196853 7.51740164 C84.89530388 7.5667847 92.12859391 7.62169886 99.36188543 7.67708123 C114.24121472 7.79088208 129.12058669 7.89772525 144 8 C145.00380916 10.79035046 146.0031945 13.58214855 147 16.375 C147.28617187 17.1690625 147.57234375 17.963125 147.8671875 18.78125 C148.13789063 19.54179687 148.40859375 20.30234375 148.6875 21.0859375 C148.93886719 21.7876709 149.19023437 22.4894043 149.44921875 23.21240234 C150 25 150 25 150 27 C-1.14 27 -152.28 27 -308 27 C-306.18547246 20.34673235 -304.50449907 14.3208786 -302 8 C-301.37269617 7.99826375 -300.74539235 7.9965275 -300.09907931 7.99473864 C-262.94772246 7.89178575 -225.7963839 7.78368956 -188.64506171 7.66888306 C-184.18760962 7.65511293 -179.73015739 7.64138591 -175.27270508 7.62768555 C-173.94156659 7.62359309 -173.94156659 7.62359309 -172.58353642 7.61941796 C-158.20078223 7.57530248 -143.81802018 7.5346828 -129.43525221 7.49534739 C-114.68517379 7.4549299 -99.93511001 7.41077341 -85.18505317 7.36312145 C-76.07817591 7.3338191 -66.97129977 7.30745854 -57.86440346 7.28482103 C-51.62561509 7.26903399 -45.38684463 7.24962621 -39.14807614 7.22733159 C-35.54475626 7.21456306 -31.94145019 7.20342885 -28.33811378 7.19658089 C-24.43739468 7.1891262 -20.53672664 7.17406657 -16.6360321 7.15821838 C-15.48915899 7.15724028 -14.34228587 7.15626217 -13.16065902 7.15525442 C-11.59984657 7.14704276 -11.59984657 7.14704276 -10.00750256 7.1386652 C-9.10642621 7.13600716 -8.20534987 7.13334911 -7.27696818 7.13061053 C-4.83443076 7.09002143 -4.83443076 7.09002143 -2 6 C-1.34 4.02 -0.68 2.04 0 0 Z " fill="#D17C54" transform="translate(335,159)"/>
<path d="M0 0 C0.99386719 -0.00773437 1.98773438 -0.01546875 3.01171875 -0.0234375 C16.31535546 0.01171081 29.53078424 4.14767257 39.5 13.25 C42.68483359 16.77007923 45.39696838 19.97643563 45.6171875 24.8359375 C44.83508016 33.84278656 41.78501876 38.79095362 34.89453125 44.58203125 C30.45095811 47.67730977 25.58827027 49.4781916 20.5 51.25 C19.613125 51.57097656 18.72625 51.89195312 17.8125 52.22265625 C9.16461147 54.98946583 -1.73176938 56.49123106 -10.1875 52.5 C-13.01569207 50.74009882 -15.57763583 49.00817468 -17.5 46.25 C-17.75 43.8125 -17.75 43.8125 -16.5 41.25 C-11.48768599 36.52293963 -5.91011563 35.53359902 0.765625 34.90234375 C4.13263961 34.09907026 5.40330005 32.9703086 7.5 30.25 C8.11394164 25.66538217 8.11394164 25.66538217 6.3515625 21.55859375 C1.71659678 18.28282684 -5.97611264 19.82700212 -11.296875 20.71875 C-19.99582417 22.98804109 -26.2465076 28.08614673 -31.5 35.25 C-33.57527594 41.47582781 -33.62032385 48.80599442 -30.6875 54.75 C-29.16381322 57.41207345 -27.34485698 59.80323674 -25.5 62.25 C-49.91754521 62.57753357 -74.33475964 62.82415878 -98.7540617 62.97537041 C-110.09338142 63.0474583 -121.43133366 63.14567449 -132.76977539 63.30615234 C-142.65640017 63.44601489 -152.54203441 63.53608913 -162.42962104 63.56723893 C-167.66215534 63.58543983 -172.89185686 63.62797716 -178.12347984 63.73022079 C-183.05660788 63.82584227 -187.98576052 63.85445171 -192.91972733 63.83350754 C-194.72216412 63.83733373 -196.52474498 63.86485033 -198.32637596 63.91887665 C-212.55556179 64.32434943 -212.55556179 64.32434943 -218.36496925 59.26590347 C-221.76650699 55.85273985 -224.65839962 52.13126487 -227.5 48.25 C-228.45385721 47.02039951 -229.41164858 45.79383883 -230.37372875 44.57066154 C-236.5 36.7000597 -236.5 36.7000597 -236.5 35.25 C-235.59516373 35.24853344 -234.69032745 35.24706688 -233.7580719 35.24555588 C-211.73218657 35.20848961 -189.70645513 35.14947718 -167.68069458 35.06609726 C-157.02915192 35.02630331 -146.37768318 34.99391259 -135.72607422 34.97900391 C-126.44114508 34.96598927 -117.15637857 34.93902932 -107.87154102 34.89538693 C-102.9561523 34.87276799 -98.04096418 34.85708959 -93.1255188 34.85811615 C-88.49613208 34.8588625 -83.8671889 34.84092168 -79.23791695 34.80883217 C-77.54166245 34.80033421 -75.84535821 34.79858255 -74.14909172 34.80419731 C-64.22298596 34.83266948 -56.85767587 34.71472989 -48.875 28.0625 C-45.73414423 24.34306553 -43.14728139 20.32905049 -40.5 16.25 C-34.91720952 7.67642891 -23.52727791 3.02117905 -13.88134766 0.66894531 C-9.27865166 -0.14079698 -4.6599379 -0.03626411 0 0 Z " fill="#B8684A" transform="translate(299.5,361.75)"/>
<path d="M0 0 C1.38280655 0.00273422 1.38280655 0.00273422 2.79354858 0.00552368 C16.83966617 0.05221379 30.56264912 0.54783347 44.375 3.3125 C45.21015137 3.47347168 46.04530273 3.63444336 46.90576172 3.80029297 C77.26668072 9.83076744 106.38277291 21.51547969 132.375 38.3125 C133.33277344 38.92351563 134.29054688 39.53453125 135.27734375 40.1640625 C139.68447139 43.02971406 139.68447139 43.02971406 141.375 44.3125 C141.375 44.6425 141.375 44.9725 141.375 45.3125 C140.68201152 45.31488835 139.98902304 45.31727671 139.2750349 45.31973743 C122.42491401 45.37883432 105.57495525 45.45435005 88.72499371 45.54821491 C80.57652261 45.59320969 72.42809559 45.63261576 64.27954102 45.65893555 C57.17851575 45.68188592 50.0776295 45.71525052 42.97671443 45.76120156 C39.21566843 45.78517399 35.45476046 45.8038763 31.69363976 45.81011391 C27.49827763 45.81726658 23.30339691 45.84766611 19.1081543 45.88012695 C17.85659042 45.87869186 16.60502655 45.87725677 15.3155365 45.8757782 C14.17550171 45.88831635 13.03546692 45.90085449 11.86088562 45.91377258 C10.86811458 45.91838155 9.87534353 45.92299051 8.85248852 45.92773914 C6.36563778 46.13238875 6.36563778 46.13238875 4.59463215 47.52492046 C2.96676674 49.66084231 2.96676674 49.66084231 2.375 54.3125 C-3.895 53.9825 -10.165 53.6525 -16.625 53.3125 C-16.625 54.9625 -16.625 56.6125 -16.625 58.3125 C-16.955 58.3125 -17.285 58.3125 -17.625 58.3125 C-17.62757813 57.49007812 -17.63015625 56.66765625 -17.6328125 55.8203125 C-17.9161139 47.64234549 -19.17225362 41.59602963 -24.625 35.3125 C-32.19029254 29.13179874 -40.23626019 28.42525309 -49.69433594 29.03417969 C-55.46841137 29.86655778 -59.20853732 33.78421132 -63 37.875 C-64.69041884 40.26463582 -64.69041884 40.26463582 -65.79792786 42.92936707 C-67.625 45.3125 -67.625 45.3125 -70.68119812 45.91377258 C-71.93584366 45.90266953 -73.1904892 45.89156647 -74.4831543 45.88012695 C-75.17609589 45.88085709 -75.86903748 45.88158722 -76.58297729 45.88233948 C-78.87252199 45.87885697 -81.16002978 45.83997027 -83.44921875 45.80078125 C-85.03675729 45.79145534 -86.62431022 45.78433818 -88.21186829 45.77934265 C-92.38961543 45.76025495 -96.56649289 45.71114006 -100.74389648 45.65582275 C-105.00687901 45.60466777 -109.27000212 45.58183671 -113.53320312 45.55664062 C-121.89753446 45.50302198 -130.26115904 45.41768905 -138.625 45.3125 C-132.6163186 40.44557608 -126.18237922 36.38638777 -119.625 32.3125 C-118.53960937 31.63703125 -117.45421875 30.9615625 -116.3359375 30.265625 C-106.22007559 24.22990787 -95.53566152 19.70343018 -84.625 15.3125 C-83.42101562 14.8278125 -82.21703125 14.343125 -80.9765625 13.84375 C-54.86777542 3.98183527 -27.77144867 -0.11430126 0 0 Z " fill="#D07C54" transform="translate(254.625,16.6875)"/>
<path d="M0 0 C0.89835068 -0.00102219 1.79670135 -0.00204437 2.72227478 -0.00309753 C5.67228289 0.00175404 8.61914074 0.05607787 11.56860352 0.11108398 C13.6212444 0.12414888 15.6739072 0.13410884 17.72657776 0.14109802 C23.11445987 0.16775326 28.50100916 0.23645464 33.8883667 0.31402588 C39.39162162 0.38578937 44.89509311 0.41763756 50.39868164 0.45288086 C61.1863748 0.52782736 71.97308121 0.6472113 82.76000977 0.79467773 C82.76000977 1.12467773 82.76000977 1.45467773 82.76000977 1.79467773 C82.09356445 1.66963867 81.42711914 1.54459961 80.74047852 1.41577148 C77.20512215 1.18337743 75.0655848 1.44613469 71.76000977 2.79467773 C67.61127747 6.90400552 64.89826817 12.31454929 62.09643555 17.38208008 C60.82500084 19.67735187 59.5040187 21.93445905 58.16235352 24.18920898 C49.10949744 39.63568809 42.77625853 55.94918121 36.76000977 72.79467773 C4.09000977 72.79467773 -28.57999023 72.79467773 -62.23999023 72.79467773 C-60.56502194 67.76977284 -58.81006086 63.82026094 -56.23999023 59.29467773 C-55.84408691 58.59616699 -55.44818359 57.89765625 -55.0402832 57.17797852 C-50.90933029 50.02532504 -46.21806438 43.37646453 -41.23999023 36.79467773 C-40.6023877 35.94075439 -40.6023877 35.94075439 -39.9519043 35.06958008 C-33.2098173 26.07252117 -25.89038784 17.67232194 -18.01078129 9.64997196 C-16.86933653 8.45405679 -15.76351584 7.22257496 -14.70551968 5.95223904 C-10.11231893 0.70671971 -6.83636466 -0.20602336 0 0 Z " fill="#FCBC7B" transform="translate(104.239990234375,77.205322265625)"/>
<path d="M0 0 C0.33 0.99 0.66 1.98 1 3 C6.94 3 12.88 3 19 3 C19.33 2.34 19.66 1.68 20 1 C20.4021875 2.670625 20.4021875 2.670625 20.8125 4.375 C21.65809019 8.21840951 21.65809019 8.21840951 25 10 C26.99593196 10.32521054 26.99593196 10.32521054 29.19604492 10.31884766 C30.45701241 10.34865219 30.45701241 10.34865219 31.74345398 10.37905884 C32.64666885 10.39061005 33.54988373 10.40216125 34.48046875 10.4140625 C35.40845779 10.43342865 36.33644684 10.4527948 37.29255676 10.4727478 C40.25744425 10.53254244 43.22237057 10.57892855 46.1875 10.625 C48.19728259 10.66317988 50.20704881 10.70223162 52.21679688 10.7421875 C57.14439842 10.83824393 62.07207658 10.92227549 67 11 C63.69609397 13.70152514 60.13196277 15.54453266 56.28125 17.328125 C55.6253186 17.63236389 54.96938721 17.93660278 54.2935791 18.25006104 C47.54518585 21.31001676 40.63055079 23.75996516 33.59326172 26.06298828 C31.49624147 26.75123356 29.40636999 27.4586211 27.31640625 28.16796875 C18.29600167 31.18350196 9.36345199 33.32792993 0 35 C-0.9696167 35.19319824 -1.9392334 35.38639648 -2.93823242 35.58544922 C-53.7723742 45.56177932 -107.32505916 34.88594291 -153 12 C-153 11.67 -153 11.34 -153 11 C-152.24093479 10.99853344 -151.48186958 10.99706688 -150.6998024 10.99555588 C-132.23870085 10.95852058 -113.77778903 10.89954955 -95.31683731 10.81609726 C-86.38928166 10.77627066 -77.46181462 10.74389662 -68.53417969 10.72900391 C-60.75376214 10.7160061 -52.97353927 10.68908954 -45.19323134 10.64538693 C-41.07273561 10.62272977 -36.95248036 10.60709185 -32.83191681 10.60811615 C-28.95433593 10.60886027 -25.07728751 10.59101027 -21.19984436 10.55883217 C-19.77604856 10.55030594 -18.35219321 10.54860169 -16.92838287 10.55419731 C-14.98545453 10.56081661 -13.04248984 10.54059228 -11.09967041 10.51898193 C-10.01195469 10.51529476 -8.92423897 10.51160759 -7.80356216 10.50780869 C-4.31054194 9.87511859 -3.13840212 8.7867904 -1 6 C-0.19684346 2.85518209 -0.19684346 2.85518209 0 0 Z " fill="#B7684A" transform="translate(299,457)"/>
<path d="M0 0 C68.97 0 137.94 0 209 0 C202.10344828 10.34482759 202.10344828 10.34482759 199.75 13.5 C199.27046875 14.1496875 198.7909375 14.799375 198.296875 15.46875 C197 17 197 17 195 18 C192.55656182 18.09541948 190.14180293 18.13016939 187.69821167 18.12025452 C186.55633729 18.12153615 186.55633729 18.12153615 185.39139473 18.12284368 C182.82714977 18.1244977 180.26296946 18.11897837 177.69873047 18.11352539 C175.86594647 18.11324348 174.03316235 18.11340134 172.20037842 18.1139679 C167.21304278 18.1142557 162.22573101 18.10836165 157.23840094 18.10139394 C152.03069014 18.09515765 146.82297885 18.09455638 141.61526489 18.09336853 C131.74843771 18.09025603 121.88162156 18.08204373 112.01479924 18.07201904 C100.78401277 18.06085539 89.55322578 18.05534682 78.32243514 18.05032361 C55.21495064 18.03986106 32.10747593 18.02226318 9 18 C7.49480613 15.37785672 5.99568681 12.75255792 4.5 10.125 C3.85611328 9.00544922 3.85611328 9.00544922 3.19921875 7.86328125 C2.79316406 7.14785156 2.38710938 6.43242187 1.96875 5.6953125 C1.59169922 5.03547363 1.21464844 4.37563477 0.82617188 3.69580078 C0 2 0 2 0 0 Z " fill="#FE8631" transform="translate(42,362)"/>
<path d="M0 0 C1.11749694 0.00394052 1.11749694 0.00394052 2.25756958 0.00796065 C3.04550556 0.0068068 3.83344154 0.00565296 4.64525437 0.00446415 C7.31960469 0.00179016 9.99389634 0.00632603 12.66824368 0.01075396 C14.59126385 0.01031842 16.51428396 0.00944382 18.43730375 0.00816479 C23.7481853 0.0059165 29.05904689 0.00994566 34.36992589 0.01494285 C40.08707147 0.0192424 45.80421583 0.01780129 51.52136257 0.01704058 C61.43553017 0.01651503 71.34969121 0.01966507 81.26385716 0.02527842 C95.59825741 0.03338921 109.93265448 0.03600821 124.26705679 0.03726641 C147.52102175 0.03945759 170.77498314 0.04611091 194.02894619 0.05556902 C216.62432361 0.06474868 239.21970009 0.07183463 261.815079 0.07607684 C262.8592268 0.07627412 262.8592268 0.07627412 263.92446848 0.0764754 C270.91477322 0.07779388 277.90507797 0.0790697 284.89538272 0.08031426 C343.5491998 0.090761 402.20301341 0.10841245 460.85682705 0.13100848 C460.85682705 0.46100848 460.85682705 0.79100848 460.85682705 1.13100848 C343.04682705 1.13100848 225.23682705 1.13100848 103.85682705 1.13100848 C104.18682705 9.71100848 104.51682705 18.29100848 104.85682705 27.13100848 C67.23682705 27.13100848 29.61682705 27.13100848 -9.14317295 27.13100848 C-9.14317295 14.70517116 -9.14317295 14.70517116 -7.70567295 8.00600848 C-7.43883701 6.72468035 -7.17200107 5.44335223 -6.8970792 4.12319598 C-5.71055828 -0.58600105 -4.60378932 0.01543683 0 0 Z " fill="#F1B578" transform="translate(28.143172949552536,201.8689915239811)"/>
<path d="M0 0 C0.99386719 -0.00773437 1.98773438 -0.01546875 3.01171875 -0.0234375 C16.31535546 0.01171081 29.53078424 4.14767257 39.5 13.25 C42.68483359 16.77007923 45.39696838 19.97643563 45.6171875 24.8359375 C44.83508016 33.84278656 41.78501876 38.79095362 34.89453125 44.58203125 C30.45095811 47.67730977 25.58827027 49.4781916 20.5 51.25 C19.1696875 51.73146484 19.1696875 51.73146484 17.8125 52.22265625 C9.16461147 54.98946583 -1.73176938 56.49123106 -10.1875 52.5 C-13.01569207 50.74009882 -15.57763583 49.00817468 -17.5 46.25 C-17.75 43.8125 -17.75 43.8125 -16.5 41.25 C-11.48768599 36.52293963 -5.91011563 35.53359902 0.765625 34.90234375 C4.13263961 34.09907026 5.40330005 32.9703086 7.5 30.25 C8.11394164 25.66538217 8.11394164 25.66538217 6.3515625 21.55859375 C1.71659678 18.28282684 -5.97611264 19.82700212 -11.296875 20.71875 C-19.99582417 22.98804109 -26.2465076 28.08614673 -31.5 35.25 C-32.7062252 38.86867559 -32.60816918 42.17506251 -32.5625 45.9375 C-32.55798828 46.63939453 -32.55347656 47.34128906 -32.54882812 48.06445312 C-32.53706927 49.79300538 -32.51913454 51.52151365 -32.5 53.25 C-45.61389368 49.40325785 -45.61389368 49.40325785 -49.01171875 43.72265625 C-53.16676844 35.2418014 -53.16676844 35.2418014 -51.5 30.25 C-49.85697047 28.56002677 -48.18528688 26.89783606 -46.5 25.25 C-45.44794621 23.77172955 -44.42880978 22.26967286 -43.4375 20.75 C-42.92574219 19.97011719 -42.41398437 19.19023437 -41.88671875 18.38671875 C-41.42910156 17.68160156 -40.97148437 16.97648437 -40.5 16.25 C-34.91720952 7.67642891 -23.52727791 3.02117905 -13.88134766 0.66894531 C-9.27865166 -0.14079698 -4.6599379 -0.03626411 0 0 Z " fill="#FB9940" transform="translate(299.5,361.75)"/>
<path d="M0 0 C0.66 0 1.32 0 2 0 C2.4846875 0.88300781 2.969375 1.76601563 3.46875 2.67578125 C7.4255166 9.7892037 11.56057448 16.42874683 16.53125 22.890625 C18 25 18 25 18 27 C-29.19 27 -76.38 27 -125 27 C-131 10 -131 10 -131 8 C-130.03009266 7.99503478 -130.03009266 7.99503478 -129.04059124 7.98996925 C-113.31709794 7.90879679 -97.59371216 7.81672339 -81.87035656 7.71247292 C-74.26670029 7.66232213 -66.66305493 7.61587955 -59.05932617 7.578125 C-52.43296444 7.54521398 -45.80668681 7.50538778 -39.18041784 7.45720994 C-35.67090765 7.431936 -32.16145331 7.41015745 -28.65187645 7.39665604 C-24.73681039 7.38146527 -20.8219491 7.35083779 -16.90698242 7.31884766 C-15.7395752 7.31668747 -14.57216797 7.31452728 -13.36938477 7.31230164 C-12.30507736 7.30113815 -11.24076996 7.28997467 -10.14421082 7.2784729 C-9.21780887 7.27294214 -8.29140692 7.26741138 -7.33693218 7.26171303 C-4.72890812 7.15052053 -4.72890812 7.15052053 -2 5 C-0.79549696 2.44816596 -0.79549696 2.44816596 0 0 Z " fill="#B6674A" transform="translate(158,318)"/>
<path d="M0 0 C-2.93543694 2.32018121 -6.03257306 4.27354681 -9.23022461 6.21118164 C-23.912333 15.04493296 -23.912333 15.04493296 -37 26 C-35.02 26.33 -33.04 26.66 -31 27 C-31 27.33 -31 27.66 -31 28 C-31.90621094 28.00257812 -32.81242187 28.00515625 -33.74609375 28.0078125 C-42.13103849 28.27400122 -47.72544524 29.26683381 -54 35 C-56.31493332 37.49769122 -57.78519654 39.52076157 -59.17292786 42.61686707 C-61 45 -61 45 -64.05619812 45.60127258 C-65.31084366 45.59016953 -66.5654892 45.57906647 -67.8581543 45.56762695 C-68.55109589 45.56835709 -69.24403748 45.56908722 -69.95797729 45.56983948 C-72.24752199 45.56635697 -74.53502978 45.52747027 -76.82421875 45.48828125 C-78.41175729 45.47895534 -79.99931022 45.47183818 -81.58686829 45.46684265 C-85.76461543 45.44775495 -89.94149289 45.39864006 -94.11889648 45.34332275 C-98.38187901 45.29216777 -102.64500212 45.26933671 -106.90820312 45.24414062 C-115.27253446 45.19052198 -123.63615904 45.10518905 -132 45 C-125.9913186 40.13307608 -119.55737922 36.07388777 -113 32 C-111.91460937 31.32453125 -110.82921875 30.6490625 -109.7109375 29.953125 C-99.59507559 23.91740787 -88.91066152 19.39093018 -78 15 C-76.79601562 14.5153125 -75.59203125 14.030625 -74.3515625 13.53125 C-57.94237422 7.33310624 -40.17906435 2.9117017 -22.75 0.875 C-22.03271729 0.79008301 -21.31543457 0.70516602 -20.57641602 0.61767578 C-13.70343469 -0.13596387 -6.91296259 -0.1972002 0 0 Z " fill="#B66749" transform="translate(248,17)"/>
<path d="M0 0 C34.32 0 68.64 0 104 0 C103.01 5.94 102.02 11.88 101 18 C274.745 17.505 274.745 17.505 452 17 C452 17.66 452 18.32 452 19 C300.86 19 149.72 19 -6 19 C-3 8 -3 8 0 0 Z " fill="#B36648" transform="translate(33,167)"/>
<path d="M0 0 C29.37 0 58.74 0 89 0 C86.76118097 3.73136505 84.66875481 6.80387346 81.9375 10.125 C80.89916016 11.39730469 80.89916016 11.39730469 79.83984375 12.6953125 C79.40815384 13.17728592 78.97646393 13.65925934 78.5316925 14.15583801 C76.87562298 16.07514617 76.87562298 16.07514617 75.26164246 18.69120789 C72.38722262 22.63711991 69.75284524 26.18466045 64.91298485 27.61813354 C58.75571066 28.56537256 52.54108867 28.26172026 46.3359375 28.07421875 C44.33245128 28.05367435 42.32890939 28.0380295 40.3253479 28.02705383 C35.07957437 27.9852704 29.83720987 27.87742022 24.59277344 27.75531006 C19.23028679 27.64230318 13.86724318 27.59244283 8.50390625 27.53710938 C-1.99888482 27.41952258 -12.49915777 27.23206043 -23 27 C-20.09880277 24.66323919 -17.18879802 22.42919033 -14.125 20.3125 C-6.66709637 14.71554775 -3.27097058 8.72258822 0 0 Z " fill="#D17C54" transform="translate(360,397)"/>
<path d="M0 0 C37.62 0 75.24 0 114 0 C110.48365467 10.54903598 110.48365467 10.54903598 107 14 C103.71688495 15.13488228 100.60614861 15.01516353 97.16088867 14.90820312 C96.17504791 14.90937134 95.18920715 14.91053955 94.17349243 14.91174316 C90.92020974 14.90617656 87.67060944 14.84398965 84.41796875 14.78125 C82.16069034 14.76632646 79.90338599 14.75493998 77.64607239 14.74694824 C71.70895665 14.71642375 65.77341031 14.63785535 59.83691406 14.54931641 C53.77755973 14.46743324 47.71795142 14.43093132 41.65820312 14.390625 C29.77144641 14.30486363 17.88585378 14.16835068 6 14 C4.99515796 12.04414675 3.99626195 10.08523763 3 8.125 C2.1646875 6.48917969 2.1646875 6.48917969 1.3125 4.8203125 C0 2 0 2 0 0 Z " fill="#FE9A40" transform="translate(354,366)"/>
<path d="M0 0 C19.47 0 38.94 0 59 0 C52.10344828 10.34482759 52.10344828 10.34482759 49.75 13.5 C49.03070313 14.47453125 49.03070313 14.47453125 48.296875 15.46875 C45.78169956 18.43847522 42.99028773 18.3199851 39.27734375 18.66015625 C18.87984027 20.04337072 18.87984027 20.04337072 11.36328125 14.50390625 C7.1584527 10.78252853 3.09856127 6.70748176 0 2 C0 1.34 0 0.68 0 0 Z " fill="#FD9A40" transform="translate(192,362)"/>
<path d="M0 0 C0.33 0.99 0.66 1.98 1 3 C1.66 3.061875 2.32 3.12375 3 3.1875 C9.11897844 4.84472333 14.74822517 8.49699644 18 14 C18.87192565 16.9715627 19.49435756 19.94618577 20 23 C17.58394775 23.81436587 15.16720002 24.62655397 12.75 25.4375 C12.06808594 25.66759766 11.38617188 25.89769531 10.68359375 26.13476562 C1.60505364 29.17563586 -9.61346209 31.62406364 -18.6875 27.25 C-21.51569207 25.49009882 -24.07763583 23.75817468 -26 21 C-26.25 18.5625 -26.25 18.5625 -25 16 C-19.98768599 11.27293963 -14.41011563 10.28359902 -7.734375 9.65234375 C-4.38425894 8.85310178 -3.12787652 7.66477129 -1 5 C-0.20318682 2.35815459 -0.20318682 2.35815459 0 0 Z " fill="#F98431" transform="translate(308,387)"/>
<path d="M0 0 C1.75690055 0.00747311 3.51380952 0.01316098 5.27072144 0.01715088 C9.86413138 0.03232315 14.45702432 0.07153093 19.05023193 0.1159668 C23.74956268 0.15710236 28.44897808 0.1752007 33.1484375 0.1953125 C42.3465796 0.2380346 51.54434033 0.30618223 60.7421875 0.390625 C57.81099806 2.34475129 56.16660104 2.89736562 52.796875 3.609375 C51.81211182 3.81860596 50.82734863 4.02783691 49.81274414 4.2434082 C44.46198149 5.32713284 39.10918488 6.38999837 33.7421875 7.390625 C32.99630371 7.53064941 32.25041992 7.67067383 31.48193359 7.81494141 C21.06905346 9.66141902 10.53327619 9.5909983 -0.0078125 9.640625 C-0.71364471 9.6460733 -1.41947693 9.65152161 -2.146698 9.65713501 C-11.34824071 9.70997515 -20.19982206 9.09945947 -29.2578125 7.390625 C-28.2578125 4.390625 -28.2578125 4.390625 -26.61453247 3.23638916 C-17.98922653 -0.5832918 -9.2260545 -0.11593525 0 0 Z " fill="#FDCF93" transform="translate(353.2578125,423.609375)"/>
<path d="M0 0 C2.48278042 0.81829467 3.51609299 1.6038882 5.0859375 3.6875 C6.07822821 6.69820023 6.34580427 9.53039515 6.0859375 12.6875 C4.1225608 15.79090188 2.77224677 17.27694986 -0.85546875 18.16015625 C-4.77649373 18.45032698 -6.58747981 17.90522179 -9.9140625 15.6875 C-12.13178429 12.36091731 -12.67688948 10.54993123 -12.38671875 6.62890625 C-10.71249788 -0.2478522 -6.01501053 -0.82116185 0 0 Z " fill="#E4A473" transform="translate(214.9140625,61.3125)"/>
<path d="M0 0 C0.83764268 1.95649397 1.66999059 3.91525556 2.5 5.875 C2.9640625 6.96554687 3.428125 8.05609375 3.90625 9.1796875 C5 12 5 12 5 14 C0.60616294 12.40376856 -3.28995807 10.21975667 -7.3125 7.875 C-7.95767578 7.50246094 -8.60285156 7.12992187 -9.26757812 6.74609375 C-10.84675945 5.83367787 -12.42361864 4.91724491 -14 4 C-14 3.67 -14 3.34 -14 3 C-13.38511719 2.86722656 -12.77023438 2.73445313 -12.13671875 2.59765625 C-11.32847656 2.42105469 -10.52023438 2.24445313 -9.6875 2.0625 C-8.88699219 1.88847656 -8.08648437 1.71445312 -7.26171875 1.53515625 C-0.77372263 0 -0.77372263 0 0 0 Z " fill="#D07C53" transform="translate(247,394)"/>
<path d="M0 0 C4 0 4 0 5.5703125 1.43359375 C6.33988281 2.42552734 6.33988281 2.42552734 7.125 3.4375 C11.28176764 8.4998815 16.06594107 12.71124052 21 17 C19.25683594 17.72412109 19.25683594 17.72412109 17 18 C14.98535156 16.56884766 14.98535156 16.56884766 12.890625 14.4140625 C12.13652344 13.64835937 11.38242188 12.88265625 10.60546875 12.09375 C9.43951172 10.87171875 9.43951172 10.87171875 8.25 9.625 C7.45722656 8.81804687 6.66445312 8.01109375 5.84765625 7.1796875 C0 1.18105906 0 1.18105906 0 0 Z " fill="#BF6C49" transform="translate(188,362)"/>
<path d="M0 0 C-1.77444972 2.24606427 -2.58352485 2.95081002 -5.48046875 3.29296875 C-6.82044922 3.24076172 -6.82044922 3.24076172 -8.1875 3.1875 C-9.53908203 3.14689453 -9.53908203 3.14689453 -10.91796875 3.10546875 C-11.60503906 3.07066406 -12.29210937 3.03585937 -13 3 C-8.83099908 0.22066605 -4.8978425 -1.63261417 0 0 Z " fill="#B36648" transform="translate(430,421)"/>
</svg>
