<?xml version="1.0" encoding="UTF-8"?>
<svg version="1.1" xmlns="http://www.w3.org/2000/svg" width="512" height="512">
<path d="M0 0 C14.01721329 11.53955296 25.03560939 26.33030867 27.40136719 44.76757812 C28.87008317 65.3654242 26.14303507 83.12824382 13.12792969 99.65429688 C10.96509106 102.12347613 8.74109167 104.46627977 6.40136719 106.76757812 C5.83933594 107.32832031 5.27730469 107.8890625 4.69824219 108.46679688 C-0.46711341 113.24349708 -8.43967443 119.76757812 -15.59863281 119.76757812 C-15.13191162 120.66790771 -15.13191162 120.66790771 -14.65576172 121.58642578 C-1.89155996 146.48247435 7.02471404 172.0571689 11.40136719 199.76757812 C11.52979004 200.53295898 11.65821289 201.29833984 11.79052734 202.08691406 C21.07798169 259.058627 4.83303416 321.17097511 -28.59863281 367.76757812 C-41.04660436 384.94010939 -54.95362094 400.56221466 -71.59863281 413.76757812 C-72.38753906 414.42371094 -73.17644531 415.07984375 -73.98925781 415.75585938 C-121.00259466 454.59634793 -183.46158527 470.70723529 -243.64306641 464.99780273 C-265.83424415 462.53868898 -300.26293225 458.00332698 -318.43066406 443.28320312 C-320.23390936 440.94320589 -320.35277205 438.65644212 -320.59863281 435.76757812 C-320.26863281 435.10757812 -319.93863281 434.44757813 -319.59863281 433.76757812 C-320.44425781 433.52007812 -321.28988281 433.27257812 -322.16113281 433.01757812 C-324.923473 432.01309078 -326.80245951 431.06545566 -329.22363281 429.51757812 C-330.89425781 428.65132813 -330.89425781 428.65132813 -332.59863281 427.76757812 C-334.66479994 428.46691892 -334.66479994 428.46691892 -336.59863281 429.76757812 C-343.04988886 430.54396998 -346.24890478 428.62298997 -351.22363281 424.95507812 C-352.26632324 424.21064453 -352.26632324 424.21064453 -353.33007812 423.45117188 C-360.06192808 418.5754287 -366.39485361 413.29195239 -372.59863281 407.76757812 C-373.09814453 407.32978027 -373.59765625 406.89198242 -374.11230469 406.44091797 C-418.60651952 367.3999928 -445.94894224 310.88770095 -450.41772461 251.95117188 C-453.87926472 191.03554023 -436.52079618 130.5334847 -396.21582031 84.01757812 C-394.70820006 82.34130883 -393.19031942 80.67419694 -391.66113281 79.01757812 C-389.84806187 77.03968255 -388.12824267 75.01560996 -386.41113281 72.95507812 C-364.04026286 47.37357406 -364.04026286 47.37357406 -353.00097656 46.47460938 C-349.59863281 46.76757812 -349.59863281 46.76757812 -347.51660156 47.45117188 C-343.50007816 48.11377553 -340.16128985 44.99530735 -336.95410156 42.87695312 C-334.49917117 41.0138788 -334.49917117 41.0138788 -333.83691406 38.65820312 C-333.72995017 36.69596887 -333.66302927 34.73167019 -333.59863281 32.76757812 C-329.52895883 28.63964705 -324.21514788 26.39660029 -319.03613281 23.95507812 C-317.64273682 23.29813965 -317.64273682 23.29813965 -316.22119141 22.62792969 C-293.62974415 12.18698657 -269.31694263 5.55843763 -244.59863281 2.76757812 C-243.76541504 2.67331543 -242.93219727 2.57905273 -242.07373047 2.48193359 C-193.91580283 -2.44040715 -147.18326063 8.46668093 -104.59863281 30.76757812 C-104.48519531 30.03925781 -104.37175781 29.3109375 -104.25488281 28.56054688 C-102.12530166 19.4971509 -94.92397518 12.22401567 -88.59863281 5.76757812 C-87.71111328 4.82591797 -87.71111328 4.82591797 -86.80566406 3.86523438 C-64.64598055 -17.70743766 -24.04625553 -18.53779749 0 0 Z " fill="#F45531" transform="translate(484.5986328125,12.232421875)"/>
<path d="M0 0 C14.01721329 11.53955296 25.03560939 26.33030867 27.40136719 44.76757812 C28.87008317 65.3654242 26.14303507 83.12824382 13.12792969 99.65429688 C10.96509106 102.12347613 8.74109167 104.46627977 6.40136719 106.76757812 C5.83933594 107.32832031 5.27730469 107.8890625 4.69824219 108.46679688 C-0.46711341 113.24349708 -8.43967443 119.76757812 -15.59863281 119.76757812 C-15.13191162 120.66790771 -15.13191162 120.66790771 -14.65576172 121.58642578 C-1.89155996 146.48247435 7.02471404 172.0571689 11.40136719 199.76757812 C11.52979004 200.53295898 11.65821289 201.29833984 11.79052734 202.08691406 C21.07798169 259.058627 4.83303416 321.17097511 -28.59863281 367.76757812 C-41.04660436 384.94010939 -54.95362094 400.56221466 -71.59863281 413.76757812 C-72.38753906 414.42371094 -73.17644531 415.07984375 -73.98925781 415.75585938 C-121.00259466 454.59634793 -183.46158527 470.70723529 -243.64306641 464.99780273 C-265.70313429 462.55321791 -300.43265217 458.05421028 -318.41894531 443.27148438 C-320.34407522 440.81726247 -320.53703814 438.84731176 -320.59863281 435.76757812 C-319.03613281 432.95507813 -319.03613281 432.95507813 -316.59863281 430.76757812 C-312.13971052 429.57935519 -309.51470702 429.79647154 -305.30957031 431.61132812 C-304.29934814 432.03027344 -303.28912598 432.44921875 -302.24829102 432.88085938 C-301.16765381 433.33847656 -300.0870166 433.79609375 -298.97363281 434.26757812 C-289.42184271 438.12606385 -279.91301338 441.29193245 -269.91113281 443.76757812 C-268.80366699 444.04537109 -267.69620117 444.32316406 -266.55517578 444.609375 C-251.39379154 448.22879163 -236.61426784 449.20730783 -221.09863281 449.20507812 C-220.16231018 449.20647797 -219.22598755 449.20787781 -218.2612915 449.20932007 C-200.93814886 449.18815973 -184.53094855 447.56893188 -167.59863281 443.76757812 C-166.75880859 443.58066406 -165.91898438 443.39375 -165.05371094 443.20117188 C-160.10697629 442.04278649 -155.36038873 440.53206076 -150.59863281 438.76757812 C-149.65858398 438.42065918 -148.71853516 438.07374023 -147.75 437.71630859 C-144.52293237 436.50779544 -141.30893381 435.26992717 -138.09863281 434.01757812 C-137.1139502 433.63577393 -136.12926758 433.25396973 -135.11474609 432.8605957 C-125.92385417 429.15822839 -117.29060605 424.4966535 -108.59863281 419.76757812 C-109.44086395 419.76615311 -110.28309509 419.76472809 -111.15084839 419.76325989 C-119.12415694 419.74536173 -127.09691535 419.70354754 -135.06995964 419.63548756 C-139.16813211 419.60133138 -143.26593632 419.57612545 -147.36425781 419.57202148 C-151.32630208 419.56771387 -155.28751721 419.53905014 -159.24930191 419.49414635 C-160.75375649 419.48124935 -162.2583107 419.47683576 -163.76281357 419.48142433 C-174.83958187 419.50731662 -183.00546392 418.01739292 -191.47363281 410.51757812 C-197.82304176 403.50771056 -199.35932435 396.58382608 -199.03613281 387.20117188 C-197.93121571 378.52954571 -193.57298676 373.12564752 -187.17285156 367.45898438 C-179.53119577 362.43798747 -172.62156932 362.38645194 -163.73193359 362.57324219 C-161.77849466 362.59458326 -159.82505533 362.61590059 -157.87160659 362.63632441 C-155.78516546 362.66041311 -153.69891327 362.69143973 -151.61258316 362.72367096 C-147.24901374 362.78813702 -142.88567048 362.81639947 -138.521698 362.83660889 C-137.41339904 362.842009 -137.41339904 362.842009 -136.28271019 362.84751821 C-134.77261506 362.85486662 -133.26251966 362.86216065 -131.752424 362.86940145 C-121.60413165 362.92016671 -111.45719505 362.99732377 -101.31005859 363.16162109 C-94.44858035 363.27243798 -87.58890599 363.32951218 -80.72650516 363.3259275 C-77.10145046 363.32621669 -73.48121876 363.35348376 -69.8572731 363.44702911 C-55.53123551 364.49593378 -55.53123551 364.49593378 -42.42373276 360.29550934 C-38.54316768 356.33555324 -36.58047077 351.88092315 -34.59863281 346.76757812 C-33.67196881 345.1690872 -32.72104661 343.58349325 -31.71582031 342.03320312 C-30.9589614 340.69998937 -30.21135562 339.36147521 -29.47363281 338.01757812 C-28.86116699 336.90588257 -28.86116699 336.90588257 -28.23632812 335.77172852 C-1.27046702 285.73798973 4.27740828 225.58051283 -11.58300781 171.14257812 C-14.304775 162.27401915 -17.65013048 153.74836731 -21.48974609 145.30859375 C-22.5897791 142.78786641 -23.53474346 140.24400796 -24.46972656 137.65820312 C-27.03235722 131.05034463 -27.03235722 131.05034463 -31.59863281 125.76757812 C-36.4187157 124.0945008 -41.4151443 124.49967377 -46.44238281 124.70117188 C-62.67124335 125.32512695 -77.68214981 115.3355854 -89.46582031 105.15429688 C-94.58071545 100.39176118 -98.09171174 94.77318046 -101.59863281 88.76757812 C-101.99050781 88.12175781 -102.38238281 87.4759375 -102.78613281 86.81054688 C-107.07754647 79.1161763 -109.97391631 69.75931456 -109.40332031 60.92382812 C-108.93475703 53.71385821 -108.93475703 53.71385821 -110.59863281 46.76757812 C-115.45485184 41.38768004 -122.9895679 39.22265919 -129.59863281 36.76757812 C-131.58976133 35.96541339 -133.5793254 35.15935549 -135.56738281 34.34960938 C-141.51892472 31.9767505 -147.52984306 29.82031964 -153.59863281 27.76757812 C-154.38560547 27.50074219 -155.17257812 27.23390625 -155.98339844 26.95898438 C-187.9187454 16.43709802 -226.70162855 14.6400006 -259.59863281 21.76757812 C-261.05100342 22.06559326 -261.05100342 22.06559326 -262.53271484 22.36962891 C-281.98634586 26.41804627 -300.27523561 32.41810486 -317.7409668 41.97387695 C-321.82492248 44.1536865 -324.84106267 45.50271287 -329.59863281 44.76757812 C-332.53613281 42.14257812 -332.53613281 42.14257812 -334.59863281 38.76757812 C-334.72363281 35.64257812 -334.72363281 35.64257812 -333.59863281 32.76757812 C-329.35467751 28.72531575 -324.27994591 26.42714776 -319.03613281 23.95507812 C-318.10720215 23.51711914 -317.17827148 23.07916016 -316.22119141 22.62792969 C-293.62974415 12.18698657 -269.31694263 5.55843763 -244.59863281 2.76757812 C-243.76541504 2.67331543 -242.93219727 2.57905273 -242.07373047 2.48193359 C-193.91580283 -2.44040715 -147.18326063 8.46668093 -104.59863281 30.76757812 C-104.42847656 29.67509766 -104.42847656 29.67509766 -104.25488281 28.56054688 C-102.12530166 19.4971509 -94.92397518 12.22401567 -88.59863281 5.76757812 C-87.71111328 4.82591797 -87.71111328 4.82591797 -86.80566406 3.86523438 C-64.64598055 -17.70743766 -24.04625553 -18.53779749 0 0 Z " fill="#020000" transform="translate(484.5986328125,12.232421875)"/>
<path d="M0 0 C0.99954499 -0.00785502 0.99954499 -0.00785502 2.01928282 -0.01586872 C4.24472804 -0.03083083 6.46994257 -0.03157302 8.69543457 -0.03224182 C10.29395433 -0.03986566 11.89247043 -0.04829354 13.49098206 -0.0574646 C17.82766735 -0.07938929 22.16428216 -0.0882053 26.50101662 -0.09329104 C29.21056071 -0.09693579 31.92008636 -0.10317634 34.62962341 -0.11029243 C44.08239554 -0.13477596 53.53511283 -0.1478373 62.98791504 -0.15138245 C71.80003275 -0.15502104 80.61180289 -0.18494225 89.4238143 -0.22678703 C96.99082176 -0.26146062 104.55771381 -0.27693034 112.12480021 -0.27762848 C116.64384675 -0.27842204 121.16253882 -0.28719723 125.6815033 -0.31562614 C129.93012289 -0.34175811 134.17809278 -0.34403968 138.42675591 -0.3279705 C139.9856298 -0.32615234 141.54454066 -0.33287997 143.10333443 -0.34878922 C145.23250311 -0.36919491 147.35938637 -0.3587351 149.48852539 -0.34057617 C151.27489788 -0.34359316 151.27489788 -0.34359316 153.0973587 -0.3466711 C157.16296597 0.45539777 158.6851251 2.0883238 161.2442627 5.27415466 C161.2442627 5.93415466 161.2442627 6.59415466 161.2442627 7.27415466 C166.5242627 7.27415466 171.8042627 7.27415466 177.2442627 7.27415466 C177.9042627 5.62415466 178.5642627 3.97415466 179.2442627 2.27415466 C181.84751335 -0.32909599 183.75941033 -0.03692021 187.31311035 -0.10670471 C197.79349925 -0.08144569 205.57673843 0.60890894 213.6192627 7.96165466 C220.0537289 15.04738263 221.96793489 21.57627038 221.62316895 31.12962341 C220.63265784 39.34984447 216.39771797 45.85271087 210.2442627 51.27415466 C202.08359351 56.40300234 194.47673153 56.96415719 185.03723145 56.84056091 C183.69968296 56.84352944 182.36213808 56.84927537 181.02461243 56.8576355 C176.82676123 56.87817138 172.62956996 56.85879144 168.4317627 56.83665466 C164.21617148 56.81837411 160.00095949 56.80793074 155.78535461 56.8263855 C153.17100302 56.83565473 150.55650487 56.82653836 147.94230652 56.79675293 C139.28200872 56.78322323 139.28200872 56.78322323 132.2442627 61.27415466 C129.65349514 64.68925735 129.88492856 68.1058787 130.2442627 72.27415466 C131.98975459 77.05129038 133.66780831 79.11562694 138.2442627 81.27415466 C140.82766655 81.52313789 143.17322382 81.62199568 145.74816895 81.57493591 C147.226689 81.58258655 148.7052049 81.59107791 150.18371582 81.60032654 C152.48524194 81.59813252 154.78591673 81.58690684 157.08728027 81.55906677 C168.34862683 81.4532522 177.65388954 82.40264045 186.49816895 90.2822113 C192.19837304 96.16631777 194.35022179 102.04712375 194.6817627 110.14915466 C194.38828578 119.46998163 191.28659285 125.85953638 184.8302002 132.48509216 C176.20601475 138.45167364 167.59172725 138.85530801 157.37463379 138.79173279 C155.89846611 138.79716332 154.42230387 138.80429118 152.94615173 138.81297302 C148.96479168 138.83109569 144.98384957 138.82418594 141.00248289 138.81145668 C136.82221127 138.80127508 132.64197359 138.81073625 128.46170044 138.81700134 C121.44612247 138.8242612 114.43071341 138.81473219 107.41516113 138.79563904 C99.31817148 138.77385643 91.22158455 138.7809383 83.12460458 138.80294466 C76.1544493 138.82112593 69.18441488 138.8236442 62.21424353 138.81318998 C58.05910686 138.80697218 53.90415922 138.80607234 49.74903488 138.81933594 C45.84343515 138.83093433 41.93835248 138.82279672 38.0328083 138.79975891 C36.60421797 138.79449372 35.17558373 138.79594794 33.74701118 138.80480957 C22.98324127 138.86539752 15.90764496 137.30934687 7.77941895 129.97727966 C5.1717504 127.0842937 3.68023732 123.86409122 2.2442627 120.27415466 C1.6564502 118.82009216 1.6564502 118.82009216 1.0567627 117.33665466 C0.35159611 114.67871906 0.07127929 112.43214477 -0.1307373 109.71165466 C-0.5434697 105.48470569 -1.54235851 103.21975189 -4.7557373 100.27415466 C-8.72793507 98.28631153 -12.00960168 98.02353279 -16.42272949 98.01878357 C-17.07224579 98.01516312 -17.72176208 98.01154266 -18.39096069 98.0078125 C-19.79483389 98.00094509 -21.19873364 97.99840807 -22.60262299 97.99975967 C-24.83200399 98.00072996 -27.06090943 97.98772255 -29.29022217 97.97077942 C-35.62634584 97.92466913 -41.96242024 97.89992489 -48.29870605 97.89329529 C-52.18207854 97.88825376 -56.06495454 97.86387016 -59.94815826 97.8279686 C-61.41996517 97.81823022 -62.89184089 97.81580581 -64.36367035 97.82114029 C-75.24159652 97.858707 -83.89603533 96.65937204 -92.1854248 89.12181091 C-97.67381077 82.66408315 -100.25065316 74.74809933 -100.1619873 66.39134216 C-99.24271361 59.33768436 -95.66332284 52.61614989 -90.4432373 47.77415466 C-83.44102069 42.74177988 -76.90948208 40.68362345 -68.33776855 40.77024841 C-67.47689133 40.76082718 -66.6160141 40.75140594 -65.72904968 40.74169922 C-63.00853051 40.71329023 -60.28889202 40.70996286 -57.5682373 40.71165466 C-54.83700107 40.70803649 -52.10639504 40.69842646 -49.37528992 40.67089844 C-47.68470692 40.65422031 -45.99391604 40.65114703 -44.30329895 40.66390991 C-39.39052609 40.62006792 -36.00821252 40.00448563 -31.7557373 37.27415466 C-29.91139382 34.8129992 -29.91139382 34.8129992 -28.7557373 32.27415466 C-28.4257373 31.61415466 -28.0957373 30.95415466 -27.7557373 30.27415466 C-27.51524958 28.2546373 -27.28815895 26.23351499 -27.0682373 24.21165466 C-25.77324647 15.64770067 -22.4831183 10.1761452 -15.6932373 4.83665466 C-10.59796995 1.17931552 -6.27109806 0.02448855 0 0 Z " fill="#C42D23" transform="translate(198.7557373046875,186.72584533691406)"/>
<path d="M0 0 C3 2 3 2 4.0625 5.6875 C4.34704593 9.12060856 3.86035008 10.82997236 1.6875 13.5 C-1.65061574 16.90702179 -5.4029037 19.78423552 -9.16015625 22.7109375 C-19.60625221 31.13103686 -29.86672914 40.69586983 -37.63867188 51.66674805 C-38.08271362 52.2923613 -38.52675537 52.91797455 -38.98425293 53.56254578 C-39.31944946 54.03690567 -39.654646 54.51126556 -40 55 C-38.89245865 54.99333817 -37.7849173 54.98667633 -36.64381409 54.97981262 C-26.18347015 54.9188794 -15.72316245 54.8739688 -5.26268101 54.84456348 C0.114587 54.82893749 5.49171122 54.80775526 10.86889648 54.77368164 C16.06252002 54.74097883 21.25600561 54.72312394 26.4497242 54.71536827 C28.42677035 54.70984434 30.40380933 54.69905759 32.38079643 54.68280983 C35.15954515 54.66089033 37.93773085 54.65803912 40.71655273 54.65942383 C41.52576172 54.648638 42.3349707 54.63785217 43.16870117 54.6267395 C52.22529654 54.67526745 60.21707551 57.38164925 66.81640625 63.75390625 C72.49771596 69.81476066 75.06661255 75.11571286 75.4375 83.4375 C75.15430145 91.9806564 71.60053391 98.10682466 65.859375 104.27734375 C57.97521354 111.58178746 49.19255677 112.29186206 38.93603516 112.22705078 C37.72571625 112.22734283 36.51539734 112.22763489 35.2684021 112.22793579 C31.96297877 112.22678413 28.65780763 112.21677835 25.35242891 112.20278788 C21.89311248 112.19025511 18.43379242 112.18910801 14.97445679 112.18673706 C8.42975365 112.18052976 1.88511761 112.16412913 -4.65955603 112.14403808 C-12.11299009 112.1216557 -19.56642741 112.11067978 -27.01988673 112.10064721 C-42.34662997 112.0797622 -57.67330632 112.04460087 -73 112 C-73.20385488 112.92525577 -73.20385488 112.92525577 -73.41182804 113.86920357 C-73.5908639 114.67896582 -73.76989977 115.48872807 -73.95436096 116.32302856 C-74.13151422 117.12549074 -74.30866747 117.92795292 -74.491189 118.75473213 C-75.06147612 121.2712802 -75.70936496 123.75672708 -76.40234375 126.2421875 C-76.65306641 127.16515625 -76.90378906 128.088125 -77.16210938 129.0390625 C-77.66883026 130.89235903 -78.18159848 132.74401555 -78.70117188 134.59375 C-82.96868459 150.44139314 -84.48199361 165.97844539 -84.33618164 182.35327148 C-84.31242825 185.19608756 -84.31567412 188.03796776 -84.32226562 190.88085938 C-84.30144138 204.71100643 -83.40613615 218.23547886 -80.25 231.75 C-80.08081055 232.48549072 -79.91162109 233.22098145 -79.73730469 233.97875977 C-71.93147201 266.94557799 -57.91724486 297.97573989 -36 324 C-35.12073687 325.07653153 -34.24185555 326.15337498 -33.36328125 327.23046875 C-22.02074479 340.97484045 -9.15245882 352.28329895 5.24951172 362.72070312 C14.43005181 369.43005181 14.43005181 369.43005181 17 372 C17.41768721 375.67564747 17.21879471 377.59741774 15.4375 380.875 C13 383 13 383 9.82421875 383.43359375 C4.91504838 382.8769871 2.28174694 381.06797976 -1.625 378.1875 C-2.66769043 377.44306641 -2.66769043 377.44306641 -3.73144531 376.68359375 C-10.46329527 371.80785057 -16.7962208 366.52437427 -23 361 C-23.49951172 360.56220215 -23.99902344 360.1244043 -24.51367188 359.67333984 C-69.00788671 320.63241467 -96.35030943 264.12012283 -100.8190918 205.18359375 C-104.28063191 144.2679621 -86.92216336 83.76590657 -46.6171875 37.25 C-45.10956725 35.5737307 -43.5916866 33.90661882 -42.0625 32.25 C-40.24942906 30.27210442 -38.52960986 28.24803183 -36.8125 26.1875 C-12.72711655 -1.354582 -12.72711655 -1.354582 0 0 Z " fill="#030100" transform="translate(135,59)"/>
<path d="M0 0 C1.00060334 -0.00573832 1.00060334 -0.00573832 2.0214209 -0.01159257 C4.24921972 -0.02188408 6.47675896 -0.01793788 8.70457458 -0.01396179 C10.30471535 -0.01831031 11.90485403 -0.02349393 13.50498962 -0.02944946 C17.84575626 -0.04283323 22.18643581 -0.04341901 26.52721906 -0.04088616 C30.15070863 -0.03981639 33.77418059 -0.04469979 37.39766639 -0.04949158 C45.9438302 -0.06058383 54.48995004 -0.06102525 63.03611755 -0.05497742 C71.85611855 -0.04893192 80.67596025 -0.06126387 89.49593407 -0.08254749 C97.06801959 -0.1001487 104.64005434 -0.10616733 112.21215957 -0.10290974 C116.7349852 -0.10109495 121.2576971 -0.10375289 125.78050423 -0.11762428 C130.03146531 -0.13017457 134.28217732 -0.12828524 138.53313446 -0.11521339 C140.09402741 -0.11284223 141.65493775 -0.11560158 143.21581078 -0.12383652 C145.34484855 -0.13426018 147.4730437 -0.12623978 149.60205078 -0.11352539 C150.79388757 -0.11369313 151.98572435 -0.11386087 153.21367741 -0.1140337 C156.54214277 0.29844498 157.94934177 0.82809621 160.23753357 3.26069641 C161.01908697 8.7315702 161.01908697 8.7315702 160.23753357 11.26069641 C156.42394179 15.01951791 153.93152555 15.76044563 148.63365173 15.75949097 C147.98362261 15.76487552 147.33359349 15.77026008 146.66386652 15.7758078 C144.49337307 15.78904534 142.32401743 15.77395295 140.15354919 15.75898743 C138.59443646 15.76281172 137.03532724 15.76843171 135.47622681 15.77571106 C132.12256796 15.78765546 128.76922222 15.78717728 125.41555786 15.77711678 C120.1124902 15.76155269 114.80974404 15.77523595 109.50669861 15.79315186 C99.207629 15.82396756 88.90865767 15.82547301 78.60955048 15.82350159 C65.49994462 15.82210858 52.39041426 15.83243768 39.28086424 15.87207931 C34.00935656 15.88701882 28.73813346 15.88673865 23.4666214 15.87460148 C20.18751687 15.86989236 16.90852139 15.87740742 13.62943459 15.88814545 C12.10927565 15.89055255 10.58909851 15.88781282 9.06896019 15.87953758 C6.99282379 15.86891174 4.91752491 15.87667033 2.84141541 15.8888855 C1.67999779 15.88829919 0.51858017 15.88771288 -0.67803192 15.8871088 C-4.12850149 16.30503068 -5.98719982 17.20373119 -8.76246643 19.26069641 C-11.56103657 23.19942476 -12.04643721 26.95084097 -12.63746643 31.63569641 C-13.92262432 40.75617173 -17.66753165 45.66801508 -24.40699768 51.71772766 C-30.83509298 55.92850319 -36.86038801 56.69384134 -44.33668518 56.66694641 C-45.22354507 56.67778259 -46.11040497 56.68861877 -47.0241394 56.69978333 C-50.78525357 56.7453387 -54.54629183 56.75714502 -58.30763245 56.77192688 C-61.06756476 56.7876313 -63.82692513 56.82061654 -66.58668518 56.85444641 C-67.43260727 56.85142517 -68.27852936 56.84840393 -69.15008545 56.84529114 C-73.84002361 56.90496554 -76.95984963 57.2116982 -80.76246643 60.26069641 C-83.8497734 64.58292617 -84.17967834 68.04334627 -83.41481018 73.13960266 C-82.39537676 76.45428737 -80.44261424 78.16887373 -77.76246643 80.26069641 C-74.94629866 81.6687803 -72.58590093 81.40101927 -69.43605042 81.41841125 C-68.7869722 81.42349197 -68.13789398 81.42857269 -67.46914673 81.43380737 C-66.05703524 81.44451796 -64.6449067 81.45313544 -63.23277092 81.45992661 C-60.99112012 81.47172571 -58.74966112 81.49118509 -56.50808716 81.51304626 C-50.13355493 81.574599 -43.75903855 81.62853021 -37.3842926 81.6620636 C-33.48496823 81.68312706 -29.58598766 81.71853129 -25.68686104 81.7628212 C-24.20669189 81.77689939 -22.72646183 81.78568498 -21.24622917 81.78887558 C-8.64329647 81.81889367 -0.22732937 82.91288215 9.06565857 91.87397766 C14.47007602 97.81300476 15.51867989 102.8697625 15.95628357 110.76850891 C16.30298824 113.84069755 17.40900995 115.79616458 19.23753357 118.26069641 C19.23753357 118.92069641 19.23753357 119.58069641 19.23753357 120.26069641 C23.08844667 122.0491685 26.115688 122.51323915 30.34788513 122.52139282 C31.57599915 122.52847763 32.80411316 122.53556244 34.06944275 122.54286194 C35.42234839 122.54056835 36.77525368 122.53805868 38.12815857 122.53535461 C39.55919155 122.53970388 40.99022219 122.54488775 42.42124939 122.55084229 C46.30135687 122.56421902 50.18136687 122.56481255 54.06149292 122.56227899 C57.30214852 122.56120859 60.54278444 122.56609428 63.78343582 122.57088441 C71.42830632 122.58197453 79.07312767 122.58241947 86.71800232 122.57637024 C94.60300154 122.57032696 102.48782248 122.58265151 110.37279129 122.60394031 C117.14574953 122.62155392 123.91865101 122.62755814 130.69163132 122.62430257 C134.73550516 122.62248952 138.77925176 122.62512813 142.82310486 122.63901711 C146.62511451 122.65158734 150.42684596 122.64965916 154.22885132 122.63660622 C155.62323093 122.63423929 157.01763009 122.63697933 158.4119873 122.64522934 C160.3170266 122.65568734 162.22214508 122.64579874 164.12718201 122.63491821 C165.19273315 122.63508595 166.2582843 122.6352537 167.35612488 122.63542652 C170.69055723 122.20178023 172.5462721 121.24892734 175.23753357 119.26069641 C178.12622113 114.87786011 178.80549936 111.46704946 178.23753357 106.26069641 C176.84897406 102.86643984 175.73353142 101.56534927 172.60423279 99.64326477 C168.7897896 98.07682592 165.5453664 97.85333214 161.49534607 97.88960266 C160.00185421 97.87221868 158.50836468 97.85463431 157.01487732 97.83686829 C154.6891494 97.82682036 152.36357523 97.82319565 150.03782654 97.8249054 C133.95506198 97.79934474 133.95506198 97.79934474 127.23753357 93.26069641 C126.07157654 92.50079407 126.07157654 92.50079407 124.88206482 91.72554016 C118.57369418 86.46632285 115.13313434 80.42920161 113.72581482 72.30757141 C113.1989477 63.3625385 116.27889607 55.77114398 122.17112732 49.05757141 C130.51946695 41.31135374 138.01571208 40.82837914 149.05393982 40.85444641 C150.39720922 40.84519974 151.74046772 40.8342245 153.08370972 40.8216095 C158.04119124 40.77882127 162.99864984 40.7675952 167.95628357 40.75538635 C172.15695689 40.74382509 176.35723094 40.7201803 180.55773735 40.68069458 C182.51740891 40.66719801 184.47717707 40.67148105 186.43688965 40.67610168 C187.63510849 40.6659906 188.83332733 40.65587952 190.06785583 40.64546204 C191.11707718 40.64340759 192.16629852 40.64135315 193.24731445 40.63923645 C196.79369868 40.19028994 199.18471342 39.09794444 202.23753357 37.26069641 C204.93369899 33.39619264 205.83253057 29.86561411 205.66331482 25.22554016 C204.87779435 21.60061542 202.89309739 19.79274564 200.23753357 17.26069641 C195.80538792 15.78331453 191.33225276 15.97804976 186.68284607 15.83491516 C182.70142155 15.17134441 180.99206857 14.18029717 178.23753357 11.26069641 C177.37835902 8.31576259 177.83897147 6.39937292 178.23753357 3.26069641 C179.52635193 1.54170227 179.52635193 1.54170227 181.23753357 0.26069641 C184.18526245 -0.06880803 186.85470141 -0.21506242 189.80003357 -0.17680359 C190.61198181 -0.16778015 191.42393005 -0.15875671 192.26048279 -0.14945984 C200.9756584 0.10148703 207.09774798 1.99216068 213.61253357 7.94819641 C220.04699977 15.03392438 221.96120576 21.56281213 221.61643982 31.11616516 C220.62592871 39.33638622 216.39098885 45.83925261 210.23753357 51.26069641 C202.07686439 56.38954409 194.47000241 56.95069893 185.03050232 56.82710266 C183.69295383 56.83007119 182.35540896 56.83581712 181.0178833 56.84417725 C176.82003211 56.86471313 172.62284084 56.84533319 168.42503357 56.82319641 C164.20944236 56.80491586 159.99423037 56.79447248 155.77862549 56.81292725 C153.1642739 56.82219648 150.54977574 56.81308011 147.93557739 56.78329468 C139.2752796 56.76976498 139.2752796 56.76976498 132.23753357 61.26069641 C129.64676601 64.6757991 129.87819944 68.09242045 130.23753357 72.26069641 C131.98302547 77.03783213 133.66107919 79.10216868 138.23753357 81.26069641 C140.82093742 81.50967964 143.1664947 81.60853743 145.74143982 81.56147766 C147.21995987 81.5691283 148.69847577 81.57761966 150.17698669 81.58686829 C152.47851281 81.58467427 154.7791876 81.57344859 157.08055115 81.54560852 C168.3418977 81.43979395 177.64716041 82.3891822 186.49143982 90.26875305 C192.19164391 96.15285952 194.34349266 102.03366549 194.67503357 110.13569641 C194.38155665 119.45652338 191.27986372 125.84607813 184.82347107 132.47163391 C176.19928562 138.43821538 167.58499813 138.84184976 157.36790466 138.77827454 C155.89173699 138.78370507 154.41557474 138.79083293 152.93942261 138.79951477 C148.95806255 138.81763744 144.97712045 138.81072769 140.99575377 138.79799843 C136.81548214 138.78781682 132.63524446 138.797278 128.45497131 138.80354309 C121.43939334 138.81080294 114.42398429 138.80127393 107.40843201 138.78218079 C99.31144235 138.76039818 91.21485542 138.76748005 83.11787546 138.78948641 C76.14772017 138.80766768 69.17768575 138.81018595 62.20751441 138.79973173 C58.05237773 138.79351393 53.89743009 138.79261409 49.74230576 138.80587769 C45.83670603 138.81747608 41.93162335 138.80933847 38.02607918 138.78630066 C36.59748885 138.78103547 35.16885461 138.78248969 33.74028206 138.79135132 C22.97651214 138.85193927 15.90091584 137.29588862 7.77268982 129.96382141 C5.16502127 127.07083544 3.67350819 123.85063296 2.23753357 120.26069641 C1.64972107 118.80663391 1.64972107 118.80663391 1.05003357 117.32319641 C0.34486698 114.66526081 0.06455016 112.41868652 -0.13746643 109.69819641 C-0.55019882 105.47124744 -1.54908764 103.20629364 -4.76246643 100.26069641 C-8.7346642 98.27285328 -12.0163308 98.01007454 -16.42945862 98.00532532 C-17.07897491 98.00170486 -17.72849121 97.99808441 -18.39768982 97.99435425 C-19.80156302 97.98748684 -21.20546277 97.98494981 -22.60935211 97.98630142 C-24.83873312 97.9872717 -27.06763855 97.9742643 -29.29695129 97.95732117 C-35.63307496 97.91121088 -41.96914937 97.88646664 -48.30543518 97.87983704 C-52.18880766 97.87479551 -56.07168367 97.85041191 -59.95488739 97.81451035 C-61.42669429 97.80477197 -62.89857002 97.80234755 -64.37039948 97.80768204 C-75.24832564 97.84524875 -83.90276446 96.64591379 -92.19215393 89.10835266 C-97.68053989 82.6506249 -100.25738229 74.73464108 -100.16871643 66.37788391 C-99.24944273 59.3242261 -95.67005197 52.60269164 -90.44996643 47.76069641 C-83.44774982 42.72832163 -76.91621121 40.6701652 -68.34449768 40.75679016 C-67.48362045 40.74736893 -66.62274323 40.73794769 -65.73577881 40.72824097 C-63.01525963 40.69983198 -60.29562115 40.69650461 -57.57496643 40.69819641 C-54.84373019 40.69457824 -52.11312416 40.6849682 -49.38201904 40.65744019 C-47.69143605 40.64076206 -46.00064516 40.63768878 -44.31002808 40.65045166 C-39.39725521 40.60660967 -36.01494165 39.99102738 -31.76246643 37.26069641 C-29.91812294 34.79954094 -29.91812294 34.79954094 -28.76246643 32.26069641 C-28.43246643 31.60069641 -28.10246643 30.94069641 -27.76246643 30.26069641 C-27.52197871 28.24117905 -27.29488808 26.22005674 -27.07496643 24.19819641 C-25.7799756 15.63424242 -22.48984742 10.16268694 -15.69996643 4.82319641 C-10.59908655 1.16182864 -6.27870651 0.01081129 0 0 Z " fill="#030000" transform="translate(198.76246643066406,186.7393035888672)"/>
<path d="M0 0 C10.28530801 8.21344741 17.33743621 20.97125492 19 34 C20.53463626 50.86355983 16.03727726 64.9479185 5.1953125 78.20703125 C-4.44567094 88.66809834 -18.15262731 94.87180612 -32.30957031 95.47045898 C-48.65733113 95.69093146 -61.83730561 89.59023351 -73.67578125 78.4765625 C-84.42271529 67.02520758 -88.58733138 52.40956009 -88.2734375 36.98046875 C-87.3345082 23.31234077 -80.59954744 10.41688111 -70.640625 1.1015625 C-49.10647162 -16.03656549 -21.9489697 -16.85114448 0 0 Z " fill="#B4A596" transform="translate(478,27)"/>
<path d="M0 0 C10.11917111 8.5600239 16.21279748 19.02468216 18.3984375 32.0625 C19.48889727 47.22167845 16.39249535 60.7929524 6.29296875 72.50390625 C-3.31631552 82.54321012 -13.92543962 88.05551079 -27.97387695 88.53759766 C-42.67509591 88.67691981 -54.7262449 85.06105312 -65.85546875 75.03125 C-76.97733382 63.38178223 -80.31995459 49.77344158 -79.9765625 34.1640625 C-79.40318048 23.14284091 -75.03105017 14.13943757 -67.6015625 6.0625 C-67.10269531 5.45019531 -66.60382813 4.83789062 -66.08984375 4.20703125 C-49.63005687 -14.57453917 -19.04530021 -14.18388725 0 0 Z " fill="#000000" transform="translate(79.6015625,423.9375)"/>
<path d="M0 0 C3.39781034 -0.06462616 6.78944101 -0.04026666 10.1875 0 C11.14720703 -0.01933594 12.10691406 -0.03867188 13.09570312 -0.05859375 C20.0229462 0.08522445 20.0229462 0.08522445 22.63549805 2.53125 C23.98034887 4.62768863 25.00057535 6.71946611 26 9 C26.74784804 10.45876934 27.49655276 11.9170998 28.24609375 13.375 C43.3784174 44.90887561 50.22911551 76.02916814 50.3125 111 C50.31626648 111.87791199 50.32003296 112.75582397 50.32391357 113.66033936 C50.3477446 124.62081965 49.8306828 135.17078873 48 146 C47.75866333 147.44197754 47.75866333 147.44197754 47.51245117 148.91308594 C42.40827316 177.36496096 31.34583598 204.8798413 15.33886719 228.96044922 C14.41477687 230.36815354 13.5427971 231.81097016 12.71582031 233.27783203 C10.70785023 236.52197213 9.36039553 238.65048697 5.55688477 239.62768555 C2.70372531 239.78779236 -0.02494882 239.70081661 -2.875 239.5 C-3.84953125 239.46390625 -4.8240625 239.4278125 -5.828125 239.390625 C-8.22284579 239.29671438 -10.60934709 239.16561944 -13 239 C-12.41605469 238.12214844 -12.41605469 238.12214844 -11.8203125 237.2265625 C20.65266901 187.39475216 35.53849259 126.52658162 23.5546875 67.51953125 C18.62346785 44.85392532 11.32362652 24.70140737 0.89868164 4.02099609 C0 2 0 2 0 0 Z " fill="#DF3528" transform="translate(432,136)"/>
<path d="M0 0 C2.73331207 0.0321853 5.46071463 0.00018087 8.19384766 -0.03808594 C19.38172224 -0.06434527 28.44640014 0.79551907 37.21289062 8.52441406 C42.46715879 13.93861669 45.41919549 20.71328566 45.73681641 28.21972656 C45.37204309 36.64481357 42.28346327 43.90267767 36.31469727 49.90063477 C27.3159041 58.04934807 17.15935551 57.55989384 5.66015625 57.43408203 C2.74298202 57.4072832 -0.17034558 57.43390503 -3.08740234 57.46582031 C-13.73698397 57.48627639 -22.56691899 57.39388295 -30.84106445 49.90039062 C-36.58978787 44.12433324 -39.86736813 36.92836424 -40.26318359 28.78222656 C-39.91205225 21.32653759 -37.04070492 13.84666374 -31.73925781 8.4934082 C-22.13806945 0.17925831 -12.10772003 -0.16952112 0 0 Z " fill="#030100" transform="translate(221.76318359375,374.2177734375)"/>
<path d="M0 0 C2.6249696 0.02138072 5.24718579 0.00017005 7.87207031 -0.02539062 C18.98243901 -0.04384212 30.18453854 0.41377728 38.69238281 8.57226562 C43.9918744 15.15049026 47.26348875 22.34256352 46.71191406 30.86132812 C45.3059535 39.18705982 41.64250572 45.95201279 35.26269531 51.52148438 C30.59582703 54.48117106 25.80084295 56.61326554 20.2253418 56.71435547 C19.41697372 56.7304184 18.60860565 56.74648132 17.77574158 56.76303101 C14.06429111 56.80783173 10.35301594 56.84858808 6.64135742 56.87158203 C4.69299319 56.88807852 2.74468789 56.9152844 0.79663086 56.95361328 C-21.26472842 57.3849754 -21.26472842 57.3849754 -29.81542969 49.63891602 C-35.70985569 43.7180612 -38.82432556 36.4552731 -39.36230469 28.14648438 C-39.03395168 20.16410946 -35.28323361 12.45558784 -29.42480469 7.02148438 C-28.20965504 6.16784132 -26.97881344 5.33631635 -25.73730469 4.52148438 C-24.92169067 3.97621094 -24.92169067 3.97621094 -24.08959961 3.41992188 C-16.58234231 -0.68473739 -8.31389355 -0.08056699 0 0 Z " fill="#030100" transform="translate(278.7373046875,60.478515625)"/>
<path d="M0 0 C2.27734375 1.40234375 2.27734375 1.40234375 4.3125 2.875 C4.95316406 3.30941406 5.59382813 3.74382812 6.25390625 4.19140625 C11.74126073 8.35136613 16.13076988 14.53957293 17.94921875 21.2109375 C19.53237304 32.82073565 19.13104098 42.01596171 12.3125 51.875 C8.17291721 57.19180679 3.49539531 60.31697861 -2.6875 62.875 C-3.83798828 63.41060547 -3.83798828 63.41060547 -5.01171875 63.95703125 C-12.78930699 66.62525495 -22.01610333 65.66123291 -29.37890625 62.19140625 C-38.1255732 57.20388212 -44.045731 51.23877156 -47.49609375 41.62109375 C-49.97772046 32.0539949 -49.71016043 22.51833164 -44.6875 13.875 C-34.61812817 -0.49461096 -16.67583378 -7.81600148 0 0 Z " fill="#456C7F" transform="translate(63.6875,432.125)"/>
<path d="M0 0 C1.10275835 -0.00169662 1.10275835 -0.00169662 2.22779465 -0.00342751 C3.07170258 -0.01188698 3.9156105 -0.02034645 4.7850914 -0.02906227 C5.71289917 -0.02298958 6.64070694 -0.01691689 7.5966301 -0.01066017 C8.57239502 -0.01591713 9.54815994 -0.02117409 10.5534935 -0.02659035 C13.79296813 -0.03983934 17.03195477 -0.03103212 20.27143478 -0.02091408 C22.51864847 -0.02293406 24.76586153 -0.02584485 27.01307297 -0.02961159 C31.73093002 -0.03404212 36.448617 -0.02758279 41.16645432 -0.01358986 C47.21039195 0.00346305 53.2539288 -0.00631002 59.29785156 -0.02430725 C63.94244518 -0.03515886 68.58694418 -0.0316917 73.23154068 -0.02392387 C75.45945152 -0.02192364 77.68737098 -0.02437491 79.91527176 -0.03136253 C83.03454876 -0.03899506 86.15318216 -0.02734524 89.27241135 -0.01066017 C90.65197762 -0.01976921 90.65197762 -0.01976921 92.05941391 -0.02906227 C97.18674984 0.0216571 100.76321675 0.50676187 105.19330978 3.37752342 C108.26943168 6.78619903 110.06372372 9.02982834 110.50580978 13.62752342 C110.04510768 19.15594865 107.85012524 21.91959212 103.75297165 25.52492332 C99.18577655 28.44440656 94.10687084 27.90255086 88.86371994 27.83162498 C87.16528442 27.83250114 87.16528442 27.83250114 85.43253708 27.833395 C81.69883441 27.83061361 77.9659351 27.7995172 74.23237228 27.76814842 C71.64020346 27.76068628 69.04802899 27.75499322 66.45585251 27.75099754 C60.33602162 27.73729793 54.2165211 27.70578929 48.09681451 27.66559958 C41.1270784 27.62082518 34.15732826 27.59888066 27.18748403 27.57881784 C12.85593863 27.53705463 -1.47536558 27.46673812 -15.80669022 27.37752342 C-14.60880231 23.69905123 -13.39206813 20.3337745 -11.49419022 16.95955467 C-11.05848709 16.18031639 -10.62278397 15.40107811 -10.17387772 14.59822655 C-9.72270584 13.80351952 -9.27153397 13.00881248 -8.80669022 12.19002342 C-8.35551834 11.38371483 -7.90434647 10.57740623 -7.43950272 9.74666405 C-2.22367809 0.46465662 -2.22367809 0.46465662 0 0 Z " fill="#BE2C22" transform="translate(84.80669021606445,128.6224765777588)"/>
<path d="M0 0 C1.48493202 -0.00412399 1.48493202 -0.00412399 2.99986267 -0.0083313 C4.07951797 -0.00114075 5.15917328 0.0060498 6.27154541 0.01345825 C7.41329727 0.0131662 8.55504913 0.01287415 9.73139954 0.01257324 C13.50820495 0.01396744 17.28481349 0.02953316 21.06158447 0.04519653 C23.67903536 0.04892634 26.29648765 0.05177346 28.91394043 0.05377197 C35.10101067 0.05998598 41.28801016 0.07639569 47.47504926 0.09647095 C54.51973803 0.11883245 61.5644302 0.12982401 68.60914564 0.13986182 C83.09853673 0.160762 97.58787211 0.19593643 112.07720947 0.24050903 C111.11675503 1.36598079 110.15560204 2.49085644 109.19415283 3.61547852 C108.65898544 4.24195723 108.12381805 4.86843594 107.57243347 5.51389885 C105.98722975 7.34441313 104.35004627 9.09675271 102.63970947 10.81082153 C102.0544751 11.39734497 101.46924072 11.98386841 100.86627197 12.58816528 C100.27588135 13.17468872 99.68549072 13.76121216 99.07720947 14.36550903 C98.48681885 14.95976685 97.89642822 15.55402466 97.28814697 16.16629028 C96.7029126 16.7502356 96.11767822 17.33418091 95.51470947 17.93582153 C94.99779541 18.45160767 94.48088135 18.9673938 93.94830322 19.49880981 C93.33084229 20.07357056 92.71338135 20.6483313 92.07720947 21.24050903 C91.23456039 22.08776047 90.39191132 22.9350119 89.52372742 23.80793762 C85.60101769 27.03972556 81.98503996 26.95420748 77.06182861 26.90335083 C76.17486801 26.91371872 75.28790741 26.92408661 74.37406921 26.93476868 C71.45302561 26.96178995 68.53348866 26.95218718 65.61236572 26.93972778 C63.57504357 26.94563875 61.53772489 26.95288634 59.50041199 26.96141052 C55.23424153 26.97328278 50.96859305 26.96659668 46.70245361 26.94729614 C41.24346122 26.92441858 35.7860263 26.95118107 30.32718754 26.99235821 C26.12083922 27.01797156 21.91486175 27.01534651 17.70846367 27.0044651 C15.69627913 27.00298109 13.68406581 27.01063742 11.6719532 27.02771568 C8.85434536 27.04774828 6.03946821 27.02924689 3.22198486 27.00100708 C1.98347275 27.02158173 1.98347275 27.02158173 0.71994019 27.04257202 C-4.75345541 26.93329684 -7.60467232 25.53858194 -11.61538029 21.81924152 C-14.36686462 18.49675132 -14.31460991 14.64919234 -14.27435303 10.52957153 C-13.6677725 6.58005835 -11.81819234 4.93849708 -8.92279053 2.24050903 C-5.85633409 0.35687365 -3.57655883 -0.00767502 0 0 Z " fill="#C32D23" transform="translate(314.92279052734375,389.7594909667969)"/>
<path d="M0 0 C17.04637844 -1.00799872 30.58009168 2.88050487 44.171875 13.734375 C54.98708026 23.54351466 60.69124047 37.38874628 61.44897461 51.77514648 C61.83437719 67.16358921 55.71377906 80.96396483 45.3125 92.25 C33.0474999 103.76023086 18.61805459 107.63547331 2.26171875 107.140625 C0.64716797 107.07101563 0.64716797 107.07101563 -1 107 C-1 106.67 -1 106.34 -1 106 C-0.40574219 106.020625 0.18851562 106.04125 0.80078125 106.0625 C10.08566779 105.83146083 15.95591225 101.16981069 22.26171875 94.66796875 C32.00062609 83.18533324 37.59642462 69.82524554 37.4375 54.8125 C37.42920166 53.80018311 37.42090332 52.78786621 37.41235352 51.74487305 C37.04865918 35.53653071 31.30132977 21.84943425 20.09765625 9.9765625 C13.78453603 4.02788683 8.72105603 1.27685892 0 1 C0 0.67 0 0.34 0 0 Z " fill="#A19486" transform="translate(436,15)"/>
<path d="M0 0 C0.77538116 -0.00524185 1.55076233 -0.0104837 2.34963989 -0.0158844 C3.98519701 -0.02228879 5.62080028 -0.0209881 7.25634766 -0.01245117 C9.74335897 -0.00395562 12.22805989 -0.03269752 14.71484375 -0.06445312 C16.30989515 -0.06606587 17.90495058 -0.06548621 19.5 -0.0625 C20.23564178 -0.07373398 20.97128357 -0.08496796 21.72921753 -0.09654236 C27.18236089 -0.0238863 30.38159564 1.33178686 34.8828125 4.43359375 C37.53384767 7.99592227 38.10075055 10.66728076 37.8203125 14.99609375 C37.17630404 19.10943811 36.01496978 21.56244958 32.8828125 24.43359375 C28.59406742 26.66321057 24.46403466 26.75534862 19.73046875 26.76953125 C18.95271591 26.77618805 18.17496307 26.78284485 17.37364197 26.78970337 C15.73390049 26.79979712 14.09411821 26.80452141 12.4543457 26.80419922 C9.95650129 26.80857415 7.46042306 26.8449301 4.96289062 26.8828125 C3.36458933 26.88868121 1.76627971 26.89265024 0.16796875 26.89453125 C-0.57283432 26.90890228 -1.31363739 26.92327332 -2.07688904 26.93807983 C-7.23761009 26.89298289 -10.15614351 25.70525909 -14.1171875 22.43359375 C-17.0275595 18.06803575 -17.7678124 14.63859296 -17.1171875 9.43359375 C-13.11040671 1.71683074 -8.36940248 -0.03321598 0 0 Z " fill="#C22D23" transform="translate(272.1171875,75.56640625)"/>
<path d="M0 0 C0.75601501 -0.00807175 1.51203003 -0.01614349 2.29095459 -0.02445984 C3.89137492 -0.03828216 5.4918245 -0.04901259 7.09228516 -0.05688477 C8.72160537 -0.06839081 10.35088829 -0.08882104 11.97998047 -0.1184082 C14.34107941 -0.16128066 16.70105914 -0.17728117 19.0625 -0.1875 C20.14256317 -0.21376213 20.14256317 -0.21376213 21.2444458 -0.24055481 C26.80065436 -0.2170143 29.82380342 1.18861951 34.296875 4.23828125 C36.75513289 7.17233099 37.25545406 8.85858929 37.671875 12.67578125 C37.14603197 17.67129006 35.71595963 20.77397946 32.22045898 24.38085938 C28.39609339 26.81056906 25.09731831 26.81472443 20.70703125 26.76953125 C19.47381386 26.77527161 19.47381386 26.77527161 18.21568298 26.78112793 C16.48174816 26.78384249 14.74777208 26.77651319 13.01391602 26.75976562 C10.37097044 26.7383751 7.73075134 26.75956669 5.08789062 26.78515625 C3.39843154 26.78251235 1.70897414 26.7773861 0.01953125 26.76953125 C-1.15729469 26.78167664 -1.15729469 26.78167664 -2.3578949 26.79406738 C-7.5735187 26.70570107 -10.56951606 25.68799077 -14.703125 22.23828125 C-17.34513525 18.18719887 -18.40549384 15.05452475 -17.703125 10.23828125 C-12.97031594 1.91506531 -9.39184739 0.0952798 0 0 Z " fill="#C22D23" transform="translate(214.703125,389.76171875)"/>
<path d="M0 0 C0.82218018 0.02094727 1.64436035 0.04189453 2.49145508 0.06347656 C3.38413086 0.07636719 4.27680664 0.08925781 5.1965332 0.10253906 C6.12530273 0.13605469 7.05407227 0.16957031 8.01098633 0.20410156 C9.42154297 0.23117187 9.42154297 0.23117187 10.8605957 0.25878906 C13.18258522 0.30593606 15.50252322 0.37171925 17.82348633 0.45410156 C13.6857302 5.38660963 9.38980359 10.04269467 4.82348633 14.57910156 C4.2330957 15.17335938 3.64270508 15.76761719 3.03442383 16.37988281 C1.86611863 17.54561465 0.6867503 18.70037883 -0.50415039 19.84301758 C-1.56352391 20.86357318 -2.6001045 21.90879826 -3.6027832 22.98510742 C-6.57964757 25.93016991 -8.86988696 26.77586284 -12.91870117 26.94238281 C-14.63032523 26.90946697 -16.34162011 26.85029364 -18.05151367 26.76660156 C-18.9306543 26.74404297 -19.80979492 26.72148437 -20.71557617 26.69824219 C-22.86996374 26.63969905 -25.02346677 26.55002939 -27.17651367 26.45410156 C-24.15144707 23.42300893 -21.11651521 20.40223862 -18.07495117 17.38769531 C-16.5670829 15.88905351 -15.05927174 14.39035424 -13.55151367 12.89160156 C-12.78838867 12.13685547 -12.02526367 11.38210938 -11.23901367 10.60449219 C-10.50424805 9.87294922 -9.76948242 9.14140625 -9.01245117 8.38769531 C-8.34777832 7.72825928 -7.68310547 7.06882324 -6.99829102 6.3894043 C-5.11548487 4.50340234 -5.11548487 4.50340234 -3.72851562 2.23266602 C-2.17651367 0.45410156 -2.17651367 0.45410156 0 0 Z " fill="#9E251C" transform="translate(409.176513671875,389.5458984375)"/>
<path d="M0 0 C21.78 0 43.56 0 66 0 C51.12429072 14.87570928 22.22027862 23.2470799 2 27 C1.34 26.67 0.68 26.34 0 26 C0.93392578 25.63261719 0.93392578 25.63261719 1.88671875 25.2578125 C8.79420527 22.4639895 15.56698759 19.41247546 22.3125 16.25 C23.14031982 15.86859863 23.96813965 15.48719727 24.82104492 15.09423828 C32.97673816 11.23295261 40.1334647 6.71992118 48 2 C32.16 1.67 16.32 1.34 0 1 C0 0.67 0 0.34 0 0 Z " fill="#D23527" transform="translate(311,431)"/>
<path d="M0 0 C18.83313086 3.40813697 43.36083534 10.18944099 58 23 C58.390625 25.69921875 58.390625 25.69921875 58.25 28.6875 C58.21390625 29.68136719 58.1778125 30.67523438 58.140625 31.69921875 C58.09421875 32.45847656 58.0478125 33.21773437 58 34 C56.8125 33.20833333 55.625 32.41666667 54.4375 31.625 C53.60347656 31.07328125 52.76945312 30.5215625 51.91015625 29.953125 C49.88108118 28.59132965 47.86916961 27.20375988 45.87109375 25.796875 C31.56257813 15.8151921 15.91586729 8.07479239 0 1 C0 0.67 0 0.34 0 0 Z " fill="#DD3528" transform="translate(317,36)"/>
</svg>
