<?xml version="1.0" encoding="UTF-8"?>
<svg version="1.1" xmlns="http://www.w3.org/2000/svg" width="512" height="512">
<path d="M0 0 C0.98683777 0.00087616 1.97367554 0.00175232 2.99041748 0.00265503 C67.94469852 0.19217333 130.35821624 25.27170984 177.1875 70.375 C178.1765332 71.32318604 178.1765332 71.32318604 179.18554688 72.29052734 C188.67380305 81.43497479 197.4137044 90.73234009 205.1875 101.375 C206.04556152 102.52605017 206.90363451 103.67709177 207.76171875 104.828125 C213.80041574 113.01930857 219.1713509 121.52497349 224.1875 130.375 C224.58437012 131.06625977 224.98124023 131.75751953 225.39013672 132.46972656 C240.26561447 158.60949904 249.60939032 187.70581405 254.1875 217.375 C254.36555176 218.50180176 254.54360352 219.62860352 254.72705078 220.78955078 C256.38240041 232.39770856 256.58515444 243.91205462 256.5625 255.625 C256.56228851 256.63568542 256.56207703 257.64637085 256.56185913 258.68768311 C256.5273632 275.24736258 255.57799345 291.12180462 252.1875 307.375 C252.00558105 308.26606445 251.82366211 309.15712891 251.63623047 310.07519531 C250.40267499 315.9199774 248.89115672 321.65071342 247.1875 327.375 C246.77806152 328.75751953 246.77806152 328.75751953 246.36035156 330.16796875 C236.09203569 364.16120009 219.40692218 395.45766985 196.1875 422.375 C195.55328125 423.12007813 194.9190625 423.86515625 194.265625 424.6328125 C182.45448485 438.13779833 169.70389772 450.80918743 155.1875 461.375 C154.03755169 462.23149066 152.88781411 463.08826433 151.73828125 463.9453125 C143.54660474 469.9859414 135.03104922 475.34505071 126.1875 480.375 C125.55569824 480.73948242 124.92389648 481.10396484 124.27294922 481.47949219 C90.89093611 500.58624685 50.89257854 512.26715886 12.3515625 512.61328125 C11.44249649 512.6230751 10.53343048 512.63286896 9.59681702 512.64295959 C-10.86666294 512.81794489 -30.69610138 512.57799395 -50.8125 508.375 C-52.33762207 508.06151611 -52.33762207 508.06151611 -53.89355469 507.74169922 C-95.20357034 498.9628277 -133.83441049 479.95993344 -165.8125 452.375 C-166.55757813 451.74078125 -167.30265625 451.1065625 -168.0703125 450.453125 C-181.57529833 438.64198485 -194.24668743 425.89139772 -204.8125 411.375 C-205.66899066 410.22505169 -206.52576433 409.07531411 -207.3828125 407.92578125 C-212.99859582 400.30954869 -218.058364 392.42395059 -222.75976562 384.21337891 C-223.75042864 382.48339455 -224.75749742 380.7628344 -225.765625 379.04296875 C-240.20598071 353.36144182 -249.41158971 324.44622804 -253.8125 295.375 C-253.98982666 294.25617432 -254.16715332 293.13734863 -254.34985352 291.98461914 C-256.03126341 280.26264053 -256.16984341 268.64001024 -256.125 256.8125 C-256.12176727 255.28189438 -256.12176727 255.28189438 -256.11846924 253.72036743 C-256.06883352 239.09289476 -255.82169712 224.74236162 -252.8125 210.375 C-252.61382324 209.40014648 -252.41514648 208.42529297 -252.21044922 207.42089844 C-244.48922138 170.50938079 -230.15185706 135.84821638 -207.8125 105.375 C-207.18045654 104.5075415 -207.18045654 104.5075415 -206.53564453 103.62255859 C-201.19372742 96.34078092 -195.44699262 89.59935951 -189.2578125 83.03125 C-186.80488776 80.43179863 -186.80488776 80.43179863 -184.7109375 77.7265625 C-183.01558008 75.62655187 -181.37292495 73.97605774 -179.3125 72.25 C-175.87774366 69.32666877 -172.59180041 66.28412199 -169.3125 63.1875 C-133.88118765 30.40377733 -86.32461534 9.35160429 -38.8125 2.375 C-37.61004639 2.19839844 -36.40759277 2.02179687 -35.16870117 1.83984375 C-23.45243596 0.23588311 -11.81334274 -0.02574553 0 0 Z " fill="#D6B68C" transform="translate(255.8125,-0.375)"/>
<path d="M0 0 C0.98683777 0.00087616 1.97367554 0.00175232 2.99041748 0.00265503 C67.94469852 0.19217333 130.35821624 25.27170984 177.1875 70.375 C178.1765332 71.32318604 178.1765332 71.32318604 179.18554688 72.29052734 C188.67380305 81.43497479 197.4137044 90.73234009 205.1875 101.375 C206.04556152 102.52605017 206.90363451 103.67709177 207.76171875 104.828125 C213.80041574 113.01930857 219.1713509 121.52497349 224.1875 130.375 C224.58437012 131.06625977 224.98124023 131.75751953 225.39013672 132.46972656 C240.26561447 158.60949904 249.60939032 187.70581405 254.1875 217.375 C254.36555176 218.50180176 254.54360352 219.62860352 254.72705078 220.78955078 C256.38240041 232.39770856 256.58515444 243.91205462 256.5625 255.625 C256.56228851 256.63568542 256.56207703 257.64637085 256.56185913 258.68768311 C256.5273632 275.24736258 255.57799345 291.12180462 252.1875 307.375 C252.00558105 308.26606445 251.82366211 309.15712891 251.63623047 310.07519531 C250.40267499 315.9199774 248.89115672 321.65071342 247.1875 327.375 C246.77806152 328.75751953 246.77806152 328.75751953 246.36035156 330.16796875 C236.09203569 364.16120009 219.40692218 395.45766985 196.1875 422.375 C195.55328125 423.12007813 194.9190625 423.86515625 194.265625 424.6328125 C182.45448485 438.13779833 169.70389772 450.80918743 155.1875 461.375 C154.03755169 462.23149066 152.88781411 463.08826433 151.73828125 463.9453125 C143.54660474 469.9859414 135.03104922 475.34505071 126.1875 480.375 C125.55569824 480.73948242 124.92389648 481.10396484 124.27294922 481.47949219 C90.89093611 500.58624685 50.89257854 512.26715886 12.3515625 512.61328125 C11.44249649 512.6230751 10.53343048 512.63286896 9.59681702 512.64295959 C-10.86666294 512.81794489 -30.69610138 512.57799395 -50.8125 508.375 C-52.33762207 508.06151611 -52.33762207 508.06151611 -53.89355469 507.74169922 C-95.20357034 498.9628277 -133.83441049 479.95993344 -165.8125 452.375 C-166.55757813 451.74078125 -167.30265625 451.1065625 -168.0703125 450.453125 C-181.57529833 438.64198485 -194.24668743 425.89139772 -204.8125 411.375 C-205.66899066 410.22505169 -206.52576433 409.07531411 -207.3828125 407.92578125 C-212.99859582 400.30954869 -218.058364 392.42395059 -222.75976562 384.21337891 C-223.75042864 382.48339455 -224.75749742 380.7628344 -225.765625 379.04296875 C-240.20598071 353.36144182 -249.41158971 324.44622804 -253.8125 295.375 C-253.98982666 294.25617432 -254.16715332 293.13734863 -254.34985352 291.98461914 C-256.03126341 280.26264053 -256.16984341 268.64001024 -256.125 256.8125 C-256.12176727 255.28189438 -256.12176727 255.28189438 -256.11846924 253.72036743 C-256.06883352 239.09289476 -255.82169712 224.74236162 -252.8125 210.375 C-252.61382324 209.40014648 -252.41514648 208.42529297 -252.21044922 207.42089844 C-244.48922138 170.50938079 -230.15185706 135.84821638 -207.8125 105.375 C-207.18045654 104.5075415 -207.18045654 104.5075415 -206.53564453 103.62255859 C-201.19372742 96.34078092 -195.44699262 89.59935951 -189.2578125 83.03125 C-186.80488776 80.43179863 -186.80488776 80.43179863 -184.7109375 77.7265625 C-183.01558008 75.62655187 -181.37292495 73.97605774 -179.3125 72.25 C-175.87774366 69.32666877 -172.59180041 66.28412199 -169.3125 63.1875 C-133.88118765 30.40377733 -86.32461534 9.35160429 -38.8125 2.375 C-37.61004639 2.19839844 -36.40759277 2.02179687 -35.16870117 1.83984375 C-23.45243596 0.23588311 -11.81334274 -0.02574553 0 0 Z M-167.09765625 72.77734375 C-169.32097996 74.90469665 -171.57761884 76.90447549 -173.9375 78.875 C-196.98047648 98.98348469 -218.53307779 130.50355423 -228.8125 159.375 C-228.56475726 162.06435976 -228.18307049 163.0622089 -226.10107422 164.81958008 C-225.3638916 165.25681396 -224.62670898 165.69404785 -223.8671875 166.14453125 C-223.04436279 166.63775879 -222.22153809 167.13098633 -221.3737793 167.63916016 C-220.48730713 168.1501123 -219.60083496 168.66106445 -218.6875 169.1875 C-217.33555542 169.98099854 -217.33555542 169.98099854 -215.95629883 170.79052734 C-203.50646202 177.99826958 -191.50312255 184.02910584 -177 185.3125 C-167.38374643 186.29309194 -158.83436532 187.17758805 -151.8125 194.375 C-149.25936488 198.63609448 -149.16527534 202.52491144 -149.8125 207.375 C-151.22943545 211.71913743 -153.40390004 214.40484002 -157.3125 216.75 C-169.74495394 222.52221076 -183.46487656 218.69705159 -195.8125 214.375 C-209.84402597 208.78205849 -223.65572112 200.23608501 -235.2109375 190.5546875 C-236.74936206 189.17731165 -236.74936206 189.17731165 -238.8125 189.375 C-244.53390499 206.66094699 -247.48489451 225.18607038 -247.8125 243.375 C-247.83828125 244.50969727 -247.8640625 245.64439453 -247.890625 246.81347656 C-248.23473842 263.91161202 -247.91253869 280.49873727 -244.8125 297.375 C-244.6568457 298.29555176 -244.50119141 299.21610352 -244.34082031 300.16455078 C-238.42435162 334.87804325 -224.32857465 369.64190142 -203.8125 398.375 C-202.96594849 399.63944946 -202.96594849 399.63944946 -202.10229492 400.92944336 C-197.02541927 408.00358531 -192.02454057 410.79371845 -183.875 413.5625 C-182.16896606 414.17665771 -182.16896606 414.17665771 -180.4284668 414.80322266 C-155.52493439 423.58502174 -129.38539663 430.44869104 -102.828125 430.578125 C-101.89184265 430.58382507 -100.9555603 430.58952515 -99.99090576 430.59539795 C-98.0142935 430.60479456 -96.03766595 430.61136053 -94.06103516 430.61523438 C-91.11200637 430.62483877 -88.16370657 430.65587151 -85.21484375 430.6875 C-61.10165298 430.82169431 -37.81328647 426.48478758 -14.8125 419.375 C-14.1431543 419.17181152 -13.47380859 418.96862305 -12.78417969 418.75927734 C20.12167912 408.68590173 48.99772933 391.45182747 75.1875 369.375 C76.1053125 368.6015625 77.023125 367.828125 77.96875 367.03125 C80.63272622 364.7624445 80.63272622 364.7624445 83.1875 362.375 C83.1875 362.045 83.1875 361.715 83.1875 361.375 C80.64575487 361.34730544 78.10432853 361.32783862 75.5625 361.3125 C74.86898438 361.30412109 74.17546875 361.29574219 73.4609375 361.28710938 C68.88880037 361.26669805 64.38599294 361.49315941 59.828125 361.859375 C51.59649215 362.47965764 43.38114094 362.63147415 35.12792969 362.67016602 C33.41397893 362.68174676 31.70006591 362.70229346 29.98632812 362.73168945 C7.50717932 363.11475949 7.50717932 363.11475949 -1.8125 356.125 C-2.4725 355.2175 -3.1325 354.31 -3.8125 353.375 C-4.20050781 352.84519531 -4.58851563 352.31539063 -4.98828125 351.76953125 C-7.81399205 347.21537879 -7.94059424 343.56982154 -7.75 338.25 C-7.46102936 332.60135691 -7.46102936 332.60135691 -9.8125 327.6875 C-16.08717052 322.85077481 -22.15858674 321.93111082 -29.82373047 321.99023438 C-30.6866571 321.9848616 -31.54958374 321.97948883 -32.43865967 321.97395325 C-34.29919075 321.96422345 -36.15976695 321.96121647 -38.02032089 321.96430969 C-40.97275931 321.96881574 -43.92460714 321.95470839 -46.87698364 321.93591309 C-53.14714635 321.8992498 -59.41724592 321.88544402 -65.6875 321.875 C-72.95142498 321.86288603 -80.21505999 321.84118226 -87.47885513 321.79499817 C-90.3736258 321.7815112 -93.26802198 321.7855836 -96.16281128 321.79040527 C-118.37773609 321.72610375 -118.37773609 321.72610375 -126.40234375 314.04296875 C-129.652716 310.19834562 -130.8125 306.79935455 -130.8125 301.8125 C-129.2996309 296.61201247 -126.72112359 293.55135016 -122.12306213 290.71740723 C-118.29377446 289.16466082 -115.08370644 289.01722632 -111.03100586 289.14648438 C-110.25590888 289.15893944 -109.4808119 289.1713945 -108.68222713 289.18422699 C-106.05837171 289.23146683 -103.4357734 289.30255177 -100.8125 289.375 C-98.89219712 289.41842563 -96.97187773 289.46112607 -95.05154419 289.50317383 C-89.65368326 289.62797857 -84.25668252 289.77635355 -78.85959053 289.93058777 C-75.20008835 290.0345546 -71.54049254 290.13435333 -67.88084412 290.23303223 C-57.48362049 290.51361942 -47.08649124 290.79713947 -36.68969727 291.09326172 C-8.19871238 291.90156793 20.28245325 292.52340135 48.78515625 292.59375 C49.97276487 292.5997673 51.1603735 292.60578461 52.38397026 292.61198425 C65.33398034 292.66879664 78.20140974 292.38265302 91.12280273 291.47851562 C92.24837869 291.39986015 93.37395464 291.32120468 94.53363895 291.24016571 C104.74710373 290.45412299 114.77558866 288.96343033 124.79638672 286.85009766 C126.94745733 286.42269482 129.08013817 286.10641955 131.25390625 285.82421875 C134.88685347 285.15053229 137.17314121 284.51678124 140.1875 282.375 C143.12398117 277.78331127 144.80453681 273.10952363 146.40039062 267.91992188 C147.20597399 265.31526897 148.08673377 262.74613396 148.984375 260.171875 C162.06486228 221.91893322 167.2724246 178.33777231 159.1875 138.375 C158.8575 137.715 158.5275 137.055 158.1875 136.375 C157.55585938 136.4471875 156.92421875 136.519375 156.2734375 136.59375 C135.72278226 138.72580645 135.72278226 138.72580645 131.22265625 136.328125 C128.6107664 133.75408863 127.28383028 131.22270648 126.875 127.625 C127.27560554 123.45870243 128.53275562 121.58863793 131.1875 118.375 C135.92155286 114.72956444 140.59930425 112.96876706 146.25 111.3125 C147.55142944 110.92408936 147.55142944 110.92408936 148.87915039 110.52783203 C156.11220834 108.47162239 163.32263448 107.3403387 170.77441406 106.42431641 C177.90729418 105.52020561 184.41692339 103.84958923 191.1875 101.375 C191.1875 96.43239653 189.43455498 94.96017323 186.1875 91.625 C185.65495605 91.06570801 185.12241211 90.50641602 184.57373047 89.93017578 C182.78950339 88.0673304 180.98878742 86.22134307 179.1875 84.375 C178.55618164 83.71790039 177.92486328 83.06080078 177.27441406 82.38378906 C168.47124844 73.22867279 159.47930408 64.82661589 149.1875 57.375 C148.58534668 56.93381836 147.98319336 56.49263672 147.36279297 56.03808594 C66.93961797 -2.48591951 -41.20826287 -7.71792299 -167.09765625 72.77734375 Z " fill="#BE9970" transform="translate(255.8125,-0.375)"/>
<path d="M0 0 C0.96421875 0.75925781 1.9284375 1.51851562 2.921875 2.30078125 C15.28901015 12.39223798 28.70169388 23.97843147 38 37 C37.67 37.99 37.34 38.98 37 40 C29.29147954 43.83966076 20.22122405 44.64454764 11.8125 45.875 C3.94881592 47.04355343 -3.62816034 48.44351628 -11.1875 50.9375 C-11.89865967 51.16614746 -12.60981934 51.39479492 -13.3425293 51.63037109 C-18.69039424 53.51525836 -23.02824943 56.22162419 -26.375 60.9375 C-27.59522157 64.96423117 -27.50291021 67.94628337 -25.6875 71.75 C-24.02946845 74.22072445 -24.02946845 74.22072445 -21 76 C-12.6868693 76.64536146 -4.2680697 75.94492225 4 75 C15.37218766 119.67645151 6.27456488 169.84861368 -10 212 C-10.32218506 212.87648193 -10.64437012 213.75296387 -10.97631836 214.65600586 C-13.29978178 220.53431542 -13.29978178 220.53431542 -16.42578125 222.61328125 C-17.37839844 222.84402344 -18.33101563 223.07476562 -19.3125 223.3125 C-20.47265625 223.59480469 -21.6328125 223.87710937 -22.828125 224.16796875 C-24.21792844 224.44940054 -25.60863242 224.72640597 -27 225 C-27.79341797 225.16838379 -28.58683594 225.33676758 -29.40429688 225.51025391 C-55.68181906 231.01540475 -82.27327529 231.35324057 -109 231 C-108.49210937 230.09121094 -107.98421875 229.18242187 -107.4609375 228.24609375 C-100.89318376 216.32292218 -95.53935171 204.19495156 -92 191 C-92.886875 190.9175 -93.77375 190.835 -94.6875 190.75 C-99.97085444 189.55376881 -102.21590663 187.10196906 -105.3125 182.75 C-107.37022308 178.81932898 -107.83515899 175.35660255 -107 171 C-104.54754859 165.31031273 -101.18114712 161.40987147 -96 158 C-93.65893555 157.07519531 -93.65893555 157.07519531 -91.26171875 156.328125 C-90.46080811 156.07450195 -89.65989746 155.82087891 -88.8347168 155.55957031 C-88.22926025 155.37491211 -87.62380371 155.19025391 -87 155 C-90.99561074 114.37215229 -103.36218338 81.41343219 -133.3984375 52.54296875 C-135 51 -135 51 -136.4140625 49.42578125 C-138.43490315 47.36542695 -140.24835986 46.090526 -143.140625 45.7421875 C-149.45041055 46.088208 -154.95526059 48.36339242 -160.75390625 50.7265625 C-173.55511855 55.74845806 -190.23040544 59.22233148 -203.5625 54.4375 C-209.39637108 51.65806311 -213.15564051 47.49880963 -216.9375 42.375 C-219.85438842 33.10958971 -218.18718556 25.44453412 -214 17 C-257.14120372 17.50144084 -293.35074761 27.55731735 -325 58 C-325.69351563 58.61875 -326.38703125 59.2375 -327.1015625 59.875 C-341.4225724 73.07626016 -351.81072837 92.34469822 -357.9296875 110.65625 C-358.45949219 111.81640625 -358.45949219 111.81640625 -359 113 C-362 114 -362 114 -363.83764648 113.24316406 C-364.50868408 112.83807617 -365.17972168 112.43298828 -365.87109375 112.015625 C-366.98000977 111.35433594 -366.98000977 111.35433594 -368.11132812 110.6796875 C-369.2627832 109.97199219 -369.2627832 109.97199219 -370.4375 109.25 C-371.20126953 108.79367188 -371.96503906 108.33734375 -372.75195312 107.8671875 C-376.30723388 105.72597402 -379.70472754 103.5288124 -383 101 C-378.42424623 74.33935015 -355.07150604 46.05902003 -337 27 C-335.9110529 25.71306251 -334.82739855 24.42162109 -333.75 23.125 C-275.84617848 -42.99308457 -177.01305265 -66.77749445 0 0 Z " fill="#CFA978" transform="translate(410,61)"/>
<path d="M0 0 C3.13291203 1.48218465 5.96340221 3.22737814 8.84375 5.15234375 C9.76027344 5.76400391 10.67679688 6.37566406 11.62109375 7.00585938 C12.57113281 7.64330078 13.52117188 8.28074219 14.5 8.9375 C15.45003906 9.57107422 16.40007813 10.20464844 17.37890625 10.85742188 C21.31963397 13.49288746 25.22957517 16.12391213 29 19 C28.505 19.495 28.505 19.495 28 20 C25.48648962 45.33271775 31.74419506 71.83524639 44 94 C44.763125 93.21625 45.52625 92.4325 46.3125 91.625 C49.80664242 88.2121167 51.84638407 86.70099868 56.6875 86.625 C61.89023485 86.75393075 65.83835326 87.81865227 70 91 C74.42430128 95.84251882 76.32536806 100.19441932 76.21484375 106.875 C75.73186456 111.65210331 74.00998591 115.04180824 70.5625 118.3125 C68.41444 119.7270761 66.34732844 120.95674292 64 122 C64.495 122.45375 64.99 122.9075 65.5 123.375 C67 125 67 125 67 127 C67.55945313 127.23589844 68.11890625 127.47179687 68.6953125 127.71484375 C71.54225132 129.30237404 73.53627261 131.29130425 75.875 133.5625 C101.27099506 157.30570558 138.32429042 168.27863236 172.52539062 167.13623047 C191.13236014 166.11189257 208.43020672 161.84409636 225.33984375 154.13671875 C228 153 228 153 230 153 C230.23074219 153.66386719 230.46148437 154.32773437 230.69921875 155.01171875 C233.45584554 162.47531304 236.16920372 166.83211549 243.5625 170.25 C249.27952502 172.6675981 254.23815608 173.14870708 260.4296875 173.1328125 C261.25647003 173.13376923 262.08325256 173.13472595 262.93508911 173.13571167 C264.68849768 173.13639184 266.44190878 173.13454893 268.1953125 173.13037109 C270.83078969 173.12508861 273.46609108 173.13028594 276.1015625 173.13671875 C284.7783507 173.13984724 293.34736815 172.93387438 301.99755859 172.22265625 C306.12963858 171.91622781 310.23412041 171.88747079 314.375 171.9375 C315.49648438 171.94426758 315.49648438 171.94426758 316.640625 171.95117188 C318.42712077 171.96262377 320.21357356 171.98053531 322 172 C317.72858454 177.65247358 312.5312884 181.63356048 307 186 C306.02933594 186.78632813 305.05867188 187.57265625 304.05859375 188.3828125 C276.35776437 210.38781362 244.1971772 225.34679916 210 234 C209.23381348 234.19432617 208.46762695 234.38865234 207.67822266 234.58886719 C188.22552769 239.42146819 168.90256266 241.56705327 148.875 241.4375 C147.8998645 241.43512329 146.924729 241.43274658 145.92004395 241.43029785 C129.96404723 241.36970298 114.65772518 240.26263297 99 237 C98.22027832 236.85046875 97.44055664 236.7009375 96.63720703 236.546875 C84.34901709 234.18596859 72.54136815 230.10597627 60.75683594 225.9609375 C58.31775708 225.11075911 55.86970748 224.30058645 53.4140625 223.5 C44.57905706 220.49494687 39.93425279 216.89107346 35 209 C34.03099349 207.54357464 33.06083952 206.08791238 32.08984375 204.6328125 C13.7285227 176.56996214 -0.61778701 143.71047519 -5.64257812 110.33251953 C-6.0170354 107.88882774 -6.45244712 105.46035932 -6.890625 103.02734375 C-12.57700439 69.41942392 -9.85739281 32.55926715 0 0 Z " fill="#CFA978" transform="translate(17,189)"/>
<path d="M0 0 C0.98683777 0.00087616 1.97367554 0.00175232 2.99041748 0.00265503 C67.94469852 0.19217333 130.35821624 25.27170984 177.1875 70.375 C178.1765332 71.32318604 178.1765332 71.32318604 179.18554688 72.29052734 C188.67380305 81.43497479 197.4137044 90.73234009 205.1875 101.375 C206.04556152 102.52605017 206.90363451 103.67709177 207.76171875 104.828125 C213.80041574 113.01930857 219.1713509 121.52497349 224.1875 130.375 C224.58437012 131.06625977 224.98124023 131.75751953 225.39013672 132.46972656 C240.26561447 158.60949904 249.60939032 187.70581405 254.1875 217.375 C254.36555176 218.50180176 254.54360352 219.62860352 254.72705078 220.78955078 C256.38240041 232.39770856 256.58515444 243.91205462 256.5625 255.625 C256.56228851 256.63568542 256.56207703 257.64637085 256.56185913 258.68768311 C256.5273632 275.24736258 255.57799345 291.12180462 252.1875 307.375 C252.00558105 308.26606445 251.82366211 309.15712891 251.63623047 310.07519531 C250.40267499 315.9199774 248.89115672 321.65071342 247.1875 327.375 C246.77806152 328.75751953 246.77806152 328.75751953 246.36035156 330.16796875 C236.09203569 364.16120009 219.40692218 395.45766985 196.1875 422.375 C195.55328125 423.12007813 194.9190625 423.86515625 194.265625 424.6328125 C182.45448485 438.13779833 169.70389772 450.80918743 155.1875 461.375 C154.03755169 462.23149066 152.88781411 463.08826433 151.73828125 463.9453125 C143.54660474 469.9859414 135.03104922 475.34505071 126.1875 480.375 C125.55569824 480.73948242 124.92389648 481.10396484 124.27294922 481.47949219 C90.89093611 500.58624685 50.89257854 512.26715886 12.3515625 512.61328125 C11.44249649 512.6230751 10.53343048 512.63286896 9.59681702 512.64295959 C-10.86666294 512.81794489 -30.69610138 512.57799395 -50.8125 508.375 C-52.33762207 508.06151611 -52.33762207 508.06151611 -53.89355469 507.74169922 C-95.20357034 498.9628277 -133.83441049 479.95993344 -165.8125 452.375 C-166.55757813 451.74078125 -167.30265625 451.1065625 -168.0703125 450.453125 C-181.57529833 438.64198485 -194.24668743 425.89139772 -204.8125 411.375 C-205.66899066 410.22505169 -206.52576433 409.07531411 -207.3828125 407.92578125 C-212.99859582 400.30954869 -218.058364 392.42395059 -222.75976562 384.21337891 C-223.75042864 382.48339455 -224.75749742 380.7628344 -225.765625 379.04296875 C-240.20598071 353.36144182 -249.41158971 324.44622804 -253.8125 295.375 C-253.98982666 294.25617432 -254.16715332 293.13734863 -254.34985352 291.98461914 C-256.03126341 280.26264053 -256.16984341 268.64001024 -256.125 256.8125 C-256.12176727 255.28189438 -256.12176727 255.28189438 -256.11846924 253.72036743 C-256.06883352 239.09289476 -255.82169712 224.74236162 -252.8125 210.375 C-252.61382324 209.40014648 -252.41514648 208.42529297 -252.21044922 207.42089844 C-244.48922138 170.50938079 -230.15185706 135.84821638 -207.8125 105.375 C-207.18045654 104.5075415 -207.18045654 104.5075415 -206.53564453 103.62255859 C-201.19372742 96.34078092 -195.44699262 89.59935951 -189.2578125 83.03125 C-186.80488776 80.43179863 -186.80488776 80.43179863 -184.7109375 77.7265625 C-183.01558008 75.62655187 -181.37292495 73.97605774 -179.3125 72.25 C-175.87774366 69.32666877 -172.59180041 66.28412199 -169.3125 63.1875 C-133.88118765 30.40377733 -86.32461534 9.35160429 -38.8125 2.375 C-37.61004639 2.19839844 -36.40759277 2.02179687 -35.16870117 1.83984375 C-23.45243596 0.23588311 -11.81334274 -0.02574553 0 0 Z M-167.09765625 72.77734375 C-169.32097996 74.90469665 -171.57761884 76.90447549 -173.9375 78.875 C-196.98047648 98.98348469 -218.53307779 130.50355423 -228.8125 159.375 C-228.56475726 162.06435976 -228.18307049 163.0622089 -226.10107422 164.81958008 C-225.3638916 165.25681396 -224.62670898 165.69404785 -223.8671875 166.14453125 C-223.04436279 166.63775879 -222.22153809 167.13098633 -221.3737793 167.63916016 C-220.48730713 168.1501123 -219.60083496 168.66106445 -218.6875 169.1875 C-217.33555542 169.98099854 -217.33555542 169.98099854 -215.95629883 170.79052734 C-203.50646202 177.99826958 -191.50312255 184.02910584 -177 185.3125 C-167.38374643 186.29309194 -158.83436532 187.17758805 -151.8125 194.375 C-149.25936488 198.63609448 -149.16527534 202.52491144 -149.8125 207.375 C-151.22943545 211.71913743 -153.40390004 214.40484002 -157.3125 216.75 C-169.74495394 222.52221076 -183.46487656 218.69705159 -195.8125 214.375 C-209.84402597 208.78205849 -223.65572112 200.23608501 -235.2109375 190.5546875 C-236.74936206 189.17731165 -236.74936206 189.17731165 -238.8125 189.375 C-244.53390499 206.66094699 -247.48489451 225.18607038 -247.8125 243.375 C-247.83828125 244.50969727 -247.8640625 245.64439453 -247.890625 246.81347656 C-248.23473842 263.91161202 -247.91253869 280.49873727 -244.8125 297.375 C-244.6568457 298.29555176 -244.50119141 299.21610352 -244.34082031 300.16455078 C-237.47203009 340.46556646 -219.76135493 379.74858359 -193.8125 411.375 C-193.37534668 411.91366699 -192.93819336 412.45233398 -192.48779297 413.00732422 C-181.04295094 427.04453132 -168.30700316 440.46363519 -153.8125 451.375 C-153.24853516 451.80474121 -152.68457031 452.23448242 -152.10351562 452.67724609 C-143.62776847 459.11962458 -134.97519547 464.9456761 -125.8125 470.375 C-124.72324219 471.06207031 -123.63398438 471.74914062 -122.51171875 472.45703125 C-121.45597656 473.11058594 -120.40023437 473.76414062 -119.3125 474.4375 C-117.90484375 475.32115234 -117.90484375 475.32115234 -116.46875 476.22265625 C-113.26322936 477.61328653 -112.13149035 477.26919217 -108.8125 476.375 C-106.56607584 475.44611444 -106.56607584 475.44611444 -104.33959961 474.26123047 C-103.05556496 473.60451859 -103.05556496 473.60451859 -101.74559021 472.93453979 C-100.82794388 472.45856354 -99.91029755 471.98258728 -98.96484375 471.4921875 C-96.97609531 470.47880577 -94.98715639 469.46579781 -92.99804688 468.453125 C-89.89607291 466.86533411 -86.79614813 465.27383317 -83.69995117 463.67480469 C-55.64363168 449.21488722 -27.75564993 442.00382691 3.17230225 436.61247253 C8.11220178 435.74886833 13.04487273 434.85139281 17.97494507 433.93338013 C21.52917943 433.27317511 25.08552411 432.62480791 28.64221191 431.97796631 C30.35246994 431.66450306 32.06190388 431.34650231 33.77038574 431.02349854 C62.59631549 425.58818854 62.59631549 425.58818854 72.1875 431.375 C75.81952795 435.10260763 76.49665686 438.20537977 76.6875 443.25 C76.46351282 448.73429224 75.77045745 453.09456017 72.1875 457.375 C64.0970195 464.25267603 56.60523011 465.69357886 46.25 465.5625 C45.28642578 465.56185547 44.32285156 465.56121094 43.33007812 465.56054688 C39.42339404 465.53651396 35.67426805 465.44638515 31.8046875 464.87890625 C-6.97225619 459.47693461 -47.25948524 470.25994916 -80.8125 489.375 C-78.43376004 492.15693273 -76.38742943 493.05673488 -72.89453125 494.05859375 C-71.89945557 494.34460449 -70.90437988 494.63061523 -69.87915039 494.92529297 C-68.26834595 495.36446045 -68.26834595 495.36446045 -66.625 495.8125 C-65.51310303 496.11816895 -64.40120605 496.42383789 -63.25561523 496.73876953 C-46.02807136 501.32807924 -28.63534237 504.05374711 -10.8125 504.375 C-9.78672852 504.40078125 -8.76095703 504.4265625 -7.70410156 504.453125 C8.84975033 504.83532071 24.85026345 504.10745552 41.1875 501.375 C42.1451123 501.2193457 43.10272461 501.06369141 44.08935547 500.90332031 C84.30523013 494.13424482 123.65725069 476.24495171 155.1875 450.375 C155.72616699 449.93784668 156.26483398 449.50069336 156.81982422 449.05029297 C170.86271526 437.6008167 184.25629292 424.8614034 195.1875 410.375 C195.59597168 409.84825684 196.00444336 409.32151367 196.42529297 408.77880859 C221.26098818 376.7265306 239.12448416 337.60785591 245.1875 297.375 C245.39632813 296.12460937 245.60515625 294.87421875 245.8203125 293.5859375 C255.22679373 233.83490887 241.75989446 170.73359169 208.1875 120.375 C202.99532817 120.99642529 198.66202324 122.65317018 193.875 124.625 C176.04340698 131.72741417 152.61915682 140.66897032 133.1875 137.375 C130.09222072 135.67698242 128.76058574 133.52117147 127.1875 130.375 C126.75654715 126.58261495 127.03502093 124.66822897 128.8125 121.25 C133.56388267 115.49832624 139.31310343 113.34576348 146.25 111.3125 C147.55142944 110.92408936 147.55142944 110.92408936 148.87915039 110.52783203 C156.11220834 108.47162239 163.32263448 107.3403387 170.77441406 106.42431641 C177.90729418 105.52020561 184.41692339 103.84958923 191.1875 101.375 C191.1875 96.43239653 189.43455498 94.96017323 186.1875 91.625 C185.65495605 91.06570801 185.12241211 90.50641602 184.57373047 89.93017578 C182.78950339 88.0673304 180.98878742 86.22134307 179.1875 84.375 C178.55618164 83.71790039 177.92486328 83.06080078 177.27441406 82.38378906 C168.47124844 73.22867279 159.47930408 64.82661589 149.1875 57.375 C148.58534668 56.93381836 147.98319336 56.49263672 147.36279297 56.03808594 C66.93961797 -2.48591951 -41.20826287 -7.71792299 -167.09765625 72.77734375 Z " fill="#313B5A" transform="translate(255.8125,-0.375)"/>
<path d="M0 0 C4.06465978 3.68120131 6.83505882 7.0866823 7.3125 12.625 C7.20963298 18.92274755 4.59785218 23.28801552 0.375 27.8125 C-8.26222038 34.21355979 -19.52131193 33.44695854 -29.71875 33.52734375 C-37.8021049 33.59371724 -37.8021049 33.59371724 -45 37 C-47.15493705 39.88647964 -47.15493705 39.88647964 -47.875 43.25 C-47.40141076 47.13250133 -47.40141076 47.13250133 -44.4609375 48.8359375 C-42.34031091 50.01750317 -40.19110794 51.14933061 -38.015625 52.2265625 C-34.76404766 54.13875953 -33.05253905 55.85505949 -31 59 C-30.51714612 62.86283104 -30.63687164 65.2011176 -32.25 68.75 C-35.99833707 73.56929052 -40.28549731 74.91818536 -46.0625 76.375 C-46.88468018 76.58560059 -47.70686035 76.79620117 -48.55395508 77.01318359 C-68.07387386 81.85235853 -88.00566064 84.96219602 -108 87 C-109.50457764 87.15662109 -109.50457764 87.15662109 -111.03955078 87.31640625 C-124.95326023 88.70623782 -138.86179048 89.23385594 -152.83786011 89.35147095 C-154.54880524 89.36695652 -156.25970766 89.38858112 -157.9704895 89.4168396 C-169.20354646 89.58457972 -178.85459566 88.95277687 -188.9375 83.375 C-194.26760007 77.23730901 -196.30233546 71.8504713 -196.0625 63.6875 C-195.97097656 62.53636719 -195.87945312 61.38523437 -195.78515625 60.19921875 C-196.06229031 56.07244071 -196.94552694 54.76856295 -200 52 C-205.87371966 49.35549173 -210.61792993 48.56592093 -217.01123047 48.61523438 C-217.8741571 48.6098616 -218.73708374 48.60448883 -219.62615967 48.59895325 C-221.48669075 48.58922345 -223.34726695 48.58621647 -225.20782089 48.58930969 C-228.16025931 48.59381574 -231.11210714 48.57970839 -234.06448364 48.56091309 C-240.33464635 48.5242498 -246.60474592 48.51044402 -252.875 48.5 C-260.13892498 48.48788603 -267.40255999 48.46618226 -274.66635513 48.41999817 C-277.5611258 48.4065112 -280.45552198 48.4105836 -283.35031128 48.41540527 C-305.58924986 48.34871876 -305.58924986 48.34871876 -314.3671875 39.890625 C-317.72540411 36.00216366 -318.96896876 32.73774937 -319.0625 27.5 C-317.3750719 21.94141332 -314.33068686 18.40398033 -309.36988831 15.41564941 C-305.50611923 13.79252665 -302.32291422 13.64057713 -298.21850586 13.77148438 C-297.44340888 13.78393944 -296.6683119 13.7963945 -295.86972713 13.80922699 C-293.24587171 13.85646683 -290.6232734 13.92755177 -288 14 C-286.07969712 14.04342563 -284.15937773 14.08612607 -282.23904419 14.12817383 C-276.84118326 14.25297857 -271.44418252 14.40135355 -266.04709053 14.55558777 C-262.38758835 14.6595546 -258.72799254 14.75935333 -255.06834412 14.85803223 C-244.67112049 15.13861942 -234.27399124 15.42213947 -223.87719727 15.71826172 C-195.38621238 16.52656793 -166.90504675 17.14840135 -138.40234375 17.21875 C-137.21473513 17.2247673 -136.0271265 17.23078461 -134.80352974 17.23698425 C-96.66350457 17.4043066 -61.12868801 13.80446607 -25.625 -0.58203125 C-17.15133223 -3.89662328 -8.23880206 -4.45173545 0 0 Z " fill="#AB8967" transform="translate(443,274)"/>
<path d="M0 0 C1.50526497 -0.01735703 1.50526497 -0.01735703 3.04093933 -0.0350647 C16.94089207 -0.02373959 31.59666418 2.27069408 41.91796875 12.35546875 C47.65002737 18.9004876 48.19247368 24.87653228 47.91796875 33.5234375 C46.93520544 43.18727667 42.50230992 49.59805704 35.54296875 56.2109375 C33.0139831 57.47543032 31.11816421 57.45010592 28.29296875 57.5234375 C27.3596875 57.56082031 26.42640625 57.59820312 25.46484375 57.63671875 C19.19158009 56.72256669 15.60031403 52.38298952 11.73046875 47.7109375 C6.39134185 41.76887799 2.44336411 38.78928365 -5.53515625 37.84765625 C-18.798897 37.31771227 -31.29067015 41.10038455 -43.45703125 46.04296875 C-56.19014709 51.00026255 -72.78084357 54.39974565 -86.01953125 49.6484375 C-91.85340233 46.86900061 -95.61267176 42.70974713 -99.39453125 37.5859375 C-101.67962896 30.32739182 -101.58486521 22.75822887 -98.45703125 15.7734375 C-94.78186919 9.3523447 -89.36637392 5.60256426 -82.45703125 3.2109375 C-79.44917297 2.85653687 -79.44917297 2.85653687 -76.05981445 2.70849609 C-74.78270096 2.6485849 -73.50558746 2.58867371 -72.18977356 2.52694702 C-70.79580044 2.47074375 -69.40181294 2.41489649 -68.0078125 2.359375 C-66.5526413 2.29558465 -65.09749733 2.23117038 -63.64237976 2.16616821 C-60.58023614 2.03130392 -57.51791608 1.9025325 -54.45532227 1.77832031 C-50.61270206 1.62221855 -46.7707665 1.45361725 -42.92886543 1.28081894 C-28.62431408 0.64041344 -14.3202643 0.086681 0 0 Z " fill="#AB8967" transform="translate(292.45703125,65.7890625)"/>
<path d="M0 0 C4.06465978 3.68120131 6.83505882 7.0866823 7.3125 12.625 C7.20963298 18.92274755 4.59785218 23.28801552 0.375 27.8125 C-8.26222038 34.21355979 -19.52131193 33.44695854 -29.71875 33.52734375 C-37.8021049 33.59371724 -37.8021049 33.59371724 -45 37 C-47.15493705 39.88647964 -47.15493705 39.88647964 -47.875 43.25 C-47.40141076 47.13250133 -47.40141076 47.13250133 -44.4609375 48.8359375 C-42.34031091 50.01750317 -40.19110794 51.14933061 -38.015625 52.2265625 C-34.76404766 54.13875953 -33.05253905 55.85505949 -31 59 C-30.51714612 62.86283104 -30.63687164 65.2011176 -32.25 68.75 C-35.99833707 73.56929052 -40.28549731 74.91818536 -46.0625 76.375 C-46.88468018 76.58560059 -47.70686035 76.79620117 -48.55395508 77.01318359 C-68.07387386 81.85235853 -88.00566064 84.96219602 -108 87 C-109.50457764 87.15662109 -109.50457764 87.15662109 -111.03955078 87.31640625 C-124.95326023 88.70623782 -138.86179048 89.23385594 -152.83786011 89.35147095 C-154.54880524 89.36695652 -156.25970766 89.38858112 -157.9704895 89.4168396 C-169.20354646 89.58457972 -178.85459566 88.95277687 -188.9375 83.375 C-194.26760007 77.23730901 -196.30233546 71.8504713 -196.0625 63.6875 C-195.97097656 62.53636719 -195.87945312 61.38523437 -195.78515625 60.19921875 C-196.06229031 56.07244071 -196.94552694 54.76856295 -200 52 C-205.87371966 49.35549173 -210.61792993 48.56592093 -217.01123047 48.61523438 C-217.8741571 48.6098616 -218.73708374 48.60448883 -219.62615967 48.59895325 C-221.48669075 48.58922345 -223.34726695 48.58621647 -225.20782089 48.58930969 C-228.16025931 48.59381574 -231.11210714 48.57970839 -234.06448364 48.56091309 C-240.33464635 48.5242498 -246.60474592 48.51044402 -252.875 48.5 C-260.13892498 48.48788603 -267.40255999 48.46618226 -274.66635513 48.41999817 C-277.5611258 48.4065112 -280.45552198 48.4105836 -283.35031128 48.41540527 C-305.58924986 48.34871876 -305.58924986 48.34871876 -314.3671875 39.890625 C-317.72540411 36.00216366 -318.96896876 32.73774937 -319.0625 27.5 C-317.3750719 21.94141332 -314.33068686 18.40398033 -309.36988831 15.41564941 C-305.50611923 13.79252665 -302.32291422 13.64057713 -298.21850586 13.77148438 C-297.44340888 13.78393944 -296.6683119 13.7963945 -295.86972713 13.80922699 C-293.24587171 13.85646683 -290.6232734 13.92755177 -288 14 C-286.07969712 14.04342563 -284.15937773 14.08612607 -282.23904419 14.12817383 C-276.84118326 14.25297857 -271.44418252 14.40135355 -266.04709053 14.55558777 C-262.38758835 14.6595546 -258.72799254 14.75935333 -255.06834412 14.85803223 C-244.67112049 15.13861942 -234.27399124 15.42213947 -223.87719727 15.71826172 C-195.38621238 16.52656793 -166.90504675 17.14840135 -138.40234375 17.21875 C-137.21473513 17.2247673 -136.0271265 17.23078461 -134.80352974 17.23698425 C-96.66350457 17.4043066 -61.12868801 13.80446607 -25.625 -0.58203125 C-17.15133223 -3.89662328 -8.23880206 -4.45173545 0 0 Z M-28.95330811 9.35913086 C-48.42602086 17.11976607 -67.95064296 21.6803815 -88.85546875 23.6328125 C-89.88417178 23.72889738 -89.88417178 23.72889738 -90.93365669 23.82692337 C-105.86745968 25.19320722 -120.76697833 25.46976865 -135.75767517 25.38571167 C-137.98555693 25.37476385 -140.21337848 25.37008254 -142.44128418 25.36694336 C-177.81298718 25.30593923 -213.16811506 24.18730884 -248.51928711 23.06787109 C-250.17868301 23.01574054 -250.17868301 23.01574054 -251.87160206 22.96255684 C-257.07341625 22.79898149 -262.27507033 22.63219795 -267.47651672 22.45730591 C-272.07052748 22.30524849 -276.66462763 22.18082191 -281.25987244 22.07278442 C-283.14356355 22.02274903 -285.02698887 21.96190653 -286.91004944 21.89205933 C-289.78266099 21.78645507 -292.65458213 21.71351348 -295.52832031 21.64648438 C-296.39328503 21.60705971 -297.25824974 21.56763504 -298.14942551 21.52701569 C-302.39236834 21.46084604 -305.16515303 21.66766554 -308.57635498 24.33459473 C-311.28768137 26.77286166 -311.28768137 26.77286166 -311.25 30 C-309.65474328 33.82861613 -307.53977006 35.9730449 -304 38 C-298.24508029 39.76918985 -293.08951397 40.28680876 -287.09643555 40.25537109 C-286.24486877 40.25899155 -285.393302 40.262612 -284.51593018 40.26634216 C-282.67994438 40.27319698 -280.84393838 40.275749 -279.00794029 40.27439499 C-276.09311228 40.27342296 -273.17864622 40.28645215 -270.26387024 40.30337524 C-261.98103618 40.34943991 -253.69824112 40.37423869 -245.4152832 40.38085938 C-240.33546568 40.385897 -235.25602842 40.41025813 -230.1763401 40.44618607 C-228.25123193 40.45592939 -226.32607111 40.45834615 -224.40094566 40.45301437 C-201.81886053 40.39340208 -201.81886053 40.39340208 -193 47.375 C-188.58601754 53.16835199 -187.71150764 57.4659055 -187.75 64.5 C-187.64904225 70.17841987 -187.64904225 70.17841987 -185.6328125 75.37109375 C-179.96065606 80.42561537 -172.64391223 81.3085754 -165.27734375 81.265625 C-164.54734161 81.26839951 -163.81733948 81.27117401 -163.06521606 81.27403259 C-160.68911889 81.27818644 -158.31354485 81.26556745 -155.9375 81.25 C-155.1199826 81.24723053 -154.30246521 81.24446106 -153.46017456 81.24160767 C-130.17548807 81.1494994 -106.9954794 79.80918674 -84 76 C-82.91557617 75.82065918 -81.83115234 75.64131836 -80.71386719 75.45654297 C-66.86811244 73.12165409 -53.33970657 70.42148243 -40 66 C-39.67 64.35 -39.34 62.7 -39 61 C-39.83144531 60.52949219 -40.66289062 60.05898438 -41.51953125 59.57421875 C-42.60621094 58.95160156 -43.69289063 58.32898438 -44.8125 57.6875 C-45.89144531 57.07261719 -46.97039062 56.45773437 -48.08203125 55.82421875 C-51.84745751 53.47019724 -53.59158307 52.2252508 -55 48 C-55.50981092 43.14425994 -55.53232283 39.17554625 -53.5 34.6875 C-49.19221097 30.05662679 -43.7671171 26.21939755 -37.29199219 25.84228516 C-36.22110352 25.82472168 -35.15021484 25.8071582 -34.046875 25.7890625 C-32.28150391 25.74652344 -32.28150391 25.74652344 -30.48046875 25.703125 C-28.00925995 25.65137194 -25.53788455 25.60700465 -23.06640625 25.5703125 C-14.93905094 25.35760091 -9.57162716 24.81170649 -3.0625 19.6875 C-0.8042109 17.1475787 -0.8042109 17.1475787 -0.375 14 C-1.20069434 10.03666717 -2.93441431 8.55465474 -6 6 C-13.50254507 2.24872746 -21.89274079 6.52061455 -28.95330811 9.35913086 Z " fill="#333C5A" transform="translate(443,274)"/>
<path d="M0 0 C4.53419779 2.86138695 7.70536474 7.04411521 9.01171875 12.26953125 C9.61813528 18.61524709 9.22820263 23.61295614 6.01171875 29.26953125 C2.08330602 33.80853997 -2.15682652 36.24127701 -7.42578125 38.89453125 C-8.25924072 39.3227417 -9.0927002 39.75095215 -9.95141602 40.19213867 C-12.62540261 41.56126944 -15.3065732 42.91559809 -17.98828125 44.26953125 C-19.70718671 45.14813342 -21.42593768 46.0270379 -23.14453125 46.90625 C-32.99999153 51.91851327 -42.94520183 56.74783903 -52.94827271 61.45809937 C-54.75444874 62.31017361 -56.55684599 63.17024342 -58.35913086 64.03051758 C-69.566795 69.26280041 -83.29458118 73.62061748 -95.62109375 69.359375 C-102.10410124 65.52626601 -106.37214435 59.95910206 -108.48046875 52.76171875 C-109.89160356 45.83630329 -109.9679583 39.15195449 -106.30859375 32.93359375 C-103.97230168 29.98903629 -101.6130618 28.30313204 -97.98828125 27.26953125 C-92.54956877 26.77603749 -88.31246274 28.47384198 -83.48828125 30.83203125 C-78.43338018 33.22276809 -74.52886591 34.68201583 -68.98828125 33.26953125 C-60.38836585 29.4953836 -53.70591285 23.70008458 -46.98828125 17.26953125 C-34.41964708 5.53543416 -17.77864215 -8.78072553 0 0 Z " fill="#525973" transform="translate(281.98828125,176.73046875)"/>
<path d="M0 0 C3.63879623 2.13349616 6.75247113 4.81513023 9.984375 7.51171875 C15.78392824 12.06314807 21.80335592 13.58691653 28.9609375 14.90625 C38.70112871 16.71792557 45.74857917 19.98141528 52.2734375 27.59375 C53.98985127 31.88478442 54.03646904 35.85202485 53.3984375 40.40625 C50.82737095 45.97689419 46.49224119 49.21926562 41.3984375 52.40625 C40.40650391 53.03273438 40.40650391 53.03273438 39.39453125 53.671875 C28.78795849 59.06054524 12.33453618 57.90002691 1.22265625 54.5078125 C-13.19995948 48.88239392 -26.43409538 40.75167872 -34.5390625 27.15625 C-36.28696705 20.98717512 -37.06751377 14.8016148 -34.46484375 8.7734375 C-26.72196561 -3.54200647 -13.04783227 -5.91163921 0 0 Z " fill="#AB8967" transform="translate(137.6015625,362.59375)"/>
<path d="M0 0 C1.38357791 0.02555639 1.38357791 0.02555639 2.79510689 0.05162907 C5.75857844 0.1112524 8.7203985 0.19939145 11.68310547 0.28881836 C13.5899485 0.33224311 15.49683042 0.37399365 17.40374756 0.41403198 C23.47438202 0.54921537 29.54339767 0.72833674 35.61279297 0.90991211 C37.86263318 0.97502657 40.11248079 1.03988584 42.36233521 1.10450745 C48.23901364 1.27403774 54.11557792 1.44724931 59.99212646 1.62121582 C64.71375344 1.76037956 69.43545445 1.8969224 74.15716171 2.03333092 C98.66721961 2.74144861 123.17650312 3.46891916 147.68310547 4.28881836 C145.04023994 9.82787544 140.85567162 13.84058717 136.68310547 18.28881836 C135.45720703 19.63073242 135.45720703 19.63073242 134.20654297 20.99975586 C126.87593859 28.72900337 118.67908218 34.63076488 109.68310547 40.28881836 C109.35310547 40.28881836 109.02310547 40.28881836 108.68310547 40.28881836 C108.58513672 39.70874023 108.48716797 39.12866211 108.38623047 38.53100586 C107.28817628 32.7946193 106.02672809 27.80901153 101.11279297 24.10522461 C94.33235376 19.95486608 87.67341907 18.99242662 79.87719727 19.01757812 C79.02417023 19.01235138 78.17114319 19.00712463 77.29226685 19.0017395 C75.45026666 18.99154315 73.60823801 18.98572676 71.76621056 18.98385811 C68.84333924 18.98017549 65.9208015 18.9633964 62.9980011 18.94309998 C54.69135767 18.88787396 46.38466567 18.8570557 38.07788086 18.83251953 C32.98630248 18.81657825 27.89496163 18.78629145 22.80350685 18.74775505 C20.87199247 18.73616375 18.9404355 18.73017522 17.00888634 18.73007393 C-5.90306531 18.72843684 -5.90306531 18.72843684 -12.04341125 13.94337463 C-14.25482982 11.62816049 -15.2889049 9.87660052 -15.44189453 6.66381836 C-12.13995349 -0.30694607 -6.80224598 -0.24442131 0 0 Z " fill="#B79A7E" transform="translate(147.31689453125,295.711181640625)"/>
<path d="M0 0 C3.41197711 3.23700393 5.23087425 5.78793703 5.87109375 10.51171875 C5.88456022 22.53727779 3.51079592 30.10800622 -4.8828125 38.859375 C-17.89324497 50.76980006 -35.1465088 59.19146446 -53.08984375 58.59765625 C-59.36686435 57.87376604 -63.44460015 55.11671649 -67.5625 50.3125 C-70.33223686 46.7786978 -71.11051462 43.88724079 -70.90625 39.359375 C-69.88971418 33.30636628 -66.11022713 29.53511342 -61.6159668 25.76660156 C-58.11706842 23.28896053 -54.2511644 21.96726653 -50.25 20.5 C-42.0468571 17.28377592 -36.64434219 13.76518623 -30.5625 7.3125 C-22.24051105 -0.64590691 -11.06972848 -5.2435556 0 0 Z " fill="#323C5A" transform="translate(373.5625,194.6875)"/>
<path d="M0 0 C1.50526497 -0.01735703 1.50526497 -0.01735703 3.04093933 -0.0350647 C16.94089207 -0.02373959 31.59666418 2.27069408 41.91796875 12.35546875 C47.65002737 18.9004876 48.19247368 24.87653228 47.91796875 33.5234375 C46.93520544 43.18727667 42.50230992 49.59805704 35.54296875 56.2109375 C33.0139831 57.47543032 31.11816421 57.45010592 28.29296875 57.5234375 C27.3596875 57.56082031 26.42640625 57.59820312 25.46484375 57.63671875 C19.19158009 56.72256669 15.60031403 52.38298952 11.73046875 47.7109375 C6.39134185 41.76887799 2.44336411 38.78928365 -5.53515625 37.84765625 C-18.798897 37.31771227 -31.29067015 41.10038455 -43.45703125 46.04296875 C-56.19014709 51.00026255 -72.78084357 54.39974565 -86.01953125 49.6484375 C-91.85340233 46.86900061 -95.61267176 42.70974713 -99.39453125 37.5859375 C-101.67962896 30.32739182 -101.58486521 22.75822887 -98.45703125 15.7734375 C-94.78186919 9.3523447 -89.36637392 5.60256426 -82.45703125 3.2109375 C-79.44917297 2.85653687 -79.44917297 2.85653687 -76.05981445 2.70849609 C-74.78270096 2.6485849 -73.50558746 2.58867371 -72.18977356 2.52694702 C-70.79580044 2.47074375 -69.40181294 2.41489649 -68.0078125 2.359375 C-66.5526413 2.29558465 -65.09749733 2.23117038 -63.64237976 2.16616821 C-60.58023614 2.03130392 -57.51791608 1.9025325 -54.45532227 1.77832031 C-50.61270206 1.62221855 -46.7707665 1.45361725 -42.92886543 1.28081894 C-28.62431408 0.64041344 -14.3202643 0.086681 0 0 Z M-46.734375 9.27294922 C-50.31731237 9.43585732 -53.90080687 9.5747114 -57.48491669 9.70895767 C-60.29598186 9.8183108 -63.10612422 9.94428245 -65.91627502 10.07488251 C-67.87334612 10.16173548 -69.83116107 10.23128393 -71.78894043 10.300354 C-80.41110024 10.7144588 -80.41110024 10.7144588 -87.45703125 15.2109375 C-91.90436624 20.25926371 -92.7574342 23.1312096 -92.671875 29.73828125 C-92.27757109 34.2763608 -90.33454893 36.40269753 -87.08203125 39.3984375 C-82.20935316 42.7629057 -78.30167661 43.50480297 -72.39453125 43.5234375 C-71.18667969 43.54019531 -69.97882813 43.55695313 -68.734375 43.57421875 C-57.77067445 43.03242345 -46.95129975 38.52007646 -36.63671875 35.08398438 C-27.35435334 32.04538827 -18.57026027 29.8530217 -8.76953125 29.8984375 C-8.06248047 29.88232422 -7.35542969 29.86621094 -6.62695312 29.84960938 C2.53443334 29.8411657 9.69486378 34.26552413 16.10546875 40.6484375 C18.18477397 42.75959203 20.119039 44.88782004 22.04296875 47.1484375 C24.47140097 49.46132698 24.47140097 49.46132698 27.98046875 50.0234375 C32.57871091 48.9747156 33.80612865 47.19212741 36.3203125 43.34375 C39.96502848 36.98587484 40.58683776 30.4326131 39.54296875 23.2109375 C37.00214955 17.11897336 32.34365276 14.05894376 26.59375 11.21875 C17.51650722 8.22012178 8.43398 7.91317659 -1.05078125 8.0078125 C-2.34600708 8.0148822 -3.64123291 8.0219519 -4.97570801 8.02923584 C-18.90488539 8.13256475 -32.82055733 8.63665462 -46.734375 9.27294922 Z " fill="#333C5A" transform="translate(292.45703125,65.7890625)"/>
<path d="M0 0 C1.15935279 0.01878881 1.15935279 0.01878881 2.34212685 0.03795719 C4.99083554 0.08534141 7.63843047 0.15590444 10.28662109 0.22631836 C12.27787029 0.26786086 14.26914379 0.30825047 16.26043701 0.34762573 C23.1317848 0.4904363 30.00207639 0.66831704 36.87255859 0.84741211 C39.42533979 0.91243591 41.97812513 0.97729773 44.53091431 1.04200745 C49.86114238 1.17761138 55.19132877 1.31471142 60.52148438 1.453125 C66.60038202 1.61096556 72.67934124 1.76622101 78.7583431 1.91999191 C84.69675591 2.07024983 90.63512417 2.22220447 96.57347488 2.3748951 C99.05671882 2.4386364 101.53997197 2.50202004 104.02323532 2.56500053 C121.44896782 3.00836609 138.86754625 3.57263003 156.28662109 4.22631836 C152.30566371 11.86941358 152.30566371 11.86941358 148.62553406 13.1583252 C147.64961807 13.12597778 146.67370209 13.09363037 145.66821289 13.06030273 C144.51642044 13.04237671 143.36462799 13.02445068 142.17793274 13.00598145 C140.25753426 12.91395447 140.25753426 12.91395447 138.29833984 12.82006836 C136.90354859 12.78283826 135.50865418 12.7493271 134.11369324 12.71911621 C130.95399353 12.64272923 127.79646099 12.53971518 124.63812256 12.41967773 C118.81326885 12.20116992 112.98727838 12.05679944 107.16015625 11.91381836 C94.65183771 11.59828199 82.14570589 11.22207029 69.6394043 10.83563232 C60.26379885 10.54614006 50.88804675 10.26179118 41.5121212 9.98286438 C38.29264093 9.8859253 35.07330363 9.78501715 31.85395813 9.68371582 C26.95455286 9.53240662 22.05505414 9.40438168 17.15454483 9.29470825 C15.20189318 9.24814438 13.24940131 9.19445852 11.29711533 9.13449097 C8.40005047 9.04812657 5.50355133 8.98860282 2.60571289 8.93530273 C1.73785314 8.90425697 0.86999338 8.87321121 -0.02416515 8.84122467 C-4.24267383 8.79191971 -6.16909738 8.86995731 -9.79582214 11.24450684 C-10.42861588 11.89850464 -11.06140961 12.55250244 -11.71337891 13.22631836 C-11.46456016 16.87565996 -11.15756285 18.74175406 -8.65087891 21.47631836 C-2.41182663 25.19320057 4.11539855 25.5188014 11.19018555 25.48168945 C12.04175232 25.48530991 12.89331909 25.48893036 13.77069092 25.49266052 C15.60667671 25.49951534 17.44268271 25.50206736 19.2786808 25.50071335 C22.19350881 25.49974132 25.10797487 25.51277051 28.02275085 25.5296936 C36.30558491 25.57575827 44.58837997 25.60055705 52.87133789 25.60717773 C57.95115541 25.61221536 63.03059267 25.63657649 68.11028099 25.67250443 C70.03538916 25.68224775 71.96054999 25.68466451 73.88567543 25.67933273 C96.75778486 25.61895483 96.75778486 25.61895483 105.28662109 32.72631836 C105.94662109 33.55131836 106.60662109 34.37631836 107.28662109 35.22631836 C107.86412109 35.92756836 108.44162109 36.62881836 109.03662109 37.35131836 C111.70201189 41.34940455 111.40506502 45.30489952 111.34912109 49.91381836 C111.34460938 50.61571289 111.34009766 51.31760742 111.33544922 52.04077148 C111.32369036 53.76932374 111.30575563 55.49783201 111.28662109 57.22631836 C110.95662109 57.22631836 110.62662109 57.22631836 110.28662109 57.22631836 C109.95662109 54.91631836 109.62662109 52.60631836 109.28662109 50.22631836 C107.30662109 51.21631836 105.32662109 52.20631836 103.28662109 53.22631836 C103.26083984 52.56245117 103.23505859 51.89858398 103.20849609 51.21459961 C102.94460298 47.10626369 102.67575135 43.95788325 100.72412109 40.28881836 C94.94762694 35.40101562 88.5272386 34.78561705 81.27539062 34.84155273 C80.41246399 34.83617996 79.54953735 34.83080719 78.66046143 34.82527161 C76.79993035 34.81554181 74.93935415 34.81253483 73.0788002 34.81562805 C70.12636179 34.8201341 67.17451395 34.80602675 64.22213745 34.78723145 C57.95197474 34.75056816 51.68187517 34.73676238 45.41162109 34.72631836 C38.14769611 34.71420439 30.8840611 34.69250062 23.62026596 34.64631653 C20.72549529 34.63282956 17.83109912 34.63690196 14.93630981 34.64172363 C-7.30262877 34.57503712 -7.30262877 34.57503712 -16.08056641 26.11694336 C-19.43878302 22.22848202 -20.68234767 18.96406773 -20.77587891 13.72631836 C-19.08805327 8.16642216 -16.04319977 4.62763046 -11.07901001 1.64183044 C-7.23481839 0.02504609 -4.08351279 -0.13177815 0 0 Z " fill="#515973" transform="translate(144.71337890625,287.773681640625)"/>
<path d="M0 0 C5.62668899 3.90920306 8.60133897 10.8508919 10.71484375 17.19140625 C11.66325421 25.66490954 9.9164399 32.62507441 5.01953125 39.609375 C-1.00013662 46.8841558 -8.84112273 52.56312461 -18.28515625 54.19140625 C-26.67067395 54.81549755 -32.33632234 54.57612103 -38.91015625 48.94140625 C-45.55509198 41.24727014 -46.93491792 34.1671589 -46.28515625 24.19140625 C-44.93576587 15.78366622 -38.34610313 9.57198506 -32.046875 4.328125 C-22.62781509 -2.41411504 -10.58572571 -6.01604609 0 0 Z " fill="#B79A7E" transform="translate(155.28515625,93.80859375)"/>
<path d="M0 0 C3.15576082 2.07993327 4.34779653 3.30699132 5.75 6.8125 C6.31489209 10.68044167 6.11564053 13.82984109 4.75 17.5 C-0.28036985 23.31636514 -8.28260073 26.48274913 -15.05859375 29.8671875 C-16.44607567 30.5641423 -16.44607567 30.5641423 -17.86158752 31.275177 C-19.81287655 32.25367882 -21.76520185 33.2301166 -23.71850586 34.20458984 C-26.65135629 35.66944747 -29.57873651 37.14483143 -32.50585938 38.62109375 C-69.84157137 57.35200815 -69.84157137 57.35200815 -86.25 55.8125 C-90.70128778 53.89384147 -93.31346507 51.3014314 -95.5546875 46.94140625 C-96.96684631 42.61766159 -96.96527753 38.27610692 -96.25 33.8125 C-94.25 30.625 -94.25 30.625 -92.25 28.8125 C-87.60230087 29.27726991 -84.21409749 30.67146683 -80.1796875 32.875 C-74.47980074 35.64417575 -67.84151519 35.69769291 -61.76171875 34.19921875 C-51.53361729 30.49622189 -43.6282025 23.28796502 -35.80786133 15.96630859 C-13.36597616 -4.88372206 -13.36597616 -4.88372206 0 0 Z " fill="#B7997E" transform="translate(277.25,183.1875)"/>
<path d="M0 0 C2.38995075 1.94794266 3.7534523 3.13388114 4.6015625 6.11328125 C4.65909589 11.51183063 3.58878665 14.46136132 -0.00390625 18.4921875 C-5.74280012 22.82724236 -10.91888036 23.43896081 -17.875 23.25 C-18.62652344 23.24484375 -19.37804687 23.2396875 -20.15234375 23.234375 C-23.84720165 23.18367369 -27.45647933 22.97318651 -31.12109375 22.5 C-37.78453107 21.7057021 -44.48529713 21.75577413 -51.1875 21.75 C-51.89353363 21.74932526 -52.59956726 21.74865051 -53.32699585 21.74795532 C-86.39794717 21.79790369 -117.50551369 30.12953867 -146.50097656 46.05102539 C-147.40944336 46.54852295 -148.31791016 47.04602051 -149.25390625 47.55859375 C-150.05127197 48.00517334 -150.8486377 48.45175293 -151.67016602 48.91186523 C-155.11416672 50.52036478 -157.78206243 51.38532524 -161.45703125 50.22265625 C-162.62298828 49.64837891 -162.62298828 49.64837891 -163.8125 49.0625 C-164.99779297 48.49208984 -164.99779297 48.49208984 -166.20703125 47.91015625 C-166.79871094 47.60980469 -167.39039063 47.30945313 -168 47 C-165.24162931 44.82410079 -162.50772876 43.13557048 -159.359375 41.58203125 C-158.4619458 41.13633789 -157.5645166 40.69064453 -156.63989258 40.23144531 C-155.68622803 39.76319336 -154.73256348 39.29494141 -153.75 38.8125 C-151.74852191 37.82457525 -149.74722079 36.83629188 -147.74609375 35.84765625 C-146.76366699 35.36312988 -145.78124023 34.87860352 -144.76904297 34.37939453 C-142.38573997 33.19215578 -140.0190574 31.98085301 -137.66015625 30.74609375 C-121.17046332 22.14599913 -104.17394664 16.7833172 -86 13 C-85.1018457 12.81260254 -84.20369141 12.62520508 -83.27832031 12.43212891 C-76.29346596 10.99798098 -69.28726487 9.69084154 -62.27203369 8.41455078 C-59.70470831 7.94612166 -57.13826533 7.47299512 -54.57177734 7 C-49.49649591 6.06685641 -44.41842062 5.15014618 -39.33859253 4.24209595 C-37.30201006 3.87640174 -35.26611785 3.50683932 -33.23098755 3.13314819 C-7.8107086 -1.52144607 -7.8107086 -1.52144607 0 0 Z " fill="#AA8867" transform="translate(321,435)"/>
<path d="M0 0 C11.55720887 4.20262141 21.9659768 12.02955183 31.43798828 19.73046875 C32.94760188 20.95741322 34.47162849 22.16655818 35.99609375 23.375 C48.34223988 33.4406478 61.72095519 45.00540547 71 58 C70 61 70 61 67.97265625 62.02734375 C55.9420849 65.78992512 43.45302782 67.26541635 31 69 C30.8047876 68.40799805 30.6095752 67.81599609 30.40844727 67.20605469 C23.32138008 45.87704413 15.29503605 21.8739583 1.35107422 3.87109375 C0 2 0 2 0 0 Z " fill="#BD9970" transform="translate(377,40)"/>
<path d="M0 0 C3.63879623 2.13349616 6.75247113 4.81513023 9.984375 7.51171875 C15.78392824 12.06314807 21.80335592 13.58691653 28.9609375 14.90625 C38.70112871 16.71792557 45.74857917 19.98141528 52.2734375 27.59375 C53.98985127 31.88478442 54.03646904 35.85202485 53.3984375 40.40625 C50.82737095 45.97689419 46.49224119 49.21926562 41.3984375 52.40625 C40.40650391 53.03273438 40.40650391 53.03273438 39.39453125 53.671875 C28.78795849 59.06054524 12.33453618 57.90002691 1.22265625 54.5078125 C-13.19995948 48.88239392 -26.43409538 40.75167872 -34.5390625 27.15625 C-36.28696705 20.98717512 -37.06751377 14.8016148 -34.46484375 8.7734375 C-26.72196561 -3.54200647 -13.04783227 -5.91163921 0 0 Z M-26.6015625 11.40625 C-28.37954294 14.96221089 -28.21309926 18.5311656 -27.6015625 22.40625 C-22.39638049 34.58596443 -9.32912999 41.68459606 2.3984375 46.40625 C13.47723972 49.66283577 26.84278322 50.77514912 37.3984375 45.59375 C40.43559681 43.84652057 43.16665807 42.13398042 45.3984375 39.40625 C46.31728158 36.07916743 46.31728158 36.07916743 45.3984375 32.40625 C39.91270923 24.77936853 31.74344333 23.48802149 23.015625 22 C14.94635831 20.49605065 7.77596236 16.7587841 1.7109375 11.21875 C-3.75577063 6.28316754 -9.88719856 4.71843104 -17.1953125 4.91015625 C-21.31601189 5.75971603 -23.93546006 8.25910767 -26.6015625 11.40625 Z " fill="#333D5A" transform="translate(137.6015625,362.59375)"/>
<path d="M0 0 C5.49270327 3.24776023 7.78264655 7.26915494 9.5 13.3125 C10.5133191 22.31504024 9.87090682 29.83420739 4.5 37.3125 C0.7999652 40.92443874 -1.90555773 42.14466397 -7.0625 42.6875 C-13.44438134 42.570186 -18.89230683 39.64672722 -23.5859375 35.4453125 C-29.51098549 29.02026046 -32.21220599 22.82492955 -31.8984375 14.02734375 C-31.08894573 8.51168903 -28.800855 5.03708967 -24.36328125 1.7109375 C-16.78666238 -2.65690397 -8.0941657 -3.67095991 0 0 Z " fill="#333C5A" transform="translate(458.5,195.6875)"/>
<path d="M0 0 C2.33445937 1.61213786 2.91118932 2.5552065 3.46875 5.34765625 C3.56988622 14.133865 1.65826004 20.21088462 -4.51171875 26.6015625 C-16.29437616 37.01560683 -31.24906512 44.88484106 -47.28515625 44.41015625 C-51.703634 43.74261645 -53.23102306 42.51734908 -56 39 C-57.125 35.5 -57.125 35.5 -57 32 C-54.34626397 27.95054903 -51.7153484 25.99315313 -47.375 23.9375 C-46.3128125 23.42703125 -45.250625 22.9165625 -44.15625 22.390625 C-41.41983715 21.18497776 -38.69608886 20.1695246 -35.875 19.1875 C-29.7739681 16.84697572 -25.62026792 12.48803803 -21 8 C-14.60429747 2.11446051 -9.09203866 -1.58344494 0 0 Z " fill="#AB8867" transform="translate(368,201)"/>
<path d="M0 0 C3.05381616 0.6259216 5.32944104 1.63676498 7.984375 3.2578125 C8.74669434 3.71542969 9.50901367 4.17304688 10.29443359 4.64453125 C11.10477051 5.13308594 11.91510742 5.62164062 12.75 6.125 C29.39140409 15.92716573 45.0689777 21.53487772 64.37109375 23.375 C68.13901244 24.02394186 70.74897355 25.00820765 74 27 C76.32749345 30.49124017 76.50299316 31.89222251 76 36 C73.30096193 39.73712963 70.43440157 40.99598455 66 42 C40.41870198 44.47560949 16.18793833 25.43739758 -3 11 C-2.69078116 9.54096742 -2.37751201 8.08279278 -2.0625 6.625 C-1.88847656 5.81289062 -1.71445312 5.00078125 -1.53515625 4.1640625 C-1 2 -1 2 0 0 Z " fill="#B7997E" transform="translate(23,170)"/>
<path d="M0 0 C5.62668899 3.90920306 8.60133897 10.8508919 10.71484375 17.19140625 C11.66325421 25.66490954 9.9164399 32.62507441 5.01953125 39.609375 C-1.00013662 46.8841558 -8.84112273 52.56312461 -18.28515625 54.19140625 C-26.67067395 54.81549755 -32.33632234 54.57612103 -38.91015625 48.94140625 C-45.55509198 41.24727014 -46.93491792 34.1671589 -46.28515625 24.19140625 C-44.93576587 15.78366622 -38.34610313 9.57198506 -32.046875 4.328125 C-22.62781509 -2.41411504 -10.58572571 -6.01604609 0 0 Z M-35.734375 18.87890625 C-39.15892331 23.87754519 -38.9936196 29.40999548 -38.28515625 35.19140625 C-36.87294437 39.42804188 -34.73681656 42.52967653 -31.140625 45.2734375 C-25.78207661 47.92450881 -19.65565467 46.57898815 -14.22265625 44.75390625 C-7.453307 41.74293387 -1.47202259 36.29289825 1.77734375 29.56640625 C3.61326684 22.95708314 2.88027665 18.3301762 -0.09765625 12.28125 C-1.8588173 9.18183828 -3.32751795 7.22889041 -6.28515625 5.19140625 C-18.12667342 2.55995799 -28.46728602 10.41695898 -35.734375 18.87890625 Z " fill="#525973" transform="translate(155.28515625,93.80859375)"/>
<path d="M0 0 C4.61883527 0.3201173 8.65578926 1.30500111 13.0703125 2.6484375 C13.92689453 2.90737793 14.78347656 3.16631836 15.66601562 3.43310547 C22.49283136 5.60268632 28.97389987 8.33636549 35.4453125 11.3984375 C36.33492676 11.81786621 37.22454102 12.23729492 38.14111328 12.66943359 C42.46630714 14.78975797 45.62133409 16.71992845 48.9453125 20.2734375 C45.07282145 21.59342142 41.19691641 22.9030867 37.3203125 24.2109375 C35.67869141 24.77071289 35.67869141 24.77071289 34.00390625 25.34179688 C32.40869141 25.87836914 32.40869141 25.87836914 30.78125 26.42578125 C29.80720215 26.75570068 28.8331543 27.08562012 27.82958984 27.42553711 C19.20632032 29.96054769 7.58160522 31.52073909 -0.7421875 27.5234375 C-4.70411933 25.08598814 -7.55509468 22.77221595 -9.0546875 18.2734375 C-9.59162814 13.15929799 -9.64103289 9.36794889 -7.1796875 4.7734375 C-3.37939338 0.30250324 -3.37939338 0.30250324 0 0 Z " fill="#B79A7E" transform="translate(209.0546875,79.7265625)"/>
<path d="M0 0 C2.78437395 0.87927598 5.52190728 1.79316556 8.203125 2.953125 C15.86652459 6.26569128 23.35295891 7.4090176 31.59375 8.45703125 C48.82770335 10.72174948 48.82770335 10.72174948 54.87109375 18.37890625 C57.67037212 22.39863124 57.53958614 26.23756585 57 31 C55.29378821 36.48813346 51.82399075 39.20928671 47 42.0546875 C35.5930331 47.4462617 21.21377012 43.014417 10 39 C4.49065032 36.67096165 -0.77553462 33.90408214 -6 31 C-5.505 26.545 -5.505 26.545 -5 22 C-3.8140625 22.60328125 -2.628125 23.2065625 -1.40625 23.828125 C18.88655797 34.21797528 18.88655797 34.21797528 41.0234375 34.38671875 C43.82270331 33.27272521 45.86259383 32.13740617 48 30 C48.44807243 26.56477804 48.44636678 24.69866105 46.5625 21.75 C41.44704192 18.25651643 35.42725776 18.03677025 29.41259766 17.40698242 C18.18122309 16.19718063 8.08229265 13.25566319 -2 8 C-1.47731534 5.23723823 -0.89130413 2.6739124 0 0 Z " fill="#525A73" transform="translate(50,176)"/>
<path d="M0 0 C5.07863543 2.26362037 8.10741641 5.4850271 10.73828125 10.3515625 C12.48666949 15.59672722 12.18949654 19.92667211 10.55078125 25.1015625 C8.5513542 28.68674204 7.34744832 30.39005866 3.73828125 32.3515625 C-0.85584992 33.17527918 -4.24934709 32.84782312 -8.44921875 30.7890625 C-14.09899248 25.89259194 -18.75154545 20.88804639 -20.26171875 13.3515625 C-20.53788165 8.83253322 -19.77676063 5.972254 -16.82421875 2.4140625 C-11.81046884 -1.62139474 -6.15096742 -1.7634898 0 0 Z " fill="#525973" transform="translate(81.26171875,276.6484375)"/>
<path d="M0 0 C0.33 0.66 0.66 1.32 1 2 C3.97 2 6.94 2 10 2 C9.3503125 2.80050781 9.3503125 2.80050781 8.6875 3.6171875 C4.8853162 8.7043686 3.16713704 12.36878945 3.61328125 18.7734375 C4.4328012 23.49188569 6.22395355 25.41796516 10 28.25 C17.71442022 32.75007846 28.25828308 31.91685555 36.75 29.875 C38.84213342 29.2801214 40.92428423 28.64985138 43 28 C43.78117187 27.75878418 44.56234375 27.51756836 45.3671875 27.26904297 C50.92414711 25.5512666 56.46554168 23.78885734 62 22 C62.495 22.99 62.495 22.99 63 24 C64.93330603 25.09166275 64.93330603 25.09166275 67 26 C67.66 26.33 68.32 26.66 69 27 C69 27.66 69 28.32 69 29 C26.02427868 44.39042364 26.02427868 44.39042364 9.4375 38.4375 C3.60362892 35.65806311 -0.15564051 31.49880963 -3.9375 26.375 C-6.33111339 18.77175747 -6.07897622 11.3352849 -2.5 4.1875 C-1.69247693 2.77657774 -0.86856189 1.37418899 0 0 Z " fill="#515973" transform="translate(197,77)"/>
<path d="M0 0 C1.65 1.65 3.3 3.3 5 5 C4 8 4 8 2.04833984 9.0715332 C1.19449707 9.39468506 0.3406543 9.71783691 -0.5390625 10.05078125 C-1.50150879 10.416875 -2.46395508 10.78296875 -3.45556641 11.16015625 C-4.50147949 11.54042969 -5.54739258 11.92070313 -6.625 12.3125 C-8.22674072 12.90417969 -8.22674072 12.90417969 -9.86083984 13.5078125 C-24.15048726 18.65904897 -40.02939567 24.23300671 -55.375 24.0625 C-56.96441406 24.04896484 -56.96441406 24.04896484 -58.5859375 24.03515625 C-59.38257813 24.02355469 -60.17921875 24.01195312 -61 24 C-61.66 22.68 -62.32 21.36 -63 20 C-58.6450654 14.59387428 -53.52217383 12.98903173 -47 11 C-46.32839844 10.79503906 -45.65679687 10.59007813 -44.96484375 10.37890625 C-41.05892391 9.30913203 -37.13014909 8.70574662 -33.125 8.125 C-27.59427551 7.30539439 -22.14751211 6.2544507 -16.6875 5.0625 C-15.94709473 4.90475098 -15.20668945 4.74700195 -14.44384766 4.58447266 C-9.42818361 3.46551605 -4.77763513 1.89485868 0 0 Z " fill="#A88767" transform="translate(453,106)"/>
<path d="M0 0 C5.55640745 2.72946331 5.55640745 2.72946331 6.6328125 5.8125 C7.76715102 12.57026139 7.9357443 19.46536625 4.390625 25.51953125 C3 27 3 27 -0.75 28.3125 C-5.75546893 28.44323986 -9.3123713 26.2133882 -13 23 C-16.75493929 18.18597526 -18.45995036 14.18851438 -18.42578125 8.00390625 C-17.63475097 4.28098393 -15.07422393 3.0289878 -12 1 C-8.28954037 -0.85522982 -4.04937616 -0.45268677 0 0 Z " fill="#AA8867" transform="translate(453,202)"/>
<path d="M0 0 C3.22027885 0.64716362 5.65313686 1.80489232 8.4765625 3.46875 C9.72953125 4.20158203 9.72953125 4.20158203 11.0078125 4.94921875 C12.30332031 5.71685547 12.30332031 5.71685547 13.625 6.5 C15.3461372 7.5107862 17.06748132 8.52122017 18.7890625 9.53125 C19.92915771 10.20510742 19.92915771 10.20510742 21.09228516 10.89257812 C22.37218599 11.63555614 23.67631953 12.33815977 25 13 C24.01 17.95 23.02 22.9 22 28 C13.16416378 22.97037015 5.12222011 17.08625027 -3 11 C-2.69078116 9.54096742 -2.37751201 8.08279278 -2.0625 6.625 C-1.88847656 5.81289062 -1.71445312 5.00078125 -1.53515625 4.1640625 C-1 2 -1 2 0 0 Z " fill="#A98867" transform="translate(23,170)"/>
<path d="M0 0 C0.88290995 5.03258669 0.88290995 5.03258669 0 8 C-2.42640825 10.04147004 -5.00177859 11.60252596 -7.69140625 13.27734375 C-10.34761801 14.93756537 -10.34761801 14.93756537 -11.375 18.625 C-10.92144823 22.70696597 -9.96262044 24.1975212 -7 27 C-4.88339573 28.31165257 -4.88339573 28.31165257 -3 29 C-3.33 31.31 -3.66 33.62 -4 36 C-2.515 36.495 -2.515 36.495 -1 37 C-7.33921778 36.66635696 -11.40503111 35.50190623 -16 31 C-19.28488277 27.01744301 -20.68846271 23.14915103 -20.37890625 17.9765625 C-19.09131388 11.25984354 -14.43011514 6.73320416 -9 3 C-6.11722323 1.45399472 -3.33341914 0 0 0 Z " fill="#525973" transform="translate(323,216)"/>
<path d="M0 0 C4.99503071 0.4913145 6.31841769 1.88091769 9.8125 5.375 C11.06084144 7.87168289 10.76405125 9.18829151 10.4375 11.9375 C10.34726563 12.74316406 10.25703125 13.54882812 10.1640625 14.37890625 C9.8125 16.375 9.8125 16.375 8.8125 17.375 C6.125 17.875 6.125 17.875 2.8125 17.375 C-0.70165508 14.36522953 -3.40274711 10.64288735 -5.1875 6.375 C-4.50788835 0.53033981 -4.50788835 0.53033981 0 0 Z " fill="#B4987E" transform="translate(74.1875,283.625)"/>
<path d="M0 0 C-0.14179038 2.22942748 -0.28859698 4.45853628 -0.4375 6.6875 C-0.51871094 7.92886719 -0.59992188 9.17023438 -0.68359375 10.44921875 C-0.94491317 13.38180337 -1.34798379 16.13441617 -2 19 C-4.1875 19.375 -4.1875 19.375 -7 19 C-10.63508831 15.76002998 -11.87797078 14.36672726 -12.3125 9.5 C-10.32077904 4.18874412 -5.8820443 0 0 0 Z " fill="#B5987D" transform="translate(323,225)"/>
<path d="M0 0 C3.00615769 2.71802756 5.17361975 5.9828197 7.4375 9.3125 C7.81970703 9.86873047 8.20191406 10.42496094 8.59570312 10.99804688 C11.09580513 14.64420582 13.55414241 18.31728504 16 22 C9.39978832 20.84496296 5.76940758 16.18718024 2 11 C0.16981972 7.14146705 -0.19872434 4.27257341 0 0 Z " fill="#333D5B" transform="translate(62,287)"/>
</svg>
