<?xml version="1.0" encoding="UTF-8"?>
<svg version="1.1" xmlns="http://www.w3.org/2000/svg" width="512" height="512">
<path d="M0 0 C1.60391602 -0.02779541 1.60391602 -0.02779541 3.24023438 -0.05615234 C15.72541167 0.04229293 25.53516391 3.74500217 34.52734375 12.3125 C45.16624609 23.4687274 45.14878891 36.90931273 44.96484375 51.46484375 C43.62427419 92.35499651 17.39312531 140.13144949 -7.1796875 171.8671875 C-9.96227167 177.99614739 -6.70617626 184.94859704 -4.625 190.9375 C13.43356603 245.8574299 6.85915461 305.05743298 -18.375 356.5 C-44.52499243 407.27697426 -90.97233255 445.55322775 -145.00830078 463.36816406 C-189.43230099 477.2245913 -237.36536052 476.91382953 -281.38574219 461.7355957 C-282.23297852 461.44515381 -283.08021484 461.15471191 -283.953125 460.85546875 C-284.68950195 460.59403076 -285.42587891 460.33259277 -286.18457031 460.06323242 C-289.68912373 459.16209502 -292.26294817 458.96033508 -295.56542969 460.56298828 C-296.30180664 461.06040527 -297.03818359 461.55782227 -297.796875 462.0703125 C-298.64419189 462.62992676 -299.49150879 463.18954102 -300.36450195 463.76611328 C-301.27546631 464.3795459 -302.18643066 464.99297852 -303.125 465.625 C-340.34521892 489.94515307 -391.78498653 521.04567597 -438.625 511.81640625 C-448.63851503 508.97058417 -456.44567893 503.04785373 -462.375 494.5 C-472.6471001 473.8312895 -467.67290906 448.77331359 -460.87109375 427.75390625 C-450.39064326 397.04592785 -434.23327148 366.85622309 -415.46850586 340.44042969 C-414.01227804 337.8563487 -413.99481124 335.74806766 -414.62890625 332.875 C-415.77795646 329.21729044 -417.02569316 325.59430843 -418.28759766 321.97412109 C-436.79697366 267.58056637 -429.34854907 207.41129429 -404.375 156.5 C-378.61424144 106.47882399 -333.29799605 68.83286565 -280.375 50.5 C-235.40250766 36.18625947 -180.92326514 33.49165431 -136.734375 52.64453125 C-133.35848588 53.86857052 -130.64082129 54.08448133 -127.33300781 52.55712891 C-126.67139648 52.11804199 -126.00978516 51.67895508 -125.328125 51.2265625 C-124.57515137 50.73679932 -123.82217773 50.24703613 -123.04638672 49.74243164 C-122.2473291 49.2086792 -121.44827148 48.67492676 -120.625 48.125 C-118.90487319 47.0098233 -117.18349615 45.89657291 -115.4609375 44.78515625 C-114.60081055 44.22715332 -113.74068359 43.66915039 -112.85449219 43.09423828 C-87.56072043 26.83111012 -60.26444021 13.03274606 -31.375 4.5 C-30.67648926 4.28827148 -29.97797852 4.07654297 -29.25830078 3.85839844 C-19.54329956 1.00516792 -10.11730896 0.10784511 0 0 Z M-74.375 88.5 C-70.96081652 91.96995054 -67.44617002 95.25688771 -63.8125 98.5 C-58.11823578 103.64277249 -52.91569216 109.15872543 -47.7734375 114.84765625 C-46.34204935 116.43057572 -44.88405701 117.99094299 -43.375 119.5 C-30.00469008 98.31203538 -30.00469008 98.31203538 -26.375 74.5 C-27.375 72.5 -27.375 72.5 -29.375 71.5 C-44.58525347 70.60783921 -62.20497894 79.91857489 -74.375 88.5 Z M-379.375 393.5 C-387.47517529 405.05226341 -397.86775541 423.92007387 -396.375 438.5 C-395.29058528 440.47010438 -395.29058528 440.47010438 -393.375 441.5 C-378.91459031 443.42981702 -361.28611771 432.64953044 -349.375 425.5 C-349.045 424.84 -348.715 424.18 -348.375 423.5 C-349.02984375 422.98953125 -349.6846875 422.4790625 -350.359375 421.953125 C-360.35398507 413.99131698 -369.61730445 405.40837053 -377.16796875 395.046875 C-377.56628906 394.53640625 -377.96460938 394.0259375 -378.375 393.5 C-378.705 393.5 -379.035 393.5 -379.375 393.5 Z " fill="#262625" transform="translate(467.375,-0.5)"/>
<path d="M0 0 C2.32611373 0.45017935 4.63929932 0.97460789 6.93041992 1.578125 C10.49983193 2.50788125 14.00020355 3.06435388 17.65429688 3.55639648 C18.80792725 3.71309814 19.96155762 3.8697998 21.15014648 4.03125 C22.19823486 4.17361084 23.24632324 4.31597168 24.32617188 4.46264648 C33.2016951 5.80829855 41.90460205 7.24713801 50.32617188 10.46264648 C46.44414835 15.11204731 42.41205556 19.51054991 38.09988403 23.76208496 C37.50264239 24.35524207 36.90540075 24.94839917 36.29006088 25.55953074 C34.30725271 27.5277067 32.32083869 29.4922025 30.33447266 31.45678711 C28.90476416 32.87474285 27.47533315 34.29297842 26.04615784 35.71147156 C22.97801988 38.75618297 19.90860294 41.79959723 16.83838272 44.84220886 C11.98507209 49.6532599 7.13886507 54.47142266 2.29440308 59.29138184 C1.06648802 60.51301442 1.06648802 60.51301442 -0.1862334 61.75932646 C-1.85940995 63.42400032 -3.53256283 65.08869797 -5.20569253 66.75341892 C-16.47787379 77.96869733 -27.75400376 89.17986965 -39.05273438 100.3684082 C-46.68420315 107.92555369 -54.30326868 115.49495888 -61.90807164 123.07894087 C-65.93082377 127.0897007 -69.95971123 131.09384072 -74.00381088 135.08308411 C-77.80275204 138.83070322 -81.58514883 142.59424184 -85.3553791 146.37073708 C-86.74249899 147.75432953 -88.13564838 149.13190689 -89.5351429 150.50298119 C-91.44312216 152.37395915 -93.32835987 154.26524568 -95.20944214 156.16320801 C-95.76953692 156.70223078 -96.32963171 157.24125356 -96.90669906 157.79661036 C-99.69177448 160.65567773 -100.64534736 162.22014954 -101.11691475 166.23526764 C-100.9654053 169.46418905 -100.9654053 169.46418905 -99.04882812 171.40014648 C-95.77821971 172.86331341 -94.24343958 173.14911023 -90.67382812 172.46264648 C-82.32913874 166.6601477 -75.29736296 158.17317602 -68.16723633 150.97436523 C-66.70647255 149.50348508 -65.24543616 148.03287562 -63.78414917 146.56251526 C-60.65044831 143.40878354 -57.51809515 140.25372147 -54.38662148 137.09777832 C-49.43699649 132.11065987 -44.48079002 127.13011806 -39.522995 122.15112305 C-38.68516599 121.30965666 -37.84733699 120.46819027 -36.98411924 119.6012249 C-35.27184687 117.8815479 -33.55955839 116.16188694 -31.84725416 114.44224167 C-20.31287012 102.85790857 -8.78285951 91.2693131 2.72875977 79.66235352 C10.50643113 71.82036608 18.29459247 63.98896899 26.09518176 56.16977596 C30.22079375 52.03346631 34.34071674 47.89181626 38.44785118 43.7371521 C42.30353347 39.83700497 46.17280671 35.9508922 50.05316544 32.07530022 C51.47702528 30.64818207 52.89570872 29.21587844 54.30887413 27.77816963 C56.23311661 25.82201534 58.17479496 23.88504423 60.12211609 21.9519043 C60.68184622 21.374015 61.24157635 20.7961257 61.818268 20.2007246 C63.40629101 18.64703369 63.40629101 18.64703369 66.32617188 16.46264648 C69.06037617 16.55828857 69.06037617 16.55828857 71.32617188 17.46264648 C72.13691162 17.78620117 72.94765137 18.10975586 73.78295898 18.44311523 C76.61499319 19.77292596 79.44448431 21.10573931 82.26367188 22.46264648 C83.29476074 22.95885498 84.32584961 23.45506348 85.38818359 23.96630859 C101.59117696 31.89502755 116.0088489 42.31209803 129.32617188 54.46264648 C127.75023519 58.27877223 125.34618279 60.67799193 122.43334961 63.56665039 C121.93723175 64.06145401 121.44111389 64.55625763 120.92996216 65.0660553 C119.294451 66.69509256 117.65208433 68.31703758 116.00976562 69.93920898 C114.87107938 71.07162306 113.73290793 72.204555 112.5952301 73.33798218 C109.6028648 76.31705787 106.60498017 79.29051157 103.60546875 82.26239014 C98.79957331 87.02512552 94.00042063 91.79463213 89.20445442 96.56736374 C87.52663796 98.23493963 85.84546006 99.89907152 84.16392517 101.56289673 C83.13903584 102.58096014 82.11425471 103.59913249 81.08959961 104.61743164 C80.19184311 105.50693512 79.29408661 106.3964386 78.36912537 107.31289673 C75.86732997 109.94547455 75.35603272 110.76091674 75.20117188 114.40014648 C75.18612375 117.50462734 75.18612375 117.50462734 76.32617188 120.46264648 C81.96261078 121.84743363 81.96261078 121.84743363 87.14273071 119.76715088 C90.26492716 117.50698175 92.88102992 115.14862672 95.59716797 112.41870117 C96.08572266 111.93043854 96.57427734 111.4421759 97.07763672 110.93911743 C98.67308812 109.34228532 100.26135887 107.73851315 101.84960938 106.13452148 C102.96160759 105.01878866 104.07405151 103.90349988 105.18692017 102.78863525 C108.10115756 99.86679668 111.00933598 96.93900021 113.91625977 94.0098877 C116.88907885 91.01653416 119.86763565 88.02890186 122.84570312 85.04077148 C128.67813124 79.18695554 134.50416579 73.32682785 140.32617188 67.46264648 C144.35117263 69.28206564 146.32719979 71.61100532 149.07617188 75.08764648 C149.87539063 76.09053711 150.67460937 77.09342773 151.49804688 78.12670898 C152.10132813 78.89756836 152.70460938 79.66842773 153.32617188 80.46264648 C151.72580579 85.28235363 149.01528556 89.01218256 146.07617188 93.08764648 C145.54967041 93.82474854 145.02316895 94.56185059 144.48071289 95.32128906 C142.77048421 97.70759057 141.05020542 100.08630177 139.32617188 102.46264648 C138.45677979 103.66171631 138.45677979 103.66171631 137.56982422 104.88500977 C127.47303906 118.77333208 117.08896495 132.33270684 105.93554688 145.38842773 C103.56348152 148.16997736 101.25124475 150.9961331 98.95117188 153.83764648 C90.81653072 163.8138196 82.34384768 173.50210947 73.54760742 182.8996582 C70.95164935 185.67651444 68.41439302 188.49240736 65.91992188 191.36108398 C62.42833963 195.36921473 58.83977553 199.27542068 55.20117188 203.15014648 C54.55664062 203.83786133 53.91210938 204.52557617 53.24804688 205.23413086 C48.49166406 210.28429026 43.62199468 215.20562696 38.68798828 220.08154297 C35.29036373 223.45319504 32.09786349 226.92794644 28.99414062 230.56811523 C24.52322399 235.64632265 19.66269485 240.32621588 14.54101562 244.73999023 C10.2659085 248.45584935 6.29081136 252.42057264 2.32617188 256.46264648 C-2.20577292 261.08310583 -6.80048009 265.52333451 -11.70507812 269.74780273 C-14.94153372 272.5668583 -18.05076326 275.5193117 -21.17382812 278.46264648 C-26.25986672 283.22921186 -31.37109676 287.93687209 -36.67382812 292.46264648 C-37.71834065 293.36080299 -38.7625855 294.25927083 -39.80664062 295.15795898 C-42.82413613 297.75301357 -45.84794915 300.34057743 -48.87451172 302.92504883 C-50.03465072 303.91644034 -51.19389907 304.90887553 -52.35205078 305.90258789 C-59.99170156 312.45710019 -67.77826975 318.78003655 -75.73144531 324.94995117 C-77.8155856 326.57304484 -79.88963729 328.20848544 -81.96289062 329.84545898 C-91.97446427 337.72742073 -102.19332273 345.21816394 -112.67382812 352.46264648 C-113.9917055 353.37776768 -115.30941823 354.29312602 -116.62695312 355.20874023 C-119.63845895 357.2993691 -122.65453586 359.38327303 -125.67382812 361.46264648 C-129.4311306 359.83448208 -132.29065113 357.44862732 -135.42382812 354.83764648 C-136.40867187 354.02038086 -137.39351563 353.20311523 -138.40820312 352.36108398 C-139.15585938 351.73459961 -139.90351563 351.10811523 -140.67382812 350.46264648 C-139.32777618 347.46253715 -137.83989312 345.3834488 -135.51007748 343.07235336 C-134.85531711 342.41792779 -134.20055673 341.76350221 -133.52595514 341.08924556 C-132.80485561 340.37874655 -132.08375608 339.66824754 -131.34080505 338.93621826 C-130.57617748 338.1748208 -129.8115499 337.41342333 -129.0237518 336.62895322 C-126.45271756 334.07104728 -123.87463825 331.52035882 -121.29663086 328.96948242 C-119.45514012 327.14001162 -117.61413816 325.3100487 -115.77359009 323.47962952 C-111.80560797 319.53447956 -107.83437357 315.59262843 -103.8612957 311.65261078 C-97.58142553 305.42431804 -91.31250731 299.18506548 -85.04542542 292.94390869 C-82.90087783 290.80848688 -80.75627192 288.67312365 -78.61165714 286.53776932 C-78.07570998 286.00412741 -77.53976281 285.47048551 -76.98757483 284.92067264 C-70.88765678 278.84722745 -64.78580061 272.77573146 -58.68286133 266.70532227 C-58.12500968 266.15043779 -57.56715803 265.59555332 -56.99240179 265.02385417 C-47.95043413 256.03061055 -38.89906883 247.04687312 -29.84509861 238.06571552 C-20.54917625 228.84391646 -11.26669635 219.60873211 -1.99573857 210.36183572 C3.72289479 204.65902326 9.45224125 198.96741698 15.19580983 193.28971681 C19.59588069 188.93803482 23.977531 184.56823274 28.35258102 180.19140434 C30.15047117 178.39864079 31.95439315 176.61190327 33.76468086 174.83165932 C36.2329429 172.40263252 38.67875244 169.95301017 41.12013245 167.49700928 C42.20512782 166.4446451 42.20512782 166.4446451 43.3120423 165.37102103 C46.49881192 162.1221731 48.67027514 159.70405528 49.37420559 155.11674881 C49.6425198 151.48782579 49.6425198 151.48782579 47.76367188 148.96264648 C44.46548308 146.93299184 43.15208955 146.65331774 39.32617188 147.46264648 C33.53577339 151.74901706 28.48995924 157.15714884 23.41674805 162.2518158 C22.66262257 163.00508685 21.90849709 163.75835791 21.13151932 164.53445536 C18.62501544 167.03932243 16.12208386 169.54772775 13.61914062 172.05615234 C11.81524277 173.86033248 10.01112427 175.66429203 8.20680237 177.4680481 C4.33287204 181.34175128 0.46047167 185.2169736 -3.41052246 189.09361076 C-9.00721948 194.69846115 -14.60670076 200.30052321 -20.20684886 205.90192515 C-29.29431822 214.99157902 -38.3795557 224.08346024 -47.46337891 233.17675781 C-56.28349097 242.00605958 -65.10466067 250.83430249 -73.92724609 259.66113281 C-74.4717645 260.20591394 -75.0162829 260.75069507 -75.57730186 261.31198471 C-78.30920458 264.04519254 -81.04112802 266.77837967 -83.77306175 269.51155651 C-106.40986251 292.15871114 -129.04303648 314.80948702 -151.67382812 337.46264648 C-169.77604438 329.11726622 -183.13229765 297.74231899 -190.77539062 280.35327148 C-191.76271578 277.17666011 -191.91476424 276.46027878 -190.67382812 273.46264648 C-188.88160107 271.43734289 -187.09171052 269.58392712 -185.14428711 267.71948242 C-184.56868042 267.15628799 -183.99307373 266.59309357 -183.40002441 266.01283264 C-182.15030874 264.79125862 -180.89734368 263.57300204 -179.64153862 262.3576889 C-177.65412292 260.43171093 -175.67840526 258.49444738 -173.70582581 256.55328369 C-168.09662474 251.03572469 -162.47418214 245.53204652 -156.82641602 240.05395508 C-153.37165639 236.70137588 -149.93676198 233.32949918 -146.51362801 229.94464874 C-145.20644898 228.65976537 -143.8918625 227.38237268 -142.56982231 226.11278534 C-140.71909358 224.33438593 -138.89464551 222.53247709 -137.07397461 220.72338867 C-136.52385208 220.20674149 -135.97372955 219.6900943 -135.40693665 219.15779114 C-132.56296779 216.27554665 -131.33127858 214.18065906 -131.23475647 210.1963501 C-131.3288775 206.52238684 -131.3288775 206.52238684 -133.29882812 204.46264648 C-136.4015316 203.15624502 -138.3168189 203.06724235 -141.67382812 203.46264648 C-143.86292704 205.08955575 -145.54169794 206.56783917 -147.40380859 208.51147461 C-147.94113113 209.04792099 -148.47845367 209.58436737 -149.03205872 210.1370697 C-150.79964413 211.90882599 -152.54504409 213.70085854 -154.29101562 215.49389648 C-155.51423934 216.72831401 -156.73879701 217.96141099 -157.96463013 219.1932373 C-161.18377993 222.43527032 -164.38450473 225.69491607 -167.58172607 228.95855713 C-170.84888701 232.2871503 -174.13314932 235.59877366 -177.41601562 238.91186523 C-183.85214092 245.41229428 -190.26892947 251.93145782 -196.67382812 258.46264648 C-198.67382812 257.46264648 -198.67382812 257.46264648 -199.41992188 255.33764648 C-200.8957854 249.20072243 -202.18133027 243.04858196 -203.29882812 236.83764648 C-203.42185303 236.15831055 -203.54487793 235.47897461 -203.67163086 234.77905273 C-204.43815407 230.35236795 -204.95034816 225.93841112 -205.36590767 221.46628952 C-205.58450575 219.33395119 -205.84488195 217.20571218 -206.13392448 215.08177567 C-207.68617693 202.90461097 -209.19119592 189.86387998 -201.48440552 179.49017334 C-196.25477103 172.94179417 -190.06194832 167.25655579 -183.89841771 161.60728788 C-180.81496472 158.74599685 -177.82683889 155.78815697 -174.82701111 152.8397522 C-169.15540154 147.29235363 -163.40963057 141.82948847 -157.62904972 136.39596808 C-149.1304346 128.40024886 -140.75444349 120.27755119 -132.37437344 112.15798378 C-131.13508887 110.95761224 -129.89575046 109.75729628 -128.65635681 108.55703735 C-128.05150607 107.97103937 -127.44665533 107.38504138 -126.82347578 106.78128588 C-123.23683255 103.31168286 -119.62936471 99.86566992 -116.0010587 96.43966746 C-113.75368673 94.3156077 -111.5154288 92.18209097 -109.2782917 90.04726028 C-108.23989511 89.0613238 -107.19708074 88.08001611 -106.14957809 87.10375977 C-104.71989048 85.77075451 -103.30658556 84.42024269 -101.8941803 83.06893921 C-101.09867295 82.31960302 -100.30316561 81.57026684 -99.48355198 80.7982235 C-97.28083293 77.95545831 -96.80648182 76.03701258 -96.67382812 72.46264648 C-98.61075181 69.44230911 -98.61075181 69.44230911 -101.67382812 67.46264648 C-105.08727658 67.0522378 -106.94638638 66.98211957 -109.84891319 68.89944458 C-110.52182207 69.57788422 -111.19473095 70.25632385 -111.88803101 70.95532227 C-113.06155624 72.11647552 -113.06155624 72.11647552 -114.25878906 73.30108643 C-115.09748535 74.16135437 -115.93618164 75.02162231 -116.80029297 75.90795898 C-117.69849762 76.80528748 -118.59670227 77.70261597 -119.52212524 78.62713623 C-121.98158777 81.08487809 -124.42211952 83.56067156 -126.85966825 86.04012299 C-129.41136309 88.62933978 -131.98007333 91.20156159 -134.54702759 93.77563477 C-139.40385647 98.65110815 -144.24518936 103.54167287 -149.08114111 108.43784523 C-154.58804587 114.01182728 -160.11200899 119.56877034 -165.63747096 125.12434769 C-177.00201233 136.55159515 -188.34493961 148.00004979 -199.67382812 159.46264648 C-200.54739131 156.30789746 -200.674336 154.52586135 -199.74023438 151.36499023 C-199.3917041 150.17764282 -199.3917041 150.17764282 -199.03613281 148.96630859 C-198.77219727 148.1194751 -198.50826172 147.2726416 -198.23632812 146.40014648 C-197.96336914 145.51399658 -197.69041016 144.62784668 -197.40917969 143.71484375 C-190.12808014 120.73616649 -179.17640894 99.67921933 -164.67382812 80.46264648 C-163.99449219 79.53838867 -163.31515625 78.61413086 -162.61523438 77.66186523 C-150.6762727 62.21568343 -135.8816838 48.3140471 -119.67382812 37.46264648 C-118.63742188 36.76526367 -117.60101563 36.06788086 -116.53320312 35.34936523 C-113.30168242 33.28202058 -110.01389563 31.34652341 -106.67382812 29.46264648 C-105.94663574 29.04660156 -105.21944336 28.63055664 -104.47021484 28.2019043 C-63.81916852 5.16935144 -63.81916852 5.16935144 -50.45385742 7.91943359 C-49.86644775 8.09869385 -49.27903809 8.2779541 -48.67382812 8.46264648 C-49.12483887 8.89811295 -49.57584961 9.33357941 -50.04052734 9.78224182 C-54.73303577 14.31983333 -59.4006757 18.88192382 -64.0546875 23.45898438 C-65.79452803 25.16363238 -67.5406006 26.86194388 -69.29296875 28.55371094 C-71.8116105 30.9873985 -74.30692143 33.4430342 -76.79882812 35.90405273 C-77.58628418 36.65537979 -78.37374023 37.40670685 -79.18505859 38.18080139 C-83.59685726 42.52530021 -83.59685726 42.52530021 -85.23242188 48.37646484 C-84.85957631 51.36671464 -84.85957631 51.36671464 -83.61132812 53.40014648 C-80.33198688 55.19849491 -78.36577289 55.06788333 -74.67382812 54.46264648 C-68.9144244 50.52654614 -64.3193804 44.99206631 -59.72386169 39.80932617 C-21.92941081 -2.7870298 -21.92941081 -2.7870298 0 0 Z " fill="#F6A438" transform="translate(261.673828125,53.537353515625)"/>
<path d="M0 0 C9.62830404 -0.34565475 17.01962627 0.74158528 25.1875 6.12890625 C30.42572604 11.36713229 32.47596889 17.60643768 32.57910156 24.95019531 C32.57362305 25.64854492 32.56814453 26.34689453 32.5625 27.06640625 C32.55831055 27.80600586 32.55412109 28.54560547 32.54980469 29.30761719 C31.54102397 79.81104326 -5.53996812 131.90320327 -33.75 171.19140625 C-34.87665067 172.77449156 -36.00295522 174.35782325 -37.12890625 175.94140625 C-43.75745097 185.22856217 -50.61592338 194.28780984 -57.75 203.19140625 C-58.45769531 204.08214844 -59.16539062 204.97289062 -59.89453125 205.890625 C-61.83736087 208.33161607 -63.79055346 210.76373855 -65.75 213.19140625 C-66.43320312 214.03832031 -67.11640625 214.88523438 -67.8203125 215.7578125 C-73.4938673 222.74299557 -79.33145414 229.57742483 -85.20605469 236.39306641 C-86.72036086 238.15688349 -88.22497383 239.92847515 -89.7265625 241.703125 C-95.40928052 248.40637071 -101.22774472 254.94384544 -107.23925781 261.35449219 C-110.03377833 264.33520123 -112.7808861 267.33578718 -115.4375 270.44140625 C-118.79403273 274.33931522 -122.44104409 277.91689655 -126.125 281.50390625 C-128.09805264 283.52393634 -129.92595052 285.54415655 -131.75390625 287.6875 C-136.55334519 293.22171916 -141.76039132 298.3511968 -146.94702148 303.51879883 C-148.683936 305.25035325 -150.41543889 306.98718984 -152.14648438 308.72460938 C-157.34298003 313.92389839 -162.55002103 319.03323074 -168.14672852 323.80639648 C-170.29426926 325.6615813 -172.27469336 327.65532094 -174.25 329.69140625 C-177.53854528 333.01910088 -180.91381624 336.14477066 -184.46484375 339.1875 C-186.81486769 341.24829023 -189.10050216 343.36630127 -191.38452148 345.49951172 C-196.81491073 350.57040335 -202.35063216 355.40140569 -208.1484375 360.0546875 C-210.69986729 362.15023119 -213.13326773 364.3310378 -215.5625 366.56640625 C-219.93700826 370.54824212 -224.49529075 374.20882708 -229.16650391 377.83032227 C-232.98314568 380.79186109 -236.74211717 383.81100454 -240.46972656 386.88378906 C-249.20067258 394.07219574 -258.209886 400.82277174 -267.36523438 407.45947266 C-269.70293959 409.15722867 -272.03193474 410.86633343 -274.359375 412.578125 C-284.25765694 419.83174639 -294.34902858 426.67988364 -304.75 433.19140625 C-305.84030518 433.87565674 -305.84030518 433.87565674 -306.95263672 434.57373047 C-328.7151722 448.18186438 -351.15997527 460.07977624 -374.75 470.19140625 C-375.83539063 470.66578125 -376.92078125 471.14015625 -378.0390625 471.62890625 C-391.20123897 477.07063296 -405.22784146 480.60715922 -419.5 480.75390625 C-420.69508179 480.77578003 -420.69508179 480.77578003 -421.91430664 480.7980957 C-429.02351662 480.67465893 -434.53732747 478.11900977 -440.5625 474.50390625 C-447.9696849 466.67345364 -448.11434176 456.3859881 -447.83886719 446.25439453 C-447.02857054 427.44393665 -439.38779911 410.08017408 -431.75 393.19140625 C-431.39953613 392.40008301 -431.04907227 391.60875977 -430.68798828 390.79345703 C-424.87612056 377.69259607 -417.8581772 365.40673144 -410.48730469 353.12548828 C-409.24669359 351.03025723 -408.03128626 348.92001885 -406.83300781 346.80029297 C-406.21006836 345.70088379 -405.58712891 344.60147461 -404.9453125 343.46875 C-404.38086426 342.4593335 -403.81641602 341.44991699 -403.23486328 340.40991211 C-402.49985596 339.31175171 -402.49985596 339.31175171 -401.75 338.19140625 C-401.09 338.19140625 -400.43 338.19140625 -399.75 338.19140625 C-399.46278076 338.71573242 -399.17556152 339.24005859 -398.87963867 339.78027344 C-397.56875837 342.16907083 -396.25318008 344.55524933 -394.9375 346.94140625 C-394.48568359 347.76640625 -394.03386719 348.59140625 -393.56835938 349.44140625 C-393.12685547 350.240625 -392.68535156 351.03984375 -392.23046875 351.86328125 C-391.62561646 352.9630127 -391.62561646 352.9630127 -391.00854492 354.08496094 C-389.77533693 356.2531229 -389.77533693 356.2531229 -388.09130859 358.28710938 C-386.75 360.19140625 -386.75 360.19140625 -386.80859375 362.98828125 C-387.94077959 366.84053182 -389.74882796 370.03468244 -391.8125 373.44140625 C-401.4119565 389.93188735 -410.13707318 407.58171166 -407.75 427.19140625 C-405.81619024 432.46760326 -402.43609646 436.10844805 -397.75 439.19140625 C-382.37349503 444.31690791 -364.62094111 436.55381843 -350.890625 429.87890625 C-332.19127153 420.47170411 -314.31084726 409.32277474 -297.66503906 396.63525391 C-295.52069305 395.0185198 -293.35278944 393.43723597 -291.1796875 391.859375 C-282.08161078 385.24543362 -273.20989222 378.44005904 -264.53125 371.28515625 C-260.88816884 368.28541181 -257.16945129 365.39168913 -253.4375 362.50390625 C-248.1867507 358.42366404 -243.24984241 354.0979641 -238.375 349.5703125 C-235.84136144 347.27420256 -233.23698874 345.13314952 -230.5625 343.00390625 C-224.97616747 338.5011296 -219.7793788 333.62773842 -214.58325195 328.68286133 C-210.66060705 324.9538541 -206.67245131 321.33269591 -202.56713867 317.80517578 C-200.13910309 315.64887924 -197.88635341 313.34042975 -195.61380005 311.02262878 C-193.86422942 309.30363905 -192.0628329 307.71347594 -190.19360352 306.12670898 C-184.94738126 301.56212662 -180.06135759 296.64739393 -175.15234375 291.7265625 C-174.14936097 290.72425544 -173.14622997 289.72209669 -172.14295959 288.72007751 C-170.05290862 286.63149091 -167.96465112 284.54113237 -165.87768555 282.44946289 C-163.2230213 279.78910215 -160.56389116 277.13325783 -157.90338802 274.47873783 C-155.83475051 272.41374019 -153.76853301 270.34633421 -151.70300484 268.27822685 C-150.72427995 267.29884214 -149.74483194 266.32017944 -148.76460075 265.34230232 C-143.75209419 260.33919876 -138.83988799 255.31151156 -134.25514221 249.91062927 C-132.6592381 248.08773502 -130.97954641 246.38732685 -129.25 244.69140625 C-126.23586418 241.72405302 -123.45082667 238.61795333 -120.69140625 235.4140625 C-118.46195939 232.86163742 -116.16998618 230.37253111 -113.875 227.87890625 C-109.75215958 223.36371093 -105.87261387 218.7032185 -102.03515625 213.9453125 C-99.66633975 211.09058492 -97.20073583 208.35701415 -94.6875 205.62890625 C-90.9402048 201.5482627 -87.4072401 197.37716216 -83.98828125 193.01953125 C-82.29830885 190.88420835 -80.58994296 188.77443332 -78.85546875 186.67578125 C-71.04391775 177.20829216 -63.66620107 167.48335443 -56.46435547 157.54541016 C-54.82548392 155.29505421 -53.16798288 153.05987995 -51.50390625 150.828125 C-18.20526637 106.1731657 -18.20526637 106.1731657 -7.75 53.19140625 C-9.46558013 47.48523756 -13.56563965 44.18252999 -18.48046875 41.109375 C-28.06486181 37.23272721 -41.61550744 40.63050237 -50.75 44.19140625 C-61.40315259 48.74836676 -71.84300345 53.69613446 -81.4675293 60.17431641 C-84.40186498 61.48188325 -85.7249715 61.17964137 -88.75 60.19140625 C-91.0300293 59.08398438 -91.0300293 59.08398438 -93.32421875 57.72265625 C-94.15630859 57.23410156 -94.98839844 56.74554688 -95.84570312 56.2421875 C-96.70099609 55.73042969 -97.55628906 55.21867187 -98.4375 54.69140625 C-100.14957432 53.68070959 -101.8618062 52.67027976 -103.57421875 51.66015625 C-104.32791748 51.21091797 -105.08161621 50.76167969 -105.8581543 50.29882812 C-107.13133027 49.55355439 -108.43048191 48.8511653 -109.75 48.19140625 C-109.75 47.53140625 -109.75 46.87140625 -109.75 46.19140625 C-107.42114258 44.57836914 -107.42114258 44.57836914 -104.14453125 42.6640625 C-103.55790207 42.31927353 -102.97127289 41.97448456 -102.36686707 41.61924744 C-100.43691944 40.4889203 -98.50031661 39.37068246 -96.5625 38.25390625 C-95.9027417 37.87113525 -95.2429834 37.48836426 -94.56323242 37.09399414 C-76.44805338 26.58565045 -58.19399471 17.03003909 -38.75 9.19140625 C-37.68265625 8.76085938 -36.6153125 8.3303125 -35.515625 7.88671875 C-23.96911725 3.4799155 -12.32428173 0.62905188 0 0 Z " fill="#E6D1AD" transform="translate(463.75,15.80859375)"/>
<path d="M0 0 C2.32611373 0.45017935 4.63929932 0.97460789 6.93041992 1.578125 C10.49983193 2.50788125 14.00020355 3.06435388 17.65429688 3.55639648 C18.80792725 3.71309814 19.96155762 3.8697998 21.15014648 4.03125 C22.19823486 4.17361084 23.24632324 4.31597168 24.32617188 4.46264648 C33.2016951 5.80829855 41.90460205 7.24713801 50.32617188 10.46264648 C46.44414835 15.11204731 42.41205556 19.51054991 38.09988403 23.76208496 C37.50264239 24.35524207 36.90540075 24.94839917 36.29006088 25.55953074 C34.30725271 27.5277067 32.32083869 29.4922025 30.33447266 31.45678711 C28.90476416 32.87474285 27.47533315 34.29297842 26.04615784 35.71147156 C22.97801988 38.75618297 19.90860294 41.79959723 16.83838272 44.84220886 C11.98507209 49.6532599 7.13886507 54.47142266 2.29440308 59.29138184 C1.06648802 60.51301442 1.06648802 60.51301442 -0.1862334 61.75932646 C-1.85940995 63.42400032 -3.53256283 65.08869797 -5.20569253 66.75341892 C-16.47787379 77.96869733 -27.75400376 89.17986965 -39.05273438 100.3684082 C-46.68420315 107.92555369 -54.30326868 115.49495888 -61.90807164 123.07894087 C-65.93082377 127.0897007 -69.95971123 131.09384072 -74.00381088 135.08308411 C-77.80275204 138.83070322 -81.58514883 142.59424184 -85.3553791 146.37073708 C-86.74249899 147.75432953 -88.13564838 149.13190689 -89.5351429 150.50298119 C-91.44312216 152.37395915 -93.32835987 154.26524568 -95.20944214 156.16320801 C-95.76953692 156.70223078 -96.32963171 157.24125356 -96.90669906 157.79661036 C-99.65632977 160.61929135 -100.64280193 162.13162851 -101.01535225 166.10636139 C-100.90264929 167.21393547 -100.78994633 168.32150955 -100.67382812 169.46264648 C-100.67382812 174.20261165 -101.40802266 174.91155032 -104.54882812 178.27514648 C-108.7648427 182.3777556 -108.7648427 182.3777556 -112.39257812 182.71655273 C-115.04882813 182.33764648 -115.04882813 182.33764648 -117.50976562 181.70483398 C-119.71880616 181.23170824 -119.71880616 181.23170824 -121.48632812 182.58764648 C-123.10447127 185.14260934 -122.67947468 186.61860338 -122.29882812 189.58764648 C-122.16502683 194.60519487 -123.19547129 196.97236386 -126.54882812 200.71264648 C-128.72851562 202.97827148 -128.72851562 202.97827148 -131.67382812 204.46264648 C-133.13759035 204.10477522 -134.59398832 203.71634237 -136.04492188 203.30957031 C-139.96498916 202.86840718 -141.37468799 203.26041912 -144.69119263 205.50247192 C-148.22762217 208.59361007 -151.44553383 211.99727357 -154.68164062 215.39624023 C-155.89803851 216.63317085 -157.11690024 217.86768293 -158.33810425 219.09986877 C-161.53585936 222.33949605 -164.69920225 225.61077731 -167.85638428 228.88989258 C-171.08780532 232.23412144 -174.35084567 235.5471796 -177.61132812 238.86303711 C-183.99674403 245.36619866 -190.34622241 251.90325632 -196.67382812 258.46264648 C-198.67382812 257.46264648 -198.67382812 257.46264648 -199.41992188 255.33764648 C-200.8957854 249.20072243 -202.18133027 243.04858196 -203.29882812 236.83764648 C-203.42185303 236.15831055 -203.54487793 235.47897461 -203.67163086 234.77905273 C-204.43815407 230.35236795 -204.95034816 225.93841112 -205.36590767 221.46628952 C-205.58450575 219.33395119 -205.84488195 217.20571218 -206.13392448 215.08177567 C-207.68617693 202.90461097 -209.19119592 189.86387998 -201.48440552 179.49017334 C-196.25477103 172.94179417 -190.06194832 167.25655579 -183.89841771 161.60728788 C-180.81496472 158.74599685 -177.82683889 155.78815697 -174.82701111 152.8397522 C-169.15540154 147.29235363 -163.40963057 141.82948847 -157.62904972 136.39596808 C-149.1304346 128.40024886 -140.75444349 120.27755119 -132.37437344 112.15798378 C-131.13508887 110.95761224 -129.89575046 109.75729628 -128.65635681 108.55703735 C-128.05150607 107.97103937 -127.44665533 107.38504138 -126.82347578 106.78128588 C-123.23683255 103.31168286 -119.62936471 99.86566992 -116.0010587 96.43966746 C-113.75368673 94.3156077 -111.5154288 92.18209097 -109.2782917 90.04726028 C-108.23989511 89.0613238 -107.19708074 88.08001611 -106.14957809 87.10375977 C-104.71989048 85.77075451 -103.30658556 84.42024269 -101.8941803 83.06893921 C-101.09867295 82.31960302 -100.30316561 81.57026684 -99.48355198 80.7982235 C-97.28083293 77.95545831 -96.80648182 76.03701258 -96.67382812 72.46264648 C-98.61075181 69.44230911 -98.61075181 69.44230911 -101.67382812 67.46264648 C-105.08727658 67.0522378 -106.94638638 66.98211957 -109.84891319 68.89944458 C-110.52182207 69.57788422 -111.19473095 70.25632385 -111.88803101 70.95532227 C-113.06155624 72.11647552 -113.06155624 72.11647552 -114.25878906 73.30108643 C-115.09748535 74.16135437 -115.93618164 75.02162231 -116.80029297 75.90795898 C-117.69849762 76.80528748 -118.59670227 77.70261597 -119.52212524 78.62713623 C-121.98158777 81.08487809 -124.42211952 83.56067156 -126.85966825 86.04012299 C-129.41136309 88.62933978 -131.98007333 91.20156159 -134.54702759 93.77563477 C-139.40385647 98.65110815 -144.24518936 103.54167287 -149.08114111 108.43784523 C-154.58804587 114.01182728 -160.11200899 119.56877034 -165.63747096 125.12434769 C-177.00201233 136.55159515 -188.34493961 148.00004979 -199.67382812 159.46264648 C-200.54739131 156.30789746 -200.674336 154.52586135 -199.74023438 151.36499023 C-199.3917041 150.17764282 -199.3917041 150.17764282 -199.03613281 148.96630859 C-198.77219727 148.1194751 -198.50826172 147.2726416 -198.23632812 146.40014648 C-197.96336914 145.51399658 -197.69041016 144.62784668 -197.40917969 143.71484375 C-190.12808014 120.73616649 -179.17640894 99.67921933 -164.67382812 80.46264648 C-163.99449219 79.53838867 -163.31515625 78.61413086 -162.61523438 77.66186523 C-150.6762727 62.21568343 -135.8816838 48.3140471 -119.67382812 37.46264648 C-118.63742188 36.76526367 -117.60101563 36.06788086 -116.53320312 35.34936523 C-113.30168242 33.28202058 -110.01389563 31.34652341 -106.67382812 29.46264648 C-105.94663574 29.04660156 -105.21944336 28.63055664 -104.47021484 28.2019043 C-63.81916852 5.16935144 -63.81916852 5.16935144 -50.45385742 7.91943359 C-49.86644775 8.09869385 -49.27903809 8.2779541 -48.67382812 8.46264648 C-49.12483887 8.89811295 -49.57584961 9.33357941 -50.04052734 9.78224182 C-54.73303577 14.31983333 -59.4006757 18.88192382 -64.0546875 23.45898438 C-65.79452803 25.16363238 -67.5406006 26.86194388 -69.29296875 28.55371094 C-71.8116105 30.9873985 -74.30692143 33.4430342 -76.79882812 35.90405273 C-77.58628418 36.65537979 -78.37374023 37.40670685 -79.18505859 38.18080139 C-83.59685726 42.52530021 -83.59685726 42.52530021 -85.23242188 48.37646484 C-84.85957631 51.36671464 -84.85957631 51.36671464 -83.61132812 53.40014648 C-80.33198688 55.19849491 -78.36577289 55.06788333 -74.67382812 54.46264648 C-68.9144244 50.52654614 -64.3193804 44.99206631 -59.72386169 39.80932617 C-21.92941081 -2.7870298 -21.92941081 -2.7870298 0 0 Z " fill="#FCCA3D" transform="translate(261.673828125,53.537353515625)"/>
<path d="M0 0 C17.66778346 26.50167519 13.12660727 74.76489888 7.578125 104.24121094 C6.62561699 108.90012163 5.37041713 113.45055879 4 118 C3.66838867 119.1437207 3.66838867 119.1437207 3.33007812 120.31054688 C-3.21328413 142.600537 -13.29532303 163.25343704 -27 182 C-27.42007324 182.59216309 -27.84014648 183.18432617 -28.27294922 183.79443359 C-43.76958181 205.55158202 -64.78932843 223.90142688 -88 237 C-88.6609668 237.38220703 -89.32193359 237.76441406 -90.00292969 238.15820312 C-106.09886354 247.40402403 -124.63399627 255.64694422 -143 259 C-143.99 258.67 -144.98 258.34 -146 258 C-145.44947244 257.45039423 -144.89894487 256.90078846 -144.33173466 256.33452797 C-130.95116627 242.97602089 -117.57334948 229.61476402 -104.19860935 216.25042152 C-97.73068551 209.78765923 -91.26182545 203.32583922 -84.79077148 196.86621094 C-79.15218515 191.23757572 -73.51534463 185.60719908 -67.8806147 179.97470319 C-64.89559204 176.99098691 -61.90968822 174.00816437 -58.9216938 171.02742386 C-56.11166037 168.22415736 -53.30396 165.41857558 -50.49806213 162.61116982 C-49.46571074 161.57909444 -48.4324965 160.54788134 -47.39837456 159.51758003 C-45.99074898 158.11490212 -44.58647153 156.70886663 -43.18238831 155.30264282 C-42.3942553 154.51543161 -41.6061223 153.72822041 -40.79410648 152.91715431 C-38.4594178 150.42234226 -38.02185508 149.51359426 -37.875 146.0625 C-37.85995188 142.95801915 -37.85995188 142.95801915 -39 140 C-41.99742608 139.19711801 -43.96317979 138.7300258 -47 139 C-53.77529462 143.22277684 -59.23064769 150.22424053 -64.73402786 155.96473694 C-67.55925494 158.9111616 -70.39577963 161.84669549 -73.23043823 164.78404236 C-73.83172601 165.40768515 -74.4330138 166.03132795 -75.05252242 166.67386901 C-83.47646463 175.40542907 -91.9737385 184.06556228 -100.46580315 192.73078823 C-107.36701018 199.77690979 -114.24205202 206.84556052 -121.06298828 213.96948242 C-127.03698834 220.20862769 -133.05664331 226.39941517 -139.13317311 232.53880364 C-142.33861327 235.78072528 -145.51767284 239.040915 -148.64242172 242.36083794 C-170.11279126 265.12163499 -170.11279126 265.12163499 -183.65631294 265.75870609 C-187.87684992 265.61238209 -191.95159962 265.18169631 -196.11246109 264.46655464 C-199.94736421 263.84692945 -203.76284046 263.64896397 -207.63908195 263.45860958 C-222.99290421 262.57832209 -238.52769307 259.14349115 -253 254 C-249.9095643 250.70004324 -246.51358218 248.12305317 -242.8125 245.5625 C-229.33316914 236.0726076 -216.45340582 225.8393348 -203.70849609 215.39257812 C-201.44899257 213.55087934 -199.16280622 211.74385924 -196.875 209.9375 C-191.07312693 205.30762466 -185.46652729 200.45347143 -179.85302734 195.59863281 C-178.01783079 194.01538287 -176.17574635 192.44050414 -174.33203125 190.8671875 C-165.71010662 183.48591772 -157.39404924 175.82514187 -149.15942383 168.01586914 C-147.66867612 166.62422371 -146.16218202 165.24932273 -144.64331055 163.88842773 C-134.48513078 154.76045586 -124.89599796 145.04817981 -115.25317383 135.38354492 C-112.69056177 132.8152059 -110.12344168 130.25142692 -107.55498791 127.68893147 C-105.54983928 125.68742083 -103.54710829 123.68350461 -101.54506874 121.67888451 C-100.1468004 120.27964171 -98.74654848 118.88238199 -97.34623718 117.48518372 C-92.88050258 113.00311262 -88.55392508 108.46458617 -84.43104553 103.66462708 C-82.79173845 101.75774508 -81.09021994 99.92196478 -79.3515625 98.10546875 C-78.43914795 97.14568115 -78.43914795 97.14568115 -77.50830078 96.16650391 C-76.88681152 95.51343262 -76.26532227 94.86036133 -75.625 94.1875 C-70.52231427 88.78915165 -65.66951816 83.31756024 -61.0390625 77.5078125 C-58.93818094 74.92396966 -56.74413435 72.4600648 -54.5 70 C-50.6849355 65.80342905 -47.05735125 61.49222517 -43.4921875 57.08203125 C-41.69606391 54.86080631 -39.88991464 52.65099623 -38.0703125 50.44921875 C-24.66180092 34.17400239 -12.27434559 17.13854663 0 0 Z " fill="#F5A338" transform="translate(445,192)"/>
<path d="M0 0 C4.02500075 1.81941916 6.00102792 4.14835884 8.75 7.625 C9.54921875 8.62789062 10.3484375 9.63078125 11.171875 10.6640625 C12.07679688 11.82035156 12.07679688 11.82035156 13 13 C11.39963392 17.81970715 8.68911369 21.54953608 5.75 25.625 C4.9602478 26.73065308 4.9602478 26.73065308 4.15454102 27.85864258 C2.44431233 30.24494408 0.72403355 32.62365528 -1 35 C-1.86939209 36.19906982 -1.86939209 36.19906982 -2.75634766 37.42236328 C-12.85313281 51.31068559 -23.23720692 64.87006036 -34.390625 77.92578125 C-36.76269035 80.70733088 -39.07492712 83.53348661 -41.375 86.375 C-49.50964116 96.35117311 -57.98232419 106.03946298 -66.77856445 115.43701172 C-69.37452253 118.21386796 -71.91177886 121.02976088 -74.40625 123.8984375 C-77.89783225 127.90656825 -81.48639635 131.8127742 -85.125 135.6875 C-85.76953125 136.37521484 -86.4140625 137.06292969 -87.078125 137.77148438 C-91.83450782 142.82164378 -96.7041772 147.74298048 -101.63818359 152.61889648 C-105.03580814 155.99054855 -108.22830838 159.46529996 -111.33203125 163.10546875 C-115.80294788 168.18367617 -120.66347702 172.86356939 -125.78515625 177.27734375 C-130.06026338 180.99320287 -134.03536052 184.95792615 -138 189 C-142.5319448 193.62045934 -147.12665197 198.06068802 -152.03125 202.28515625 C-155.26770559 205.10421181 -158.37693514 208.05666522 -161.5 211 C-166.5860386 215.76656537 -171.69726863 220.47422561 -177 225 C-178.04451252 225.8981565 -179.08875737 226.79662434 -180.1328125 227.6953125 C-183.15030801 230.29036709 -186.17412102 232.87793095 -189.20068359 235.46240234 C-190.3608226 236.45379386 -191.52007095 237.44622904 -192.67822266 238.43994141 C-200.31787344 244.99445371 -208.10444162 251.31739007 -216.05761719 257.48730469 C-218.14175747 259.11039835 -220.21580916 260.74583896 -222.2890625 262.3828125 C-232.30063614 270.26477424 -242.51949461 277.75551745 -253 285 C-254.31787738 285.91512119 -255.63559011 286.83047954 -256.953125 287.74609375 C-259.96463083 289.83672262 -262.98070774 291.92062654 -266 294 C-269.75730247 292.3718356 -272.616823 289.98598083 -275.75 287.375 C-277.22726562 286.14910156 -277.22726562 286.14910156 -278.734375 284.8984375 C-279.48203125 284.27195312 -280.2296875 283.64546875 -281 283 C-279.65394806 279.99989066 -278.16606499 277.92080232 -275.83624935 275.60970688 C-274.8541088 274.62806852 -274.8541088 274.62806852 -273.85212702 273.62659907 C-273.13102749 272.91610007 -272.40992796 272.20560106 -271.66697693 271.47357178 C-270.90234935 270.71217431 -270.13772178 269.95077685 -269.34992367 269.16630673 C-266.77888943 266.6084008 -264.20081013 264.05771233 -261.62280273 261.50683594 C-259.78131199 259.67736513 -257.94031003 257.84740222 -256.09976196 256.01698303 C-252.13177985 252.07183307 -248.16054544 248.12998194 -244.18746758 244.18996429 C-237.9075974 237.96167156 -231.63867918 231.72241899 -225.37159729 225.48126221 C-223.22704971 223.34584039 -221.08244379 221.21047717 -218.93782902 219.07512283 C-218.40188185 218.54148093 -217.86593469 218.00783903 -217.3137467 217.45802616 C-211.21382866 211.38458096 -205.11197249 205.31308498 -199.0090332 199.24267578 C-198.45118155 198.68779131 -197.89332991 198.13290684 -197.31857366 197.56120768 C-188.276606 188.56796407 -179.2252407 179.58422664 -170.17127048 170.60306904 C-160.87534813 161.38126997 -151.59286822 152.14608562 -142.32191044 142.89918923 C-136.60327708 137.19637677 -130.87393063 131.5047705 -125.13036204 125.82707033 C-120.73029119 121.47538833 -116.34864088 117.10558626 -111.97359085 112.72875786 C-110.1757007 110.9359943 -108.37177873 109.14925679 -106.56149101 107.36901283 C-104.09322898 104.93998604 -101.64741944 102.49036369 -99.20603943 100.03436279 C-98.48270918 99.33278667 -97.75937893 98.63121055 -97.01412958 97.90837455 C-92.53387816 93.34084777 -90.97742093 90.46181753 -91 84 C-91.33 83.01 -91.66 82.02 -92 81 C-88.18796421 76.96513838 -84.34700792 72.96104574 -80.4765625 68.98217773 C-79.16485388 67.62526572 -77.86134287 66.26037829 -76.56640625 64.88745117 C-74.70080686 62.91240519 -72.8073726 60.96814367 -70.90625 59.02734375 C-70.33507446 58.40971664 -69.76389893 57.79208954 -69.17541504 57.15574646 C-65.02782564 53.00312213 -65.02782564 53.00312213 -62.00073242 52.993927 C-61.32179932 53.11911713 -60.64286621 53.24430725 -59.94335938 53.37329102 C-56.02833012 54.41458779 -56.02833012 54.41458779 -53.08297729 52.35441589 C-50.06052634 50.04622291 -47.41016662 47.65082736 -44.72900391 44.95605469 C-44.24044922 44.46779205 -43.75189453 43.97952942 -43.24853516 43.47647095 C-41.65308376 41.87963883 -40.064813 40.27586666 -38.4765625 38.671875 C-37.36456428 37.55614217 -36.25212036 36.4408534 -35.13925171 35.32598877 C-32.22501432 32.4041502 -29.31683589 29.47635373 -26.40991211 26.54724121 C-23.43709302 23.55388768 -20.45853623 20.56625537 -17.48046875 17.578125 C-11.64804064 11.72430905 -5.82200608 5.86418137 0 0 Z " fill="#E88431" transform="translate(402,121)"/>
<path d="M0 0 C0.23253092 8.45482418 -1.67053455 15.92903751 -4 24 C-4.2254248 24.78568359 -4.45084961 25.57136719 -4.68310547 26.38085938 C-11.22562612 48.64230779 -21.31241563 69.27681793 -35 88 C-35.42007324 88.59216309 -35.84014648 89.18432617 -36.27294922 89.79443359 C-51.76958181 111.55158202 -72.78932843 129.90142688 -96 143 C-96.6609668 143.38220703 -97.32193359 143.76441406 -98.00292969 144.15820312 C-114.09886354 153.40402403 -132.63399627 161.64694422 -151 165 C-151.99 164.67 -152.98 164.34 -154 164 C-153.44947244 163.45039423 -152.89894487 162.90078846 -152.33173466 162.33452797 C-138.95116627 148.97602089 -125.57334948 135.61476402 -112.19860935 122.25042152 C-105.73068551 115.78765923 -99.26182545 109.32583922 -92.79077148 102.86621094 C-87.15218515 97.23757572 -81.51534463 91.60719908 -75.8806147 85.97470319 C-72.89559204 82.99098691 -69.90968822 80.00816437 -66.9216938 77.02742386 C-64.11166037 74.22415736 -61.30396 71.41857558 -58.49806213 68.61116982 C-57.46571074 67.57909444 -56.4324965 66.54788134 -55.39837456 65.51758003 C-53.99074898 64.11490212 -52.58647153 62.70886663 -51.18238831 61.30264282 C-50.3942553 60.51543161 -49.6061223 59.72822041 -48.79410648 58.91715431 C-45.70023331 55.61108951 -45.91145459 53.42727059 -46 49 C-46 43.88207547 -43.90599467 42.17236964 -40.5 38.75 C-39.74203125 37.91855469 -39.74203125 37.91855469 -38.96875 37.0703125 C-35.11815798 33.1619616 -35.11815798 33.1619616 -31.89648438 32.6953125 C-29.92869315 32.73112308 -27.96319817 32.86094013 -26 33 C-23.33333333 31.66666667 -23.33333333 31.66666667 -22 29 C-22.18433594 27.8553125 -22.36867188 26.710625 -22.55859375 25.53125 C-22.64550189 20.92825964 -20.52648874 18.88022632 -17.44140625 15.625 C-15.49866111 13.72607618 -13.54411158 11.85654761 -11.5625 10 C-10.55747715 9.02656127 -9.55420126 8.05131546 -8.55273438 7.07421875 C-1.22336346 0 -1.22336346 0 0 0 Z " fill="#FCCA3D" transform="translate(453,286)"/>
<path d="M0 0 C-0.45101074 0.43546646 -0.90202148 0.87093292 -1.36669922 1.31959534 C-6.05920764 5.85718685 -10.72684757 10.41927734 -15.38085938 14.99633789 C-17.12069991 16.7009859 -18.86677247 18.3992974 -20.61914062 20.09106445 C-23.13778237 22.52475202 -25.6330933 24.98038771 -28.125 27.44140625 C-28.91245605 28.19273331 -29.69991211 28.94406036 -30.51123047 29.71815491 C-34.89277578 34.05006537 -34.89277578 34.05006537 -36.6171875 39.84741211 C-36.1815371 43.14424589 -36.1815371 43.14424589 -34 46 C-34.49628906 46.4125 -34.99257812 46.825 -35.50390625 47.25 C-40.4811566 51.48113502 -44.82619038 55.9783853 -49 61 C-49.53625 60.67 -50.0725 60.34 -50.625 60 C-53.65338044 58.72489245 -55.73025618 58.70525414 -59 59 C-61.27181117 60.39432824 -61.27181117 60.39432824 -63.21420288 62.49267578 C-64.38772812 63.65382904 -64.38772812 63.65382904 -65.58496094 64.83843994 C-66.42365723 65.69870789 -67.26235352 66.55897583 -68.12646484 67.4453125 C-69.02466949 68.34264099 -69.92287415 69.23996948 -70.84829712 70.16448975 C-73.30775965 72.6222316 -75.7482914 75.09802507 -78.18584013 77.5774765 C-80.73753497 80.16669329 -83.30624521 82.7389151 -85.87319946 85.31298828 C-90.73002834 90.18846167 -95.57136123 95.07902638 -100.40731299 99.97519875 C-105.91421775 105.54918079 -111.43818087 111.10612386 -116.96364284 116.6617012 C-128.3281842 128.08894866 -139.67111148 139.5374033 -151 151 C-151.87356319 147.84525098 -152.00050788 146.06321487 -151.06640625 142.90234375 C-150.83405273 142.11077881 -150.60169922 141.31921387 -150.36230469 140.50366211 C-150.09836914 139.65682861 -149.83443359 138.80999512 -149.5625 137.9375 C-149.28954102 137.0513501 -149.01658203 136.1652002 -148.73535156 135.25219727 C-141.45425202 112.27352001 -130.50258081 91.21657285 -116 72 C-115.32066406 71.07574219 -114.64132813 70.15148437 -113.94140625 69.19921875 C-102.00244458 53.75303695 -87.20785568 39.85140062 -71 29 C-69.96359375 28.30261719 -68.9271875 27.60523437 -67.859375 26.88671875 C-64.6278543 24.81937409 -61.34006751 22.88387693 -58 21 C-57.27280762 20.58395508 -56.54561523 20.16791016 -55.79638672 19.73925781 C-13.6212788 -4.15681598 -13.6212788 -4.15681598 0 0 Z " fill="#F3A338" transform="translate(213,62)"/>
<path d="M0 0 C2.5625 2.0625 2.5625 2.0625 4 5 C4 10.77555113 2.20489491 13.52136306 -1.60888672 17.51951599 C-2.2535791 18.16147415 -2.89827148 18.80343231 -3.5625 19.46484375 C-4.22781738 20.14301651 -4.89313477 20.82118927 -5.57861328 21.51991272 C-6.98663991 22.94512219 -8.40253294 24.36259756 -9.82568359 25.77270508 C-11.99193911 27.92947441 -14.1151586 30.12312387 -16.23828125 32.32226562 C-17.61475047 33.7055543 -18.99358276 35.08649638 -20.375 36.46484375 C-21.00349854 37.12097153 -21.63199707 37.7770993 -22.27954102 38.45310974 C-25.69548077 41.76555054 -27.96083206 43.40562883 -32.81640625 43.51000977 C-35.84922135 43.34487555 -36.92321627 43.04869212 -39.5625 41.375 C-41.4259674 38.29622778 -41.36996138 36.56153549 -41 33 C-39.43334961 30.63305664 -39.43334961 30.63305664 -37.21484375 28.34765625 C-36.39226074 27.4880127 -35.56967773 26.62836914 -34.72216797 25.74267578 C-33.82385254 24.83759277 -32.92553711 23.93250977 -32 23 C-31.08492676 22.0601123 -30.16985352 21.12022461 -29.22705078 20.15185547 C-26.84711935 17.71603904 -24.4447717 15.30387112 -22.03149414 12.90112305 C-20.53605986 11.41115653 -19.04618582 9.91577357 -17.55664062 8.41992188 C-16.60188381 7.46582419 -15.64681774 6.51203585 -14.69140625 5.55859375 C-13.83748291 4.70579834 -12.98355957 3.85300293 -12.10375977 2.97436523 C-8.47975745 -0.42673802 -4.83337937 -0.82939646 0 0 Z " fill="#2A2925" transform="translate(249,90)"/>
<path d="M0 0 C3.5625 0.9375 3.5625 0.9375 6.0625 3.0625 C8.09906833 6.96592263 7.69358492 8.69600019 6.5625 12.9375 C4.65715409 15.64729003 2.36092432 17.86325464 -0.02734375 20.1484375 C-0.6870668 20.80204254 -1.34678986 21.45564758 -2.02650452 22.12905884 C-4.12898535 24.20468217 -6.25167482 26.25822801 -8.375 28.3125 C-9.80014444 29.71611266 -11.22398801 31.12104745 -12.64648438 32.52734375 C-15.24761419 35.08638819 -17.85023154 37.64366664 -20.47241211 40.18115234 C-20.99790146 40.69076508 -21.52339081 41.20037781 -22.06480408 41.72543335 C-24.40701253 43.79356272 -25.59986412 43.94952697 -28.8125 44.1875 C-32.4375 43.9375 -32.4375 43.9375 -34.875 42.9375 C-36.85958413 40.39723232 -37.18451839 38.27944771 -36.99975586 35.08374023 C-34.9411531 27.22565214 -24.94199224 20.28823169 -19.24755859 14.6171875 C-17.67296546 13.0480155 -16.10386722 11.47348769 -14.53515625 9.8984375 C-13.5289668 8.89290789 -12.52246771 7.887688 -11.515625 6.8828125 C-10.61231445 5.98062988 -9.70900391 5.07844727 -8.77832031 4.14892578 C-4.30380378 -0.07825098 -4.30380378 -0.07825098 0 0 Z " fill="#2A2825" transform="translate(160.4375,276.0625)"/>
<path d="M0 0 C2.4375 1.5625 2.4375 1.5625 4 4 C4.6875 7.25 4.6875 7.25 4 11 C-0.82842175 17.8904454 -7.49399348 23.8094392 -13.39746094 29.80249023 C-14.47210287 30.8989066 -15.54042329 32.0015524 -16.60253906 33.11010742 C-18.15813879 34.73270953 -19.73264324 36.33464255 -21.3125 37.93359375 C-21.77938232 38.42830673 -22.24626465 38.92301971 -22.72729492 39.432724 C-26.26307733 42.94705784 -29.05394971 43.86668622 -34 44 C-37.6268244 42.10774379 -38.73230277 40.6084028 -40.375 36.875 C-39.94151155 32.39561938 -39.17572413 31.67424722 -36.19140625 28.48046875 C-35.37220703 27.60165039 -34.55300781 26.72283203 -33.70898438 25.81738281 C-29.52637094 21.46740453 -25.30777155 17.15874243 -21.03149414 12.90112305 C-19.53605986 11.41115653 -18.04618582 9.91577357 -16.55664062 8.41992188 C-15.60188381 7.46582419 -14.64681774 6.51203585 -13.69140625 5.55859375 C-12.83748291 4.70579834 -11.98355957 3.85300293 -11.10375977 2.97436523 C-7.49269481 -0.41459639 -4.90250025 -0.42262933 0 0 Z " fill="#2A2825" transform="translate(350,339)"/>
<path d="M0 0 C4.0743356 0.84881992 5.54405875 2.30225596 8 5.625 C8.625 8.625 8.625 8.625 8 11.625 C5.54405875 14.94774404 4.0743356 16.40118008 0 17.25 C-4.0743356 16.40118008 -5.54405875 14.94774404 -8 11.625 C-8.625 8.625 -8.625 8.625 -8 5.625 C-5.54405875 2.30225596 -4.0743356 0.84881992 0 0 Z " fill="#2D2A25" transform="translate(424,303.375)"/>
<path d="M0 0 C2.875 1.5 2.875 1.5 5 4 C5.71773256 6.82462492 5.71070236 9.17452478 5 12 C2.9375 14.5625 2.9375 14.5625 0 16 C-3.77910616 16 -6.00693033 15.83289714 -8.9375 13.375 C-10.43699866 10.02317947 -10.45377473 7.63019782 -10 4 C-7.25657347 -0.1151398 -4.81370572 -0.78591114 0 0 Z " fill="#292725" transform="translate(148,234)"/>
</svg>
