<?xml version="1.0" encoding="UTF-8"?>
<svg version="1.1" xmlns="http://www.w3.org/2000/svg" width="512" height="512">
<path d="M0 0 C1.18335938 0.22478027 1.18335938 0.22478027 2.390625 0.45410156 C14.95291218 2.93599639 14.95291218 2.93599639 18.41796875 6.45703125 C20.17226944 9.27690717 20.37215454 10.74364779 20 14 C20.680625 14.12375 21.36125 14.2475 22.0625 14.375 C25 15 25 15 28.5625 16.25 C29.696875 16.4975 30.83125 16.745 32 17 C33.33849671 16.00692179 34.67151309 15.00642948 36 14 C42.47529127 14.22376816 46.74087139 16.05908311 52.1875 19.4375 C53.29170288 20.10640259 53.29170288 20.10640259 54.41821289 20.78881836 C65.17037805 27.42461999 74.83772528 35.30829528 84 44 C84.7420166 44.69319336 84.7420166 44.69319336 85.49902344 45.40039062 C117.24753465 75.21468484 135.64076307 117.62211103 137.28515625 161.078125 C138.2680451 205.94122957 123.60773343 250.65474153 92.35766602 283.53393555 C91.37554712 284.54878639 90.39004081 285.56037202 89.40087891 286.56835938 C88.07781515 287.92047611 86.77832477 289.29554397 85.48046875 290.671875 C56.63918015 320.67799755 13.88833347 338.02672723 -27.453125 339.203125 C-62.72588175 339.67900562 -101.22723659 331.77249339 -130 310 C-132 307 -132 307 -131.625 303.75 C-132.04522085 299.54779152 -132.57991521 298.8405494 -135.5 296 C-138.48476531 293.599803 -138.48476531 293.599803 -142.13671875 292.890625 C-144.09596663 293.23395987 -146.04830308 293.61605962 -148 294 C-171.34702153 283.05369154 -186.84340495 248.99714136 -195.390625 226.30859375 C-210.07708656 184.59373456 -208.85400976 137.23248894 -190 97 C-184.55851652 85.694535 -178.57404142 75.02645912 -171 65 C-170.35160156 64.12859375 -169.70320313 63.2571875 -169.03515625 62.359375 C-153.78636949 42.80814745 -135.00768497 27.27854235 -113 16 C-112.32356445 15.64953613 -111.64712891 15.29907227 -110.95019531 14.93798828 C-76.7479218 -2.58320474 -37.61757779 -7.24475338 0 0 Z " fill="#FEE16F" transform="translate(290,88)"/>
<path d="M0 0 C1.18335938 0.22478027 1.18335938 0.22478027 2.390625 0.45410156 C14.975567 2.94047224 14.975567 2.94047224 18.39453125 6.4765625 C20 9 20 9 20.625 11.5 C19.85339772 14.58640912 18.27843387 16.03573808 15.8984375 18.08203125 C11.39174543 20.26119305 6.50493364 18.79698822 1.875 17.625 C-9.43757469 14.77526744 -20.34556666 13.65046875 -31.97998047 13.68432617 C-34.23324497 13.68747657 -36.48517867 13.66396832 -38.73828125 13.63867188 C-77.88134582 13.46938321 -114.84040464 30.74516056 -142.61914062 57.67041016 C-143.79570007 58.80328546 -144.99699623 59.91037777 -146.203125 61.01171875 C-170.49040796 83.76870542 -186.62295956 120.77825224 -188.17700195 153.75610352 C-188.69603469 186.55855869 -184.87945846 214.78440497 -169 244 C-168.48566406 244.99 -167.97132813 245.98 -167.44140625 247 C-164.75329246 251.89542673 -162.12882655 255.22018374 -157.484375 258.328125 C-154.94690782 260.0357287 -152.56297485 261.89790841 -150.15161133 263.77709961 C-134.09157253 276.09342035 -115.60376279 284.65584045 -96.0625 289.6875 C-95.27609131 289.89036621 -94.48968262 290.09323242 -93.67944336 290.30224609 C-81.80999075 293.19971418 -70.01527236 294.37025093 -57.8125 294.3125 C-56.54801025 294.30686035 -55.28352051 294.3012207 -53.98071289 294.29541016 C-19.3759342 293.85009161 16.02816892 281.19932792 42 258 C42.87269531 257.23558594 43.74539063 256.47117187 44.64453125 255.68359375 C47.12548656 253.485326 49.56984611 251.25417723 52 249 C52.90492188 248.17628906 52.90492188 248.17628906 53.828125 247.3359375 C72.55935181 229.56753076 84.77905662 204.46442409 92 180 C92.2273584 179.23252441 92.4547168 178.46504883 92.68896484 177.67431641 C99.30926067 153.91554531 98.79745408 123.63589627 92 100 C91.78569336 99.22897949 91.57138672 98.45795898 91.35058594 97.66357422 C88.35575064 87.15113562 84.17881255 77.41011423 78.97607422 67.80908203 C78.05542797 66.10273168 77.16911859 64.37798322 76.28515625 62.65234375 C68.09418101 47.40749336 52.4080544 37.9324512 37.26953125 30.3515625 C34.69856151 28.82048586 32.88965031 27.32405268 31 25 C30.56544493 22.16996012 31.12150954 19.71011437 32 17 C33.5625 14.9375 33.5625 14.9375 36 14 C42.48505074 14.29224478 46.72022139 16.0462744 52.1875 19.4375 C53.29170288 20.10640259 53.29170288 20.10640259 54.41821289 20.78881836 C65.17037805 27.42461999 74.83772528 35.30829528 84 44 C84.7420166 44.69319336 84.7420166 44.69319336 85.49902344 45.40039062 C117.24753465 75.21468484 135.64076307 117.62211103 137.28515625 161.078125 C138.2680451 205.94122957 123.60773343 250.65474153 92.35766602 283.53393555 C91.37554712 284.54878639 90.39004081 285.56037202 89.40087891 286.56835938 C88.07781515 287.92047611 86.77832477 289.29554397 85.48046875 290.671875 C56.63918015 320.67799755 13.88833347 338.02672723 -27.453125 339.203125 C-62.72588175 339.67900562 -101.22723659 331.77249339 -130 310 C-132 307 -132 307 -131.625 303.75 C-132.04522085 299.54779152 -132.57991521 298.8405494 -135.5 296 C-138.48476531 293.599803 -138.48476531 293.599803 -142.13671875 292.890625 C-144.09596663 293.23395987 -146.04830308 293.61605962 -148 294 C-171.34702153 283.05369154 -186.84340495 248.99714136 -195.390625 226.30859375 C-210.07708656 184.59373456 -208.85400976 137.23248894 -190 97 C-184.55851652 85.694535 -178.57404142 75.02645912 -171 65 C-170.35160156 64.12859375 -169.70320313 63.2571875 -169.03515625 62.359375 C-153.78636949 42.80814745 -135.00768497 27.27854235 -113 16 C-112.32356445 15.64953613 -111.64712891 15.29907227 -110.95019531 14.93798828 C-76.7479218 -2.58320474 -37.61757779 -7.24475338 0 0 Z " fill="#FDD14F" transform="translate(290,88)"/>
<path d="M0 0 C2.10215429 1.12123415 4.12798358 2.31913627 6.15258789 3.57495117 C6.88872314 4.02088623 7.6248584 4.46682129 8.38330078 4.92626953 C19.13546594 11.56207117 28.80281317 19.44574646 37.96508789 28.13745117 C38.45976562 28.59958008 38.95444336 29.06170898 39.46411133 29.5378418 C71.21262254 59.35213601 89.60585096 101.7595622 91.25024414 145.21557617 C92.23313299 190.07868074 77.57282132 234.7921927 46.32275391 267.67138672 C45.34063501 268.68623757 44.3551287 269.69782319 43.3659668 270.70581055 C42.04290304 272.05792728 40.74341266 273.43299514 39.44555664 274.80932617 C10.60426804 304.81544872 -32.14657864 322.1641784 -73.48803711 323.34057617 C-108.76079386 323.81645679 -147.26214869 315.90994456 -176.03491211 294.13745117 C-178.52328176 290.40489669 -178.57717763 288.55304182 -178.03491211 284.13745117 C-175.97241211 281.63745117 -175.97241211 281.63745117 -173.03491211 280.13745117 C-167.00560812 280.3721686 -163.35969336 282.46402217 -158.47241211 285.63745117 C-126.85552883 305.05915057 -84.9734024 312.32161784 -48.55395508 303.90551758 C-46.36914627 303.35212075 -44.2024803 302.75459901 -42.03491211 302.13745117 C-41.33849609 301.95021484 -40.64208008 301.76297852 -39.92456055 301.57006836 C-13.64626743 294.44354297 9.44106759 280.97641813 28.96508789 262.13745117 C29.68180664 261.47229492 30.39852539 260.80713867 31.13696289 260.12182617 C50.66737459 241.52887424 62.98067239 215.82749675 69.96508789 190.13745117 C70.17681641 189.39817383 70.38854492 188.65889648 70.60668945 187.8972168 C73.84251023 176.27697927 74.33132358 164.75478041 74.34008789 152.76245117 C74.34208191 152.04274139 74.34407593 151.32303162 74.34613037 150.58151245 C74.34311262 140.96436706 73.62347369 131.62854413 71.96508789 122.13745117 C71.76230225 120.96835205 71.76230225 120.96835205 71.55541992 119.77563477 C66.10628409 90.74864223 51.26702048 65.18598949 30.96508789 44.13745117 C30.1259082 43.22350586 29.28672852 42.30956055 28.42211914 41.36791992 C17.93455805 30.27744306 5.22398675 22.02145807 -8.17944336 14.85620117 C-10.98224216 13.16915401 -13.00387815 11.69960297 -15.03491211 9.13745117 C-15.46946718 6.30741129 -14.91340257 3.84756554 -14.03491211 1.13745117 C-10.5670522 -3.44012391 -4.73810215 -2.00836411 0 0 Z " fill="#020200" transform="translate(336.034912109375,103.862548828125)"/>
<path d="M0 0 C1.18335938 0.22478027 1.18335938 0.22478027 2.390625 0.45410156 C14.975567 2.94047224 14.975567 2.94047224 18.39453125 6.4765625 C20 9 20 9 20.625 11.5 C19.85339772 14.58640912 18.27843387 16.03573808 15.8984375 18.08203125 C11.39174543 20.26119305 6.50493364 18.79698822 1.875 17.625 C-9.43757469 14.77526744 -20.34556666 13.65046875 -31.97998047 13.68432617 C-34.23324497 13.68747657 -36.48517867 13.66396832 -38.73828125 13.63867188 C-77.88134582 13.46938321 -114.84040464 30.74516056 -142.61914062 57.67041016 C-143.79570007 58.80328546 -144.99699623 59.91037777 -146.203125 61.01171875 C-170.49040796 83.76870542 -186.62295956 120.77825224 -188.17700195 153.75610352 C-188.88975774 198.80170144 -179.33731945 240.05217488 -147.3671875 273.77734375 C-145.85378326 275.27858236 -144.32610163 276.76573028 -142.77734375 278.23046875 C-141 280 -141 280 -139 283 C-139.1819918 286.39718024 -139.33751639 289.00627459 -141.25 291.875 C-143.5983187 293.38463345 -145.19924148 293.86663055 -148 294 C-172.45058326 281.7540226 -188.10382213 247.00574769 -196.6875 222.625 C-210.76783974 178.5313045 -207.38902923 131.21276464 -186.47143555 89.85400391 C-181.92711104 81.07988886 -176.96438529 72.89560844 -171 65 C-170.35160156 64.12859375 -169.70320313 63.2571875 -169.03515625 62.359375 C-153.78636949 42.80814745 -135.00768497 27.27854235 -113 16 C-112.32356445 15.64953613 -111.64712891 15.29907227 -110.95019531 14.93798828 C-76.7479218 -2.58320474 -37.61757779 -7.24475338 0 0 Z " fill="#020200" transform="translate(290,88)"/>
<path d="M0 0 C2.375 1.0625 2.375 1.0625 4 3 C4.82226031 6.23030838 5.41973482 8.71488598 4.3671875 11.9375 C2.44359072 14.83938314 0.04505393 16.49347837 -2.75 18.5625 C-3.9342073 19.44970248 -5.11777992 20.33775261 -6.30078125 21.2265625 C-6.91260254 21.68321289 -7.52442383 22.13986328 -8.15478516 22.61035156 C-11.11745875 24.84156856 -14.02690601 27.13901399 -16.9375 29.4375 C-18.10414726 30.35549341 -19.27081407 31.27346198 -20.4375 32.19140625 C-22.87695438 34.11342106 -25.31389941 36.0385806 -27.75 37.96484375 C-28.3675415 38.45218994 -28.98508301 38.93953613 -29.62133789 39.44165039 C-30.78828581 40.36262784 -31.95422598 41.28488443 -33.11889648 42.20874023 C-34.73681894 43.48487202 -36.3643378 44.74669411 -38 46 C-38.90866821 46.69838989 -38.90866821 46.69838989 -39.83569336 47.41088867 C-42.93432569 49.72019642 -44.80372025 50.97005902 -48.6875 51.5625 C-52 51 -52 51 -54.4375 49.5 C-56.19173109 46.69323026 -56.89206201 44.45448042 -56.671875 41.12109375 C-55.17693514 36.40160337 -50.80448301 33.86546303 -47 31 C-45.72579977 30.02182609 -44.45241873 29.04258451 -43.1796875 28.0625 C-41.03701584 26.41763343 -38.89123007 24.77749338 -36.73706055 23.14770508 C-30.85998337 18.6982944 -25.12270533 14.09761732 -19.44116211 9.40161133 C-6.77332627 -1.02238887 -6.77332627 -1.02238887 0 0 Z " fill="#000000" transform="translate(492,162)"/>
<path d="M0 0 C3.25920202 1.68793374 6.01885019 3.89569786 8.875 6.1875 C10.54991685 7.47768544 12.22572035 8.76672054 13.90234375 10.0546875 C14.74780762 10.71307617 15.59327148 11.37146484 16.46435547 12.04980469 C20.38695955 15.06672761 24.41084338 17.93686951 28.4375 20.8125 C33.66526432 24.5777181 38.88710284 28.35049935 44.0625 32.1875 C45.00222656 32.88230469 45.94195312 33.57710937 46.91015625 34.29296875 C49.58444901 36.47739106 49.93111732 37.3800559 50.3125 40.8125 C49.91378388 44.8794044 49.11416229 46.35296205 46 49 C40.82384449 49.74666885 38.01562099 49.3787624 33.6953125 46.39453125 C32.15750167 45.21909067 30.63466855 44.02387259 29.125 42.8125 C27.45008315 41.52231456 25.77427965 40.23327946 24.09765625 38.9453125 C23.25219238 38.28692383 22.40672852 37.62853516 21.53564453 36.95019531 C17.61304045 33.93327239 13.58915662 31.06313049 9.5625 28.1875 C4.33473568 24.4222819 -0.88710284 20.64950065 -6.0625 16.8125 C-7.00222656 16.11769531 -7.94195312 15.42289063 -8.91015625 14.70703125 C-11 13 -11 13 -12 11 C-12.35173852 7.20122401 -12.52701444 4.85639847 -10.5 1.5625 C-7.00881634 -0.61948979 -3.95360659 -0.76722688 0 0 Z " fill="#000000" transform="translate(112,46)"/>
<path d="M0 0 C2.0625 2.0625 2.0625 2.0625 3 5 C2.61790486 12.0642589 0.37977325 18.17054711 -2.078125 24.76171875 C-2.48657654 25.87053909 -2.89502808 26.97935944 -3.31585693 28.1217804 C-4.17893973 30.45564035 -5.04656349 32.78782547 -5.91845703 35.1184082 C-7.24737778 38.68047135 -8.5520641 42.25079933 -9.85546875 45.82226562 C-10.699061 48.09429256 -11.54406551 50.36579574 -12.390625 52.63671875 C-12.77728333 53.70137863 -13.16394165 54.76603851 -13.56231689 55.86296082 C-15.63166799 61.32679661 -17.32711305 65.37834235 -22 69 C-24.89247162 69.60392265 -27.25948508 69.06542697 -30 68 C-32.0625 65.875 -32.0625 65.875 -33 63 C-32.56598787 56.49731031 -30.31034436 50.68073327 -28.10546875 44.58984375 C-27.71684158 43.50417618 -27.32821442 42.41850861 -26.92781067 41.29994202 C-26.10651762 39.0118229 -25.28179407 36.72493256 -24.45385742 34.43920898 C-23.19189942 30.9496652 -21.94590295 27.45470452 -20.70117188 23.95898438 C-19.89939645 21.73142544 -19.096693 19.50420027 -18.29296875 17.27734375 C-17.92302292 16.23658188 -17.55307709 15.19582001 -17.17192078 14.1235199 C-10.86198504 -3.16992625 -10.86198504 -3.16992625 0 0 Z " fill="#000000" transform="translate(125,391)"/>
<path d="M0 0 C1.79094797 1.61494101 3.37092958 3.23358406 5 5 C6.24223021 6.24086998 7.49006876 7.47614016 8.7421875 8.70703125 C10.11984395 10.0754682 11.49744694 11.44395897 12.875 12.8125 C13.55691406 13.48603516 14.23882812 14.15957031 14.94140625 14.85351562 C18.93745216 18.83053275 22.72573525 22.91494522 26.40576172 27.18530273 C28.53803642 29.61243869 30.81160743 31.87111592 33.125 34.125 C34.75 35.75 36.375 37.375 38 39 C38.5775 39.556875 39.155 40.11375 39.75 40.6875 C42.31381205 43.36784897 43.34206777 45.49120806 43.5625 49.125 C43 53 43 53 41.4375 55.5 C37.94478822 57.64936109 36.04352577 57.68534335 32 57 C27.14821893 54.05235474 23.58423572 49.48345959 19.94921875 45.203125 C17.72931788 42.69405869 15.38496498 40.35249193 13 38 C9.44043812 34.48332441 6.10226922 30.88075887 2.859375 27.07421875 C-0.18197647 23.68145062 -3.48181433 20.55086479 -6.765625 17.39453125 C-10.17199227 13.74400129 -12.05008905 11.45258242 -11.875 6.375 C-11 3 -11 3 -9.9375 1.0625 C-6.77664487 -0.67087217 -3.42081498 -0.95231479 0 0 Z " fill="#000000" transform="translate(326,432)"/>
<path d="M0 0 C2.4375 1.5 2.4375 1.5 4 4 C4.54023773 8.69515696 4.71425167 11.62359657 1.76171875 15.421875 C0.75701795 16.54943006 -0.26900725 17.65824591 -1.3125 18.75 C-1.85430908 19.34852783 -2.39611816 19.94705566 -2.9543457 20.5637207 C-4.61789995 22.39375137 -6.30617435 24.19800479 -8 26 C-8.97810686 27.05977465 -9.95474877 28.12090386 -10.9296875 29.18359375 C-12.74943828 31.16703594 -14.57403881 33.14547215 -16.40234375 35.12109375 C-19.71484954 38.79224678 -22.82442444 42.60586277 -25.93359375 46.44921875 C-27.87091659 48.84065885 -29.82108203 51.21592469 -31.8125 53.5625 C-32.33457031 54.18253906 -32.85664062 54.80257812 -33.39453125 55.44140625 C-35.18156462 57.17626347 -36.67565468 58.11154368 -39 59 C-42.35205511 58.82357605 -44.97391301 58.56269287 -47.9375 56.9375 C-49.68572587 53.74955871 -49.59668778 50.49648632 -49 47 C-47.59753886 44.38967416 -45.72693835 42.38376199 -43.6875 40.25 C-43.14569092 39.65147217 -42.60388184 39.05294434 -42.0456543 38.4362793 C-40.38210005 36.60624863 -38.69382565 34.80199521 -37 33 C-36.02189314 31.94022535 -35.04525123 30.87909614 -34.0703125 29.81640625 C-32.69745075 28.32003028 -31.32377354 26.82465573 -29.94287109 25.33569336 C-26.15896827 21.23886191 -22.64152987 16.95944529 -19.140625 12.62109375 C-8.25210044 -0.71138797 -8.25210044 -0.71138797 0 0 Z " fill="#000000" transform="translate(81,332)"/>
<path d="M0 0 C2.4375 2.125 2.4375 2.125 4 5 C4.0625 8.5625 4.0625 8.5625 3 12 C-0.99614025 15.80140595 -5.7198014 18.09602345 -10.59765625 20.5546875 C-11.42776718 20.97871857 -12.25787811 21.40274963 -13.11314392 21.83963013 C-15.76023143 23.19012831 -18.41128792 24.53262025 -21.0625 25.875 C-22.81731956 26.76901665 -24.57187942 27.66354324 -26.32617188 28.55859375 C-29.69859587 30.27867261 -33.07617422 31.98796531 -36.45751953 33.69042969 C-39.23117812 35.09018501 -41.98230016 36.51847884 -44.71044922 38.00488281 C-45.75346191 38.56272461 -46.79647461 39.12056641 -47.87109375 39.6953125 C-48.73532959 40.17242676 -49.59956543 40.64954102 -50.48999023 41.14111328 C-53.72058026 42.24657148 -55.72930902 41.87734621 -59 41 C-62 39 -62 39 -63 35.1875 C-63.375 33.16796875 -63.375 33.16796875 -63 31 C-59.36929884 26.48289719 -55.07129973 24.1669067 -50 21.625 C-49.20198975 21.21507812 -48.40397949 20.80515625 -47.58178711 20.3828125 C-45.7697839 19.45238376 -43.95575896 18.52588576 -42.14013672 17.60253906 C-38.56607952 15.77855279 -35.00297399 13.93415584 -31.44140625 12.0859375 C-26.31836918 9.4284806 -21.19427436 6.77312543 -16.06640625 4.125 C-14.99334229 3.57070313 -13.92027832 3.01640625 -12.81469727 2.4453125 C-11.88584717 1.96835937 -10.95699707 1.49140625 -10 1 C-9.27675537 0.60425781 -8.55351074 0.20851563 -7.80834961 -0.19921875 C-4.89226798 -1.49053072 -2.98636134 -0.93323792 0 0 Z " fill="#000000" transform="translate(63,263)"/>
<path d="M0 0 C1.88527177 2.9767449 2.12721156 5.37827038 2.1875 8.875 C-0.44568429 13.00802213 -2.66178901 14.60549412 -7.31201172 16.00317383 C-8.41350555 16.34314896 -9.51499939 16.68312408 -10.64987183 17.03340149 C-11.835336 17.37944931 -13.02080017 17.72549713 -14.2421875 18.08203125 C-15.46527618 18.45228928 -16.68836487 18.8225473 -17.94851685 19.20402527 C-20.53376599 19.98280626 -23.11991981 20.75473605 -25.71044922 21.51538086 C-29.01991606 22.48749734 -32.3221161 23.48195413 -35.62248039 24.48448658 C-38.78456859 25.44309923 -41.95090419 26.38738353 -45.1171875 27.33203125 C-46.29860321 27.68820023 -47.48001892 28.0443692 -48.69723511 28.41133118 C-50.35893234 28.89765266 -50.35893234 28.89765266 -52.05419922 29.39379883 C-53.50836746 29.82418205 -53.50836746 29.82418205 -54.99191284 30.26325989 C-58.06134621 30.92897075 -60.6813911 31.12527116 -63.8125 30.875 C-67.13524404 28.41905875 -68.58868008 26.9493356 -69.4375 22.875 C-68.62131792 18.957326 -67.04076713 17.07815602 -63.8125 14.875 C-59.73547833 13.13164319 -55.53360879 11.88968935 -51.28515625 10.6328125 C-50.06348251 10.2601828 -48.84180878 9.8875531 -47.58311462 9.50363159 C-45.00376053 8.7211382 -42.42345675 7.94518945 -39.83911133 7.1796875 C-36.53673736 6.20073496 -33.24282915 5.19620617 -29.95070744 4.18338203 C-26.79527274 3.21599625 -23.63378107 2.26890903 -20.47265625 1.3203125 C-19.29437759 0.95898224 -18.11609894 0.59765198 -16.90211487 0.22537231 C-15.7975444 -0.09891754 -14.69297394 -0.4232074 -13.55493164 -0.75732422 C-12.1052877 -1.19103836 -12.1052877 -1.19103836 -10.62635803 -1.6335144 C-6.78566562 -2.30435315 -3.35925075 -2.08505219 0 0 Z " fill="#000000" transform="translate(509.8125,254.125)"/>
<path d="M0 0 C2.875 2.125 2.875 2.125 5 5 C5.60096117 10.02570225 4.34249874 12.84497204 1.7734375 17.12109375 C1.43374939 17.69462585 1.09406128 18.26815796 0.74407959 18.85906982 C-0.3663024 20.72644768 -1.49504539 22.58191188 -2.625 24.4375 C-3.39829938 25.72702057 -4.17058841 27.01714753 -4.94189453 28.30786133 C-6.51411253 30.93327522 -8.09441921 33.55355239 -9.68164062 36.16992188 C-11.8543111 39.75281935 -13.99949804 43.35128752 -16.140625 46.953125 C-17.38440688 49.03185452 -18.62914342 51.11001325 -19.875 53.1875 C-20.45072754 54.15421631 -21.02645508 55.12093262 -21.61962891 56.11694336 C-22.15507324 57.00003174 -22.69051758 57.88312012 -23.2421875 58.79296875 C-23.93610596 59.94575317 -23.93610596 59.94575317 -24.64404297 61.12182617 C-26 63 -26 63 -29 65 C-32.68722891 65.4809429 -34.56074794 65.22917499 -37.875 63.5 C-40.23351963 60.72527103 -40.65665606 59.11580422 -40.54882812 55.50683594 C-39.28531158 49.735578 -35.47429252 44.79007253 -32.3125 39.875 C-31.53497402 38.63929017 -30.75935697 37.40237729 -29.9855957 36.16430664 C-28.80808564 34.28033646 -27.62953876 32.39715332 -26.44432068 30.51802063 C-22.13888954 23.68153172 -18.1034052 16.68958302 -14.11254883 9.66552734 C-13.6255249 8.82586426 -13.13850098 7.98620117 -12.63671875 7.12109375 C-12.22123779 6.3933374 -11.80575684 5.66558105 -11.37768555 4.91577148 C-8.27436239 0.60037598 -5.29124909 -0.8638774 0 0 Z " fill="#000000" transform="translate(445,83)"/>
<path d="M0 0 C9.24774198 3.34832037 14.3403616 16.05633107 19.34375 24.08203125 C22.74893791 29.53384455 26.24048903 34.92741915 29.75 40.3125 C30.3063916 41.16690674 30.8627832 42.02131348 31.43603516 42.90161133 C33.48674806 46.04712078 35.54210949 49.18816424 37.625 52.3125 C38.28615702 59.25464876 38.28615702 59.25464876 36.0625 62.8125 C32.63363886 64.92256839 30.58279649 64.93741523 26.625 64.3125 C21.07473595 59.86263612 17.72874145 53.52245721 14 47.5625 C12.93330425 45.8754503 11.86660542 44.18840236 10.79905701 42.50189209 C9.73853181 40.82524735 8.6805351 39.14700415 7.62255859 37.46875 C4.45324599 32.46106565 1.22179537 27.49435569 -2.01220703 22.52832031 C-3.13898813 20.79349924 -4.25740418 19.05325253 -5.375 17.3125 C-5.95636719 16.42175781 -6.53773438 15.53101563 -7.13671875 14.61328125 C-9.16444877 10.84566932 -8.91411098 8.55799896 -8.375 4.3125 C-5.71617156 1.0091071 -4.20890428 0.38971336 0 0 Z " fill="#000000" transform="translate(191.375,5.6875)"/>
<path d="M0 0 C3.4206543 1.21826172 3.4206543 1.21826172 6.82421875 2.9296875 C7.44482681 3.23582977 8.06543488 3.54197205 8.70484924 3.85739136 C10.70668999 4.84874201 12.69683446 5.86142455 14.6875 6.875 C16.06854194 7.56441836 17.4503854 8.25223333 18.83300781 8.93847656 C20.9126611 9.97131346 22.99152127 11.00552023 25.06729126 12.04614258 C31.92697247 15.48404784 38.87021873 18.73808051 45.8425293 21.94091797 C46.62152588 22.30588379 47.40052246 22.67084961 48.203125 23.046875 C48.86989258 23.35463867 49.53666016 23.66240234 50.22363281 23.97949219 C53.09313342 25.62799584 54.70116112 27.21021152 55.875 30.3125 C56.0431427 33.92756814 54.86997685 35.95263032 53 39 C49.92680393 40.53659803 47.40313447 40.21850367 44 40 C40.72460938 38.79760742 40.72460938 38.79760742 37.34375 37.10546875 C36.72715012 36.8020607 36.11055023 36.49865265 35.4752655 36.18605042 C33.47686734 35.19931209 31.48860165 34.19381415 29.5 33.1875 C28.1202263 32.50091287 26.73976676 31.81570239 25.35864258 31.13183594 C23.26521812 30.09491335 21.17240845 29.05690999 19.08222961 28.01345825 C14.71965063 25.83745375 10.33460222 23.72436321 5.91796875 21.66015625 C4.85835938 21.16427002 3.79875 20.66838379 2.70703125 20.1574707 C0.73424788 19.23791248 -1.24092473 18.32345809 -3.21875 17.41479492 C-4.09144531 17.00463135 -4.96414063 16.59446777 -5.86328125 16.171875 C-6.61907471 15.8222168 -7.37486816 15.47255859 -8.15356445 15.11230469 C-10 14 -10 14 -12 11 C-12.41857482 7.16306413 -12.54644269 4.88796936 -10.5 1.5625 C-7.06174408 -0.58640995 -3.91539966 -0.43315566 0 0 Z " fill="#000000" transform="translate(388,395)"/>
<path d="M0 0 C1.12960144 0.29747131 2.25920288 0.59494263 3.42303467 0.90142822 C5.79730423 1.52996084 8.17060423 2.16216629 10.54296875 2.79785156 C14.17019983 3.76517826 17.80346476 4.70704371 21.4375 5.6484375 C23.75041454 6.26406968 26.06292941 6.88120581 28.375 7.5 C29.45839661 7.77728943 30.54179321 8.05457886 31.65802002 8.340271 C37.40966572 9.91333642 41.33500152 11.11633909 44.921875 16.015625 C45.46855369 19.36403198 45.26226006 21.22848454 43.921875 24.328125 C40.88406836 26.89127435 37.76718399 27.05021724 33.921875 27.015625 C29.54483297 26.29162589 25.30758522 25.14378871 21.03125 23.97265625 C19.80907776 23.64778732 18.58690552 23.3229184 17.32769775 22.98820496 C14.75366403 22.29992804 12.1820091 21.60604767 9.61230469 20.90209961 C6.32668519 20.00286884 3.0348774 19.12930603 -0.25961685 18.26323414 C-3.41628937 17.42981013 -6.56724357 16.57537192 -9.71875 15.72265625 C-10.89794006 15.41205765 -12.07713013 15.10145905 -13.29205322 14.78144836 C-14.38709167 14.47821152 -15.48213013 14.17497467 -16.61035156 13.86254883 C-17.57217346 13.60194168 -18.53399536 13.34133453 -19.52496338 13.0728302 C-22.46821394 11.85409819 -24.03601274 10.43863252 -26.078125 8.015625 C-26.8621291 5.24727949 -26.71861431 2.81204707 -26.078125 0.015625 C-20.31741127 -7.60338348 -7.79738516 -2.0694392 0 0 Z " fill="#000000" transform="translate(63.078125,115.984375)"/>
<path d="M0 0 C4.44623961 3.45267296 5.94573828 8.04207277 7.93359375 13.12109375 C8.29340836 14.01683609 8.65322296 14.91257843 9.02394104 15.83546448 C10.17145824 18.69905794 11.30455033 21.5681163 12.4375 24.4375 C13.19504032 26.33305151 13.95349501 28.22823787 14.71289062 30.12304688 C16.17241179 33.76980174 17.61882321 37.42131439 19.05419922 41.07763672 C20.23277645 44.0778411 21.43552181 47.06391857 22.68408203 50.03564453 C23.15056152 51.1698584 23.61704102 52.30407227 24.09765625 53.47265625 C24.69525757 54.88623413 24.69525757 54.88623413 25.30493164 56.32836914 C26.29977961 60.15226143 25.8915805 63.42662264 23.9375 66.875 C20.83432242 68.67684505 17.42708053 68.83539199 14 68 C10.07539921 64.81213833 8.41492016 60.94694636 6.57421875 56.3671875 C6.1082 55.24112595 6.1082 55.24112595 5.63276672 54.09231567 C4.64162087 51.6902818 3.66458815 49.28278119 2.6875 46.875 C2.04319432 45.31083654 1.39801911 43.74703095 0.75195312 42.18359375 C-0.86363086 38.26403542 -2.44912636 34.33301817 -4.02740479 30.39831543 C-5.02395417 27.94093159 -6.04817787 25.49634033 -7.07568359 23.05175781 C-7.73200925 21.45400758 -8.38779061 19.85603363 -9.04296875 18.2578125 C-9.51178215 17.16761307 -9.51178215 17.16761307 -9.99006653 16.0553894 C-11.90045459 11.32147787 -12.23617024 8.10939654 -11 3 C-8.7860583 -1.03718781 -4.11975154 -1.00423886 0 0 Z " fill="#000000" transform="translate(255,444)"/>
<path d="M0 0 C3.93809042 6.21803751 1.60051173 14.16769678 0.421875 20.90625 C0.22781067 22.05613403 0.03374634 23.20601807 -0.16619873 24.39074707 C-0.57812668 26.81558052 -0.99533405 29.23952228 -1.41748047 31.66259766 C-2.05988849 35.35996947 -2.68151879 39.0604082 -3.30078125 42.76171875 C-3.70449004 45.12260806 -4.10939811 47.48329267 -4.515625 49.84375 C-4.70014221 50.94497192 -4.88465942 52.04619385 -5.07476807 53.18078613 C-7.50797654 66.96780817 -7.50797654 66.96780817 -11.625 70.375 C-14.75238099 71.08982994 -16.74675996 70.83304376 -19.8125 69.875 C-22.25 68 -22.25 68 -23.8125 64.875 C-23.79686885 57.49146782 -22.29771043 50.02922558 -21.0703125 42.765625 C-20.90127411 41.75457703 -20.73223572 40.74352905 -20.55807495 39.70184326 C-20.20223263 37.58389495 -19.84414441 35.46632283 -19.48388672 33.34912109 C-18.93681793 30.12097527 -18.40372142 26.89071212 -17.87109375 23.66015625 C-17.52168452 21.59100192 -17.17145255 19.52198631 -16.8203125 17.453125 C-16.66394318 16.49569397 -16.50757385 15.53826294 -16.34646606 14.55181885 C-14.13813399 1.79966262 -14.13813399 1.79966262 -10 -1.625 C-6.3188188 -2.46641285 -3.21631974 -1.99633639 0 0 Z " fill="#000000" transform="translate(375.8125,28.125)"/>
<path d="M0 0 C2.89022338 0.81852029 4.06675108 2.28912861 6 4.56640625 C6.95004272 7.24691772 6.95004272 7.24691772 7.58740234 10.34130859 C7.95700577 12.08364273 7.95700577 12.08364273 8.33407593 13.86117554 C8.58219025 15.11226105 8.83030457 16.36334656 9.0859375 17.65234375 C9.3513736 18.94202057 9.61680969 20.23169739 9.89028931 21.56045532 C10.44970134 24.28708963 10.99800752 27.01566283 11.53857422 29.74609375 C12.23048887 33.23626738 12.94985179 36.72009696 13.67769432 40.20293236 C14.37049515 43.53723385 15.03963679 46.87614646 15.7109375 50.21484375 C15.9711972 51.4618808 16.23145691 52.70891785 16.49960327 53.9937439 C16.72709259 55.16160431 16.95458191 56.32946472 17.18896484 57.53271484 C17.39451996 58.55545502 17.60007507 59.57819519 17.81185913 60.63192749 C18.03463658 64.10664145 17.36299438 66.38073193 16 69.56640625 C13.57479454 71.99161171 12.37932259 72.25205066 9 72.56640625 C5.90346249 71.63024375 4.29576678 70.86217303 2 68.56640625 C1.22776764 65.61415013 0.55541064 62.69661828 -0.05859375 59.7109375 C-0.24841324 58.81710861 -0.43823273 57.92327972 -0.63380432 57.00236511 C-1.24207546 54.12931205 -1.83981879 51.25417892 -2.4375 48.37890625 C-2.83591884 46.49139497 -3.23500022 44.60402342 -3.63476562 42.71679688 C-4.59578161 38.16898041 -5.54215167 33.61828945 -6.48162842 29.065979 C-6.9656944 26.73182684 -7.45850365 24.39970093 -7.95361328 22.06787109 C-8.23110448 20.73802042 -8.5083074 19.40810955 -8.78515625 18.078125 C-9.02242432 16.95237061 -9.25969238 15.82661621 -9.50415039 14.66674805 C-10.22839802 10.1383282 -10.65102535 6.81420484 -8.5 2.69140625 C-5.46162086 0.10878398 -3.85895726 0.00753703 0 0 Z " fill="#000000" transform="translate(284,-0.56640625)"/>
<path d="M0 0 C0.76987747 -0.02454758 1.53975494 -0.04909515 2.33296204 -0.0743866 C5.11887292 0.35855137 6.45065872 1.32088884 8.4753418 3.25854492 C9.34815328 6.68744719 9.80457008 9.15114069 8.7878418 12.57104492 C6.70352428 15.25088173 4.33702288 16.09266136 1.0428009 16.72683716 C0.13728989 16.82898529 -0.76822113 16.93113342 -1.70117188 17.03637695 C-2.73292038 17.1563504 -3.76466888 17.27632385 -4.8276825 17.39993286 C-5.93811417 17.52085297 -7.04854584 17.64177307 -8.19262695 17.76635742 C-9.34201248 17.8967038 -10.49139801 18.02705017 -11.6756134 18.16134644 C-14.1086904 18.43552703 -16.54219341 18.7059493 -18.97607422 18.97290039 C-22.68155863 19.38018163 -26.3853427 19.80081932 -30.08911133 20.22338867 C-32.45686033 20.48851244 -34.82469637 20.75286031 -37.19262695 21.01635742 C-38.84309273 21.20381027 -38.84309273 21.20381027 -40.52690125 21.39505005 C-57.16683108 23.20071068 -57.16683108 23.20071068 -61.5871582 20.13354492 C-63.5246582 17.25854492 -63.5246582 17.25854492 -64.1496582 14.25854492 C-63.50054035 11.1427792 -62.64713979 9.5603801 -60.33847046 7.3800354 C-56.32092374 4.89596332 -51.39692317 4.89808696 -46.79418945 4.45776367 C-45.64859055 4.33166214 -44.50299164 4.20556061 -43.32267761 4.07563782 C-39.66269559 3.67858257 -36.00030418 3.31262428 -32.3371582 2.94604492 C-29.89098954 2.68165989 -27.44502232 2.41540386 -24.99926758 2.1472168 C-22.63942199 1.89487249 -20.2794003 1.64416855 -17.91918945 1.39526367 C-16.82717728 1.27970627 -15.7351651 1.16414886 -14.61006165 1.04508972 C-9.74595516 0.56070331 -4.88676011 0.15298509 0 0 Z " fill="#000000" transform="translate(65.524658203125,190.741455078125)"/>
<path d="M0 0 C1.0642923 0.02743286 2.12858459 0.05486572 3.22512817 0.08312988 C8.3765397 0.31881882 13.51828153 0.59636961 18.66186523 0.96777344 C19.76502579 1.04707092 20.86818634 1.12636841 22.004776 1.20806885 C24.31327862 1.37690161 26.62158343 1.54845972 28.9296875 1.72265625 C31.28652663 1.89737022 33.64398146 2.06395752 36.00195312 2.22265625 C39.43177561 2.45354395 42.85913074 2.70791222 46.28686523 2.96777344 C47.3389769 3.03462341 48.39108856 3.10147339 49.4750824 3.17034912 C54.93051445 3.61358951 58.65570065 3.9434119 62.50952148 8.23339844 C63.13842773 10.23339844 63.13842773 10.23339844 63.07202148 12.23339844 C63.07331055 12.89339844 63.07459961 13.55339844 63.07592773 14.23339844 C62.25429918 17.13459721 60.82361637 18.33431414 58.50952148 20.23339844 C55.92236328 20.65231323 55.92236328 20.65231323 53.02124023 20.53369141 C51.95695801 20.49725525 50.89267578 20.46081909 49.79614258 20.42327881 C48.16926514 20.32928802 48.16926514 20.32928802 46.50952148 20.23339844 C45.51645996 20.18153381 44.52339844 20.12966919 43.50024414 20.07623291 C40.43767299 19.89246606 37.38078982 19.66734434 34.32202148 19.42871094 C32.66372314 19.30264969 32.66372314 19.30264969 30.97192383 19.17404175 C28.65923774 18.99652828 26.34673723 18.81658128 24.03442383 18.63427734 C20.49162713 18.35699792 16.94795868 18.09372929 13.40405273 17.83105469 C11.14747634 17.65612241 8.8909633 17.48037061 6.63452148 17.30371094 C5.04861206 17.18795212 5.04861206 17.18795212 3.43066406 17.06985474 C2.44864014 16.98992279 1.46661621 16.90999084 0.45483398 16.82763672 C-0.40609863 16.76101837 -1.26703125 16.69440002 -2.15405273 16.62576294 C-5.43189513 16.07530291 -7.74190752 15.19584686 -9.80297852 12.54589844 C-10.8197068 9.1259942 -10.36329 6.6623007 -9.49047852 3.23339844 C-6.43852984 0.20155719 -4.21828391 -0.12411479 0 0 Z " fill="#000000" transform="translate(430.490478515625,337.7666015625)"/>
<path d="M0 0 C1.875 1.1875 1.875 1.1875 3 3 C3.82626631 7.04257516 4.13734426 10.91355172 4.17700195 15.03369141 C4.18983719 16.20155182 4.20267242 17.36941223 4.21589661 18.57266235 C4.22328354 19.8196994 4.23067047 21.06673645 4.23828125 22.3515625 C4.246353 23.64315277 4.25442474 24.93474304 4.26274109 26.26547241 C4.277702 28.99045678 4.28757473 31.71541568 4.29516602 34.44042969 C4.30627746 37.92870864 4.3407588 41.41635796 4.38033772 44.90441322 C4.41274862 48.24093807 4.41727419 51.57739239 4.42578125 54.9140625 C4.44328934 56.16514801 4.46079742 57.41623352 4.47883606 58.70523071 C4.47591049 59.8667868 4.47298492 61.0283429 4.4699707 62.22509766 C4.47877007 63.75682114 4.47877007 63.75682114 4.48774719 65.31948853 C3.865569 68.73879225 2.73501322 69.91340467 0 72 C-3.5 72.5 -3.5 72.5 -7 72 C-9.90717073 69.78136971 -10.83981643 68.48055071 -12 65 C-12.12620829 63.14078619 -12.19720533 61.27761709 -12.23706055 59.41455078 C-12.26346115 58.26971222 -12.28986176 57.12487366 -12.31706238 55.94534302 C-12.34004898 54.70783295 -12.36303558 53.47032288 -12.38671875 52.1953125 C-12.41224319 50.9240451 -12.43776764 49.65277771 -12.46406555 48.34298706 C-12.51610985 45.65135867 -12.56592791 42.95978455 -12.61254883 40.26806641 C-12.67286154 36.8257744 -12.74711252 33.38393815 -12.82492352 29.94200325 C-12.89652912 26.65161087 -12.95316683 23.36095907 -13.01171875 20.0703125 C-13.05530769 18.22012009 -13.05530769 18.22012009 -13.09977722 16.33255005 C-13.11672134 15.18140717 -13.13366547 14.03026428 -13.15112305 12.84423828 C-13.17031296 11.83402618 -13.18950287 10.82381409 -13.20927429 9.7829895 C-12.91523403 5.87275778 -11.94188273 3.04653637 -9.3125 0.125 C-5.89855615 -1.53583755 -3.61242777 -0.91952707 0 0 Z " fill="#000000" transform="translate(185,430)"/>
</svg>
