<?xml version="1.0" encoding="UTF-8"?>
<svg version="1.1" xmlns="http://www.w3.org/2000/svg" width="512" height="512">
<path d="M0 0 C0.7927533 0.00182281 1.58550659 0.00364563 2.40228271 0.00552368 C14.27324689 0.05145399 25.72524438 0.52635711 37.3125 3.3125 C38.02857422 3.47347168 38.74464844 3.63444336 39.48242188 3.80029297 C62.97180419 9.17682045 85.62763403 20.11580092 104.3125 35.3125 C104.86647461 35.75964355 105.42044922 36.20678711 105.99121094 36.66748047 C123.87644364 51.19611484 145.11204653 72.31290649 152.12231445 94.92456055 C153.10318955 97.48402782 153.10318955 97.48402782 155.54541016 98.45581055 C156.47144043 98.70113525 157.3974707 98.94645996 158.3515625 99.19921875 C159.39521973 99.4923999 160.43887695 99.78558105 161.51416016 100.08764648 C162.6438623 100.38872314 163.77356445 100.6897998 164.9375 101 C192.14667444 108.82013785 228.00232733 121.32220175 243.16015625 147.50390625 C248.3744749 157.74763863 250.12724204 167.93844936 247.6640625 179.3046875 C238.76647121 203.10764539 214.06125891 216.35202024 192.3125 226.3125 C183.06053453 230.22093055 173.54488239 234.14286563 163.75 236.44921875 C156.24895856 238.26298441 156.24895856 238.26298441 150.91015625 243.52734375 C149.11316133 246.72024465 147.64775262 250.04047551 146.1953125 253.40087891 C141.94193855 262.61103324 134.86841702 270.67333335 128.3125 278.3125 C127.61511719 279.13363281 126.91773438 279.95476562 126.19921875 280.80078125 C98.75036515 312.26409241 59.86504278 332.12898937 18.3125 336.3125 C12.42099451 336.65785329 6.52456861 336.65388009 0.625 336.625 C-0.16841797 336.62284485 -0.96183594 336.6206897 -1.77929688 336.61846924 C-47.11521619 336.42096939 -88.6064894 318.30668784 -120.6875 286.3125 C-131.9491512 274.91757482 -140.95873385 262.35424096 -148.42773438 248.21459961 C-148.81251953 247.48893799 -149.19730469 246.76327637 -149.59375 246.015625 C-150.09358398 245.05124512 -150.09358398 245.05124512 -150.60351562 244.06738281 C-153.28392215 239.72802198 -156.06999651 238.62697778 -160.91015625 237.11328125 C-162.78852173 236.51277954 -162.78852173 236.51277954 -164.70483398 235.90014648 C-165.36554901 235.69235565 -166.02626404 235.48456482 -166.70700073 235.27047729 C-190.36597045 227.7955222 -211.51321867 218.27365244 -230.6875 202.3125 C-231.82832031 201.36310547 -231.82832031 201.36310547 -232.9921875 200.39453125 C-240.6275359 193.4276472 -247.19031377 183.0174114 -247.9609375 172.625 C-248.44677726 158.11897176 -244.718348 148.07383604 -234.6875 137.3125 C-216.64127632 118.16140548 -189.95029994 109.03221667 -165.57421875 101.16015625 C-164.54643311 100.82636963 -163.51864746 100.49258301 -162.4597168 100.14868164 C-160.17618676 99.45990221 -157.9589928 98.96124511 -155.625 98.5 C-152.1832469 97.108653 -151.31187011 95.66131019 -149.83911133 92.31225586 C-149.56220459 91.63171143 -149.28529785 90.95116699 -149 90.25 C-131.80850525 52.44588159 -95.62200559 23.59416129 -57.32226562 9.22802734 C-38.5735402 2.71322746 -19.77310453 -0.09448801 0 0 Z M168.3125 151.3125 C168.3125 162.5325 168.3125 173.7525 168.3125 185.3125 C180.84892432 179.99209419 180.84892432 179.99209419 191.3125 171.3125 C191.78482432 167.92102089 191.78482432 167.92102089 190.3125 164.3125 C184.39390664 157.75367419 176.21561927 154.96009351 168.3125 151.3125 Z M-175.875 155 C-176.53564453 155.33966797 -177.19628906 155.67933594 -177.87695312 156.02929688 C-183.35833962 158.92420485 -188.63867484 161.73811096 -191.0625 167.6875 C-190.6531172 171.64486704 -190.36134969 172.18795815 -187.625 174.8125 C-183.17014591 178.30821291 -173.59277173 185.3125 -167.6875 185.3125 C-167.6875 174.0925 -167.6875 162.8725 -167.6875 151.3125 C-170.36131083 151.3125 -173.49045824 153.74105236 -175.875 155 Z " fill="#010202" transform="translate(255.6875,87.6875)"/>
<path d="M0 0 C1.26424805 0.00491455 2.52849609 0.0098291 3.83105469 0.01489258 C40.17292307 0.46489666 78.98225728 13.95422556 104.9375 40.3125 C104.9375 40.6425 104.9375 40.9725 104.9375 41.3125 C103.679375 41.56 102.42125 41.8075 101.125 42.0625 C88.98519545 44.80251858 78.77462121 49.4661522 69.8125 58.1875 C59.53215577 67.70580473 48.91699739 72.12266392 34.93969727 72.65820312 C28.06121574 72.96499804 22.92461181 74.69487415 17.6953125 79.27734375 C17.15648437 79.92832031 16.61765625 80.57929688 16.0625 81.25 C15.23105469 82.22259766 15.23105469 82.22259766 14.3828125 83.21484375 C10.43581197 88.94332831 10.21378859 94.55786013 10.9375 101.3125 C12.72713347 108.47103388 16.8738073 113.23616282 22.9375 117.3125 C27.23587388 119.47105052 31.24745445 119.61818958 35.96484375 119.61328125 C36.74206284 119.61888062 37.51928192 119.62447998 38.3200531 119.63024902 C40.83856586 119.64215592 43.35648786 119.63589141 45.875 119.625 C46.73208557 119.62317719 47.58917114 119.62135437 48.472229 119.61947632 C66.9351827 119.55310947 84.56322273 118.33740599 102.04296875 111.99511719 C103.96725233 111.30177996 105.90290141 110.6531543 107.84375 110.0078125 C117.89346865 106.56258375 126.93516758 101.72887568 136.08496094 96.36230469 C138.00451764 95.27452216 139.95633629 94.28279878 141.9375 93.3125 C153.48485148 117.85154304 157.26632762 147.47376875 152.9375 174.3125 C150.33873118 176.91126882 148.35210073 177.10537972 144.77734375 177.93359375 C143.51752686 178.22782227 142.25770996 178.52205078 140.9597168 178.82519531 C139.59830845 179.13418667 138.23673241 179.44243995 136.875 179.75 C136.18878571 179.90690308 135.50257141 180.06380615 134.79556274 180.22546387 C124.56035721 182.56509348 114.33811275 184.83400431 103.9375 186.3125 C102.72465332 186.48942383 102.72465332 186.48942383 101.48730469 186.66992188 C93.98894433 187.7359871 86.47241057 188.55241195 78.9375 189.3125 C78.27820496 189.3814447 77.61890991 189.4503894 76.93963623 189.52142334 C27.71621076 194.65157119 -23.88876674 195.05479745 -73.0625 189.3125 C-75.26458478 189.07971408 -77.46735636 188.85440557 -79.67027283 188.62963867 C-102.8521799 186.2533744 -125.52850916 182.32380307 -148.0625 176.3125 C-148.91548376 172.63862505 -149.17039471 169.2677607 -149.125 165.5 C-149.11597656 164.52417969 -149.10695313 163.54835938 -149.09765625 162.54296875 C-149.08605469 161.80691406 -149.07445312 161.07085937 -149.0625 160.3125 C-142.14315587 160.28697548 -135.22382406 160.26956035 -128.30444336 160.25756836 C-125.95450385 160.25256471 -123.60456741 160.24575973 -121.25463867 160.23706055 C-117.86115761 160.22482011 -114.467718 160.21923185 -111.07421875 160.21484375 C-110.03730392 160.20968246 -109.0003891 160.20452118 -107.93205261 160.19920349 C-97.61821501 160.19842464 -87.82986478 161.08352702 -77.8125 163.5625 C-76.90282471 163.78212402 -75.99314941 164.00174805 -75.0559082 164.22802734 C-69.68233283 165.55851873 -64.47406476 167.10935433 -59.25 168.9375 C-47.15187757 173.1375032 -34.84421904 174.80002542 -22.0625 175.3125 C-20.4846875 175.40917969 -20.4846875 175.40917969 -18.875 175.5078125 C-10.95691992 175.81080026 -4.0979117 174.83131911 2.04296875 169.4765625 C7.87399633 163.20069364 9.44919544 157.54201321 9.2421875 149.0546875 C8.43460121 141.78641091 4.54994115 137.47404577 -0.76953125 132.7578125 C-5.77059683 129.60552244 -11.43087941 129.06103959 -17.18017578 128.37646484 C-34.28462464 126.28675163 -44.19926931 119.43035407 -56.0625 107.1875 C-67.97074136 95.20780919 -82.35755061 89.77052793 -99 88.9375 C-110.75226366 88.17601423 -120.01008021 83.00194586 -130.0625 77.3125 C-124.20963559 65.66559394 -115.97589833 55.74305796 -107.0625 46.3125 C-105.96035156 45.11367187 -105.96035156 45.11367187 -104.8359375 43.890625 C-78.08779838 15.80060599 -38.55395217 -0.17921198 0 0 Z " fill="#5DD1F0" transform="translate(254.0625,103.6875)"/>
<path d="M0 0 C-0.45237761 1.91808109 -0.91214463 3.83442033 -1.375 5.75 C-1.75785156 7.35101563 -1.75785156 7.35101563 -2.1484375 8.984375 C-3.56415973 13.99785006 -3.56415973 13.99785006 -5 16 C-7.546875 17.23828125 -7.546875 17.23828125 -10.75 18.3125 C-24.06078117 23.16079778 -38.30406918 29.14792762 -45.6875 42.0625 C-47.82053111 47.33172041 -47.93374858 52.11345993 -46.1875 57.51171875 C-40.20713121 71.07137439 -26.43461076 77.85577072 -13.28173828 83.07958984 C9.11068046 91.41371165 32.29292537 96.35040065 55.91650391 99.57519531 C58.7332728 99.96325373 61.54400838 100.38021725 64.35546875 100.8046875 C96.87989509 105.51637937 129.81645877 106.28468898 162.625 106.25 C163.65525803 106.24949961 163.65525803 106.24949961 164.70632935 106.24898911 C185.90163662 106.23519969 206.95335205 105.74476232 228.0625 103.75 C228.72144257 103.68786316 229.38038513 103.62572632 230.05929565 103.56170654 C254.58876415 101.21816607 279.05134367 97.88239187 303 92 C304.03229736 91.75515869 304.03229736 91.75515869 305.08544922 91.50537109 C325.64027602 86.61087248 351.19472413 79.75064222 364.49609375 62.00390625 C367.44673246 56.92962445 367.88942974 51.7492005 367 46 C363.77523591 35.40979842 354.88585605 29.85372839 345.64453125 24.85546875 C341.44560644 22.66748486 337.13057058 20.82186524 332.71875 19.10546875 C331.8215625 18.74066406 330.924375 18.37585938 330 18 C328.94554687 17.59523437 327.89109375 17.19046875 326.8046875 16.7734375 C323.11643228 14.44130955 322.71369585 12.60152899 321.625 8.4375 C321.30789063 7.28121094 320.99078125 6.12492188 320.6640625 4.93359375 C320 2 320 2 320 0 C345.01561752 5.50802588 374.58675262 18.29692475 389.3828125 40.03125 C392.58566469 45.67543708 393.07344447 50.96214266 391.41015625 57.21875 C384.77813937 74.5781306 365.00967838 84.66382279 349 92 C323.3119809 103.16701811 295.94367046 110.07749223 268.3515625 114.43701172 C264.69681799 115.05092786 261.07192055 115.77575613 257.4375 116.5 C248.87263705 118.15805897 240.26166996 119.05883473 231.58203125 119.88037109 C229.00179693 120.12482975 226.42277978 120.379892 223.84375 120.63671875 C222.14589378 120.80270278 220.44797881 120.96808722 218.75 121.1328125 C218.00782227 121.20573517 217.26564453 121.27865784 216.50097656 121.35379028 C203.67566339 122.559617 190.90157746 123.15668201 178.01953125 123.16796875 C176.63213573 123.17120377 175.2447405 123.17456925 173.85734558 123.17805481 C170.96747045 123.1839803 168.0776249 123.18590194 165.18774414 123.18530273 C162.29412496 123.18522213 159.40066632 123.19207113 156.50708008 123.20581055 C130.23715896 123.32833803 104.20278482 122.1271004 78.125 118.75 C76.87502228 118.5909317 76.87502228 118.5909317 75.59979248 118.4286499 C-37.24800093 103.96685595 -37.24800093 103.96685595 -66 67 C-70.38446931 60.15286289 -73.07052972 54.23288335 -72 46 C-67.73044294 32.27642374 -55.05236317 23.58362319 -43 17 C-10.59298999 0 -10.59298999 0 0 0 Z " fill="#92E6F7" transform="translate(96,205)"/>
<path d="M0 0 C1.06287231 0.16544312 1.06287231 0.16544312 2.1472168 0.33422852 C5.764099 0.89418323 9.38181679 1.44852736 13 2 C14.08235931 2.1651712 14.08235931 2.1651712 15.18658447 2.3336792 C93.27239583 14.20413163 176.10603301 17.31773835 253.80395508 0.56835938 C256.62904532 0.06596765 259.14218674 -0.11564378 262 0 C260.49196809 4.39224594 258.14146547 7.95764532 255.4375 11.6875 C254.99132324 12.30544434 254.54514648 12.92338867 254.08544922 13.56005859 C250.06630646 19.04562609 245.71231475 24.09518873 241 29 C240.10796875 29.95519531 239.2159375 30.91039062 238.296875 31.89453125 C230.91615522 39.65606209 222.83818284 45.97736694 214 52 C213.01 52.68964844 212.02 53.37929688 211 54.08984375 C206.16156126 57.26506917 206.16156126 57.26506917 204 58 C200.39520734 57.00811523 197.49765234 55.14062509 194.375 53.125 C186.99061872 48.61048289 178.52060963 44.94042508 169.7421875 45.03515625 C159.86491457 45.10499555 151.99815222 42.84874996 142.8125 39.25 C110.0280034 26.49213953 80.21577466 25.26597156 47.5 39.0625 C46.05729736 39.7265686 46.05729736 39.7265686 44.58544922 40.40405273 C42.04419216 41.51039341 39.71569676 42.44627165 37 43 C33.828125 41.7109375 33.828125 41.7109375 31 39 C30.40832031 38.46012451 29.81664062 37.92024902 29.20703125 37.36401367 C27.16935807 35.47726976 25.2057573 33.53393706 23.25 31.5625 C22.54770264 30.85673828 21.84540527 30.15097656 21.12182617 29.42382812 C0 7.86292414 0 7.86292414 0 0 Z " fill="#5DD1EF" transform="translate(125,332)"/>
<path d="M0 0 C5.67837689 0.72799704 10.44449474 3.50477887 15.49804688 6.02929688 C23.10736344 9.73499992 29.76924522 11.16663188 38.1875 11.3125 C53.42940356 11.92257729 63.47931391 18.32988994 73.875 28.9375 C87.45843264 42.79680301 103.75885837 50.95539129 123.30859375 51.59375 C126.48890084 52.07379635 128.40277825 53.13109969 131 55 C132.40457737 57.80915474 132.24895157 59.88810534 132 63 C130.22015595 66.1359157 129.47691793 66.84102736 126 68 C108.04605163 69.30691032 91.44277803 65.27206055 74.52474976 59.63334656 C54.84436519 53.24339809 35.11307832 52.3688294 14.5625 52.25 C12.06573541 52.22175128 9.56898935 52.19181199 7.07226562 52.16015625 C1.04825032 52.08736773 -4.97565313 52.03511523 -11 52 C-11.17787255 44.21313519 -11.01514873 36.87349341 -9.375 29.25 C-9.20186279 28.41162598 -9.02872559 27.57325195 -8.8503418 26.70947266 C-6.87540778 17.65122239 -4.15969261 8.31938523 0 0 Z " fill="#3177E7" transform="translate(116,196)"/>
<path d="M0 0 C9.80907291 5.91956226 15.82799632 13.9722255 19 25 C19.91863959 31.46242978 19.75181633 37.50897841 16.41015625 43.24609375 C13.11966461 47.3386997 8.96568436 50.34477188 4 52 C2.37080959 52.11178013 0.73758063 52.16887816 -0.89526367 52.19287109 C-1.8902739 52.20893402 -2.88528412 52.22499695 -3.91044617 52.24154663 C-8.46576167 52.28614278 -13.02093301 52.32707288 -17.57641602 52.35009766 C-19.97495235 52.36663817 -22.37343978 52.39390266 -24.77172852 52.43212891 C-28.23740101 52.48705997 -31.70191877 52.50879886 -35.16796875 52.5234375 C-36.23283005 52.54610687 -37.29769135 52.56877625 -38.39482117 52.59213257 C-45.2283645 52.57286426 -49.72115041 51.44798386 -55 47 C-59.29018637 42.48401435 -61.08007822 38.42475896 -61.5 32.25 C-61.15550741 21.60204714 -51.76646075 14.1307493 -44.546875 7.19140625 C-31.92874767 -4.49016661 -15.7202623 -8.04698054 0 0 Z " fill="#010202" transform="translate(237,132)"/>
<path d="M0 0 C4.55295963 3.24535287 7.28361145 8.22800143 10 13 C10.39123047 13.61214355 10.78246094 14.22428711 11.18554688 14.85498047 C13.97204821 19.31457341 13.97204821 19.31457341 14.08984375 22.203125 C6.85728525 34.12777343 -19.07432886 41.18579184 -31.92626953 44.49609375 C-44.54646804 47.56273959 -57.09770839 48.32247021 -70.04574585 48.47177124 C-71.63278372 48.49050231 -73.21975344 48.51649575 -74.80654907 48.54995728 C-77.05800357 48.591681 -79.30680898 48.59801012 -81.55859375 48.59375 C-83.52783813 48.60438477 -83.52783813 48.60438477 -85.53686523 48.61523438 C-89.86067954 47.84709817 -91.32675265 46.41621815 -94 43 C-94.80870757 39.11820367 -94.34799275 37.57998791 -92.3125 34.1875 C-87.98803456 31.33172094 -84.68465108 31.50874312 -79.59375 31.28515625 C-64.72271226 30.10517173 -51.00549435 23.40251446 -40.47924805 13.06835938 C-30.63895657 3.60066943 -13.78750855 -4.44690248 0 0 Z " fill="#3177E7" transform="translate(374,160)"/>
<path d="M0 0 C8.64302649 3.66869419 16.82864581 4.51037071 26.1484375 5.05859375 C32.32396769 5.53501748 36.55132191 6.92182195 41.92578125 10.0234375 C33.55612715 18.75794908 11.00772406 20.65408221 -0.71557617 21.13085938 C-13.28360587 21.38590163 -25.69835243 21.42985595 -38.07421875 19.0234375 C-38.72197266 18.89984863 -39.36972656 18.77625977 -40.03710938 18.64892578 C-57.52592907 15.21689052 -73.65278011 8.89825645 -89.07421875 0.0234375 C-89.07421875 -0.6365625 -89.07421875 -1.2965625 -89.07421875 -1.9765625 C-58.07987218 -14.56165197 -30.44690382 -13.30640372 0 0 Z " fill="#3177E6" transform="translate(267.07421875,386.9765625)"/>
<path d="M0 0 C6.50099074 3.68128391 11.87819747 8.78320492 13.9453125 16.1015625 C15.20908545 24.11749375 13.55801943 30.4620601 8.9453125 37.1015625 C4.23417819 42.52165392 -1.40366726 45.500713 -8.50390625 46.41796875 C-14.535995 46.70433131 -19.18658897 45.7526364 -24.0546875 42.1015625 C-30.68913654 35.90235214 -34.00272204 30.86864646 -34.4296875 21.7265625 C-34.25680824 15.00246918 -32.59983783 10.77492003 -27.9609375 5.90234375 C-19.7156089 -1.75206963 -10.78488932 -4.67199659 0 0 Z " fill="#010203" transform="translate(338.0546875,233.8984375)"/>
<path d="M0 0 C4.50727647 0.60266785 7.8587963 2.36599794 11.8125 4.5625 C12.7087207 5.0565332 12.7087207 5.0565332 13.62304688 5.56054688 C15.08533998 6.36773267 16.5431399 7.18304917 18 8 C17.85377197 8.76441406 17.70754395 9.52882812 17.55688477 10.31640625 C14.91900086 24.22886339 12.4250952 37.83015985 12 52 C4.41 52 -3.18 52 -11 52 C-11.83591326 34.44582158 -7.89251894 15.78503787 0 0 Z " fill="#2357AB" transform="translate(116,196)"/>
<path d="M0 0 C0.70640625 0.10957031 1.4128125 0.21914063 2.140625 0.33203125 C12.42218959 1.92076548 22.71085637 3.46124472 33 5 C32.67 5.66 32.34 6.32 32 7 C37.2419972 14.3467385 42.74671043 21.13545055 49.01269531 27.63354492 C51.5537846 30.29549905 53.45959989 32.66863398 55 36 C52.14335188 37.29530046 49.26344508 38.52744882 46.375 39.75 C45.56675781 40.11738281 44.75851563 40.48476563 43.92578125 40.86328125 C41.59367385 41.83025261 39.49170469 42.58876698 37 43 C33.8984375 41.66796875 33.8984375 41.66796875 31 39 C30.40687012 38.46101074 29.81374023 37.92202148 29.20263672 37.36669922 C27.16915763 35.47674777 25.20513659 33.53331137 23.25 31.5625 C22.54770264 30.85673828 21.84540527 30.15097656 21.12182617 29.42382812 C0 7.86292414 0 7.86292414 0 0 Z " fill="#4EB3D9" transform="translate(125,332)"/>
<path d="M0 0 C0 0.66 0 1.32 0 2 C-1.51700425 3.18563458 -3.09253455 4.29652122 -4.6875 5.375 C-27.36094153 21.51195388 -45.57706839 45.77966858 -55 72 C-60.28 69.36 -65.56 66.72 -71 64 C-64.99867265 52.38452771 -56.95340835 42.47288938 -48 33 C-47.26523438 32.20078125 -46.53046875 31.4015625 -45.7734375 30.578125 C-36.26031792 20.58775862 -14.69663255 0 0 0 Z " fill="#4EB2D9" transform="translate(195,117)"/>
<path d="M0 0 C5.91386392 2.67049295 9.0871522 5.50955041 12.30859375 11.12109375 C13.48212564 14.64168943 13.51005777 17.42758675 13.30859375 21.12109375 C10.90233155 23.52735595 10.35752198 23.37310834 7.07421875 23.37988281 C5.76275879 23.38933929 5.76275879 23.38933929 4.42480469 23.39898682 C3.00603027 23.39291412 3.00603027 23.39291412 1.55859375 23.38671875 C0.58954102 23.3886322 -0.37951172 23.39054565 -1.37792969 23.39251709 C-3.4290391 23.39387954 -5.48015711 23.39017893 -7.53125 23.38183594 C-10.67858164 23.37113734 -13.82534245 23.38172929 -16.97265625 23.39453125 C-18.96224085 23.39320967 -20.95182509 23.3906473 -22.94140625 23.38671875 C-23.88725586 23.39076721 -24.83310547 23.39481567 -25.80761719 23.39898682 C-26.68192383 23.3926825 -27.55623047 23.38637817 -28.45703125 23.37988281 C-29.22821289 23.37829163 -29.99939453 23.37670044 -30.79394531 23.37506104 C-32.69140625 23.12109375 -32.69140625 23.12109375 -34.69140625 21.12109375 C-34.3710909 17.67891868 -32.9074144 15.9524541 -30.5234375 13.5546875 C-29.87697266 12.90435547 -29.23050781 12.25402344 -28.56445312 11.58398438 C-27.88447266 10.91560547 -27.20449219 10.24722656 -26.50390625 9.55859375 C-25.51293945 8.55022461 -25.51293945 8.55022461 -24.50195312 7.52148438 C-17.23110431 0.29370081 -10.21848332 -3.33695029 0 0 Z " fill="#2357AB" transform="translate(226.69140625,144.87890625)"/>
<path d="M0 0 C0.495 2.475 0.495 2.475 1 5 C-22.89032445 23.78354748 -53.36259303 30.09903466 -83.04071045 30.46975708 C-84.62988253 30.48980941 -86.21898442 30.51665109 -87.80792236 30.55050659 C-90.05892986 30.59216563 -92.30725814 30.59829572 -94.55859375 30.59375 C-96.52783813 30.60438477 -96.52783813 30.60438477 -98.53686523 30.61523438 C-102.86510789 29.84631146 -104.34932523 28.44477472 -107 25 C-107.3125 21.6875 -107.3125 21.6875 -107 19 C-106.67 19.66 -106.34 20.32 -106 21 C-69.92546375 21.36993687 -36.11285672 20.83816809 -4.17578125 1.26953125 C-2 0 -2 0 0 0 Z " fill="#2356AA" transform="translate(387,178)"/>
<path d="M0 0 C17.78695278 10.64287145 35.04006489 17.76689849 55.32958984 22.05371094 C59.13293187 22.85744191 62.92472915 23.7120886 66.71875 24.55859375 C66.71875 24.88859375 66.71875 25.21859375 66.71875 25.55859375 C39.18909797 25.98338363 39.18909797 25.98338363 26.71875 23.55859375 C26.07099609 23.43500488 25.42324219 23.31141602 24.75585938 23.18408203 C7.26703968 19.75204677 -8.85981136 13.4334127 -24.28125 4.55859375 C-24.28125 3.89859375 -24.28125 3.23859375 -24.28125 2.55859375 C-21.70263975 1.52415126 -19.11950365 0.50587091 -16.53125 -0.50390625 C-15.43683594 -0.94573242 -15.43683594 -0.94573242 -14.3203125 -1.39648438 C-13.25683594 -1.80737305 -13.25683594 -1.80737305 -12.171875 -2.2265625 C-11.52250977 -2.4831665 -10.87314453 -2.73977051 -10.20410156 -3.00415039 C-6.20922535 -3.91258402 -3.34212273 -2.04024078 0 0 Z " fill="#2356A9" transform="translate(202.28125,382.44140625)"/>
<path d="M0 0 C7.92 0 15.84 0 24 0 C25.485 10.395 25.485 10.395 27 21 C27.99 21.33 28.98 21.66 30 22 C23.26483263 21.40390686 16.97211055 20.14905977 10.4375 18.4375 C9.52419922 18.20353516 8.61089844 17.96957031 7.66992188 17.72851562 C5.44515436 17.15776375 3.22197103 16.58152522 1 16 C0 11 0 11 0 0 Z " fill="#4EB3D9" transform="translate(105,264)"/>
<path d="M0 0 C4.0743356 0.84881992 5.54405875 2.30225596 8 5.625 C8.625 8.625 8.625 8.625 8 11.625 C5.54405875 14.94774404 4.0743356 16.40118008 0 17.25 C-4.0743356 16.40118008 -5.54405875 14.94774404 -8 11.625 C-8.625 8.625 -8.625 8.625 -8 5.625 C-5.54405875 2.30225596 -4.0743356 0.84881992 0 0 Z " fill="#3074E0" transform="translate(328,247.375)"/>
<path d="M0 0 C0.556875 0.7425 1.11375 1.485 1.6875 2.25 C3.93727787 4.92541152 6.2309174 6.88675275 9 9 C9.66 9.66 10.32 10.32 11 11 C6.98313013 11.46707789 5.43498188 11.32150834 2.125 8.875 C-0.32150834 5.56501812 -0.46707789 4.01686987 0 0 Z " fill="#20509D" transform="translate(320,253)"/>
<path d="M0 0 C0 0.66 0 1.32 0 2 C-1.75 3.2890625 -1.75 3.2890625 -4 4.625 C-4.7425 5.07101563 -5.485 5.51703125 -6.25 5.9765625 C-6.8275 6.31429687 -7.405 6.65203125 -8 7 C-6.53112033 2.34854772 -6.53112033 2.34854772 -4 0.6875 C-2 0 -2 0 0 0 Z " fill="#49A8CB" transform="translate(195,117)"/>
</svg>
