<?xml version="1.0" encoding="UTF-8"?>
<svg version="1.1" xmlns="http://www.w3.org/2000/svg" width="512" height="512">
<path d="M0 0 C1.04188477 0.21962402 2.08376953 0.43924805 3.15722656 0.66552734 C62.4112729 13.59019043 118.01978496 47.74154098 154 97 C154.85806152 98.15105017 155.71613451 99.30209177 156.57421875 100.453125 C162.61236829 108.64430614 167.97095521 117.15804105 173 126 C173.36448242 126.63180176 173.72896484 127.26360352 174.10449219 127.91455078 C189.03473018 153.99964001 198.51385054 183.33585114 203 213 C203.17660156 214.12245117 203.35320312 215.24490234 203.53515625 216.40136719 C205.1920586 228.01447743 205.39873513 239.53179945 205.375 251.25 C205.37418427 252.76802216 205.37418427 252.76802216 205.37335205 254.31671143 C205.33261956 270.84530572 204.42924222 286.77913999 201 303 C200.78037598 304.04188477 200.56075195 305.08376953 200.33447266 306.15722656 C190.23685215 352.45049311 167.87771242 394.86413721 135 429 C134.36787598 429.65935547 133.73575195 430.31871094 133.08447266 430.99804688 C123.94002521 440.48630305 114.64265991 449.2262044 104 457 C102.84894983 457.85806152 101.69790823 458.71613451 100.546875 459.57421875 C92.35724019 465.61177396 83.85461724 470.99457302 75 476 C74.29278809 476.4021875 73.58557617 476.804375 72.85693359 477.21875 C50.32203464 489.9060914 26.05701763 498.3594835 0.8125 503.75 C-0.11232178 503.94883789 -1.03714355 504.14767578 -1.98999023 504.35253906 C-18.19668516 507.64441369 -34.13037895 508.3753085 -50.625 508.3125 C-52.15185928 508.30926727 -52.15185928 508.30926727 -53.70956421 508.30596924 C-68.31863523 508.25629854 -82.65075853 508.00540191 -97 505 C-98.46228027 504.70198486 -98.46228027 504.70198486 -99.95410156 504.39794922 C-143.22381524 495.34670074 -183.42519334 476.96229329 -217 448 C-217.74507813 447.36578125 -218.49015625 446.7315625 -219.2578125 446.078125 C-232.76279833 434.26698485 -245.43418743 421.51639772 -256 407 C-256.85649066 405.85005169 -257.71326433 404.70031411 -258.5703125 403.55078125 C-270.7961635 386.97284364 -281.07466285 368.70454186 -289.125 349.75 C-289.56803467 348.73220459 -289.56803467 348.73220459 -290.02001953 347.69384766 C-291.81054452 343.30984717 -292.60856863 339.71364068 -292 335 C-291.30390625 334.16597656 -290.6078125 333.33195312 -289.890625 332.47265625 C-289.26671875 331.65667969 -288.6428125 330.84070313 -288 330 C-288.38533626 326.71891423 -288.38533626 326.71891423 -289.75 323.4375 C-291.16151327 319.57370576 -292 317.15427135 -292 313 C-292.928125 312.896875 -293.85625 312.79375 -294.8125 312.6875 C-298.21267596 311.95412871 -298.92487796 311.6332658 -301 309 C-312.86200253 277.38426486 -309.83884442 233.34881962 -303 201 C-302.78037598 199.95811523 -302.56075195 198.91623047 -302.33447266 197.84277344 C-293.33640931 156.59050566 -274.61581216 118.01388595 -247 86 C-246.36578125 85.25492187 -245.7315625 84.50984375 -245.078125 83.7421875 C-233.7653868 70.80707987 -221.57660481 58.41822223 -207.69335938 48.25341797 C-205.97404588 46.98078886 -204.29101316 45.66956254 -202.609375 44.34765625 C-173.57928831 21.85551267 -137.76927144 7.36275909 -102 0 C-100.99888184 -0.21027832 -99.99776367 -0.42055664 -98.96630859 -0.63720703 C-67.24636711 -6.98924225 -31.62625059 -6.68608653 0 0 Z " fill="#030201" transform="translate(307,4)"/>
<path d="M0 0 C31.83095044 -0.06855545 63.66187973 -0.1215896 95.49288684 -0.15319599 C99.25762781 -0.15694775 103.02236863 -0.16083075 106.78710938 -0.16479492 C107.53654733 -0.16558185 108.28598529 -0.16636878 109.05813348 -0.16717956 C121.16561787 -0.18020515 133.27305918 -0.20384317 145.38051808 -0.23145839 C157.81976916 -0.25959206 170.2589978 -0.27619302 182.69827938 -0.28226548 C190.36336857 -0.28636548 198.02833596 -0.29927713 205.69338763 -0.3237494 C211.58797405 -0.3416013 217.48249922 -0.34334566 223.37711334 -0.33932304 C225.78278601 -0.34014364 228.18846359 -0.34604741 230.59410858 -0.35761642 C243.43441036 -0.41630159 255.48727463 -0.07511191 268 3 C269.46789978 3.35545505 269.46789978 3.35545505 270.9654541 3.71809101 C273.33310627 4.31368027 275.66418278 4.97778716 278 5.6875 C279.25526489 6.06660522 279.25526489 6.06660522 280.53588867 6.45336914 C288.16173988 8.86393512 295.07977216 12.24389612 302.11621094 16.00195312 C327.90686838 29.66605469 360.25812701 35.66100494 388.97021484 27.63818359 C400.20732477 24.10513027 410.81569881 19.20736108 421.2890625 13.8671875 C431.84981273 8.50198708 442.20593794 4.71516244 453.75 2.125 C454.69625244 1.90948486 455.64250488 1.69396973 456.61743164 1.47192383 C463.14757769 0.10017817 469.33686309 -0.24756191 476 0 C474.59324324 16.58713198 470.32091382 31.41474047 464.8203125 47.0859375 C464.45172119 48.14063232 464.08312988 49.19532715 463.70336914 50.28198242 C462.80383135 52.8552145 461.90267971 55.42786878 461 58 C460.04422058 58.00586624 459.08844116 58.01173248 458.10369873 58.01777649 C449.09849914 58.07497747 440.09354165 58.14772523 431.08858871 58.23571491 C426.45897917 58.28045177 421.82945831 58.31970052 417.19970703 58.34643555 C412.73212876 58.37243554 408.26489113 58.41281433 403.7975235 58.46318626 C402.09272751 58.47987739 400.38787258 58.49137767 398.68300629 58.49761391 C396.29579416 58.50723077 393.90945791 58.53525981 391.52246094 58.56762695 C390.81683517 58.56619186 390.11120941 58.56475677 389.38420105 58.5632782 C385.33951616 58.64089336 382.87474863 59.05587894 380 62 C379.33740346 64.83568858 379.71832307 67.04239226 380 70 C382.84096854 72.84096854 384.76361873 72.27664613 388.74462891 72.31884766 C389.43742447 72.32889328 390.13022003 72.3389389 390.8440094 72.34928894 C393.13818518 72.38022553 395.43224373 72.39718476 397.7265625 72.4140625 C399.31555192 72.43276577 400.90453133 72.45233854 402.49349976 72.4727478 C406.67901718 72.52416409 410.86456683 72.56373877 415.05023193 72.60089111 C419.32002803 72.64087143 423.58968895 72.69199093 427.859375 72.7421875 C436.23949113 72.83905915 444.61967393 72.92342772 453 73 C451.75096031 76.86073768 450.45612327 80.23874754 448.35546875 83.71484375 C447.58686523 84.99198242 447.58686523 84.99198242 446.80273438 86.29492188 C446.26970703 87.16697266 445.73667969 88.03902344 445.1875 88.9375 C444.66607422 89.80568359 444.14464844 90.67386719 443.60742188 91.56835938 C442.09606531 94.06464493 440.58324563 96.54853051 439 99 C438.1450872 100.7849865 438.1450872 100.7849865 437.27290344 102.60603333 C435.37863082 105.20926567 434.38422113 105.91146264 431.20875835 106.64319515 C427.46173756 106.88424312 423.7470884 106.89748785 419.99609375 106.83886719 C418.55160594 106.8418457 417.10712169 106.84794317 415.66265869 106.85691833 C412.55264551 106.86955028 409.44375539 106.86013729 406.33383179 106.83361053 C401.39590918 106.79165752 396.45878904 106.79893656 391.52075195 106.81256104 C383.6869555 106.82834389 375.85363188 106.81110438 368.0198946 106.7798903 C354.05577555 106.72482609 340.09165684 106.71619167 326.12744999 106.73339391 C321.24092792 106.73800625 316.35485482 106.72515499 311.46840763 106.69868779 C277.68908313 106.53331395 250.26016035 111.28505328 219.88232422 126.56787109 C212.76062795 130.10639983 205.85452182 133.32170492 198.125 135.25 C196.89007813 135.56453125 195.65515625 135.8790625 194.3828125 136.203125 C169.7706691 142.00090474 144.79790918 137.6259137 122.875 125.625 C104.40738953 115.57071326 81.67649503 107.40766629 60.40625 108.140625 C45.12240958 108.5624774 45.12240958 108.5624774 39.890625 104.7109375 C37.97114172 101.94379919 36.4264211 99.21457931 35.03369141 96.15087891 C33.83949138 93.66601773 32.46591234 91.34159723 31.04296875 88.98046875 C29.02864052 85.63481713 27.02819688 82.28490986 25.08984375 78.89453125 C24.68628662 78.19175049 24.28272949 77.48896973 23.86694336 76.76489258 C23 75 23 75 23 73 C24.79848389 72.970271 24.79848389 72.970271 26.63330078 72.93994141 C31.14748634 72.86298045 35.6613868 72.77441525 40.17529297 72.68261719 C42.11664132 72.64469646 44.05805117 72.60978463 45.99951172 72.578125 C60.9058329 72.33212073 75.05276981 71.54156146 89.4375 67.25 C90.33291504 66.98687012 91.22833008 66.72374023 92.15087891 66.45263672 C103.58621246 63.016101 114.24719375 58.56124246 124.71923828 52.83178711 C140.08712432 44.44911916 155.05507146 41.82295889 172.375 41.8125 C173.43460938 41.80025391 174.49421875 41.78800781 175.5859375 41.77539062 C185.63223329 41.75692317 194.97780922 43.32815061 204.5 46.5 C205.26062744 46.75209229 206.02125488 47.00418457 206.80493164 47.26391602 C213.51566147 49.60838071 219.59201074 52.82277808 225.80688477 56.24047852 C247.44197039 67.97103925 270.58443615 72.31396795 294.97265625 72.3359375 C296.67085375 72.34237964 298.36905019 72.34910901 300.06724548 72.35610962 C303.59783508 72.36799016 307.12832741 72.37179909 310.65893555 72.37060547 C315.18166912 72.3704006 319.70378617 72.39791525 324.22637272 72.43214989 C327.72050357 72.4543564 331.21448309 72.45844526 334.70867729 72.45738602 C336.37725424 72.45974321 338.04583529 72.46857343 339.71434212 72.48405075 C342.03795723 72.50362321 344.36020126 72.49791293 346.68383789 72.48583984 C348.66354332 72.4901149 348.66354332 72.4901149 350.6832428 72.49447632 C354.52898381 71.92113684 355.71098873 71.08396394 358 68 C358.75 65.5 358.75 65.5 358 63 C354.1482433 59.11183216 351.48357439 58.49597162 346.08935547 58.4699707 C345.41379105 58.46123932 344.73822662 58.45250793 344.04219055 58.44351196 C341.81691673 58.41919298 339.59257715 58.4225452 337.3671875 58.42578125 C335.80883219 58.41332225 334.25049087 58.3989842 332.69216919 58.38285828 C328.58973308 58.34484475 324.48753781 58.32965455 320.38494873 58.32006836 C313.84113414 58.30033651 307.29750296 58.24297935 300.75387955 58.19130516 C298.48359761 58.17614133 296.21340802 58.16879975 293.94308472 58.16316223 C270.14127215 58.06780678 250.5917168 52.60429629 229.3515625 42.24609375 C214.62667087 34.93678076 214.62667087 34.93678076 199 30 C198.32404785 29.82702393 197.6480957 29.65404785 196.95166016 29.47583008 C189.31159085 27.68978874 181.81404048 27.7390016 174 27.8125 C172.69804687 27.81314453 171.39609375 27.81378906 170.0546875 27.81445312 C147.89301436 27.915188 130.41255736 33.7572707 110.90869141 43.97338867 C102.23561269 48.50848184 93.59830417 52.30056022 84.0625 54.625 C83.18722656 54.84414063 82.31195313 55.06328125 81.41015625 55.2890625 C72.07903218 57.23438275 63.21053924 58.28876446 53.671875 58.1953125 C51.99934662 58.19106766 51.99934662 58.19106766 50.29302979 58.18673706 C46.77857105 58.17566202 43.26437995 58.15058194 39.75 58.125 C37.34765997 58.11495379 34.94531588 58.10583084 32.54296875 58.09765625 C26.69522326 58.07576442 20.84763076 58.04241595 15 58 C14.69126953 57.14752686 14.38253906 56.29505371 14.06445312 55.41674805 C13.64099609 54.31371338 13.21753906 53.21067871 12.78125 52.07421875 C12.36939453 50.97424561 11.95753906 49.87427246 11.53320312 48.7409668 C10.28273373 45.84205555 10.28273373 45.84205555 7.72241211 45.05395508 C6.98901611 44.9742749 6.25562012 44.89459473 5.5 44.8125 C3.16015625 44.375 3.16015625 44.375 1 43 C-1.6754508 37.74543215 -2.76838953 31.72482255 -4 26 C-3.18273438 25.45601563 -2.36546875 24.91203125 -1.5234375 24.3515625 C1.22020668 22.25560282 1.22020668 22.25560282 1.5234375 19.3359375 C1.47445313 18.35882813 1.42546875 17.38171875 1.375 16.375 C1.32472656 14.93253906 1.32472656 14.93253906 1.2734375 13.4609375 C1.04447613 10.56294073 0.77486182 7.67575453 0.48291016 4.78369141 C0.34739243 3.43834824 0.34739243 3.43834824 0.20913696 2.06582642 C0.10561417 1.04324234 0.10561417 1.04324234 0 0 Z " fill="#FBEE55" transform="translate(18,291)"/>
<path d="M0 0 C5.2760913 4.68651858 10.32863236 9.6481255 15.12890625 14.8203125 C15.12890625 15.1503125 15.12890625 15.4803125 15.12890625 15.8203125 C-1.72684342 15.86717182 -18.58257257 15.90236929 -35.43837261 15.92393684 C-43.26598484 15.93422017 -51.09355644 15.94822376 -58.92114258 15.97119141 C-65.74897075 15.99121591 -72.57676947 16.00405029 -79.40462619 16.00848949 C-83.01510029 16.01108163 -86.62549019 16.01711184 -90.23593712 16.03177261 C-94.28061934 16.04806125 -98.32515807 16.04828643 -102.36987305 16.04736328 C-104.13718529 16.05814911 -104.13718529 16.05814911 -105.94020081 16.06915283 C-116.60913679 16.0429661 -126.8570888 14.50926779 -137.18359375 11.8828125 C-137.86019043 11.71168945 -138.53678711 11.54056641 -139.23388672 11.36425781 C-142.74419315 10.45471159 -146.13371578 9.42683593 -149.49609375 8.0703125 C-152.95743263 6.78833514 -155.22573021 6.22688123 -158.87109375 6.8203125 C-160.98779732 8.28073016 -160.98779732 8.28073016 -161.87109375 10.8203125 C-162.2792378 14.38222828 -162.2792378 14.38222828 -160.87109375 17.8203125 C-145.91731913 27.88535311 -124.16264041 30.03436156 -106.6004715 29.84193611 C-104.46914644 29.8186081 -102.33784723 29.80154334 -100.20645142 29.78605652 C-97.9070183 29.76931992 -95.60759451 29.75222395 -93.30817819 29.73330545 C-87.61144468 29.68695517 -81.9148908 29.66178734 -76.21798706 29.64923096 C-75.388572 29.64739642 -74.55915694 29.64556188 -73.70460808 29.64367175 C-70.2872893 29.63658376 -66.86996976 29.63028073 -63.4526484 29.62457418 C-53.77402665 29.60775508 -44.09658527 29.56982065 -34.41845703 29.46728516 C-26.71316682 29.3857854 -19.00921465 29.35041601 -11.30349338 29.36879945 C-7.23208806 29.37681217 -3.16372898 29.36201613 0.9071312 29.2911911 C4.73847565 29.2250755 8.56511688 29.22057843 12.39676285 29.26180458 C13.7956076 29.26622122 15.19473554 29.24872641 16.59295654 29.20672417 C26.81961963 28.9175326 26.81961963 28.9175326 30.6623559 32.08382702 C34.03302783 35.64496997 36.57810188 39.6504297 39.12890625 43.8203125 C40.32634504 45.60753757 41.52619373 47.39315544 42.73046875 49.17578125 C43.74495412 50.78226378 44.75297351 52.39285109 45.75390625 54.0078125 C46.54474609 55.25401367 46.54474609 55.25401367 47.3515625 56.52539062 C51.12890625 62.5544237 51.12890625 62.5544237 51.12890625 64.8203125 C50.27690612 64.82362265 49.42490599 64.82693279 48.54708767 64.83034325 C27.76221766 64.91176248 6.97741902 65.00391603 -13.80735111 65.10783958 C-23.85893819 65.15784178 -33.91051761 65.20428555 -43.9621582 65.2421875 C-52.72889205 65.27525363 -61.49556427 65.31516425 -70.26222986 65.36310256 C-74.89889281 65.38822303 -79.53551565 65.41004596 -84.17222786 65.42365646 C-88.54790251 65.43660928 -92.92343853 65.45880198 -97.29903603 65.48769569 C-98.89398944 65.49666931 -100.48896512 65.50243738 -102.08394241 65.50452614 C-115.74713196 65.52559967 -129.00293711 66.54237288 -142.18359375 70.4453125 C-143.06748779 70.70328613 -143.95138184 70.96125977 -144.86206055 71.22705078 C-156.91886599 74.8852062 -168.05397777 80.36179784 -179.24609375 86.0703125 C-193.15776554 93.15533792 -206.70863914 96.18565412 -222.30859375 96.0703125 C-223.35080078 96.07804688 -224.39300781 96.08578125 -225.46679688 96.09375 C-241.24363573 96.05462579 -255.99253201 92.70598683 -269.80859375 85.1328125 C-302.79490137 67.14362044 -334.06476506 64.94558764 -370.87109375 64.8203125 C-369.68209616 61.68069511 -368.40476594 58.85603652 -366.5859375 56.03515625 C-366.14330566 55.34486328 -365.70067383 54.65457031 -365.24462891 53.94335938 C-363.26978875 50.9377883 -361.25908971 47.95656358 -359.25244141 44.97216797 C-358.01479394 43.04416784 -356.93394804 41.10759001 -355.8828125 39.07421875 C-353.80266861 35.48672421 -352.24349303 33.25792206 -348.87109375 30.8203125 C-342.89246476 29.31958763 -336.63703408 29.74729639 -330.52197266 29.84521484 C-310.65879111 29.65862021 -291.17482095 20.86423622 -273.6875 12.2890625 C-249.43013517 0.41941386 -222.466933 -5.63472706 -195.92236328 3.12939453 C-191.19705921 4.6741011 -187.84783545 5.06606294 -182.87109375 3.8203125 C-180.50698887 1.88299722 -180.50698887 1.88299722 -180.55859375 -1.6171875 C-180.54976489 -5.02415882 -180.54976489 -5.02415882 -182.02734375 -6.7734375 C-196.72832067 -17.98604702 -226.17732889 -15.57244905 -243.43359375 -13.4921875 C-255.83712612 -11.29620191 -266.75991231 -7.00592624 -277.8671875 -1.23046875 C-295.080769 7.69369084 -315.16621799 16.39718868 -334.87109375 15.8203125 C-325.9721659 5.04792616 -316.00770822 -3.83101874 -304.87109375 -12.1796875 C-304.31437988 -12.6025 -303.75766602 -13.0253125 -303.18408203 -13.4609375 C-228.41540957 -70.00681682 -125.76054631 -74.71623143 0 0 Z " fill="#FAEC54" transform="translate(415.87109375,75.1796875)"/>
<path d="M0 0 C0.92607056 -0.00960754 1.85214111 -0.01921509 2.80627441 -0.02911377 C3.81959839 -0.03336365 4.83292236 -0.03761353 5.87695312 -0.04199219 C6.92282593 -0.04769226 7.96869873 -0.05339233 9.04626465 -0.05926514 C11.27578718 -0.06874348 13.50532391 -0.07526029 15.73486328 -0.07910156 C19.08848213 -0.0886683 22.44145079 -0.11960425 25.79492188 -0.15136719 C41.18046062 -0.22836299 55.89717269 0.63009147 70.53320312 5.78613281 C71.26023437 6.03484131 71.98726563 6.2835498 72.73632812 6.53979492 C83.5961083 10.39561918 93.88109601 15.67838049 104.09570312 20.97363281 C109.40689336 23.66166975 114.96700894 25.45377456 120.65820312 27.16113281 C121.38007813 27.37769531 122.10195312 27.59425781 122.84570312 27.81738281 C153.32634644 36.17497856 183.66873753 28.4474018 210.84570312 14.53613281 C230.76653825 4.35916583 250.80689723 -0.49757642 273.13330078 -0.29296875 C274.89947992 -0.29183667 276.66566093 -0.29248114 278.43183899 -0.29473877 C283.16426401 -0.29587279 287.89627225 -0.27257955 292.62860155 -0.24444294 C297.5972986 -0.21920713 302.56600827 -0.21706999 307.53475952 -0.21234131 C316.91594061 -0.19997604 326.29693221 -0.16724297 335.67803037 -0.12694335 C346.3698741 -0.0820233 357.06172752 -0.06018803 367.75364232 -0.04016161 C389.72193446 0.00149636 411.69005679 0.07172115 433.65820312 0.16113281 C434.61538698 2.20232814 435.56893725 4.24522758 436.52099609 6.28881836 C437.05240204 7.42626999 437.58380798 8.56372162 438.13131714 9.73564148 C440.3496859 14.71243939 442.10539253 19.79402489 443.78320312 24.97363281 C444.29294678 26.53537231 444.29294678 26.53537231 444.81298828 28.12866211 C449.54270395 42.81167044 452.38763382 56.78055698 453.65820312 72.16113281 C431.57093963 73.45826411 411.85639551 65.99806028 392.52148438 56.11035156 C383.89789531 51.72238449 375.1057768 48.13489468 365.84570312 45.34863281 C365.16451416 45.14149658 364.4833252 44.93436035 363.78149414 44.72094727 C331.7752047 35.53148268 300.70568288 45.70879396 272.23242188 59.86425781 C266.15342314 62.79947957 259.99679907 65.22701751 253.59570312 67.34863281 C252.90734375 67.58670654 252.21898437 67.82478027 251.50976562 68.07006836 C234.37224466 73.49783782 216.4074484 73.58922681 198.62207031 73.50170898 C196.1758017 73.50086066 193.72953233 73.50134185 191.28326416 73.5030365 C186.06046932 73.50371413 180.83777681 73.495345 175.61501312 73.47832298 C168.06419266 73.45372967 160.51342626 73.44610718 152.9625701 73.44235901 C140.70580987 73.43582601 128.44911023 73.41595141 116.19238281 73.38745117 C104.30045877 73.35982831 92.4085513 73.33863525 80.51660156 73.32592773 C79.78108113 73.32513956 79.0455607 73.32435139 78.28775176 73.32353934 C74.59711488 73.31962365 70.90647789 73.31583266 67.21584082 73.31210363 C36.69658491 73.2811061 6.17740251 73.22813118 -24.34179688 73.16113281 C-24.18607166 71.07470644 -24.02899219 68.98838111 -23.87133789 66.90209961 C-23.78400894 65.74026657 -23.69667999 64.57843353 -23.60670471 63.38139343 C-22.57132229 50.79512458 -14.47601402 0.12098439 0 0 Z " fill="#FDA85B" transform="translate(41.341796875,154.8388671875)"/>
<path d="M0 0 C17.66415081 9.60913552 37.10785351 14.84071714 57.16577148 15.88916016 C57.94500977 15.93234375 58.72424805 15.97552734 59.52709961 16.02001953 C61.42734266 16.12494093 63.32778817 16.22618466 65.22827148 16.32666016 C65.25303999 20.52587481 65.27116395 24.72505045 65.28320312 28.92431641 C65.28822354 30.35205832 65.29504121 31.77979511 65.30371094 33.20751953 C65.31587701 35.26287095 65.32152276 37.31815423 65.32592773 39.37353516 C65.33378296 41.22736816 65.33378296 41.22736816 65.34179688 43.11865234 C65.24898886 45.74122726 65.01183821 47.8431061 64.22827148 50.32666016 C63.51920654 50.3965918 62.8101416 50.46652344 62.07958984 50.53857422 C42.37017896 52.47816501 42.37017896 52.47816501 23.22827148 57.32666016 C22.03588867 57.71208984 20.84350586 58.09751953 19.61499023 58.49462891 C9.98140652 61.77761679 1.00596845 66.28913541 -7.99609375 71.01220703 C-23.45430904 79.0150202 -38.2009816 81.7258896 -55.52172852 81.70166016 C-56.51002151 81.70084442 -56.51002151 81.70084442 -57.51828003 81.70001221 C-72.55399619 81.64302506 -84.31815398 79.08103912 -97.82495117 72.30273438 C-121.92610545 60.21891009 -145.36341887 51.19623345 -172.61709595 51.16844177 C-174.18574577 51.16103481 -174.18574577 51.16103481 -175.78608549 51.15347821 C-179.26518506 51.13820772 -182.74426633 51.12977112 -186.22338867 51.12133789 C-188.72729654 51.11175114 -191.23120281 51.1017406 -193.73510742 51.09133911 C-199.11299737 51.06994807 -204.49088497 51.05148736 -209.86879349 51.03573418 C-217.64419869 51.01295302 -225.41957742 50.98482198 -233.19496004 50.9554149 C-245.81217192 50.9078396 -258.42939467 50.8645484 -271.04663086 50.82397461 C-283.29794154 50.78456831 -295.54924259 50.74312992 -307.80053711 50.69897461 C-308.55660675 50.69625034 -309.31267639 50.69352607 -310.09165724 50.69071924 C-313.88490511 50.67703892 -317.67815284 50.66331881 -321.4714005 50.64957893 C-352.90482325 50.53577237 -384.33826624 50.42900008 -415.77172852 50.32666016 C-416.70260761 46.39377652 -416.88781737 42.75011853 -416.86938477 38.71337891 C-416.86616211 37.46621094 -416.86293945 36.21904297 -416.85961914 34.93408203 C-416.84705078 32.9937207 -416.84705078 32.9937207 -416.83422852 31.01416016 C-416.8297168 29.70125 -416.82520508 28.38833984 -416.82055664 27.03564453 C-416.80878801 23.79927005 -416.79234611 20.56298838 -416.77172852 17.32666016 C-415.50118653 17.3251936 -414.23064455 17.32372704 -412.9216013 17.32221603 C-382.65453653 17.28639234 -352.38758622 17.22997717 -322.12061191 17.1487392 C-318.38249166 17.13872363 -314.64437098 17.12887918 -310.90625 17.11914062 C-310.16216345 17.11719925 -309.41807691 17.11525788 -308.65144228 17.11325768 C-296.65676291 17.08236931 -284.6621026 17.06529403 -272.66739101 17.05346593 C-260.32861111 17.04098569 -247.98993004 17.01333129 -235.65121263 16.97204709 C-228.05832903 16.94710654 -220.46560967 16.93352847 -212.87268453 16.93523058 C-207.01708702 16.9352643 -201.16170379 16.91402627 -195.30618286 16.88549232 C-192.92850089 16.87707926 -190.55078388 16.8751837 -188.1730938 16.88085747 C-155.359059 16.94863771 -127.98965315 9.89312605 -98.77172852 -4.67333984 C-66.37419758 -20.62051159 -31.11553422 -17.00685289 0 0 Z " fill="#FCEE55" transform="translate(431.771728515625,225.67333984375)"/>
<path d="M0 0 C31.83095044 -0.06855545 63.66187973 -0.1215896 95.49288684 -0.15319599 C99.25762781 -0.15694775 103.02236863 -0.16083075 106.78710938 -0.16479492 C107.53654733 -0.16558185 108.28598529 -0.16636878 109.05813348 -0.16717956 C121.16561787 -0.18020515 133.27305918 -0.20384317 145.38051808 -0.23145839 C157.81976916 -0.25959206 170.2589978 -0.27619302 182.69827938 -0.28226548 C190.36336857 -0.28636548 198.02833596 -0.29927713 205.69338763 -0.3237494 C211.58797405 -0.3416013 217.48249922 -0.34334566 223.37711334 -0.33932304 C225.78278601 -0.34014364 228.18846359 -0.34604741 230.59410858 -0.35761642 C243.43441036 -0.41630159 255.48727463 -0.07511191 268 3 C269.46789978 3.35545505 269.46789978 3.35545505 270.9654541 3.71809101 C273.33310627 4.31368027 275.66418278 4.97778716 278 5.6875 C279.25526489 6.06660522 279.25526489 6.06660522 280.53588867 6.45336914 C288.16173988 8.86393512 295.07977216 12.24389612 302.11621094 16.00195312 C327.90686838 29.66605469 360.25812701 35.66100494 388.97021484 27.63818359 C400.20732477 24.10513027 410.81569881 19.20736108 421.2890625 13.8671875 C431.84981273 8.50198708 442.20593794 4.71516244 453.75 2.125 C454.69625244 1.90948486 455.64250488 1.69396973 456.61743164 1.47192383 C463.14757769 0.10017817 469.33686309 -0.24756191 476 0 C474.59324324 16.58713198 470.32091382 31.41474047 464.8203125 47.0859375 C464.45172119 48.14063232 464.08312988 49.19532715 463.70336914 50.28198242 C462.80383135 52.8552145 461.90267971 55.42786878 461 58 C460.04422058 58.00586624 459.08844116 58.01173248 458.10369873 58.01777649 C449.09849914 58.07497747 440.09354165 58.14772523 431.08858871 58.23571491 C426.45897917 58.28045177 421.82945831 58.31970052 417.19970703 58.34643555 C412.73212876 58.37243554 408.26489113 58.41281433 403.7975235 58.46318626 C402.09272751 58.47987739 400.38787258 58.49137767 398.68300629 58.49761391 C396.29579416 58.50723077 393.90945791 58.53525981 391.52246094 58.56762695 C390.81683517 58.56619186 390.11120941 58.56475677 389.38420105 58.5632782 C386.35586076 58.62139029 384.25334391 58.86118345 381.57672119 60.32780457 C379.35571668 62.68329622 379.28041642 64.84531523 379 68 C378.67 67.34 378.34 66.68 378 66 C377.44014404 66.02618408 376.88028809 66.05236816 376.3034668 66.0793457 C373.76509706 66.18332331 371.22717447 66.2483205 368.6875 66.3125 C367.80642578 66.35439453 366.92535156 66.39628906 366.01757812 66.43945312 C363.58361112 66.48572626 361.38798669 66.47921592 359 66 C357.08203125 63.60546875 357.08203125 63.60546875 356 61 C352.37057668 58.58038446 350.63987198 58.73350545 346.31640625 58.69702148 C345.64113388 58.68858215 344.96586151 58.68014282 344.27012634 58.67144775 C342.03424368 58.64563357 339.79849374 58.63351146 337.5625 58.62109375 C336.00129162 58.60490762 334.44009326 58.58772646 332.87890625 58.56959534 C328.76007786 58.52385924 324.64123546 58.48910706 320.52227783 58.45739746 C313.9586609 58.40561914 307.39519573 58.33968172 300.83175659 58.26918221 C298.55264544 58.24661503 296.27355217 58.23016267 293.99438477 58.21446228 C270.17225136 58.0113053 250.62156611 52.61885292 229.3515625 42.24609375 C214.62667087 34.93678076 214.62667087 34.93678076 199 30 C198.32404785 29.82702393 197.6480957 29.65404785 196.95166016 29.47583008 C189.31159085 27.68978874 181.81404048 27.7390016 174 27.8125 C172.69804687 27.81314453 171.39609375 27.81378906 170.0546875 27.81445312 C147.89301436 27.915188 130.41255736 33.7572707 110.90869141 43.97338867 C102.23561269 48.50848184 93.59830417 52.30056022 84.0625 54.625 C83.18722656 54.84414063 82.31195313 55.06328125 81.41015625 55.2890625 C72.07903218 57.23438275 63.21053924 58.28876446 53.671875 58.1953125 C51.99934662 58.19106766 51.99934662 58.19106766 50.29302979 58.18673706 C46.77857105 58.17566202 43.26437995 58.15058194 39.75 58.125 C37.34765997 58.11495379 34.94531588 58.10583084 32.54296875 58.09765625 C26.69522326 58.07576442 20.84763076 58.04241595 15 58 C14.69126953 57.14752686 14.38253906 56.29505371 14.06445312 55.41674805 C13.64099609 54.31371338 13.21753906 53.21067871 12.78125 52.07421875 C12.36939453 50.97424561 11.95753906 49.87427246 11.53320312 48.7409668 C10.28273373 45.84205555 10.28273373 45.84205555 7.72241211 45.05395508 C6.98901611 44.9742749 6.25562012 44.89459473 5.5 44.8125 C3.16015625 44.375 3.16015625 44.375 1 43 C-1.6754508 37.74543215 -2.76838953 31.72482255 -4 26 C-3.18273438 25.45601563 -2.36546875 24.91203125 -1.5234375 24.3515625 C1.22020668 22.25560282 1.22020668 22.25560282 1.5234375 19.3359375 C1.47445313 18.35882813 1.42546875 17.38171875 1.375 16.375 C1.32472656 14.93253906 1.32472656 14.93253906 1.2734375 13.4609375 C1.04447613 10.56294073 0.77486182 7.67575453 0.48291016 4.78369141 C0.34739243 3.43834824 0.34739243 3.43834824 0.20913696 2.06582642 C0.10561417 1.04324234 0.10561417 1.04324234 0 0 Z " fill="#FCA85B" transform="translate(18,291)"/>
<path d="M0 0 C1.34165437 0.00056574 2.68330936 0.00024439 4.02496338 -0.00088501 C7.62749949 -0.00145319 11.22989937 0.01021331 14.83240414 0.02426291 C18.61199673 0.03686055 22.39159327 0.03794782 26.17120361 0.04031372 C33.31069274 0.04650217 40.4501198 0.06287688 47.58958173 0.0830127 C55.72512572 0.10545427 63.86067285 0.11638579 71.99624014 0.12640357 C88.71530306 0.14724579 105.43430373 0.18236988 122.15332031 0.22705078 C122.15332031 0.88705078 122.15332031 1.54705078 122.15332031 2.22705078 C121.49332031 2.22705078 120.83332031 2.22705078 120.15332031 2.22705078 C119.90291992 2.80124756 119.65251953 3.37544434 119.39453125 3.96704102 C116.95430528 8.4102298 112.97403251 11.74226664 109.40332031 15.28955078 C108.54512695 16.14355469 107.68693359 16.99755859 106.80273438 17.87744141 C100.48088539 24.08846349 93.99531585 29.76681277 86.83935547 34.98535156 C85.10138199 36.26530133 83.39826404 37.58328516 81.69628906 38.91064453 C71.4801984 46.77896401 60.50590856 53.14347391 49.15332031 59.22705078 C48.46641113 59.59926758 47.77950195 59.97148437 47.07177734 60.35498047 C27.5484904 70.76142518 4.34630487 78.60830435 -17.515625 81.86962891 C-19.91528386 82.2375699 -22.29582322 82.67437327 -24.68261719 83.11767578 C-83.70490307 93.36515206 -148.31096223 77.86784522 -197.16064453 43.60400391 C-202.17584254 39.959345 -207.03019411 36.12884027 -211.84667969 32.22705078 C-212.41402832 31.77539551 -212.98137695 31.32374023 -213.56591797 30.85839844 C-220.82332252 25.06770773 -227.5040343 18.76196241 -234.09667969 12.22705078 C-234.84884766 11.48422852 -235.60101563 10.74140625 -236.37597656 9.97607422 C-237.07271484 9.27514648 -237.76945312 8.57421875 -238.48730469 7.85205078 C-239.42364746 6.91232422 -239.42364746 6.91232422 -240.37890625 5.95361328 C-241.84667969 4.22705078 -241.84667969 4.22705078 -242.84667969 1.22705078 C-223.30102585 -0.15264243 -202.37978796 6.88554435 -185.40917969 16.16455078 C-156.75508516 31.82953242 -125.20086343 35.8907672 -93.54199219 27.04345703 C-84.43881004 24.33772281 -76.34284901 20.53949197 -68.02978516 15.98632812 C-55.37887657 9.14443097 -42.19447173 4.63153826 -27.96277237 2.5573864 C-26.4092726 2.31487514 -24.86123734 2.0366624 -23.31747055 1.73840523 C-15.48614065 0.27119014 -7.95385768 -0.04655268 0 0 Z " fill="#FCA75B" transform="translate(316.8466796875,411.77294921875)"/>
<path d="M0 0 C5.2760913 4.68651858 10.32863236 9.6481255 15.12890625 14.8203125 C15.12890625 15.1503125 15.12890625 15.4803125 15.12890625 15.8203125 C-1.72684342 15.86717182 -18.58257257 15.90236929 -35.43837261 15.92393684 C-43.26598484 15.93422017 -51.09355644 15.94822376 -58.92114258 15.97119141 C-65.74897075 15.99121591 -72.57676947 16.00405029 -79.40462619 16.00848949 C-83.01510029 16.01108163 -86.62549019 16.01711184 -90.23593712 16.03177261 C-94.28061934 16.04806125 -98.32515807 16.04828643 -102.36987305 16.04736328 C-104.13718529 16.05814911 -104.13718529 16.05814911 -105.94020081 16.06915283 C-116.60913679 16.0429661 -126.8570888 14.50926779 -137.18359375 11.8828125 C-137.86019043 11.71168945 -138.53678711 11.54056641 -139.23388672 11.36425781 C-142.74419315 10.45471159 -146.13371578 9.42683593 -149.49609375 8.0703125 C-152.97718244 6.78102039 -155.20641834 6.23729596 -158.87109375 6.8203125 C-161.03406067 8.79033211 -161.03406067 8.79033211 -162.87109375 10.8203125 C-165.68721699 9.36323181 -168.46771617 7.84797348 -171.24609375 6.3203125 C-172.04015625 5.91039063 -172.83421875 5.50046875 -173.65234375 5.078125 C-179.50877736 1.80249264 -179.50877736 1.80249264 -180.61914062 -1.20751953 C-180.74095703 -1.91247559 -180.86277344 -2.61743164 -180.98828125 -3.34375 C-181.27960938 -4.60960937 -181.5709375 -5.87546875 -181.87109375 -7.1796875 C-184.85466638 -9.16307672 -184.85466638 -9.16307672 -188.62109375 -10.0546875 C-189.29865723 -10.24828857 -189.9762207 -10.44188965 -190.67431641 -10.64135742 C-192.73103757 -11.20430755 -194.7927013 -11.70362259 -196.87109375 -12.1796875 C-197.93585938 -12.42589844 -199.000625 -12.67210937 -200.09765625 -12.92578125 C-226.94445435 -17.75554021 -253.84559125 -13.72099461 -277.8671875 -1.23046875 C-295.080769 7.69369084 -315.16621799 16.39718868 -334.87109375 15.8203125 C-325.9721659 5.04792616 -316.00770822 -3.83101874 -304.87109375 -12.1796875 C-304.03602295 -12.81390625 -304.03602295 -12.81390625 -303.18408203 -13.4609375 C-228.41540957 -70.00681682 -125.76054631 -74.71623143 0 0 Z " fill="#FDA85B" transform="translate(415.87109375,75.1796875)"/>
<path d="M0 0 C2.13961478 2.70902529 3.7841949 5.35943192 5.26171875 8.4765625 C5.65810547 9.311875 6.05449219 10.1471875 6.46289062 11.0078125 C6.86701172 11.87148438 7.27113281 12.73515625 7.6875 13.625 C8.31108398 14.93210937 8.31108398 14.93210937 8.94726562 16.265625 C12 22.74203356 12 22.74203356 12 25 C12.66 25 13.32 25 14 25 C14.226875 24.319375 14.45375 23.63875 14.6875 22.9375 C18.97226727 13.34778278 26.18940035 8.36018832 35.71875 4.328125 C46.41783631 0.49916467 61.03457119 1.64399841 71.19921875 6.32421875 C78.86331575 10.90985001 86.27111861 17.22664632 89 26 C90.30519323 34.64690514 89.1877269 41.88818659 84 49 C77.46071949 56.5802272 68.75576181 60.95481352 59 63 C57.34010718 63.07911543 55.6773713 63.10778885 54.015625 63.09765625 C53.08105469 63.09443359 52.14648438 63.09121094 51.18359375 63.08789062 C50.21550781 63.07951172 49.24742187 63.07113281 48.25 63.0625 C46.77466797 63.05573242 46.77466797 63.05573242 45.26953125 63.04882812 C42.84629209 63.03706483 40.42317727 63.02062684 38 63 C39.24716797 64.44632813 39.24716797 64.44632813 40.51953125 65.921875 C41.61725353 67.19785987 42.71490612 68.47390469 43.8125 69.75 C44.63331055 70.70132813 44.63331055 70.70132813 45.47070312 71.671875 C48.08391179 74.71269962 50.6558129 77.74281371 53 81 C35.91809579 81.95885949 20.65582519 76.71623489 5.875 68.625 C-12.59261047 58.57071326 -35.32350497 50.40766629 -56.59375 51.140625 C-71.87759042 51.5624774 -71.87759042 51.5624774 -77.109375 47.7109375 C-79.02885828 44.94379919 -80.5735789 42.21457931 -81.96630859 39.15087891 C-83.16050862 36.66601773 -84.53408766 34.34159723 -85.95703125 31.98046875 C-87.97135948 28.63481713 -89.97180312 25.28490986 -91.91015625 21.89453125 C-92.31371338 21.19175049 -92.71727051 20.48896973 -93.13305664 19.76489258 C-94 18 -94 18 -94 16 C-92.80101074 15.98018066 -91.60202148 15.96036133 -90.36669922 15.93994141 C-85.85251366 15.86298045 -81.3386132 15.77441525 -76.82470703 15.68261719 C-74.88335868 15.64469646 -72.94194883 15.60978463 -71.00048828 15.578125 C-56.09264598 15.33209563 -41.94939244 14.53781956 -27.5625 10.25 C-26.67651123 9.9919458 -25.79052246 9.7338916 -24.87768555 9.46801758 C-16.38555342 6.93256101 -7.93985217 3.96992609 0 0 Z " fill="#FBCE59" transform="translate(135,348)"/>
<path d="M0 0 C-4.13403434 4.98204139 -8.50475038 9.56659962 -13.14453125 14.08203125 C-15.06021793 15.87004138 -15.06021793 15.87004138 -16 18 C-15.05640625 17.95359375 -14.1128125 17.9071875 -13.140625 17.859375 C-0.86312926 17.51422452 9.70103371 19.2835193 19 28 C24.76868817 33.82125025 28.12669602 38.86048424 28.5 47.25 C28.28241517 55.55606424 25.42517043 61.58982094 19.9375 67.75 C9.80933204 77.14359754 -1.99829067 78.58062124 -15.12109375 78.33203125 C-26.98495445 77.77408309 -34.93188268 72.3058519 -43 64 C-43.75152344 63.24847656 -44.50304687 62.49695313 -45.27734375 61.72265625 C-45.84582031 61.15417969 -46.41429687 60.58570313 -47 60 C-47.36738281 61.24136719 -47.36738281 61.24136719 -47.7421875 62.5078125 C-49.19193489 66.53288756 -51.0723051 70.13227714 -53.125 73.875 C-53.49753906 74.56335938 -53.87007813 75.25171875 -54.25390625 75.9609375 C-55.16499526 77.64294798 -56.08190315 79.32180436 -57 81 C-57.66193359 80.72325439 -58.32386719 80.44650879 -59.00585938 80.16137695 C-90.22777385 67.25520876 -117.57911938 65.11375233 -151 65 C-149.81100241 61.86038261 -148.53367219 59.03572402 -146.71484375 56.21484375 C-146.27221191 55.52455078 -145.82958008 54.83425781 -145.37353516 54.12304688 C-143.398695 51.1174758 -141.38799596 48.13625108 -139.38134766 45.15185547 C-138.14370019 43.22385534 -137.06285429 41.28727751 -136.01171875 39.25390625 C-133.93157486 35.66641171 -132.37239928 33.43760956 -129 31 C-123.02137101 29.49927513 -116.76594033 29.92698389 -110.65087891 30.02490234 C-90.78769736 29.83830771 -71.3037272 21.04392372 -53.81640625 12.46875 C-35.53368266 3.5226214 -20.35116459 -0.24131816 0 0 Z " fill="#FCCE59" transform="translate(196,75)"/>
<path d="M0 0 C0.92607056 -0.00960754 1.85214111 -0.01921509 2.80627441 -0.02911377 C3.81959839 -0.03336365 4.83292236 -0.03761353 5.87695312 -0.04199219 C6.92282593 -0.04769226 7.96869873 -0.05339233 9.04626465 -0.05926514 C11.27578718 -0.06874348 13.50532391 -0.07526029 15.73486328 -0.07910156 C19.08848213 -0.0886683 22.44145079 -0.11960425 25.79492188 -0.15136719 C41.37105607 -0.22953673 56.11761367 0.68948577 70.90820312 5.97363281 C71.64345215 6.2264502 72.37870117 6.47926758 73.13623047 6.73974609 C79.8519382 9.10665025 86.28418942 11.98538747 92.65820312 15.16113281 C92.2946875 16.10859375 92.2946875 16.10859375 91.92382812 17.07519531 C85.2576648 34.86872357 81.34196021 53.3748332 78.65820312 72.16113281 C126.50820312 72.16113281 174.35820312 72.16113281 223.65820312 72.16113281 C223.65820312 72.49113281 223.65820312 72.82113281 223.65820312 73.16113281 C141.81820312 73.16113281 59.97820312 73.16113281 -24.34179688 73.16113281 C-23.33647745 60.09198031 -16.89134265 0.14117068 0 0 Z " fill="#FA9537" transform="translate(41.341796875,154.8388671875)"/>
<path d="M0 0 C19.54565383 -1.37969321 40.46689172 5.65849357 57.4375 14.9375 C82.25981719 28.5076773 105.13923269 30.55813125 133 30 C133 30.99 133 31.98 133 33 C135.17655407 35.40550911 137.86767687 37.27991997 140.4375 39.25 C141.23518799 39.86335205 142.03287598 40.4767041 142.85473633 41.10864258 C165.84182857 58.35934585 191.69475464 71.23719946 219 80 C209.96695704 86.02202864 194.26829213 84.36666546 183.6875 84.3125 C182.9052002 84.31001251 182.12290039 84.30752502 181.31689453 84.30496216 C126.18115082 84.03579928 73.88353631 65.73954779 31 31 C30.43265137 30.54834473 29.86530273 30.09668945 29.28076172 29.63134766 C22.02335717 23.84065695 15.34264539 17.53491163 8.75 11 C7.99783203 10.25717773 7.24566406 9.51435547 6.47070312 8.74902344 C5.77396484 8.0480957 5.07722656 7.34716797 4.359375 6.625 C3.42303223 5.68527344 3.42303223 5.68527344 2.46777344 4.7265625 C1 3 1 3 0 0 Z " fill="#FC9537" transform="translate(74,413)"/>
<path d="M0 0 C33.99 0 67.98 0 103 0 C104.32 6.6 105.64 13.2 107 20 C109.56465952 31.62506523 109.56465952 31.62506523 113 43 C103.833127 47.51370233 94.88298956 51.26935632 85 54 C83.824375 54.37125 82.64875 54.7425 81.4375 55.125 C72.18415254 57.48039754 63.1971423 58.28863321 53.671875 58.1953125 C51.99934662 58.19106766 51.99934662 58.19106766 50.29302979 58.18673706 C46.77857105 58.17566202 43.26437995 58.15058194 39.75 58.125 C37.34765997 58.11495379 34.94531588 58.10583084 32.54296875 58.09765625 C26.69522326 58.07576442 20.84763076 58.04241595 15 58 C14.69126953 57.14752686 14.38253906 56.29505371 14.06445312 55.41674805 C13.64099609 54.31371338 13.21753906 53.21067871 12.78125 52.07421875 C12.36939453 50.97424561 11.95753906 49.87427246 11.53320312 48.7409668 C10.28273373 45.84205555 10.28273373 45.84205555 7.72241211 45.05395508 C6.98901611 44.9742749 6.25562012 44.89459473 5.5 44.8125 C3.16015625 44.375 3.16015625 44.375 1 43 C-1.6754508 37.74543215 -2.76838953 31.72482255 -4 26 C-3.18273438 25.45601563 -2.36546875 24.91203125 -1.5234375 24.3515625 C1.22020668 22.25560282 1.22020668 22.25560282 1.5234375 19.3359375 C1.47445313 18.35882813 1.42546875 17.38171875 1.375 16.375 C1.32472656 14.93253906 1.32472656 14.93253906 1.2734375 13.4609375 C0.91845914 8.96792571 0.44846454 4.48464538 0 0 Z " fill="#FD9637" transform="translate(18,291)"/>
<path d="M0 0 C0 0.33 0 0.66 0 1 C-0.60730957 1.10376953 -1.21461914 1.20753906 -1.84033203 1.31445312 C-8.12694172 2.46866839 -13.92282929 4.18796207 -19.875 6.5 C-21.22911987 7.02339966 -21.22911987 7.02339966 -22.6105957 7.55737305 C-44.04162505 16.03548006 -64.12649304 27.44224963 -82 42 C-81.67 42.66 -81.34 43.32 -81 44 C-81.65121826 43.92998779 -82.30243652 43.85997559 -82.97338867 43.7878418 C-110.09591967 41.07150579 -134.69088193 43.3112211 -158.99609375 55.94921875 C-176.20967525 64.87337834 -196.29512424 73.57687618 -216 73 C-207.10107215 62.22761366 -197.13661447 53.34866876 -186 45 C-185.1649292 44.36578125 -185.1649292 44.36578125 -184.31298828 43.71875 C-132.15830692 4.27532776 -64.20165914 -11.08517856 0 0 Z " fill="#FB9537" transform="translate(297,18)"/>
<path d="M0 0 C6.07230828 5.01186359 12.00208982 11.0242667 12.9765625 19.1015625 C13.40742727 28.78468122 11.0059083 35.70445833 4.5625 42.9375 C-5.56566796 52.33109754 -17.37329067 53.76812124 -30.49609375 53.51953125 C-40.90230543 53.03013519 -48.93701884 48.83526958 -56.2734375 41.55859375 C-62.50922767 34.52304611 -64.18281689 28.98115439 -63.78515625 19.48828125 C-62.7400614 11.07775602 -57.94688101 5.3367121 -51.375 0.1875 C-35.89928781 -9.0658117 -15.363769 -10.77196586 0 0 Z " fill="#040301" transform="translate(211.375,99.8125)"/>
<path d="M0 0 C7.664097 4.58563126 15.07189986 10.90242757 17.80078125 19.67578125 C19.10597448 28.32268639 17.98850815 35.56396784 12.80078125 42.67578125 C6.21767864 50.30680632 -2.42591995 54.52129141 -12.19921875 56.67578125 C-25.410354 57.47447228 -36.71864273 57.01666482 -47.41796875 48.3125 C-52.88290793 43.29098791 -57.65268581 37.92002804 -58.6328125 30.30859375 C-58.64419638 20.08587163 -56.88129252 14.34823381 -50.19921875 6.67578125 C-47.68359375 4.76171875 -47.68359375 4.76171875 -44.94921875 3.05078125 C-44.0571875 2.48101562 -43.16515625 1.91125 -42.24609375 1.32421875 C-29.59905756 -5.51815211 -13.14872622 -6.05421246 0 0 Z " fill="#040301" transform="translate(206.19921875,354.32421875)"/>
<path d="M0 0 C5.88764362 4.29960029 11.43001201 9.8546851 13.0625 17.1875 C14.06256783 25.76585963 13.41467649 32.27709491 8.0625 39.1875 C2.31598903 46.23161022 -5.14491393 50.87526283 -13.9375 53.1875 C-25.6827811 54.37387969 -37.63506525 54.53259758 -47.9375 48.1875 C-48.70191406 47.71828125 -49.46632813 47.2490625 -50.25390625 46.765625 C-56.40629337 42.55072995 -60.54994981 37.26637689 -62.9375 30.1875 C-64.01411284 21.33674094 -62.6988565 13.63650326 -57.60546875 6.2578125 C-43.37316892 -9.95619996 -17.4990503 -10.87857627 0 0 Z " fill="#030301" transform="translate(402.9375,235.8125)"/>
<path d="M0 0 C33.99 0 67.98 0 103 0 C103.33 10.56 103.66 21.12 104 32 C150.86 32 197.72 32 246 32 C246 32.33 246 32.66 246 33 C165.15 33 84.3 33 1 33 C-1.15826774 22.20866128 0 11.00504935 0 0 Z " fill="#FBCE59" transform="translate(15,243)"/>
<path d="M0 0 C7.05347397 4.57960418 7.05347397 4.57960418 8.87109375 8.21484375 C9.4385687 12.32903715 9.71324085 14.80793332 7.5546875 18.4140625 C3.4896255 23.33396976 -0.80229257 26.60771332 -7.24975586 27.51245117 C-9.53017815 27.65220199 -11.78202962 27.67354893 -14.06640625 27.65234375 C-14.82630859 27.67232422 -15.58621094 27.69230469 -16.36914062 27.71289062 C-23.58595478 27.70672768 -28.7129121 25.37381724 -34.06640625 20.58984375 C-36.99780316 17.21429579 -37.60952041 14.90293421 -37.52734375 10.375 C-36.62888943 5.50396823 -33.14682352 2.63999782 -29.25390625 -0.109375 C-20.56344487 -4.80024904 -8.67006852 -4.60546173 0 0 Z " fill="#FAA65A" transform="translate(392.12890625,246.78515625)"/>
<path d="M0 0 C0.7943042 0.00499512 1.5886084 0.00999023 2.40698242 0.01513672 C8.66059012 0.20131332 13.30582455 1.29980121 18.125 5.5 C18.66640625 5.96921875 19.2078125 6.4384375 19.765625 6.921875 C22.33125592 9.54389341 23.11639241 11.43867089 23.625 15.0625 C22.92508296 19.87442962 21.39254445 22.2686711 17.9375 25.625 C9.79495699 31.053362 1.75020051 31.5762355 -7.875 30.5 C-14.32777827 28.54410607 -19.43880774 25.34152684 -22.875 19.5 C-23.71756468 15.14674914 -23.84517612 13.09040602 -21.54296875 9.31640625 C-15.55014963 1.94375067 -9.21565273 -0.075801 0 0 Z " fill="#FBA75A" transform="translate(185.875,365.5)"/>
<path d="M0 0 C3.15654305 2.30670454 4.99573982 4.09185803 7.03125 7.484375 C7.57325349 11.34614989 7.41755645 13.6101025 5.84375 17.171875 C2.25527254 21.75027727 -2.25228927 25.15785072 -7.96875 26.484375 C-17.73300274 27.40636929 -26.97840114 27.24531625 -34.91015625 20.94140625 C-37.73640013 18.07581791 -39.3573356 15.5385017 -39.71875 11.484375 C-39.3203883 6.59970181 -36.58108641 3.57949052 -32.96875 0.484375 C-23.20523141 -5.37373615 -9.84921325 -5.84386653 0 0 Z " fill="#FBA75B" transform="translate(201.96875,111.515625)"/>
</svg>
